<REAPER_PROJECT 0.1 "6.15/x64" 1604858887
  RIPPLE 0
  GROUPOVERRIDE 0 0 0
  AUTOXFADE 1
  ENVATTACH 1
  POOLEDENVATTACH 0
  MIXERUIFLAGS 11 48
  PEAKGAIN 1
  FEEDBACK 0
  PANLAW 1
  PROJOFFS 0 0 0
  MAXPROJLEN 0 600
  GRID 3199 8 1 8 1 0 0 0
  TIMEMODE 1 5 -1 30 0 0 -1
  VIDEO_CONFIG 0 0 256
  PANMODE 3
  CURSOR 20
  ZOOM 12.85911208940568 0 0
  VZOOMEX 4 0
  USE_REC_CFG 0
  RECMODE 1
  SMPTESYNC 0 30 100 40 1000 300 0 0 1 0 0
  LOOP 1
  LOOPGRAN 0 4
  RECORD_PATH "" ""
  <RECORD_CFG
    ZXZhdxgAAA==
  >
  <APPLYFX_CFG
  >
  RENDER_FILE "C:\Users\tomas\Desktop\Tesis para Pellizzari\Desarrollo\Marty (guitarra)\Exports Crudos\Marty - Variación rítmica 2 - Tramo 3.wav"
  RENDER_FMT 0 2 48000
  RENDER_1X 0
  RENDER_RANGE 2 0 0 18 1000
  RENDER_RESAMPLE 3 0 1
  RENDER_ADDTOPROJ 0
  RENDER_STEMS 0
  RENDER_DITHER 0
  TIMELOCKMODE 1
  TEMPOENVLOCKMODE 1
  ITEMMIX 0
  DEFPITCHMODE 589824 0
  TAKELANE 1
  SAMPLERATE 48000 0 0
  <RENDER_CFG
    ZXZhdxgAAA==
  >
  LOCK 1
  <METRONOME 6 2
    VOL 0.25 0.125
    FREQ 800 1600 1
    BEATLEN 4
    SAMPLES "" ""
    PATTERN 2863311530 2863311529
  >
  GLOBAL_AUTO -1
  TEMPO 120 4 4
  PLAYRATE 1 0 0.25 4
  SELECTION 29 42.5
  SELECTION2 29 42.5
  MASTERAUTOMODE 0
  MASTERTRACKHEIGHT 0 0
  MASTERPEAKCOL 16576
  MASTERMUTESOLO 0
  MASTERTRACKVIEW 0 0.6667 0.5 0.5 -1 -1 -1 0 0 0 -1 -1 0
  MASTERHWOUT 0 0 1 0 0 0 0 -1
  MASTER_NCH 2 2
  MASTER_VOLUME 1 0 -1 -1 1
  MASTER_FX 1
  MASTER_SEL 0
  <MASTERPLAYSPEEDENV
    EGUID {02A0D6E2-7D57-4C30-A18C-4DA0125EBB46}
    ACT 0 -1
    VIS 0 1 1
    LANEHEIGHT 0 0
    ARM 0
    DEFSHAPE 0 -1 -1
  >
  <TEMPOENVEX
    EGUID {F47F7E0C-B57B-4975-8C2D-F7E43F6E938A}
    ACT 1 -1
    VIS 1 0 1
    LANEHEIGHT 0 0
    ARM 0
    DEFSHAPE 1 -1 -1
    PT 0.000000000000 120.0000000000 1 262148 0 9 0 "" 2863311530 2863311529
    PT 2.000000000000 160.0000000000 1
  >
  <PROJBAY
  >
  <TRACK {A4983019-3FED-4442-978A-805E7C6E700D}
    NAME "Base Rítmica 1 (sin palm mute)"
    PEAKCOL 16576
    BEAT -1
    AUTOMODE 0
    VOLPAN 1 0 -1 -1 1
    MUTESOLO 0 0 0
    IPHASE 0
    PLAYOFFS 0 1
    ISBUS 0 0
    BUSCOMP 0 0 0 0 0
    SHOWINMIX 1 0.6667 0.5 1 0.5 -1 -1 -1
    FREEMODE 0
    SEL 0
    REC 0 0 1 0 0 0 0
    VU 2
    TRACKHEIGHT 0 0 0 0 -1 0
    INQ 0 0 0 0.5 100 0 0 100
    NCHAN 2
    FX 1
    TRACKID {A4983019-3FED-4442-978A-805E7C6E700D}
    PERF 0
    MIDIOUT -1
    MAINSEND 1 0
    <FXCHAIN
      WNDRECT 24 52 506 258
      SHOW 0
      LASTSEL 0
      DOCKED 0
      BYPASS 0 0 0
      <VST "VSTi: FM8 (Native Instruments GmbH)" FM8.dll 0 "" 1315530296<5653544E696638666D38202878383629> ""
        OGZpTu5e7f4AAAAAAgAAAAEAAAAAAAAAAgAAAAAAAABxIgAAAQAAAAAAEAA=
        cSIAAAAAAAABAAAAaHNpbgEAAAAAAAAAtobcUMQp00ys2xunT/VcXpYAAAAAAAAARFNJTnYAAAABAAAASAAAAAAAAABEU0lOagAAAAEAAAAYAAAAAAAAAERTSU4BAAAA
        AQAAAAEAAAABAAAAAQAAAAEAAAAAAAAAAAAAAAAAAAANYmWFAQAAAANwEAAAAAAAAQAAAAEAAAAAAAAAAAAAAAAAAAADAAAAMAAwADAAAAAAAAAAAAAAAAAAAAAAAAEA
        AAABAAAAAAAAAERTSU5lAAAAnyEAAAAAAAABAAAAaHNpbgEAAAAAAAAAk2LmMfvQG0yafYDm9m9BlW0AAAAAAAAARFNJTmUAAAABAAAANAAAAAAAAABEU0lOagAAAAEA
        AAAYAAAAAAAAAERTSU4BAAAAAQAAAAEAAAABAAAAAgAAAAEAAAAACAAAAAEAAAAKAAAAMQAuADIALgAwAC4AMQAwADEAMAABAAAAAwAAAAAAAABEU0lObAAAADQDAAAA
        AAAAAQAAAGhzaW4BAAAAAAAAAEPySaikdwBNqY3YM9NCgmIEAwAAAAAAAERTSU5sAAAAAQAAABgAAAAAAAAARFNJTgEAAAABAAAAAQAAAAEAAAACAAAAAQAAAAAAAAAO
        AAAAQwByAHUAbgBjAGgAIABDAHIAdQBzAGgAZQByAAwAAABBAG4AZAByAGUAIABFAHQAdABlAG0AYQASAAAATgBhAHQAaQB2AGUAIABJAG4AcwB0AHIAdQBtAGUAbgB0
        AHMAQAAAAFUAcwBlACAATQBvAHIAcABoACAAUwBxAHUAYQByAGUAIAB0AG8AIABnAGUAdAAgAHQAaABlACAAcwBvAHUAbgBkACAAbwBmACAAZABpAGYAZgBlAHIAZQBu
        AHQAIABhAG0AcAAgAHMAaQBtAHUAbABhAHQAaQBvAG4AcwAuACAAAAAAAP////8AAAAAAAAAAAAAAAAAAAAAAAAAAAEAAAABAAAAAgAAAAMAAABGAE0AOAALAAAARgBN
        ADgAIABGAGEAYwB0AG8AcgB5AAcAAAALAAAAQQByAHAAZQBnAGcAaQBhAHQAZQBkABIAAABEAGkAcwB0AG8AcgB0AGUAZAAgAEUALQBHAHUAaQB0AGEAcgAGAAAARwB1
        AGkAdABhAHIACQAAAFAAcgBvAGMAZQBzAHMAZQBkAA0AAABTAGUAcQB1AGUAbgBjAGUALwBMAG8AbwBwAAkAAABTAHkAbgB0AGgAZQB0AGkAYwAMAAAAVABlAG0AcABv
        AC0AcwB5AG4AYwBlAGQAAAAAAAcAAAAHAAAAXABAAGMAbwBsAG8AcgABAAAAMAARAAAAXABAAGQAZQB2AGkAYwBlAHQAeQBwAGUAZgBsAGEAZwBzAAEAAAAxAAsAAABc
        AEAAcwBvAHUAbgBkAHQAeQBwAGUAAQAAADAABwAAAFwAQAB0AGUAbQBwAG8AAQAAADAABgAAAFwAQAB2AGUAcgBsAAUAAAAxAC4ANwAuADMABgAAAFwAQAB2AGUAcgBt
        AAUAAAAxAC4ANwAuADMABwAAAFwAQAB2AGkAcwBpAGIAAQAAADAAAQAAAAAAAAACAAAARFNJTnkAAAAQFwAAAAAAAAEAAABoc2luAQAAAAAAAADhv9+3I90KSKBFccCi
        AbOy4BYAAAAAAABEU0lOeQAAAAEAAAAYAAAAAAAAAERTSU4BAAAAAQAAAAEAAAABAAAAAQAAABkAAAABAAAABgAAAAYAAABUAGkAbQBiAHIAZQABAAAACAAAAEgAYQBy
        AG0AbwBuAGkAYwAAAAAAAACAPwIAAAABAAAAAQAAAAYAAABEAGUAdAB1AG4AZQAAAAAAAACAPwMAAAACAAAAAQAAAAoAAABCAHIAaQBnAGgAdABuAGUAcwBzAAAAAAAA
        AIA/AQAAAAMAAAABAAAABwAAAEUAbgB2ACAAQQBtAHQAAAAAAAAAgD8EAAAABAAAAAEAAAAIAAAAVgBlAGwAbwBjAGkAdAB5AAAAAAAAAIA/BQAAAAUAAAABAAAADgAA
        ADwAewBbAGEAdQB0AG8AbgBhAG0AZQBdAH0APgAAAAAAAACAP/////8GAAAAAQAAAAIAAAACAAAARgBYAAEAAAAGAAAAQQBtAG8AdQBuAHQAAAAAAAAAgD8aAAAAAQAA
        AAEAAAAOAAAAPAB7AFsAYQB1AHQAbwBuAGEAbQBlAF0AfQA+AAAAAAAAAIA//////wIAAAABAAAABAAAAAgAAABUAGkAbQBiACAARQBuAHYAAQAAAAYAAABBAHQAdABh
        AGMAawAAAAAAAACAPwYAAAABAAAAAQAAAAUAAABEAGUAYwBhAHkAAAAAAAAAgD8HAAAAAgAAAAEAAAAHAAAAUwB1AHMAdABhAGkAbgAAAAAAAACAPwgAAAADAAAAAQAA
        AAcAAABSAGUAbABlAGEAcwBlAAAAAAAAAIA/CQAAAAQAAAABAAAABAAAAAcAAABBAG0AcAAgAEUAbgB2AAEAAAAHAAAAQQB0AHQAYQBjAGsAIAAAAAAAAACAPxEAAAAB
        AAAAAQAAAAUAAABEAGUAYwBhAHkAAAAAAAAAgD8SAAAAAgAAAAEAAAAHAAAAUwB1AHMAdABhAGkAbgAAAAAAAACAPxMAAAADAAAAAQAAAAcAAABSAGUAbABlAGEAcwBl
        AAAAAAAAAIA/FAAAAAQAAAABAAAABAAAAAYAAABPAHUAdABwAHUAdAABAAAABgAAAFYAbwBsAHUAbQBlAAAAAAAAAIA/DgAAAAEAAAABAAAACAAAAFYAZQBsAG8AYwBp
        AHQAeQAAAAAAAACAPxAAAAACAAAAAQAAAAkAAABTAHQAcgAgAFcAaQBkAHQAaAAAAAAAAACAPw8AAAADAAAAAQAAAA4AAAA8AHsAWwBhAHUAdABvAG4AYQBtAGUAXQB9
        AD4AAAAAAAAAgD//////BAAAAAEAAAAEAAAAAwAAAEwARgBPAAEAAAAEAAAAUgBhAHQAZQAAAAAAAACAPwoAAAABAAAAAQAAAAcAAABWAGkAYgByAGEAdABvAAAAAAAA
        AIA/CwAAAAIAAAABAAAABgAAAFQAaQBtAGIAcgBlAAAAAAAAAIA/DAAAAAMAAAABAAAABwAAAFQAcgBlAG0AbwBsAG8AAAAAAAAAgD8NAAAABAAAAAEAAAAEAAAAAwAA
        AEEAcgBwAAEAAAAGAAAATwBuAC8ATwBmAGYAAAAAAAAAgD+IAAAAAQAAAAEAAAAEAAAAUwB0AGUAcAAAAAAAAACAP5UAAAACAAAAAQAAAAQAAABHAGEAdABlAAAAAAAA
        AIA/iQAAAAMAAAABAAAABwAAAFMAaAB1AGYAZgBsAGUAAAAAAAAAgD+NAAAABAAAAAEAAAAEAAAABQAAAE0AbwByAHAAaAABAAAAAQAAAFgAAAAAAAAAgD8VAAAAAQAA
        AAEAAAABAAAAWQAAAAAAAACAPxYAAAACAAAAAQAAAAUAAABSAG4AZAAgAFgAAAAAAAAAgD8XAAAAAwAAAAEAAAAFAAAAUgBuAGQAIABZAAAAAAAAAIA/GAAAAAQAAAAB
        AAAAAgAAAAYAAABNAGEAcwB0AGUAcgABAAAABgAAAE8AdQB0AHAAdQB0AAAAAAAAAIA/dAAAAAEAAAABAAAABQAAAEkAbgBwAHUAdAAAAAAAAACAP3UAAAACAAAAAQAA
        AAIAAAAFAAAAUABpAHQAYwBoAAEAAAAEAAAAVAB1AG4AZQAAAAAAAACAP3YAAAABAAAAAQAAAAkAAABUAHIAYQBuAHMAcABvAHMAZQAAAAAAAACAP3cAAAACAAAAAQAA
        AAEAAAAGAAAAVQBuAGkAcwBvAG4AAQAAAAYAAABEAGUAdAB1AG4AZQAAAAAAAACAP3kAAAABAAAAAQAAAAEAAAAFAAAARwBsAGkAZABlAAEAAAAEAAAAVABpAG0AZQAA
        AAAAAACAP38AAAABAAAAAQAAAAIAAAAHAAAAUQB1AGEAbABpAHQAeQABAAAABgAAAEEAbgBhAGwAbwBnAAAAAAAAAIA/gAAAAAEAAAABAAAABwAAAEQAaQBnAGkAdABh
        AGwAAAAAAAAAgD+EAAAAAgAAAAEAAAAIAAAABQAAAEQAcgBpAHYAZQABAAAABgAAAE8AbgAvAE8AZgBmAAAAAAAAAIA/HgAAAAEAAAABAAAABQAAAEQAcgBpAHYAZQAA
        AAAAAACAPx8AAAACAAAAAQAAAAQAAABUAG8AbgBlAAAAAAAAAIA/IAAAAAMAAAABAAAABAAAAEIAYQBzAHMAAAAAAAAAgD8hAAAABAAAAAEAAAAHAAAAVgBvAGwAdQBt
        AGUAIAAAAAAAAACAPyIAAAAFAAAAAQAAAA4AAAA8AHsAWwBhAHUAdABvAG4AYQBtAGUAXQB9AD4AAAAAAAAAgD//////BgAAAAEAAAAOAAAAPAB7AFsAYQB1AHQAbwBu
        AGEAbQBlAF0AfQA+AAAAAAAAAIA//////wcAAAABAAAADgAAADwAewBbAGEAdQB0AG8AbgBhAG0AZQBdAH0APgAAAAAAAACAP/////8IAAAAAQAAAAgAAAAEAAAAVAB1
        AGIAZQABAAAABgAAAE8AbgAvAE8AZgBmAAAAAAAAAIA/IwAAAAEAAAABAAAABgAAAFYAbwBsAHUAbQBlAAAAAAAAAIA/JQAAAAIAAAABAAAABQAAAEQAcgBpAHYAZQAA
        AAAAAACAPyQAAAADAAAAAQAAAA4AAAA8AHsAWwBhAHUAdABvAG4AYQBtAGUAXQB9AD4AAAAAAAAAgD//////BAAAAAEAAAAOAAAAPAB7AFsAYQB1AHQAbwBuAGEAbQBl
        AF0AfQA+AAAAAAAAAIA//////wUAAAABAAAADgAAADwAewBbAGEAdQB0AG8AbgBhAG0AZQBdAH0APgAAAAAAAACAP/////8GAAAAAQAAAA4AAAA8AHsAWwBhAHUAdABv
        AG4AYQBtAGUAXQB9AD4AAAAAAAAAgD//////BwAAAAEAAAAOAAAAPAB7AFsAYQB1AHQAbwBuAGEAbQBlAF0AfQA+AAAAAAAAAIA//////wgAAAABAAAACAAAAAcAAABD
        AGEAYgBpAG4AZQB0AAEAAAAGAAAATwBuAC8ATwBmAGYAAAAAAAAAgD8mAAAAAQAAAAEAAAAEAAAAVAB5AHAAZQAAAAAAAACAPycAAAACAAAAAQAAAAQAAABTAGkAegBl
        AAAAAAAAAIA/KAAAAAMAAAABAAAAAwAAAEEAaQByAAAAAAAAAIA/KQAAAAQAAAABAAAABAAAAEIAYQBzAHMAAAAAAAAAgD8qAAAABQAAAAEAAAAGAAAAVAByAGUAYgBs
        AGUAAAAAAAAAgD8rAAAABgAAAAEAAAAOAAAAPAB7AFsAYQB1AHQAbwBuAGEAbQBlAF0AfQA+AAAAAAAAAIA//////wcAAAABAAAADgAAADwAewBbAGEAdQB0AG8AbgBh
        AG0AZQBdAH0APgAAAAAAAACAP/////8IAAAAAQAAAAgAAAAIAAAAUwBoAGUAbABmACAARQBRAAEAAAAGAAAATwBuAC8ATwBmAGYAAAAAAAAAgD8sAAAAAQAAAAEAAAAE
        AAAATABQACAAWAAAAAAAAACAPy0AAAACAAAAAQAAAAQAAABMAFAAIABZAAAAAAAAAIA/LgAAAAMAAAABAAAABAAAAEgAUAAgAFgAAAAAAAAAgD8vAAAABAAAAAEAAAAE
        AAAASABQACAAWAAAAAAAAACAPzAAAAAFAAAAAQAAAAYAAABWAG8AbAB1AG0AZQAAAAAAAACAPzEAAAAGAAAAAQAAAA4AAAA8AHsAWwBhAHUAdABvAG4AYQBtAGUAXQB9
        AD4AAAAAAAAAgD//////BwAAAAEAAAAOAAAAPAB7AFsAYQB1AHQAbwBuAGEAbQBlAF0AfQA+AAAAAAAAAIA//////wgAAAABAAAACAAAAAcAAABQAGUAYQBrACAARQBR
        AAEAAAAGAAAATwBuAC8ATwBmAGYAAAAAAAAAgD8yAAAAAQAAAAEAAAAIAAAAUABlAGEAawAgADEAIABYAAAAAAAAAIA/MwAAAAIAAAABAAAACAAAAFAAZQBhAGsAIAAx
        ACAAWQAAAAAAAACAPzQAAAADAAAAAQAAAAgAAABQAGUAYQBrACAAMgAgAFgAAAAAAAAAgD82AAAABAAAAAEAAAAJAAAAUABlAGEAawAgADIAIABZACAAAAAAAAAAgD83
        AAAABQAAAAEAAAACAAAAUQAxAAAAAAAAAIA/NQAAAAYAAAABAAAAAgAAAFEAMgAAAAAAAACAPzgAAAAHAAAAAQAAAAYAAABWAG8AbAB1AG0AZQAAAAAAAACAPzkAAAAI
        AAAAAQAAAAgAAAAIAAAAVABhAGwAawAgAFcAYQBoAAEAAAAGAAAATwBuAC8ATwBmAGYAAAAAAAAAgD86AAAAAQAAAAEAAAAFAAAATQBvAHUAdABoAAAAAAAAAIA/OwAA
        AAIAAAABAAAACAAAAE0AbwBkAHcAaABlAGUAbAAAAAAAAACAPzwAAAADAAAAAQAAAAQAAABTAGkAegBlAAAAAAAAAIA/PQAAAAQAAAABAAAABgAAAEIAcgBpAGcAaAB0
        AAAAAAAAAIA/PgAAAAUAAAABAAAADgAAADwAewBbAGEAdQB0AG8AbgBhAG0AZQBdAH0APgAAAAAAAACAP/////8GAAAAAQAAAA4AAAA8AHsAWwBhAHUAdABvAG4AYQBt
        AGUAXQB9AD4AAAAAAAAAgD//////BwAAAAEAAAAOAAAAPAB7AFsAYQB1AHQAbwBuAGEAbQBlAF0AfQA+AAAAAAAAAIA//////wgAAAABAAAACAAAAAYAAABQAGgAYQBz
        AGUAcgABAAAABgAAAE8AbgAvAE8AZgBmAAAAAAAAAIA/PwAAAAEAAAABAAAABAAAAFIAYQB0AGUAAAAAAAAAgD9AAAAAAgAAAAEAAAAHAAAATgBvAHQAYwBoAGUAcwAA
        AAAAAACAP0gAAAADAAAAAQAAAAUAAABDAG8AbABvAHIAAAAAAAAAgD9BAAAABAAAAAEAAAAJAAAAUwB3AGUAZQBwACAATQBpAG4AAAAAAAAAgD9DAAAABQAAAAEAAAAJ
        AAAAUwB3AGUAZQBwACAATQBhAHgAAAAAAAAAgD9EAAAABgAAAAEAAAAGAAAAUgBvAHQAYQB0AGUAAAAAAAAAgD9CAAAABwAAAAEAAAAHAAAARAByAHkALwBXAGUAdAAA
        AAAAAACAP0YAAAAIAAAAAQAAAAgAAAAHAAAARgBsAGEAbgBnAGUAcgABAAAABgAAAE8AbgAvAE8AZgBmAAAAAAAAAIA/SQAAAAEAAAABAAAABAAAAFIAYQB0AGUAAAAA
        AAAAgD9KAAAAAgAAAAEAAAAEAAAAUwB5AG4AYwAAAAAAAACAP08AAAADAAAAAQAAAAYAAABTAHQAYQB0AGkAYwAAAAAAAACAP0sAAAAEAAAAAQAAAAUAAABEAGUAcAB0
        AGgAAAAAAAAAgD9MAAAABQAAAAEAAAAFAAAAQwBvAGwAbwByAAAAAAAAAIA/TQAAAAYAAAABAAAABgAAAFIAbwB0AGEAdABlAAAAAAAAAIA/TgAAAAcAAAABAAAABwAA
        AEQAcgB5AC8AVwBlAHQAAAAAAAAAgD9RAAAACAAAAAEAAAAIAAAABwAAAFQAcgBlAG0AbwBsAG8AAQAAAAYAAABPAG4ALwBPAGYAZgAAAAAAAACAP1IAAAABAAAAAQAA
        AAQAAABSAGEAdABlAAAAAAAAAIA/UwAAAAIAAAABAAAABAAAAFMAeQBuAGMAAAAAAAAAgD9VAAAAAwAAAAEAAAAJAAAASQBuAHQAZQBuAHMAaQB0AHkAAAAAAAAAgD9U
        AAAABAAAAAEAAAAGAAAAUwB0AGUAcgBlAG8AAAAAAAAAgD9WAAAABQAAAAEAAAAFAAAAVwBpAGQAdABoAAAAAAAAAIA/VwAAAAYAAAABAAAABgAAAEEAdAB0AGEAYwBr
        AAAAAAAAAIA/WAAAAAcAAAABAAAABQAAAEQAZQBjAGEAeQAAAAAAAACAP1kAAAAIAAAAAQAAAAgAAAAGAAAAUgBlAHYAZQByAGIAAQAAAAYAAABPAG4ALwBPAGYAZgAA
        AAAAAACAP1oAAAABAAAAAQAAAAQAAABUAGkAbQBlAAAAAAAAAIA/XQAAAAIAAAABAAAABgAAAEIAcgBpAGcAaAB0AAAAAAAAAIA/XAAAAAMAAAABAAAABgAAAFQAcgBl
        AGIAbABlAAAAAAAAAIA/XgAAAAQAAAABAAAABwAAAEQAcgB5AC8AVwBlAHQAAAAAAAAAgD9bAAAABQAAAAEAAAAOAAAAPAB7AFsAYQB1AHQAbwBuAGEAbQBlAF0AfQA+
        AAAAAAAAAIA//////wYAAAABAAAADgAAADwAewBbAGEAdQB0AG8AbgBhAG0AZQBdAH0APgAAAAAAAACAP/////8HAAAAAQAAAA4AAAA8AHsAWwBhAHUAdABvAG4AYQBt
        AGUAXQB9AD4AAAAAAAAAgD//////CAAAAAEAAAAIAAAACQAAAFAAcwB5ACAARABlAGwAYQB5AAEAAAAGAAAATwBuAC8ATwBmAGYAAAAAAAAAgD9fAAAAAQAAAAEAAAAE
        AAAAVABpAG0AZQAAAAAAAACAP2EAAAACAAAAAQAAAAgAAABGAGUAZQBkAGIAYQBjAGsAAAAAAAAAgD9kAAAAAwAAAAEAAAAHAAAAUgBlAHYAZQByAHMAZQAAAAAAAACA
        P2IAAAAEAAAAAQAAAAYAAABTAHQAZQByAGUAbwAAAAAAAACAP2cAAAAFAAAAAQAAAAYAAABEAGUAdAB1AG4AZQAAAAAAAACAP2MAAAAGAAAAAQAAAAUAAABQAGkAdABj
        AGgAAAAAAAAAgD9lAAAABwAAAAEAAAAHAAAARAByAHkALwBXAGUAdAAAAAAAAACAP2AAAAAIAAAAAQAAAAgAAAAJAAAAQwBoAHIAIABEAGUAbABhAHkAAQAAAAYAAABP
        AG4ALwBPAGYAZgAAAAAAAACAP28AAAABAAAAAQAAAAQAAABUAGkAbQBlAAAAAAAAAIA/aAAAAAIAAAABAAAABgAAAEwAbwAgAEMAdQB0AAAAAAAAAIA/bQAAAAMAAAAB
        AAAABgAAAEgAaQAgAEMAdQB0AAAAAAAAAIA/bAAAAAQAAAABAAAACAAAAEYAZQBlAGQAYgBhAGMAawAAAAAAAACAP2sAAAAFAAAAAQAAAAgAAABNAG8AZAAgAFIAYQB0
        AGUAAAAAAAAAgD9xAAAABgAAAAEAAAAJAAAATQBvAGQAIABEAGUAcAB0AGgAAAAAAAAAgD9qAAAABwAAAAEAAAAHAAAARAByAHkALwBXAGUAdAAAAAAAAACAP3AAAAAI
        AAAAAQAAAAAAAAABAAAARFNJTnQAAACaBgAAAAAAAAEAAABoc2luAQAAAAAAAABfAjRqxWnsToleTuDmPxvIagYAAAAAAABEU0lOdAAAAAEAAABRBgAAAAAAAERTSU5z
        AAAAAQAAABgAAAAAAAAARFNJTgEAAAABAAAAAQAAAAEAAAABmBAAABgGAAACmBAAYAAAASAFA2hzaW5AB0AAEMi6ABcODQlDrNzYancP+McYQBQgAANEU0lOQCPgBwNA
        AEAbAG0gCAFEECAEIABAI+ADUxB1oWnz+VgsSrdZ344DzJatFKAnwDdAL+AXZ0AjAcwPIFwgAAAFIAMBPg0gBCAACHRzcnBFOE1GzyALA7wjAABAIg5GdWxsIEJsYXN0
        IExlYWRAbRBBbmdyeSBEaXN0b3J0aW9uCyAuBUNob3J1c2AiQEwMUmh5dGhtIEd1aXRhciAeIAAE+EEAAHAgAwAAIAMCgD8A4BAAAkhCAOAQH2A3A0AAAAwgIwAsIANg
        D+ACAGAPIB8AiCAbQABgD+AEAA5SuF4+ZMz9Pv1llz4AABAghwiAP+CcMT8mwlZgCxIAAMBAzcyGwXJokT4M12/BCGbmICcEAADNzMxABwM/mpkZICMAAKADBIA/WxG0
        YBcG2or9PlkgKWAfBm+BND/UCQhAI0AA4AcHAwDKMiQgE0BrwACACwSuR+E9AIAAIMMEAABUUicgJwwAAHL5Hz/KMqQ+OQpP4QA7Ai5ug0B3BwALJBg/exSuIAuAQwr4
        wgQ/QKS/PutROGA7AylcDz9AIwIsQyxAD0ADAwA9m9XAZwYA9igdQjcaQQdAAACAYHcAAGBLAJwhQwDGIAMA4KATAMggC8AAQGtAK8GrQA/gFwAQgD/NzGw/XI9CPhiV
        1D4wKqkgs+ADAEBfQAPAAEBbACAg70AAQAtAAwCgIINAB0AAALQgCwCWIAPgAwDAP0AHQAPAAEAz4ItLADAg30CXQKsAiiDLAEAgA+Af4yAAAANgAAIBAQKAAAMAAAEE
        YAACAgIDIB2AAA42PCgbBQ4MAAAnJCItIi2AFOAFACA4gAAA/oAG4DwAAGQgAeBKAAQBAf8BAUS/4AAAIA7gEABgHOAAKWAAAEAhcgOYQdUJgrIC4/J/YxLgCwACuB4F
        YBsGCtcjvlyPgmALwACgWeAEW+BEWeAEAOA+WUAAIAUAAOACAOA9WQEEACPdDN/MhkLh2l5Et8sCQhIi2eARFAesPZ1BzwDgRUApAxCA30NgKQAAJXgDEELCRoMMAB6A
        FEApAr9WfGApAAsjKeAKKQGeQiK+BIA/+lDOIzsBgD/gBAwjBUBYQANDYQGAP2A/BnzVij6PwnVgAwPMvIwr4BEUAwfwFj/gCCkDhMBqP0A2wANgPuAcKWCbQIZAOuAE
        DCCo4AUACwSS7Xw+kMI1Pw8tUiAyAABgdeARFAZWDg0/Z2Zm4AUpBq5HAT9xPWrgBRTgHCkgmwIAP2YgT0AD4AQMQKhgUEAhQANAECAABGBCt23bIYAB/kLgABADAMDa
        QkAQQD8gAAB84AMMAIgjhOAAGSAqIAygNyAZ4AU3AnBCDSAdYrRACAUDFDsxwQBgAAnIwAAAXMED2YkdoBAFoL/FTmzAoG8FAAB2YqfB4AAMQADgAAwgJgDBoG9AAEBI
        AAzgBSoIAbw0jMJfUczAQCZg6CAoYAPgCBBAVWAZQCHgEQzgFTdA32BAIERAAAIyEgElsqAAAi0BKKAJ4BAAADLgEBngCgABUGTnBHoAUOAKIuAHAOAEXwFQUOAVMgJQ
        ZDjgBC/gHgAAZCAA4B4qAQBHIAPgIwDgIFjgZwAA/+AXACReAwAAEGQiPgFaXSAJAgEAEkAERM9CayXPJ7WgCQAB4AAJAALgAAkAA6AJAgEBBMAJAwAF/gOAMQEABuAA
        CQIH/gWAEwEBCKAnAgAACeAACeAJYyh0g1AgTyCbIAxACSCsgAkCAQUBoGMDAQYA/mATIGMA/+AAYwH/B6ATAQkASLdAOyA6YBMgMqAJIMcBAPugEwAD4AAJAgQA96AT
        AAWgCSDHoAkEAQEHAPlAHSAAAggA/UAJIEUACeAAO+ADYyC14EkAABGgUgNrbmFiQH3AAAGAACAAABmgEQNjdG5pTWYBEScgFCAAAEEgAyAARqIBoELiEw8BdADiATBN
        m+ATK+D9AOCpAAAgIeNAAANzaXVnQiQA6OICpwAVIBgAGSADQshAAyNuYAAHZ3B0Y1lUTUVADAsNYmWFAQAAAAAAAAABAAAAAAEAAAAAAAAA
        ADxkaXNhYmxlZD4AEAAAAA==
      >
      PRESETNAME <disabled>
      FLOATPOS 0 0 0 0
      FXID {0EA1EB10-F788-4946-8CDC-6AE6814DF247}
      WAK 0 0
    >
    <ITEM
      POSITION 2
      SNAPOFFS 0
      LENGTH 12
      LOOP 1
      ALLTAKES 0
      FADEIN 1 0 0 1 0 0
      FADEOUT 1 0 0 1 0 0
      MUTE 0 0
      SEL 0
      IGUID {46B75CDC-56A1-4F6B-9D49-D46A8B75921C}
      IID 2
      NAME "Base Rítmica 1 (sin palm mute) - Marty.mid"
      VOLPAN 1 0 1 -1
      SOFFS 0 0
      PLAYRATE 1 1 0 -1 0 0.0025
      CHANMODE 0
      GUID {AAEBF24B-ECE1-4445-A3F0-A70F242B8A3E}
      <SOURCE MIDI
        HASDATA 1 960 QN
        CCINTERP 32
        POOLEDEVTS {841FED0B-D2FA-4D18-B2D2-FE20B3DA3458}
        <X 0 0 0 0 3 "Base Rítmica 1 (sin palm mute)"
          /wNCYXNlIFLDrXRtaWNhIDEgKHNpbiBwYWxtIG11dGUp
        >
        E 0 c1 1e 00
        E 0 b1 40 00
        E 0 b1 5b 30
        E 0 b1 0a 40
        E 0 b1 07 7f
        E 0 b1 0a 40
        E 0 b1 5b 3b
        E 0 91 32 61
        E 0 91 39 61
        E 0 91 3e 61
        E 0 b1 79 00
        E 480 81 32 00
        E 0 81 39 00
        E 0 81 3e 00
        E 0 91 32 49
        E 0 91 39 49
        E 480 81 32 00
        E 0 81 39 00
        E 0 91 32 4a
        E 0 91 39 4a
        E 480 81 32 00
        E 0 81 39 00
        E 0 91 32 4a
        E 0 91 39 4a
        E 480 81 32 00
        E 0 81 39 00
        E 0 91 32 4d
        E 0 91 39 4d
        E 480 81 32 00
        E 0 81 39 00
        E 0 91 32 4b
        E 0 91 39 4b
        E 480 81 32 00
        E 0 81 39 00
        E 0 91 32 4b
        E 0 91 39 4b
        E 480 81 32 00
        E 0 81 39 00
        E 0 91 32 4b
        E 0 91 39 4b
        E 480 81 32 00
        E 0 81 39 00
        E 0 91 32 6f
        E 0 91 39 6f
        E 0 91 3e 6f
        E 480 81 32 00
        E 0 81 39 00
        E 0 81 3e 00
        E 0 91 32 49
        E 0 91 39 49
        E 480 81 32 00
        E 0 81 39 00
        E 0 91 32 49
        E 0 91 39 49
        E 480 81 32 00
        E 0 81 39 00
        E 0 91 32 4a
        E 0 91 39 4a
        E 480 81 32 00
        E 0 81 39 00
        E 0 91 32 4d
        E 0 91 39 4d
        E 480 81 32 00
        E 0 81 39 00
        E 0 91 32 4a
        E 0 91 39 4a
        E 480 81 32 00
        E 0 81 39 00
        E 0 91 32 4b
        E 0 91 39 4b
        E 480 81 32 00
        E 0 81 39 00
        E 0 91 32 4b
        E 0 91 39 4b
        E 480 81 32 00
        E 0 81 39 00
        E 0 91 30 6c
        E 0 91 37 6c
        E 0 91 3c 6c
        E 480 81 30 00
        E 0 81 37 00
        E 0 81 3c 00
        E 0 91 30 44
        E 0 91 37 44
        E 480 81 30 00
        E 0 81 37 00
        E 0 91 30 45
        E 0 91 37 45
        E 480 81 30 00
        E 0 81 37 00
        E 0 91 30 46
        E 0 91 37 46
        E 480 81 30 00
        E 0 81 37 00
        E 0 91 30 4a
        E 0 91 37 4a
        E 480 81 30 00
        E 0 81 37 00
        E 0 91 30 48
        E 0 91 37 48
        E 480 81 30 00
        E 0 81 37 00
        E 0 91 30 49
        E 0 91 37 49
        E 480 81 30 00
        E 0 81 37 00
        E 0 91 30 4a
        E 0 91 37 4a
        E 480 81 30 00
        E 0 81 37 00
        E 0 91 2f 6d
        E 0 91 36 6d
        E 0 91 3b 6d
        E 480 81 2f 00
        E 0 81 36 00
        E 0 81 3b 00
        E 0 91 2f 46
        E 0 91 36 46
        E 480 81 2f 00
        E 0 81 36 00
        E 0 91 2f 47
        E 0 91 36 47
        E 480 81 2f 00
        E 0 81 36 00
        E 0 91 2f 48
        E 0 91 36 48
        E 480 81 2f 00
        E 0 81 36 00
        E 0 91 2f 4c
        E 0 91 36 4c
        E 480 81 2f 00
        E 0 81 36 00
        E 0 91 2f 4a
        E 0 91 36 4a
        E 480 81 2f 00
        E 0 81 36 00
        E 0 91 2f 4a
        E 0 91 36 4a
        E 480 81 2f 00
        E 0 81 36 00
        E 0 91 2f 4b
        E 0 91 36 4b
        E 480 81 2f 00
        E 0 81 36 00
        E 0 91 32 6f
        E 0 91 39 6f
        E 0 91 3e 6f
        E 480 81 32 00
        E 0 81 39 00
        E 0 81 3e 00
        E 0 91 32 50
        E 0 91 39 50
        E 480 81 32 00
        E 0 81 39 00
        E 0 91 32 50
        E 0 91 39 50
        E 480 81 32 00
        E 0 81 39 00
        E 0 91 32 4f
        E 0 91 39 4f
        E 480 81 32 00
        E 0 81 39 00
        E 0 91 32 51
        E 0 91 39 51
        E 480 81 32 00
        E 0 81 39 00
        E 0 91 32 4e
        E 0 91 39 4e
        E 480 81 32 00
        E 0 81 39 00
        E 0 91 32 4d
        E 0 91 39 4d
        E 480 81 32 00
        E 0 81 39 00
        E 0 91 32 4d
        E 0 91 39 4d
        E 480 81 32 00
        E 0 81 39 00
        E 0 91 32 51
        E 0 91 39 51
        E 480 81 32 00
        E 0 81 39 00
        E 0 91 32 4c
        E 0 91 39 4c
        E 480 81 32 00
        E 0 81 39 00
        E 0 91 32 4c
        E 0 91 39 4c
        E 480 81 32 00
        E 0 81 39 00
        E 0 91 32 4c
        E 0 91 39 4c
        E 480 81 32 00
        E 0 81 39 00
        E 0 91 32 4f
        E 0 91 39 4f
        E 480 81 32 00
        E 0 81 39 00
        E 0 91 32 4c
        E 0 91 39 4c
        E 480 81 32 00
        E 0 81 39 00
        E 0 91 32 4c
        E 0 91 39 4c
        E 480 81 32 00
        E 0 81 39 00
        E 0 91 32 4c
        E 0 91 39 4c
        E 480 81 32 00
        E 0 81 39 00
        E 0 91 30 6c
        E 0 91 37 6c
        E 0 91 3c 6c
        E 480 81 30 00
        E 0 81 37 00
        E 0 81 3c 00
        E 0 91 30 44
        E 0 91 37 44
        E 480 81 30 00
        E 0 81 37 00
        E 0 91 30 45
        E 0 91 37 45
        E 480 81 30 00
        E 0 81 37 00
        E 0 91 30 46
        E 0 91 37 46
        E 480 81 30 00
        E 0 81 37 00
        E 0 91 30 4a
        E 0 91 37 4a
        E 480 81 30 00
        E 0 81 37 00
        E 0 91 30 49
        E 0 91 37 49
        E 480 81 30 00
        E 0 81 37 00
        E 0 91 30 49
        E 0 91 37 49
        E 480 81 30 00
        E 0 81 37 00
        E 0 91 30 4a
        E 0 91 37 4a
        E 480 81 30 00
        E 0 81 37 00
        E 0 91 2b 5f
        E 0 91 32 5f
        E 0 91 37 5f
        E 480 81 2b 00
        E 0 81 32 00
        E 0 81 37 00
        E 0 91 2b 41
        E 0 91 32 41
        E 480 81 2b 00
        E 0 81 32 00
        E 0 91 2b 43
        E 0 91 32 43
        E 480 81 2b 00
        E 0 81 32 00
        E 0 91 2b 44
        E 0 91 32 44
        E 480 81 2b 00
        E 0 81 32 00
        E 0 91 2d 6d
        E 0 91 34 6d
        E 0 91 39 6d
        E 480 81 2d 00
        E 0 81 34 00
        E 0 81 39 00
        E 0 91 2d 48
        E 0 91 34 48
        E 480 81 2d 00
        E 0 81 34 00
        E 0 91 2d 49
        E 0 91 34 49
        E 480 81 2d 00
        E 0 81 34 00
        E 0 91 2d 4a
        E 0 91 34 4a
        E 480 81 2d 00
        E 0 81 34 00
        E 0 b0 7b 00
        CCINTERP 32
        CHASE_CC_TAKEOFFS 1
        GUID {E47D81A2-ADDD-4BE1-9592-A62E3F81D914}
        IGNTEMPO 0 120 4 4
        SRCCOLOR 3
      >
    >
    <ITEM
      POSITION 15.5
      SNAPOFFS 0
      LENGTH 12
      LOOP 1
      ALLTAKES 0
      FADEIN 1 0 0 1 0 0
      FADEOUT 1 0 0 1 0 0
      MUTE 0 0
      SEL 0
      IGUID {0A307041-8149-4FD1-A24D-823DF664CD76}
      IID 11
      NAME "Base Rítmica 1 (sin palm mute) - Marty.mid"
      VOLPAN 1 0 1 -1
      SOFFS 12 32
      PLAYRATE 1 1 0 -1 0 0.0025
      CHANMODE 0
      GUID {01B1A55F-1F27-475E-9BFF-1367998CC9F1}
      <SOURCE MIDI
        HASDATA 1 960 QN
        CCINTERP 32
        POOLEDEVTS {EBCD1C59-C35B-4801-9296-3F018BA9E1F0}
        <X 0 0 0 0 3 "Base Rítmica 1 (sin palm mute)"
          /wNCYXNlIFLDrXRtaWNhIDEgKHNpbiBwYWxtIG11dGUp
        >
        E 0 c1 1e 00
        E 0 b1 40 00
        E 0 b1 5b 30
        E 0 b1 0a 40
        E 0 b1 07 7f
        E 0 b1 0a 40
        E 0 b1 5b 3b
        E 0 91 32 61
        E 0 91 39 61
        E 0 91 3e 61
        E 0 b1 79 00
        E 480 81 32 00
        E 0 81 39 00
        E 0 81 3e 00
        E 0 91 32 49
        E 0 91 39 49
        E 480 81 32 00
        E 0 81 39 00
        E 0 91 32 4a
        E 0 91 39 4a
        E 480 81 32 00
        E 0 81 39 00
        E 0 91 32 4a
        E 0 91 39 4a
        E 480 81 32 00
        E 0 81 39 00
        E 0 91 32 4d
        E 0 91 39 4d
        E 480 81 32 00
        E 0 81 39 00
        E 0 91 32 4b
        E 0 91 39 4b
        E 480 81 32 00
        E 0 81 39 00
        E 0 91 32 4b
        E 0 91 39 4b
        E 480 81 32 00
        E 0 81 39 00
        E 0 91 32 4b
        E 0 91 39 4b
        E 480 81 32 00
        E 0 81 39 00
        E 0 91 32 6f
        E 0 91 39 6f
        E 0 91 3e 6f
        E 480 81 32 00
        E 0 81 39 00
        E 0 81 3e 00
        E 0 91 32 49
        E 0 91 39 49
        E 480 81 32 00
        E 0 81 39 00
        E 0 91 32 49
        E 0 91 39 49
        E 480 81 32 00
        E 0 81 39 00
        E 0 91 32 4a
        E 0 91 39 4a
        E 480 81 32 00
        E 0 81 39 00
        E 0 91 32 4d
        E 0 91 39 4d
        E 480 81 32 00
        E 0 81 39 00
        E 0 91 32 4a
        E 0 91 39 4a
        E 480 81 32 00
        E 0 81 39 00
        E 0 91 32 4b
        E 0 91 39 4b
        E 480 81 32 00
        E 0 81 39 00
        E 0 91 32 4b
        E 0 91 39 4b
        E 480 81 32 00
        E 0 81 39 00
        E 0 91 30 6c
        E 0 91 37 6c
        E 0 91 3c 6c
        E 480 81 30 00
        E 0 81 37 00
        E 0 81 3c 00
        E 0 91 30 44
        E 0 91 37 44
        E 480 81 30 00
        E 0 81 37 00
        E 0 91 30 45
        E 0 91 37 45
        E 480 81 30 00
        E 0 81 37 00
        E 0 91 30 46
        E 0 91 37 46
        E 480 81 30 00
        E 0 81 37 00
        E 0 91 30 4a
        E 0 91 37 4a
        E 480 81 30 00
        E 0 81 37 00
        E 0 91 30 48
        E 0 91 37 48
        E 480 81 30 00
        E 0 81 37 00
        E 0 91 30 49
        E 0 91 37 49
        E 480 81 30 00
        E 0 81 37 00
        E 0 91 30 4a
        E 0 91 37 4a
        E 480 81 30 00
        E 0 81 37 00
        E 0 91 2f 6d
        E 0 91 36 6d
        E 0 91 3b 6d
        E 480 81 2f 00
        E 0 81 36 00
        E 0 81 3b 00
        E 0 91 2f 46
        E 0 91 36 46
        E 480 81 2f 00
        E 0 81 36 00
        E 0 91 2f 47
        E 0 91 36 47
        E 480 81 2f 00
        E 0 81 36 00
        E 0 91 2f 48
        E 0 91 36 48
        E 480 81 2f 00
        E 0 81 36 00
        E 0 91 2f 4c
        E 0 91 36 4c
        E 480 81 2f 00
        E 0 81 36 00
        E 0 91 2f 4a
        E 0 91 36 4a
        E 480 81 2f 00
        E 0 81 36 00
        E 0 91 2f 4a
        E 0 91 36 4a
        E 480 81 2f 00
        E 0 81 36 00
        E 0 91 2f 4b
        E 0 91 36 4b
        E 480 81 2f 00
        E 0 81 36 00
        E 0 91 32 6f
        E 0 91 39 6f
        E 0 91 3e 6f
        E 480 81 32 00
        E 0 81 39 00
        E 0 81 3e 00
        E 0 91 32 50
        E 0 91 39 50
        E 480 81 32 00
        E 0 81 39 00
        E 0 91 32 50
        E 0 91 39 50
        E 480 81 32 00
        E 0 81 39 00
        E 0 91 32 4f
        E 0 91 39 4f
        E 480 81 32 00
        E 0 81 39 00
        E 0 91 32 51
        E 0 91 39 51
        E 480 81 32 00
        E 0 81 39 00
        E 0 91 32 4e
        E 0 91 39 4e
        E 480 81 32 00
        E 0 81 39 00
        E 0 91 32 4d
        E 0 91 39 4d
        E 480 81 32 00
        E 0 81 39 00
        E 0 91 32 4d
        E 0 91 39 4d
        E 480 81 32 00
        E 0 81 39 00
        E 0 91 32 51
        E 0 91 39 51
        E 480 81 32 00
        E 0 81 39 00
        E 0 91 32 4c
        E 0 91 39 4c
        E 480 81 32 00
        E 0 81 39 00
        E 0 91 32 4c
        E 0 91 39 4c
        E 480 81 32 00
        E 0 81 39 00
        E 0 91 32 4c
        E 0 91 39 4c
        E 480 81 32 00
        E 0 81 39 00
        E 0 91 32 4f
        E 0 91 39 4f
        E 480 81 32 00
        E 0 81 39 00
        E 0 91 32 4c
        E 0 91 39 4c
        E 480 81 32 00
        E 0 81 39 00
        E 0 91 32 4c
        E 0 91 39 4c
        E 480 81 32 00
        E 0 81 39 00
        E 0 91 32 4c
        E 0 91 39 4c
        E 480 81 32 00
        E 0 81 39 00
        E 0 91 30 6c
        E 0 91 37 6c
        E 0 91 3c 6c
        E 480 81 30 00
        E 0 81 37 00
        E 0 81 3c 00
        E 0 91 30 44
        E 0 91 37 44
        E 480 81 30 00
        E 0 81 37 00
        E 0 91 30 45
        E 0 91 37 45
        E 480 81 30 00
        E 0 81 37 00
        E 0 91 30 46
        E 0 91 37 46
        E 480 81 30 00
        E 0 81 37 00
        E 0 91 30 4a
        E 0 91 37 4a
        E 480 81 30 00
        E 0 81 37 00
        E 0 91 30 49
        E 0 91 37 49
        E 480 81 30 00
        E 0 81 37 00
        E 0 91 30 49
        E 0 91 37 49
        E 480 81 30 00
        E 0 81 37 00
        E 0 91 30 4a
        E 0 91 37 4a
        E 480 81 30 00
        E 0 81 37 00
        E 0 91 2b 5f
        E 0 91 32 5f
        E 0 91 37 5f
        E 480 81 2b 00
        E 0 81 32 00
        E 0 81 37 00
        E 0 91 2b 41
        E 0 91 32 41
        E 480 81 2b 00
        E 0 81 32 00
        E 0 91 2b 43
        E 0 91 32 43
        E 480 81 2b 00
        E 0 81 32 00
        E 0 91 2b 44
        E 0 91 32 44
        E 480 81 2b 00
        E 0 81 32 00
        E 0 91 2d 6d
        E 0 91 34 6d
        E 0 91 39 6d
        E 480 81 2d 00
        E 0 81 34 00
        E 0 81 39 00
        E 0 91 2d 48
        E 0 91 34 48
        E 480 81 2d 00
        E 0 81 34 00
        E 0 91 2d 49
        E 0 91 34 49
        E 480 81 2d 00
        E 0 81 34 00
        E 0 91 2d 4a
        E 0 91 34 4a
        E 480 81 2d 00
        E 0 81 34 00
        E 0 91 2f 6f
        E 0 91 36 6f
        E 0 91 3b 6f
        E 480 81 2f 00
        E 0 81 36 00
        E 0 81 3b 00
        E 0 91 2f 4d
        E 0 91 36 4d
        E 480 81 2f 00
        E 0 81 36 00
        E 0 91 2f 4d
        E 0 91 36 4d
        E 480 81 2f 00
        E 0 81 36 00
        E 0 91 2f 4d
        E 0 91 36 4d
        E 480 81 2f 00
        E 0 81 36 00
        E 0 91 2f 50
        E 0 91 36 50
        E 480 81 2f 00
        E 0 81 36 00
        E 0 91 2f 4c
        E 0 91 36 4c
        E 480 81 2f 00
        E 0 81 36 00
        E 0 91 2f 69
        E 0 91 36 69
        E 0 91 3b 69
        E 960 81 2f 00
        E 0 81 36 00
        E 0 81 3b 00
        E 0 91 30 6e
        E 0 91 37 6e
        E 0 91 3c 6e
        E 480 81 30 00
        E 0 81 37 00
        E 0 81 3c 00
        E 0 91 30 49
        E 0 91 37 49
        E 480 81 30 00
        E 0 81 37 00
        E 0 91 30 49
        E 0 91 37 49
        E 480 81 30 00
        E 0 81 37 00
        E 0 91 30 49
        E 0 91 37 49
        E 480 81 30 00
        E 0 81 37 00
        E 0 91 30 4d
        E 0 91 37 4d
        E 480 81 30 00
        E 0 81 37 00
        E 0 91 30 4a
        E 0 91 37 4a
        E 480 81 30 00
        E 0 81 37 00
        E 0 91 30 68
        E 0 91 37 68
        E 0 91 3c 68
        E 960 81 30 00
        E 0 81 37 00
        E 0 81 3c 00
        E 0 91 31 6d
        E 0 91 38 6d
        E 0 91 3d 6d
        E 480 81 31 00
        E 0 81 38 00
        E 0 81 3d 00
        E 0 91 31 48
        E 0 91 38 48
        E 480 81 31 00
        E 0 81 38 00
        E 0 91 31 49
        E 0 91 38 49
        E 480 81 31 00
        E 0 81 38 00
        E 0 91 31 49
        E 0 91 38 49
        E 480 81 31 00
        E 0 81 38 00
        E 0 91 31 4d
        E 0 91 38 4d
        E 480 81 31 00
        E 0 81 38 00
        E 0 91 31 4a
        E 0 91 38 4a
        E 480 81 31 00
        E 0 81 38 00
        E 0 91 31 68
        E 0 91 38 68
        E 0 91 3d 68
        E 960 81 31 00
        E 0 81 38 00
        E 0 81 3d 00
        E 0 91 32 6d
        E 0 91 39 6d
        E 0 91 3e 6d
        E 480 81 32 00
        E 0 81 39 00
        E 0 81 3e 00
        E 0 91 32 48
        E 0 91 39 48
        E 480 81 32 00
        E 0 81 39 00
        E 0 91 32 49
        E 0 91 39 49
        E 480 81 32 00
        E 0 81 39 00
        E 0 91 32 49
        E 0 91 39 49
        E 480 81 32 00
        E 0 81 39 00
        E 0 91 2d 5c
        E 0 91 32 5c
        E 0 91 39 5c
        E 480 81 2d 00
        E 0 81 32 00
        E 0 81 39 00
        E 0 91 2d 41
        E 0 91 32 41
        E 480 81 2d 00
        E 0 81 32 00
        E 0 91 2d 41
        E 0 91 32 41
        E 480 81 2d 00
        E 0 81 32 00
        E 0 91 2d 42
        E 0 91 32 42
        E 480 81 2d 00
        E 0 81 32 00
        E 0 91 2f 65
        E 0 91 32 65
        E 0 91 37 65
        E 480 81 2f 00
        E 0 81 32 00
        E 0 81 37 00
        E 0 91 2f 50
        E 0 91 32 50
        E 0 91 37 50
        E 480 81 2f 00
        E 0 81 32 00
        E 0 81 37 00
        E 0 91 2f 4f
        E 0 91 32 4f
        E 0 91 37 4f
        E 480 81 2f 00
        E 0 81 32 00
        E 0 81 37 00
        E 0 91 2f 4f
        E 0 91 32 4f
        E 0 91 37 4f
        E 480 81 2f 00
        E 0 81 32 00
        E 0 81 37 00
        E 0 91 2d 6a
        E 0 91 34 6a
        E 0 91 39 6a
        E 480 81 2d 00
        E 0 81 34 00
        E 0 81 39 00
        E 0 91 2d 45
        E 0 91 34 45
        E 480 81 2d 00
        E 0 81 34 00
        E 0 91 2d 46
        E 0 91 34 46
        E 480 81 2d 00
        E 0 81 34 00
        E 0 91 2d 47
        E 0 91 34 47
        E 480 81 2d 00
        E 0 81 34 00
        E 0 91 2d 6d
        E 0 91 32 6d
        E 0 91 39 6d
        E 480 81 2d 00
        E 0 81 32 00
        E 0 81 39 00
        E 0 91 2d 43
        E 0 91 32 43
        E 480 81 2d 00
        E 0 81 32 00
        E 0 91 2d 44
        E 0 91 32 44
        E 480 81 2d 00
        E 0 81 32 00
        E 0 91 2d 45
        E 0 91 32 45
        E 480 81 2d 00
        E 0 81 32 00
        E 0 91 32 5b
        E 0 91 39 5b
        E 480 81 32 00
        E 0 81 39 00
        E 0 91 32 57
        E 0 91 39 57
        E 480 81 32 00
        E 0 81 39 00
        E 0 91 32 56
        E 0 91 39 56
        E 480 81 32 00
        E 0 81 39 00
        E 0 91 32 55
        E 0 91 39 55
        E 480 81 32 00
        E 0 81 39 00
        E 0 91 34 6f
        E 0 91 3b 6f
        E 0 91 40 6f
        E 480 81 34 00
        E 0 81 3b 00
        E 0 81 40 00
        E 0 91 34 54
        E 0 91 3b 54
        E 480 81 34 00
        E 0 81 3b 00
        E 0 91 34 52
        E 0 91 3b 52
        E 480 81 34 00
        E 0 81 3b 00
        E 0 91 34 51
        E 0 91 3b 51
        E 480 81 34 00
        E 0 81 3b 00
        E 0 91 34 52
        E 0 91 3b 52
        E 480 81 34 00
        E 0 81 3b 00
        E 0 91 34 4e
        E 0 91 3b 4e
        E 480 81 34 00
        E 0 81 3b 00
        E 0 91 34 4d
        E 0 91 3b 4d
        E 480 81 34 00
        E 0 81 3b 00
        E 0 91 34 4d
        E 0 91 3b 4d
        E 480 81 34 00
        E 0 81 3b 00
        E 0 91 33 6e
        E 0 91 3a 6e
        E 0 91 3f 6e
        E 480 81 33 00
        E 0 81 3a 00
        E 0 81 3f 00
        E 480 91 33 65
        E 0 91 3a 65
        E 0 91 3f 65
        E 480 81 33 00
        E 0 81 3a 00
        E 0 81 3f 00
        E 480 91 33 66
        E 0 91 3a 66
        E 0 91 3f 66
        E 480 81 33 00
        E 0 81 3a 00
        E 0 81 3f 00
        E 480 91 33 5f
        E 0 91 3a 5f
        E 0 91 3f 5f
        E 480 81 33 00
        E 0 81 3a 00
        E 0 81 3f 00
        E 480 b0 7b 00
        CCINTERP 32
        CHASE_CC_TAKEOFFS 1
        GUID {223099C0-F256-4A6C-BF9B-16AFBE3FD503}
        IGNTEMPO 0 120 4 4
        SRCCOLOR 12
      >
    >
    <ITEM
      POSITION 29
      SNAPOFFS 0
      LENGTH 12
      LOOP 1
      ALLTAKES 0
      FADEIN 1 0 0 1 0 0
      FADEOUT 1 0 0 1 0 0
      MUTE 0 0
      SEL 0
      IGUID {10C66242-B021-446B-9F48-966BECB30C6E}
      IID 18
      NAME "Base Rítmica 1 (sin palm mute) - Marty.mid"
      VOLPAN 1 0 1 -1
      SOFFS 24 64
      PLAYRATE 1 1 0 -1 0 0.0025
      CHANMODE 0
      GUID {7EF23C71-9959-4A6E-8000-C808A7D18131}
      <SOURCE MIDI
        HASDATA 1 960 QN
        CCINTERP 32
        POOLEDEVTS {C173520E-7F11-48B2-BE2A-7D14425268AE}
        <X 0 0 0 0 3 "Base Rítmica 1 (sin palm mute)"
          /wNCYXNlIFLDrXRtaWNhIDEgKHNpbiBwYWxtIG11dGUp
        >
        E 0 c1 1e 00
        E 0 b1 40 00
        E 0 b1 5b 30
        E 0 b1 0a 40
        E 0 b1 07 7f
        E 0 b1 0a 40
        E 0 b1 5b 3b
        E 0 91 32 61
        E 0 91 39 61
        E 0 91 3e 61
        E 0 b1 79 00
        E 480 81 32 00
        E 0 81 39 00
        E 0 81 3e 00
        E 0 91 32 49
        E 0 91 39 49
        E 480 81 32 00
        E 0 81 39 00
        E 0 91 32 4a
        E 0 91 39 4a
        E 480 81 32 00
        E 0 81 39 00
        E 0 91 32 4a
        E 0 91 39 4a
        E 480 81 32 00
        E 0 81 39 00
        E 0 91 32 4d
        E 0 91 39 4d
        E 480 81 32 00
        E 0 81 39 00
        E 0 91 32 4b
        E 0 91 39 4b
        E 480 81 32 00
        E 0 81 39 00
        E 0 91 32 4b
        E 0 91 39 4b
        E 480 81 32 00
        E 0 81 39 00
        E 0 91 32 4b
        E 0 91 39 4b
        E 480 81 32 00
        E 0 81 39 00
        E 0 91 32 6f
        E 0 91 39 6f
        E 0 91 3e 6f
        E 480 81 32 00
        E 0 81 39 00
        E 0 81 3e 00
        E 0 91 32 49
        E 0 91 39 49
        E 480 81 32 00
        E 0 81 39 00
        E 0 91 32 49
        E 0 91 39 49
        E 480 81 32 00
        E 0 81 39 00
        E 0 91 32 4a
        E 0 91 39 4a
        E 480 81 32 00
        E 0 81 39 00
        E 0 91 32 4d
        E 0 91 39 4d
        E 480 81 32 00
        E 0 81 39 00
        E 0 91 32 4a
        E 0 91 39 4a
        E 480 81 32 00
        E 0 81 39 00
        E 0 91 32 4b
        E 0 91 39 4b
        E 480 81 32 00
        E 0 81 39 00
        E 0 91 32 4b
        E 0 91 39 4b
        E 480 81 32 00
        E 0 81 39 00
        E 0 91 30 6c
        E 0 91 37 6c
        E 0 91 3c 6c
        E 480 81 30 00
        E 0 81 37 00
        E 0 81 3c 00
        E 0 91 30 44
        E 0 91 37 44
        E 480 81 30 00
        E 0 81 37 00
        E 0 91 30 45
        E 0 91 37 45
        E 480 81 30 00
        E 0 81 37 00
        E 0 91 30 46
        E 0 91 37 46
        E 480 81 30 00
        E 0 81 37 00
        E 0 91 30 4a
        E 0 91 37 4a
        E 480 81 30 00
        E 0 81 37 00
        E 0 91 30 48
        E 0 91 37 48
        E 480 81 30 00
        E 0 81 37 00
        E 0 91 30 49
        E 0 91 37 49
        E 480 81 30 00
        E 0 81 37 00
        E 0 91 30 4a
        E 0 91 37 4a
        E 480 81 30 00
        E 0 81 37 00
        E 0 91 2f 6d
        E 0 91 36 6d
        E 0 91 3b 6d
        E 480 81 2f 00
        E 0 81 36 00
        E 0 81 3b 00
        E 0 91 2f 46
        E 0 91 36 46
        E 480 81 2f 00
        E 0 81 36 00
        E 0 91 2f 47
        E 0 91 36 47
        E 480 81 2f 00
        E 0 81 36 00
        E 0 91 2f 48
        E 0 91 36 48
        E 480 81 2f 00
        E 0 81 36 00
        E 0 91 2f 4c
        E 0 91 36 4c
        E 480 81 2f 00
        E 0 81 36 00
        E 0 91 2f 4a
        E 0 91 36 4a
        E 480 81 2f 00
        E 0 81 36 00
        E 0 91 2f 4a
        E 0 91 36 4a
        E 480 81 2f 00
        E 0 81 36 00
        E 0 91 2f 4b
        E 0 91 36 4b
        E 480 81 2f 00
        E 0 81 36 00
        E 0 91 32 6f
        E 0 91 39 6f
        E 0 91 3e 6f
        E 480 81 32 00
        E 0 81 39 00
        E 0 81 3e 00
        E 0 91 32 50
        E 0 91 39 50
        E 480 81 32 00
        E 0 81 39 00
        E 0 91 32 50
        E 0 91 39 50
        E 480 81 32 00
        E 0 81 39 00
        E 0 91 32 4f
        E 0 91 39 4f
        E 480 81 32 00
        E 0 81 39 00
        E 0 91 32 51
        E 0 91 39 51
        E 480 81 32 00
        E 0 81 39 00
        E 0 91 32 4e
        E 0 91 39 4e
        E 480 81 32 00
        E 0 81 39 00
        E 0 91 32 4d
        E 0 91 39 4d
        E 480 81 32 00
        E 0 81 39 00
        E 0 91 32 4d
        E 0 91 39 4d
        E 480 81 32 00
        E 0 81 39 00
        E 0 91 32 51
        E 0 91 39 51
        E 480 81 32 00
        E 0 81 39 00
        E 0 91 32 4c
        E 0 91 39 4c
        E 480 81 32 00
        E 0 81 39 00
        E 0 91 32 4c
        E 0 91 39 4c
        E 480 81 32 00
        E 0 81 39 00
        E 0 91 32 4c
        E 0 91 39 4c
        E 480 81 32 00
        E 0 81 39 00
        E 0 91 32 4f
        E 0 91 39 4f
        E 480 81 32 00
        E 0 81 39 00
        E 0 91 32 4c
        E 0 91 39 4c
        E 480 81 32 00
        E 0 81 39 00
        E 0 91 32 4c
        E 0 91 39 4c
        E 480 81 32 00
        E 0 81 39 00
        E 0 91 32 4c
        E 0 91 39 4c
        E 480 81 32 00
        E 0 81 39 00
        E 0 91 30 6c
        E 0 91 37 6c
        E 0 91 3c 6c
        E 480 81 30 00
        E 0 81 37 00
        E 0 81 3c 00
        E 0 91 30 44
        E 0 91 37 44
        E 480 81 30 00
        E 0 81 37 00
        E 0 91 30 45
        E 0 91 37 45
        E 480 81 30 00
        E 0 81 37 00
        E 0 91 30 46
        E 0 91 37 46
        E 480 81 30 00
        E 0 81 37 00
        E 0 91 30 4a
        E 0 91 37 4a
        E 480 81 30 00
        E 0 81 37 00
        E 0 91 30 49
        E 0 91 37 49
        E 480 81 30 00
        E 0 81 37 00
        E 0 91 30 49
        E 0 91 37 49
        E 480 81 30 00
        E 0 81 37 00
        E 0 91 30 4a
        E 0 91 37 4a
        E 480 81 30 00
        E 0 81 37 00
        E 0 91 2b 5f
        E 0 91 32 5f
        E 0 91 37 5f
        E 480 81 2b 00
        E 0 81 32 00
        E 0 81 37 00
        E 0 91 2b 41
        E 0 91 32 41
        E 480 81 2b 00
        E 0 81 32 00
        E 0 91 2b 43
        E 0 91 32 43
        E 480 81 2b 00
        E 0 81 32 00
        E 0 91 2b 44
        E 0 91 32 44
        E 480 81 2b 00
        E 0 81 32 00
        E 0 91 2d 6d
        E 0 91 34 6d
        E 0 91 39 6d
        E 480 81 2d 00
        E 0 81 34 00
        E 0 81 39 00
        E 0 91 2d 48
        E 0 91 34 48
        E 480 81 2d 00
        E 0 81 34 00
        E 0 91 2d 49
        E 0 91 34 49
        E 480 81 2d 00
        E 0 81 34 00
        E 0 91 2d 4a
        E 0 91 34 4a
        E 480 81 2d 00
        E 0 81 34 00
        E 0 91 2f 6f
        E 0 91 36 6f
        E 0 91 3b 6f
        E 480 81 2f 00
        E 0 81 36 00
        E 0 81 3b 00
        E 0 91 2f 4d
        E 0 91 36 4d
        E 480 81 2f 00
        E 0 81 36 00
        E 0 91 2f 4d
        E 0 91 36 4d
        E 480 81 2f 00
        E 0 81 36 00
        E 0 91 2f 4d
        E 0 91 36 4d
        E 480 81 2f 00
        E 0 81 36 00
        E 0 91 2f 50
        E 0 91 36 50
        E 480 81 2f 00
        E 0 81 36 00
        E 0 91 2f 4c
        E 0 91 36 4c
        E 480 81 2f 00
        E 0 81 36 00
        E 0 91 2f 69
        E 0 91 36 69
        E 0 91 3b 69
        E 960 81 2f 00
        E 0 81 36 00
        E 0 81 3b 00
        E 0 91 30 6e
        E 0 91 37 6e
        E 0 91 3c 6e
        E 480 81 30 00
        E 0 81 37 00
        E 0 81 3c 00
        E 0 91 30 49
        E 0 91 37 49
        E 480 81 30 00
        E 0 81 37 00
        E 0 91 30 49
        E 0 91 37 49
        E 480 81 30 00
        E 0 81 37 00
        E 0 91 30 49
        E 0 91 37 49
        E 480 81 30 00
        E 0 81 37 00
        E 0 91 30 4d
        E 0 91 37 4d
        E 480 81 30 00
        E 0 81 37 00
        E 0 91 30 4a
        E 0 91 37 4a
        E 480 81 30 00
        E 0 81 37 00
        E 0 91 30 68
        E 0 91 37 68
        E 0 91 3c 68
        E 960 81 30 00
        E 0 81 37 00
        E 0 81 3c 00
        E 0 91 31 6d
        E 0 91 38 6d
        E 0 91 3d 6d
        E 480 81 31 00
        E 0 81 38 00
        E 0 81 3d 00
        E 0 91 31 48
        E 0 91 38 48
        E 480 81 31 00
        E 0 81 38 00
        E 0 91 31 49
        E 0 91 38 49
        E 480 81 31 00
        E 0 81 38 00
        E 0 91 31 49
        E 0 91 38 49
        E 480 81 31 00
        E 0 81 38 00
        E 0 91 31 4d
        E 0 91 38 4d
        E 480 81 31 00
        E 0 81 38 00
        E 0 91 31 4a
        E 0 91 38 4a
        E 480 81 31 00
        E 0 81 38 00
        E 0 91 31 68
        E 0 91 38 68
        E 0 91 3d 68
        E 960 81 31 00
        E 0 81 38 00
        E 0 81 3d 00
        E 0 91 32 6d
        E 0 91 39 6d
        E 0 91 3e 6d
        E 480 81 32 00
        E 0 81 39 00
        E 0 81 3e 00
        E 0 91 32 48
        E 0 91 39 48
        E 480 81 32 00
        E 0 81 39 00
        E 0 91 32 49
        E 0 91 39 49
        E 480 81 32 00
        E 0 81 39 00
        E 0 91 32 49
        E 0 91 39 49
        E 480 81 32 00
        E 0 81 39 00
        E 0 91 2d 5c
        E 0 91 32 5c
        E 0 91 39 5c
        E 480 81 2d 00
        E 0 81 32 00
        E 0 81 39 00
        E 0 91 2d 41
        E 0 91 32 41
        E 480 81 2d 00
        E 0 81 32 00
        E 0 91 2d 41
        E 0 91 32 41
        E 480 81 2d 00
        E 0 81 32 00
        E 0 91 2d 42
        E 0 91 32 42
        E 480 81 2d 00
        E 0 81 32 00
        E 0 91 2f 65
        E 0 91 32 65
        E 0 91 37 65
        E 480 81 2f 00
        E 0 81 32 00
        E 0 81 37 00
        E 0 91 2f 50
        E 0 91 32 50
        E 0 91 37 50
        E 480 81 2f 00
        E 0 81 32 00
        E 0 81 37 00
        E 0 91 2f 4f
        E 0 91 32 4f
        E 0 91 37 4f
        E 480 81 2f 00
        E 0 81 32 00
        E 0 81 37 00
        E 0 91 2f 4f
        E 0 91 32 4f
        E 0 91 37 4f
        E 480 81 2f 00
        E 0 81 32 00
        E 0 81 37 00
        E 0 91 2d 6a
        E 0 91 34 6a
        E 0 91 39 6a
        E 480 81 2d 00
        E 0 81 34 00
        E 0 81 39 00
        E 0 91 2d 45
        E 0 91 34 45
        E 480 81 2d 00
        E 0 81 34 00
        E 0 91 2d 46
        E 0 91 34 46
        E 480 81 2d 00
        E 0 81 34 00
        E 0 91 2d 47
        E 0 91 34 47
        E 480 81 2d 00
        E 0 81 34 00
        E 0 91 2d 6d
        E 0 91 32 6d
        E 0 91 39 6d
        E 480 81 2d 00
        E 0 81 32 00
        E 0 81 39 00
        E 0 91 2d 43
        E 0 91 32 43
        E 480 81 2d 00
        E 0 81 32 00
        E 0 91 2d 44
        E 0 91 32 44
        E 480 81 2d 00
        E 0 81 32 00
        E 0 91 2d 45
        E 0 91 32 45
        E 480 81 2d 00
        E 0 81 32 00
        E 0 91 32 5b
        E 0 91 39 5b
        E 480 81 32 00
        E 0 81 39 00
        E 0 91 32 57
        E 0 91 39 57
        E 480 81 32 00
        E 0 81 39 00
        E 0 91 32 56
        E 0 91 39 56
        E 480 81 32 00
        E 0 81 39 00
        E 0 91 32 55
        E 0 91 39 55
        E 480 81 32 00
        E 0 81 39 00
        E 0 91 34 6f
        E 0 91 3b 6f
        E 0 91 40 6f
        E 480 81 34 00
        E 0 81 3b 00
        E 0 81 40 00
        E 0 91 34 54
        E 0 91 3b 54
        E 480 81 34 00
        E 0 81 3b 00
        E 0 91 34 52
        E 0 91 3b 52
        E 480 81 34 00
        E 0 81 3b 00
        E 0 91 34 51
        E 0 91 3b 51
        E 480 81 34 00
        E 0 81 3b 00
        E 0 91 34 52
        E 0 91 3b 52
        E 480 81 34 00
        E 0 81 3b 00
        E 0 91 34 4e
        E 0 91 3b 4e
        E 480 81 34 00
        E 0 81 3b 00
        E 0 91 34 4d
        E 0 91 3b 4d
        E 480 81 34 00
        E 0 81 3b 00
        E 0 91 34 4d
        E 0 91 3b 4d
        E 480 81 34 00
        E 0 81 3b 00
        E 0 91 33 6e
        E 0 91 3a 6e
        E 0 91 3f 6e
        E 480 81 33 00
        E 0 81 3a 00
        E 0 81 3f 00
        E 480 91 33 65
        E 0 91 3a 65
        E 0 91 3f 65
        E 480 81 33 00
        E 0 81 3a 00
        E 0 81 3f 00
        E 480 91 33 66
        E 0 91 3a 66
        E 0 91 3f 66
        E 480 81 33 00
        E 0 81 3a 00
        E 0 81 3f 00
        E 480 91 33 5f
        E 0 91 3a 5f
        E 0 91 3f 5f
        E 480 81 33 00
        E 0 81 3a 00
        E 0 81 3f 00
        E 480 91 32 61
        E 0 91 39 61
        E 0 91 3e 61
        E 960 81 32 00
        E 0 81 39 00
        E 0 81 3e 00
        E 0 91 32 4c
        E 0 91 39 4c
        E 0 91 3e 4c
        E 480 81 32 00
        E 0 81 39 00
        E 0 81 3e 00
        E 0 91 32 4c
        E 0 91 39 4c
        E 0 91 3e 4c
        E 480 81 32 00
        E 0 81 39 00
        E 0 81 3e 00
        E 0 91 32 4f
        E 0 91 39 4f
        E 0 91 3e 4f
        E 480 81 32 00
        E 0 81 39 00
        E 0 81 3e 00
        E 0 91 32 4c
        E 0 91 39 4c
        E 0 91 3e 4c
        E 480 81 32 00
        E 0 81 39 00
        E 0 81 3e 00
        E 0 91 32 4c
        E 0 91 39 4c
        E 0 91 3e 4c
        E 480 81 32 00
        E 0 81 39 00
        E 0 81 3e 00
        E 0 91 32 4c
        E 0 91 39 4c
        E 0 91 3e 4c
        E 480 81 32 00
        E 0 81 39 00
        E 0 81 3e 00
        E 0 91 32 61
        E 0 91 3a 61
        E 0 91 3e 61
        E 960 81 32 00
        E 0 81 3a 00
        E 0 81 3e 00
        E 0 91 32 4c
        E 0 91 3a 4c
        E 0 91 3e 4c
        E 480 81 32 00
        E 0 81 3a 00
        E 0 81 3e 00
        E 0 91 32 4c
        E 0 91 3a 4c
        E 0 91 3e 4c
        E 480 81 32 00
        E 0 81 3a 00
        E 0 81 3e 00
        E 0 91 32 4f
        E 0 91 3a 4f
        E 0 91 3e 4f
        E 480 81 32 00
        E 0 81 3a 00
        E 0 81 3e 00
        E 0 91 32 4c
        E 0 91 3a 4c
        E 0 91 3e 4c
        E 480 81 32 00
        E 0 81 3a 00
        E 0 81 3e 00
        E 0 91 32 4c
        E 0 91 3a 4c
        E 0 91 3e 4c
        E 480 81 32 00
        E 0 81 3a 00
        E 0 81 3e 00
        E 0 91 32 4c
        E 0 91 3a 4c
        E 0 91 3e 4c
        E 480 81 32 00
        E 0 81 3a 00
        E 0 81 3e 00
        E 0 91 32 61
        E 0 91 3b 61
        E 0 91 3e 61
        E 960 81 32 00
        E 0 81 3b 00
        E 0 81 3e 00
        E 0 91 32 4c
        E 0 91 3b 4c
        E 0 91 3e 4c
        E 480 81 32 00
        E 0 81 3b 00
        E 0 81 3e 00
        E 0 91 32 4c
        E 0 91 3b 4c
        E 0 91 3e 4c
        E 480 81 32 00
        E 0 81 3b 00
        E 0 81 3e 00
        E 0 91 32 4f
        E 0 91 3b 4f
        E 0 91 3e 4f
        E 480 81 32 00
        E 0 81 3b 00
        E 0 81 3e 00
        E 0 91 32 4c
        E 0 91 3b 4c
        E 0 91 3e 4c
        E 480 81 32 00
        E 0 81 3b 00
        E 0 81 3e 00
        E 0 91 32 4c
        E 0 91 3b 4c
        E 0 91 3e 4c
        E 480 81 32 00
        E 0 81 3b 00
        E 0 81 3e 00
        E 0 91 32 4c
        E 0 91 3b 4c
        E 0 91 3e 4c
        E 480 81 32 00
        E 0 81 3b 00
        E 0 81 3e 00
        E 0 91 32 59
        E 0 91 39 59
        E 0 91 3c 59
        E 960 81 32 00
        E 0 81 39 00
        E 0 81 3c 00
        E 0 91 32 48
        E 0 91 39 48
        E 0 91 3c 48
        E 480 81 32 00
        E 0 81 39 00
        E 0 81 3c 00
        E 0 91 32 49
        E 0 91 39 49
        E 0 91 3c 49
        E 480 81 32 00
        E 0 81 39 00
        E 0 81 3c 00
        E 0 91 32 4d
        E 0 91 39 4d
        E 0 91 3c 4d
        E 480 81 32 00
        E 0 81 39 00
        E 0 81 3c 00
        E 0 91 32 4a
        E 0 91 39 4a
        E 0 91 3c 4a
        E 480 81 32 00
        E 0 81 39 00
        E 0 81 3c 00
        E 0 91 32 4b
        E 0 91 39 4b
        E 0 91 3c 4b
        E 480 81 32 00
        E 0 81 39 00
        E 0 81 3c 00
        E 0 91 32 4b
        E 0 91 39 4b
        E 0 91 3c 4b
        E 480 81 32 00
        E 0 81 39 00
        E 0 81 3c 00
        E 0 91 2b 5c
        E 0 91 32 5c
        E 0 91 37 5c
        E 0 91 3b 5c
        E 960 81 2b 00
        E 0 81 32 00
        E 0 81 37 00
        E 0 81 3b 00
        E 0 91 2b 4a
        E 0 91 32 4a
        E 0 91 37 4a
        E 0 91 3b 4a
        E 480 81 2b 00
        E 0 81 32 00
        E 0 81 37 00
        E 0 81 3b 00
        E 0 91 2b 4a
        E 0 91 32 4a
        E 0 91 37 4a
        E 0 91 3b 4a
        E 480 81 2b 00
        E 0 81 32 00
        E 0 81 37 00
        E 0 81 3b 00
        E 0 91 2b 4e
        E 0 91 32 4e
        E 0 91 37 4e
        E 0 91 3b 4e
        E 480 81 2b 00
        E 0 81 32 00
        E 0 81 37 00
        E 0 81 3b 00
        E 0 91 2b 4b
        E 0 91 32 4b
        E 0 91 37 4b
        E 0 91 3b 4b
        E 480 81 2b 00
        E 0 81 32 00
        E 0 81 37 00
        E 0 81 3b 00
        E 0 91 2b 4b
        E 0 91 32 4b
        E 0 91 37 4b
        E 0 91 3b 4b
        E 480 81 2b 00
        E 0 81 32 00
        E 0 81 37 00
        E 0 81 3b 00
        E 0 91 2b 4c
        E 0 91 32 4c
        E 0 91 37 4c
        E 0 91 3b 4c
        E 480 81 2b 00
        E 0 81 32 00
        E 0 81 37 00
        E 0 81 3b 00
        E 0 91 2b 5d
        E 0 91 32 5d
        E 0 91 37 5d
        E 0 91 3a 5d
        E 960 81 2b 00
        E 0 81 32 00
        E 0 81 37 00
        E 0 81 3a 00
        E 0 91 2b 4a
        E 0 91 32 4a
        E 0 91 37 4a
        E 0 91 3a 4a
        E 480 81 2b 00
        E 0 81 32 00
        E 0 81 37 00
        E 0 81 3a 00
        E 0 91 2b 4a
        E 0 91 32 4a
        E 0 91 37 4a
        E 0 91 3a 4a
        E 480 81 2b 00
        E 0 81 32 00
        E 0 81 37 00
        E 0 81 3a 00
        E 0 91 2b 4e
        E 0 91 32 4e
        E 0 91 37 4e
        E 0 91 3a 4e
        E 480 81 2b 00
        E 0 81 32 00
        E 0 81 37 00
        E 0 81 3a 00
        E 0 91 2b 4b
        E 0 91 32 4b
        E 0 91 37 4b
        E 0 91 3a 4b
        E 480 81 2b 00
        E 0 81 32 00
        E 0 81 37 00
        E 0 81 3a 00
        E 0 91 2b 4b
        E 0 91 32 4b
        E 0 91 37 4b
        E 0 91 3a 4b
        E 480 81 2b 00
        E 0 81 32 00
        E 0 81 37 00
        E 0 81 3a 00
        E 0 91 2b 4c
        E 0 91 32 4c
        E 0 91 37 4c
        E 0 91 3a 4c
        E 480 81 2b 00
        E 0 81 32 00
        E 0 81 37 00
        E 0 81 3a 00
        E 0 91 2d 5d
        E 0 91 32 5d
        E 0 91 39 5d
        E 960 81 2d 00
        E 0 81 32 00
        E 0 81 39 00
        E 0 91 2d 4a
        E 0 91 32 4a
        E 0 91 39 4a
        E 480 81 2d 00
        E 0 81 32 00
        E 0 81 39 00
        E 0 91 2d 4a
        E 0 91 32 4a
        E 0 91 39 4a
        E 480 81 2d 00
        E 0 81 32 00
        E 0 81 39 00
        E 0 91 2d 4e
        E 0 91 32 4e
        E 0 91 39 4e
        E 480 81 2d 00
        E 0 81 32 00
        E 0 81 39 00
        E 0 91 2d 4b
        E 0 91 32 4b
        E 0 91 39 4b
        E 480 81 2d 00
        E 0 81 32 00
        E 0 81 39 00
        E 0 91 2d 5b
        E 0 91 32 5b
        E 0 91 39 5b
        E 480 81 2d 00
        E 0 81 32 00
        E 0 81 39 00
        E 480 91 2f 56
        E 0 91 36 56
        E 0 91 3b 56
        E 480 81 2f 00
        E 0 81 36 00
        E 0 81 3b 00
        E 0 91 2f 50
        E 0 91 36 50
        E 0 91 3b 50
        E 480 81 2f 00
        E 0 81 36 00
        E 0 81 3b 00
        E 0 91 2f 4f
        E 0 91 36 4f
        E 0 91 3b 4f
        E 480 81 2f 00
        E 0 81 36 00
        E 0 81 3b 00
        E 0 91 2f 4f
        E 0 91 36 4f
        E 0 91 3b 4f
        E 480 81 2f 00
        E 0 81 36 00
        E 0 81 3b 00
        E 0 91 31 57
        E 0 91 38 57
        E 0 91 3d 57
        E 480 81 31 00
        E 0 81 38 00
        E 0 81 3d 00
        E 0 91 31 52
        E 0 91 38 52
        E 0 91 3d 52
        E 480 81 31 00
        E 0 81 38 00
        E 0 81 3d 00
        E 0 91 31 51
        E 0 91 38 51
        E 0 91 3d 51
        E 480 81 31 00
        E 0 81 38 00
        E 0 81 3d 00
        E 0 91 31 50
        E 0 91 38 50
        E 0 91 3d 50
        E 480 81 31 00
        E 0 81 38 00
        E 0 81 3d 00
        E 0 b0 7b 00
        CCINTERP 32
        CHASE_CC_TAKEOFFS 1
        GUID {4CFDE154-0144-4126-B1EC-D79BEDFBBF6D}
        IGNTEMPO 0 120 4 4
        SRCCOLOR 19
      >
    >
  >
  <TRACK {5EFC352B-F968-4D8F-B279-14DA1CDCB013}
    NAME "Base rítmica 2 (con palm mute)"
    PEAKCOL 16576
    BEAT -1
    AUTOMODE 0
    VOLPAN 1 0 -1 -1 1
    MUTESOLO 0 0 0
    IPHASE 0
    PLAYOFFS 0 1
    ISBUS 0 0
    BUSCOMP 0 0 0 0 0
    SHOWINMIX 1 0.6667 0.5 1 0.5 -1 -1 -1
    FREEMODE 0
    SEL 0
    REC 0 0 1 0 0 0 0
    VU 2
    TRACKHEIGHT 0 0 0 0 -1 0
    INQ 0 0 0 0.5 100 0 0 100
    NCHAN 2
    FX 1
    TRACKID {5EFC352B-F968-4D8F-B279-14DA1CDCB013}
    PERF 0
    MIDIOUT -1
    MAINSEND 1 0
    <FXCHAIN
      WNDRECT 24 52 506 258
      SHOW 0
      LASTSEL 0
      DOCKED 0
      BYPASS 0 0 0
      <VST "VSTi: FM8 (Native Instruments GmbH)" FM8.dll 0 "" 1315530296<5653544E696638666D38202878383629> ""
        OGZpTu5e7f4AAAAAAgAAAAEAAAAAAAAAAgAAAAAAAABxIgAAAQAAAAAAEAA=
        cSIAAAAAAAABAAAAaHNpbgEAAAAAAAAAtobcUMQp00ys2xunT/VcXpYAAAAAAAAARFNJTnYAAAABAAAASAAAAAAAAABEU0lOagAAAAEAAAAYAAAAAAAAAERTSU4BAAAA
        AQAAAAEAAAABAAAAAQAAAAEAAAAAAAAAAAAAAAAAAAANYmWFAQAAAANwEAAAAAAAAQAAAAEAAAAAAAAAAAAAAAAAAAADAAAAMAAwADAAAAAAAAAAAAAAAAAAAAAAAAEA
        AAABAAAAAAAAAERTSU5lAAAAnyEAAAAAAAABAAAAaHNpbgEAAAAAAAAAk2LmMfvQG0yafYDm9m9BlW0AAAAAAAAARFNJTmUAAAABAAAANAAAAAAAAABEU0lOagAAAAEA
        AAAYAAAAAAAAAERTSU4BAAAAAQAAAAEAAAABAAAAAgAAAAEAAAAACAAAAAEAAAAKAAAAMQAuADIALgAwAC4AMQAwADEAMAABAAAAAwAAAAAAAABEU0lObAAAADQDAAAA
        AAAAAQAAAGhzaW4BAAAAAAAAAEPySaikdwBNqY3YM9NCgmIEAwAAAAAAAERTSU5sAAAAAQAAABgAAAAAAAAARFNJTgEAAAABAAAAAQAAAAEAAAACAAAAAQAAAAAAAAAO
        AAAAQwByAHUAbgBjAGgAIABDAHIAdQBzAGgAZQByAAwAAABBAG4AZAByAGUAIABFAHQAdABlAG0AYQASAAAATgBhAHQAaQB2AGUAIABJAG4AcwB0AHIAdQBtAGUAbgB0
        AHMAQAAAAFUAcwBlACAATQBvAHIAcABoACAAUwBxAHUAYQByAGUAIAB0AG8AIABnAGUAdAAgAHQAaABlACAAcwBvAHUAbgBkACAAbwBmACAAZABpAGYAZgBlAHIAZQBu
        AHQAIABhAG0AcAAgAHMAaQBtAHUAbABhAHQAaQBvAG4AcwAuACAAAAAAAP////8AAAAAAAAAAAAAAAAAAAAAAAAAAAEAAAABAAAAAgAAAAMAAABGAE0AOAALAAAARgBN
        ADgAIABGAGEAYwB0AG8AcgB5AAcAAAALAAAAQQByAHAAZQBnAGcAaQBhAHQAZQBkABIAAABEAGkAcwB0AG8AcgB0AGUAZAAgAEUALQBHAHUAaQB0AGEAcgAGAAAARwB1
        AGkAdABhAHIACQAAAFAAcgBvAGMAZQBzAHMAZQBkAA0AAABTAGUAcQB1AGUAbgBjAGUALwBMAG8AbwBwAAkAAABTAHkAbgB0AGgAZQB0AGkAYwAMAAAAVABlAG0AcABv
        AC0AcwB5AG4AYwBlAGQAAAAAAAcAAAAHAAAAXABAAGMAbwBsAG8AcgABAAAAMAARAAAAXABAAGQAZQB2AGkAYwBlAHQAeQBwAGUAZgBsAGEAZwBzAAEAAAAxAAsAAABc
        AEAAcwBvAHUAbgBkAHQAeQBwAGUAAQAAADAABwAAAFwAQAB0AGUAbQBwAG8AAQAAADAABgAAAFwAQAB2AGUAcgBsAAUAAAAxAC4ANwAuADMABgAAAFwAQAB2AGUAcgBt
        AAUAAAAxAC4ANwAuADMABwAAAFwAQAB2AGkAcwBpAGIAAQAAADAAAQAAAAAAAAACAAAARFNJTnkAAAAQFwAAAAAAAAEAAABoc2luAQAAAAAAAADhv9+3I90KSKBFccCi
        AbOy4BYAAAAAAABEU0lOeQAAAAEAAAAYAAAAAAAAAERTSU4BAAAAAQAAAAEAAAABAAAAAQAAABkAAAABAAAABgAAAAYAAABUAGkAbQBiAHIAZQABAAAACAAAAEgAYQBy
        AG0AbwBuAGkAYwAAAAAAAACAPwIAAAABAAAAAQAAAAYAAABEAGUAdAB1AG4AZQAAAAAAAACAPwMAAAACAAAAAQAAAAoAAABCAHIAaQBnAGgAdABuAGUAcwBzAAAAAAAA
        AIA/AQAAAAMAAAABAAAABwAAAEUAbgB2ACAAQQBtAHQAAAAAAAAAgD8EAAAABAAAAAEAAAAIAAAAVgBlAGwAbwBjAGkAdAB5AAAAAAAAAIA/BQAAAAUAAAABAAAADgAA
        ADwAewBbAGEAdQB0AG8AbgBhAG0AZQBdAH0APgAAAAAAAACAP/////8GAAAAAQAAAAIAAAACAAAARgBYAAEAAAAGAAAAQQBtAG8AdQBuAHQAAAAAAAAAgD8aAAAAAQAA
        AAEAAAAOAAAAPAB7AFsAYQB1AHQAbwBuAGEAbQBlAF0AfQA+AAAAAAAAAIA//////wIAAAABAAAABAAAAAgAAABUAGkAbQBiACAARQBuAHYAAQAAAAYAAABBAHQAdABh
        AGMAawAAAAAAAACAPwYAAAABAAAAAQAAAAUAAABEAGUAYwBhAHkAAAAAAAAAgD8HAAAAAgAAAAEAAAAHAAAAUwB1AHMAdABhAGkAbgAAAAAAAACAPwgAAAADAAAAAQAA
        AAcAAABSAGUAbABlAGEAcwBlAAAAAAAAAIA/CQAAAAQAAAABAAAABAAAAAcAAABBAG0AcAAgAEUAbgB2AAEAAAAHAAAAQQB0AHQAYQBjAGsAIAAAAAAAAACAPxEAAAAB
        AAAAAQAAAAUAAABEAGUAYwBhAHkAAAAAAAAAgD8SAAAAAgAAAAEAAAAHAAAAUwB1AHMAdABhAGkAbgAAAAAAAACAPxMAAAADAAAAAQAAAAcAAABSAGUAbABlAGEAcwBl
        AAAAAAAAAIA/FAAAAAQAAAABAAAABAAAAAYAAABPAHUAdABwAHUAdAABAAAABgAAAFYAbwBsAHUAbQBlAAAAAAAAAIA/DgAAAAEAAAABAAAACAAAAFYAZQBsAG8AYwBp
        AHQAeQAAAAAAAACAPxAAAAACAAAAAQAAAAkAAABTAHQAcgAgAFcAaQBkAHQAaAAAAAAAAACAPw8AAAADAAAAAQAAAA4AAAA8AHsAWwBhAHUAdABvAG4AYQBtAGUAXQB9
        AD4AAAAAAAAAgD//////BAAAAAEAAAAEAAAAAwAAAEwARgBPAAEAAAAEAAAAUgBhAHQAZQAAAAAAAACAPwoAAAABAAAAAQAAAAcAAABWAGkAYgByAGEAdABvAAAAAAAA
        AIA/CwAAAAIAAAABAAAABgAAAFQAaQBtAGIAcgBlAAAAAAAAAIA/DAAAAAMAAAABAAAABwAAAFQAcgBlAG0AbwBsAG8AAAAAAAAAgD8NAAAABAAAAAEAAAAEAAAAAwAA
        AEEAcgBwAAEAAAAGAAAATwBuAC8ATwBmAGYAAAAAAAAAgD+IAAAAAQAAAAEAAAAEAAAAUwB0AGUAcAAAAAAAAACAP5UAAAACAAAAAQAAAAQAAABHAGEAdABlAAAAAAAA
        AIA/iQAAAAMAAAABAAAABwAAAFMAaAB1AGYAZgBsAGUAAAAAAAAAgD+NAAAABAAAAAEAAAAEAAAABQAAAE0AbwByAHAAaAABAAAAAQAAAFgAAAAAAAAAgD8VAAAAAQAA
        AAEAAAABAAAAWQAAAAAAAACAPxYAAAACAAAAAQAAAAUAAABSAG4AZAAgAFgAAAAAAAAAgD8XAAAAAwAAAAEAAAAFAAAAUgBuAGQAIABZAAAAAAAAAIA/GAAAAAQAAAAB
        AAAAAgAAAAYAAABNAGEAcwB0AGUAcgABAAAABgAAAE8AdQB0AHAAdQB0AAAAAAAAAIA/dAAAAAEAAAABAAAABQAAAEkAbgBwAHUAdAAAAAAAAACAP3UAAAACAAAAAQAA
        AAIAAAAFAAAAUABpAHQAYwBoAAEAAAAEAAAAVAB1AG4AZQAAAAAAAACAP3YAAAABAAAAAQAAAAkAAABUAHIAYQBuAHMAcABvAHMAZQAAAAAAAACAP3cAAAACAAAAAQAA
        AAEAAAAGAAAAVQBuAGkAcwBvAG4AAQAAAAYAAABEAGUAdAB1AG4AZQAAAAAAAACAP3kAAAABAAAAAQAAAAEAAAAFAAAARwBsAGkAZABlAAEAAAAEAAAAVABpAG0AZQAA
        AAAAAACAP38AAAABAAAAAQAAAAIAAAAHAAAAUQB1AGEAbABpAHQAeQABAAAABgAAAEEAbgBhAGwAbwBnAAAAAAAAAIA/gAAAAAEAAAABAAAABwAAAEQAaQBnAGkAdABh
        AGwAAAAAAAAAgD+EAAAAAgAAAAEAAAAIAAAABQAAAEQAcgBpAHYAZQABAAAABgAAAE8AbgAvAE8AZgBmAAAAAAAAAIA/HgAAAAEAAAABAAAABQAAAEQAcgBpAHYAZQAA
        AAAAAACAPx8AAAACAAAAAQAAAAQAAABUAG8AbgBlAAAAAAAAAIA/IAAAAAMAAAABAAAABAAAAEIAYQBzAHMAAAAAAAAAgD8hAAAABAAAAAEAAAAHAAAAVgBvAGwAdQBt
        AGUAIAAAAAAAAACAPyIAAAAFAAAAAQAAAA4AAAA8AHsAWwBhAHUAdABvAG4AYQBtAGUAXQB9AD4AAAAAAAAAgD//////BgAAAAEAAAAOAAAAPAB7AFsAYQB1AHQAbwBu
        AGEAbQBlAF0AfQA+AAAAAAAAAIA//////wcAAAABAAAADgAAADwAewBbAGEAdQB0AG8AbgBhAG0AZQBdAH0APgAAAAAAAACAP/////8IAAAAAQAAAAgAAAAEAAAAVAB1
        AGIAZQABAAAABgAAAE8AbgAvAE8AZgBmAAAAAAAAAIA/IwAAAAEAAAABAAAABgAAAFYAbwBsAHUAbQBlAAAAAAAAAIA/JQAAAAIAAAABAAAABQAAAEQAcgBpAHYAZQAA
        AAAAAACAPyQAAAADAAAAAQAAAA4AAAA8AHsAWwBhAHUAdABvAG4AYQBtAGUAXQB9AD4AAAAAAAAAgD//////BAAAAAEAAAAOAAAAPAB7AFsAYQB1AHQAbwBuAGEAbQBl
        AF0AfQA+AAAAAAAAAIA//////wUAAAABAAAADgAAADwAewBbAGEAdQB0AG8AbgBhAG0AZQBdAH0APgAAAAAAAACAP/////8GAAAAAQAAAA4AAAA8AHsAWwBhAHUAdABv
        AG4AYQBtAGUAXQB9AD4AAAAAAAAAgD//////BwAAAAEAAAAOAAAAPAB7AFsAYQB1AHQAbwBuAGEAbQBlAF0AfQA+AAAAAAAAAIA//////wgAAAABAAAACAAAAAcAAABD
        AGEAYgBpAG4AZQB0AAEAAAAGAAAATwBuAC8ATwBmAGYAAAAAAAAAgD8mAAAAAQAAAAEAAAAEAAAAVAB5AHAAZQAAAAAAAACAPycAAAACAAAAAQAAAAQAAABTAGkAegBl
        AAAAAAAAAIA/KAAAAAMAAAABAAAAAwAAAEEAaQByAAAAAAAAAIA/KQAAAAQAAAABAAAABAAAAEIAYQBzAHMAAAAAAAAAgD8qAAAABQAAAAEAAAAGAAAAVAByAGUAYgBs
        AGUAAAAAAAAAgD8rAAAABgAAAAEAAAAOAAAAPAB7AFsAYQB1AHQAbwBuAGEAbQBlAF0AfQA+AAAAAAAAAIA//////wcAAAABAAAADgAAADwAewBbAGEAdQB0AG8AbgBh
        AG0AZQBdAH0APgAAAAAAAACAP/////8IAAAAAQAAAAgAAAAIAAAAUwBoAGUAbABmACAARQBRAAEAAAAGAAAATwBuAC8ATwBmAGYAAAAAAAAAgD8sAAAAAQAAAAEAAAAE
        AAAATABQACAAWAAAAAAAAACAPy0AAAACAAAAAQAAAAQAAABMAFAAIABZAAAAAAAAAIA/LgAAAAMAAAABAAAABAAAAEgAUAAgAFgAAAAAAAAAgD8vAAAABAAAAAEAAAAE
        AAAASABQACAAWAAAAAAAAACAPzAAAAAFAAAAAQAAAAYAAABWAG8AbAB1AG0AZQAAAAAAAACAPzEAAAAGAAAAAQAAAA4AAAA8AHsAWwBhAHUAdABvAG4AYQBtAGUAXQB9
        AD4AAAAAAAAAgD//////BwAAAAEAAAAOAAAAPAB7AFsAYQB1AHQAbwBuAGEAbQBlAF0AfQA+AAAAAAAAAIA//////wgAAAABAAAACAAAAAcAAABQAGUAYQBrACAARQBR
        AAEAAAAGAAAATwBuAC8ATwBmAGYAAAAAAAAAgD8yAAAAAQAAAAEAAAAIAAAAUABlAGEAawAgADEAIABYAAAAAAAAAIA/MwAAAAIAAAABAAAACAAAAFAAZQBhAGsAIAAx
        ACAAWQAAAAAAAACAPzQAAAADAAAAAQAAAAgAAABQAGUAYQBrACAAMgAgAFgAAAAAAAAAgD82AAAABAAAAAEAAAAJAAAAUABlAGEAawAgADIAIABZACAAAAAAAAAAgD83
        AAAABQAAAAEAAAACAAAAUQAxAAAAAAAAAIA/NQAAAAYAAAABAAAAAgAAAFEAMgAAAAAAAACAPzgAAAAHAAAAAQAAAAYAAABWAG8AbAB1AG0AZQAAAAAAAACAPzkAAAAI
        AAAAAQAAAAgAAAAIAAAAVABhAGwAawAgAFcAYQBoAAEAAAAGAAAATwBuAC8ATwBmAGYAAAAAAAAAgD86AAAAAQAAAAEAAAAFAAAATQBvAHUAdABoAAAAAAAAAIA/OwAA
        AAIAAAABAAAACAAAAE0AbwBkAHcAaABlAGUAbAAAAAAAAACAPzwAAAADAAAAAQAAAAQAAABTAGkAegBlAAAAAAAAAIA/PQAAAAQAAAABAAAABgAAAEIAcgBpAGcAaAB0
        AAAAAAAAAIA/PgAAAAUAAAABAAAADgAAADwAewBbAGEAdQB0AG8AbgBhAG0AZQBdAH0APgAAAAAAAACAP/////8GAAAAAQAAAA4AAAA8AHsAWwBhAHUAdABvAG4AYQBt
        AGUAXQB9AD4AAAAAAAAAgD//////BwAAAAEAAAAOAAAAPAB7AFsAYQB1AHQAbwBuAGEAbQBlAF0AfQA+AAAAAAAAAIA//////wgAAAABAAAACAAAAAYAAABQAGgAYQBz
        AGUAcgABAAAABgAAAE8AbgAvAE8AZgBmAAAAAAAAAIA/PwAAAAEAAAABAAAABAAAAFIAYQB0AGUAAAAAAAAAgD9AAAAAAgAAAAEAAAAHAAAATgBvAHQAYwBoAGUAcwAA
        AAAAAACAP0gAAAADAAAAAQAAAAUAAABDAG8AbABvAHIAAAAAAAAAgD9BAAAABAAAAAEAAAAJAAAAUwB3AGUAZQBwACAATQBpAG4AAAAAAAAAgD9DAAAABQAAAAEAAAAJ
        AAAAUwB3AGUAZQBwACAATQBhAHgAAAAAAAAAgD9EAAAABgAAAAEAAAAGAAAAUgBvAHQAYQB0AGUAAAAAAAAAgD9CAAAABwAAAAEAAAAHAAAARAByAHkALwBXAGUAdAAA
        AAAAAACAP0YAAAAIAAAAAQAAAAgAAAAHAAAARgBsAGEAbgBnAGUAcgABAAAABgAAAE8AbgAvAE8AZgBmAAAAAAAAAIA/SQAAAAEAAAABAAAABAAAAFIAYQB0AGUAAAAA
        AAAAgD9KAAAAAgAAAAEAAAAEAAAAUwB5AG4AYwAAAAAAAACAP08AAAADAAAAAQAAAAYAAABTAHQAYQB0AGkAYwAAAAAAAACAP0sAAAAEAAAAAQAAAAUAAABEAGUAcAB0
        AGgAAAAAAAAAgD9MAAAABQAAAAEAAAAFAAAAQwBvAGwAbwByAAAAAAAAAIA/TQAAAAYAAAABAAAABgAAAFIAbwB0AGEAdABlAAAAAAAAAIA/TgAAAAcAAAABAAAABwAA
        AEQAcgB5AC8AVwBlAHQAAAAAAAAAgD9RAAAACAAAAAEAAAAIAAAABwAAAFQAcgBlAG0AbwBsAG8AAQAAAAYAAABPAG4ALwBPAGYAZgAAAAAAAACAP1IAAAABAAAAAQAA
        AAQAAABSAGEAdABlAAAAAAAAAIA/UwAAAAIAAAABAAAABAAAAFMAeQBuAGMAAAAAAAAAgD9VAAAAAwAAAAEAAAAJAAAASQBuAHQAZQBuAHMAaQB0AHkAAAAAAAAAgD9U
        AAAABAAAAAEAAAAGAAAAUwB0AGUAcgBlAG8AAAAAAAAAgD9WAAAABQAAAAEAAAAFAAAAVwBpAGQAdABoAAAAAAAAAIA/VwAAAAYAAAABAAAABgAAAEEAdAB0AGEAYwBr
        AAAAAAAAAIA/WAAAAAcAAAABAAAABQAAAEQAZQBjAGEAeQAAAAAAAACAP1kAAAAIAAAAAQAAAAgAAAAGAAAAUgBlAHYAZQByAGIAAQAAAAYAAABPAG4ALwBPAGYAZgAA
        AAAAAACAP1oAAAABAAAAAQAAAAQAAABUAGkAbQBlAAAAAAAAAIA/XQAAAAIAAAABAAAABgAAAEIAcgBpAGcAaAB0AAAAAAAAAIA/XAAAAAMAAAABAAAABgAAAFQAcgBl
        AGIAbABlAAAAAAAAAIA/XgAAAAQAAAABAAAABwAAAEQAcgB5AC8AVwBlAHQAAAAAAAAAgD9bAAAABQAAAAEAAAAOAAAAPAB7AFsAYQB1AHQAbwBuAGEAbQBlAF0AfQA+
        AAAAAAAAAIA//////wYAAAABAAAADgAAADwAewBbAGEAdQB0AG8AbgBhAG0AZQBdAH0APgAAAAAAAACAP/////8HAAAAAQAAAA4AAAA8AHsAWwBhAHUAdABvAG4AYQBt
        AGUAXQB9AD4AAAAAAAAAgD//////CAAAAAEAAAAIAAAACQAAAFAAcwB5ACAARABlAGwAYQB5AAEAAAAGAAAATwBuAC8ATwBmAGYAAAAAAAAAgD9fAAAAAQAAAAEAAAAE
        AAAAVABpAG0AZQAAAAAAAACAP2EAAAACAAAAAQAAAAgAAABGAGUAZQBkAGIAYQBjAGsAAAAAAAAAgD9kAAAAAwAAAAEAAAAHAAAAUgBlAHYAZQByAHMAZQAAAAAAAACA
        P2IAAAAEAAAAAQAAAAYAAABTAHQAZQByAGUAbwAAAAAAAACAP2cAAAAFAAAAAQAAAAYAAABEAGUAdAB1AG4AZQAAAAAAAACAP2MAAAAGAAAAAQAAAAUAAABQAGkAdABj
        AGgAAAAAAAAAgD9lAAAABwAAAAEAAAAHAAAARAByAHkALwBXAGUAdAAAAAAAAACAP2AAAAAIAAAAAQAAAAgAAAAJAAAAQwBoAHIAIABEAGUAbABhAHkAAQAAAAYAAABP
        AG4ALwBPAGYAZgAAAAAAAACAP28AAAABAAAAAQAAAAQAAABUAGkAbQBlAAAAAAAAAIA/aAAAAAIAAAABAAAABgAAAEwAbwAgAEMAdQB0AAAAAAAAAIA/bQAAAAMAAAAB
        AAAABgAAAEgAaQAgAEMAdQB0AAAAAAAAAIA/bAAAAAQAAAABAAAACAAAAEYAZQBlAGQAYgBhAGMAawAAAAAAAACAP2sAAAAFAAAAAQAAAAgAAABNAG8AZAAgAFIAYQB0
        AGUAAAAAAAAAgD9xAAAABgAAAAEAAAAJAAAATQBvAGQAIABEAGUAcAB0AGgAAAAAAAAAgD9qAAAABwAAAAEAAAAHAAAARAByAHkALwBXAGUAdAAAAAAAAACAP3AAAAAI
        AAAAAQAAAAAAAAABAAAARFNJTnQAAACaBgAAAAAAAAEAAABoc2luAQAAAAAAAABfAjRqxWnsToleTuDmPxvIagYAAAAAAABEU0lOdAAAAAEAAABRBgAAAAAAAERTSU5z
        AAAAAQAAABgAAAAAAAAARFNJTgEAAAABAAAAAQAAAAEAAAABmBAAABgGAAACmBAAYAAAASAFA2hzaW5AB0AAEMi6ABcODQlDrNzYancP+McYQBQgAANEU0lOQCPgBwNA
        AEAbAG0gCAFEECAEIABAI+ADUxB1oWnz+VgsSrdZ344DzJatFKAnwDdAL+AXZ0AjAcwPIFwgAAAFIAMBPg0gBCAACHRzcnBFOE1GzyALA7wjAABAIg5GdWxsIEJsYXN0
        IExlYWRAbRBBbmdyeSBEaXN0b3J0aW9uCyAuBUNob3J1c2AiQEwMUmh5dGhtIEd1aXRhciAeIAAE+EEAAHAgAwAAIAMCgD8A4BAAAkhCAOAQH2A3A0AAAAwgIwAsIANg
        D+ACAGAPIB8AiCAbQABgD+AEAA5SuF4+ZMz9Pv1llz4AABAghwiAP+CcMT8mwlZgCxIAAMBAzcyGwXJokT4M12/BCGbmICcEAADNzMxABwM/mpkZICMAAKADBIA/WxG0
        YBcG2or9PlkgKWAfBm+BND/UCQhAI0AA4AcHAwDKMiQgE0BrwACACwSuR+E9AIAAIMMEAABUUicgJwwAAHL5Hz/KMqQ+OQpP4QA7Ai5ug0B3BwALJBg/exSuIAuAQwr4
        wgQ/QKS/PutROGA7AylcDz9AIwIsQyxAD0ADAwA9m9XAZwYA9igdQjcaQQdAAACAYHcAAGBLAJwhQwDGIAMA4KATAMggC8AAQGtAK8GrQA/gFwAQgD/NzGw/XI9CPhiV
        1D4wKqkgs+ADAEBfQAPAAEBbACAg70AAQAtAAwCgIINAB0AAALQgCwCWIAPgAwDAP0AHQAPAAEAz4ItLADAg30CXQKsAiiDLAEAgA+Af4yAAAANgAAIBAQKAAAMAAAEE
        YAACAgIDIB2AAA42PCgbBQ4MAAAnJCItIi2AFOAFACA4gAAA/oAG4DwAAGQgAeBKAAQBAf8BAUS/4AAAIA7gEABgHOAAKWAAAEAhcgOYQdUJgrIC4/J/YxLgCwACuB4F
        YBsGCtcjvlyPgmALwACgWeAEW+BEWeAEAOA+WUAAIAUAAOACAOA9WQEEACPdDN/MhkLh2l5Et8sCQhIi2eARFAesPZ1BzwDgRUApAxCA30NgKQAAJXgDEELCRoMMAB6A
        FEApAr9WfGApAAsjKeAKKQGeQiK+BIA/+lDOIzsBgD/gBAwjBUBYQANDYQGAP2A/BnzVij6PwnVgAwPMvIwr4BEUAwfwFj/gCCkDhMBqP0A2wANgPuAcKWCbQIZAOuAE
        DCCo4AUACwSS7Xw+kMI1Pw8tUiAyAABgdeARFAZWDg0/Z2Zm4AUpBq5HAT9xPWrgBRTgHCkgmwIAP2YgT0AD4AQMQKhgUEAhQANAECAABGBCt23bIYAB/kLgABADAMDa
        QkAQQD8gAAB84AMMAIgjhOAAGSAqIAygNyAZ4AU3AnBCDSAdYrRACAUDFDsxwQBgAAnIwAAAXMED2YkdoBAFoL/FTmzAoG8FAAB2YqfB4AAMQADgAAwgJgDBoG9AAEBI
        AAzgBSoIAbw0jMJfUczAQCZg6CAoYAPgCBBAVWAZQCHgEQzgFTdA32BAIERAAAIyEgElsqAAAi0BKKAJ4BAAADLgEBngCgABUGTnBHoAUOAKIuAHAOAEXwFQUOAVMgJQ
        ZDjgBC/gHgAAZCAA4B4qAQBHIAPgIwDgIFjgZwAA/+AXACReAwAAEGQiPgFaXSAJAgEAEkAERM9CayXPJ7WgCQAB4AAJAALgAAkAA6AJAgEBBMAJAwAF/gOAMQEABuAA
        CQIH/gWAEwEBCKAnAgAACeAACeAJYyh0g1AgTyCbIAxACSCsgAkCAQUBoGMDAQYA/mATIGMA/+AAYwH/B6ATAQkASLdAOyA6YBMgMqAJIMcBAPugEwAD4AAJAgQA96AT
        AAWgCSDHoAkEAQEHAPlAHSAAAggA/UAJIEUACeAAO+ADYyC14EkAABGgUgNrbmFiQH3AAAGAACAAABmgEQNjdG5pTWYBEScgFCAAAEEgAyAARqIBoELiEw8BdADiATBN
        m+ATK+D9AOCpAAAgIeNAAANzaXVnQiQA6OICpwAVIBgAGSADQshAAyNuYAAHZ3B0Y1lUTUVADAsNYmWFAQAAAAAAAAABAAAAAAEAAAAAAAAA
        ADxkaXNhYmxlZD4AEAAAAA==
      >
      PRESETNAME <disabled>
      FLOATPOS 0 0 0 0
      FXID {40CD88AD-DE76-4CFF-94D6-4958DF7C374C}
      WAK 0 0
    >
    <ITEM
      POSITION 2
      SNAPOFFS 0
      LENGTH 12
      LOOP 1
      ALLTAKES 0
      FADEIN 1 0 0 1 0 0
      FADEOUT 1 0 0 1 0 0
      MUTE 0 0
      SEL 0
      IGUID {7DA1BF68-9FD8-41A1-A39D-AD88F30AAB11}
      IID 3
      NAME "Base rítmica 2 (con palm mute) - Marty.mid"
      VOLPAN 1 0 1 -1
      SOFFS 0 0
      PLAYRATE 1 1 0 -1 0 0.0025
      CHANMODE 0
      GUID {AC66A01D-F5DE-4F9E-A5EE-E836D6D22E15}
      <SOURCE MIDI
        HASDATA 1 960 QN
        CCINTERP 32
        POOLEDEVTS {B085B46F-A972-417D-8439-4850C0F9A268}
        <X 0 0 0 0 3 "Base rítmica 2 (con palm mute)"
          /wNCYXNlIHLDrXRtaWNhIDIgKGNvbiBwYWxtIG11dGUp
        >
        E 0 c2 1e 00
        E 0 b2 40 00
        E 0 b2 5b 30
        E 0 b2 0a 40
        E 0 b2 07 7f
        E 0 b2 0a 40
        E 0 b2 5b 3b
        E 0 92 32 61
        E 0 92 39 61
        E 0 92 3e 61
        E 0 b2 79 00
        E 960 82 32 00
        E 0 82 39 00
        E 0 82 3e 00
        E 0 92 32 4a
        E 0 92 39 4a
        E 240 82 32 00
        E 0 82 39 00
        E 240 92 32 4a
        E 0 92 39 4a
        E 240 82 32 00
        E 0 82 39 00
        E 240 92 32 4d
        E 0 92 39 4d
        E 240 82 32 00
        E 0 82 39 00
        E 240 92 32 4b
        E 0 92 39 4b
        E 240 82 32 00
        E 0 82 39 00
        E 240 92 32 4b
        E 0 92 39 4b
        E 240 82 32 00
        E 0 82 39 00
        E 240 92 32 4b
        E 0 92 39 4b
        E 240 82 32 00
        E 0 82 39 00
        E 240 92 32 50
        E 0 92 39 50
        E 240 82 32 00
        E 0 82 39 00
        E 240 92 32 4c
        E 0 92 39 4c
        E 240 82 32 00
        E 0 82 39 00
        E 240 92 32 4c
        E 0 92 39 4c
        E 240 82 32 00
        E 0 82 39 00
        E 240 92 32 4c
        E 0 92 39 4c
        E 240 82 32 00
        E 0 82 39 00
        E 240 92 32 4f
        E 0 92 39 4f
        E 240 82 32 00
        E 0 82 39 00
        E 240 92 32 4c
        E 0 92 39 4c
        E 240 82 32 00
        E 0 82 39 00
        E 240 92 32 4c
        E 0 92 39 4c
        E 240 82 32 00
        E 0 82 39 00
        E 240 92 32 4c
        E 0 92 39 4c
        E 240 82 32 00
        E 0 82 39 00
        E 240 92 30 66
        E 0 92 37 66
        E 0 92 3c 66
        E 960 82 30 00
        E 0 82 37 00
        E 0 82 3c 00
        E 0 92 30 48
        E 0 92 37 48
        E 240 82 30 00
        E 0 82 37 00
        E 240 92 30 49
        E 0 92 37 49
        E 240 82 30 00
        E 0 82 37 00
        E 240 92 30 4c
        E 0 92 37 4c
        E 240 82 30 00
        E 0 82 37 00
        E 240 92 30 4a
        E 0 92 37 4a
        E 240 82 30 00
        E 0 82 37 00
        E 240 92 30 4a
        E 0 92 37 4a
        E 240 82 30 00
        E 0 82 37 00
        E 240 92 30 4b
        E 0 92 37 4b
        E 240 82 30 00
        E 0 82 37 00
        E 240 92 2f 66
        E 0 92 36 66
        E 0 92 3b 66
        E 960 82 2f 00
        E 0 82 36 00
        E 0 82 3b 00
        E 0 92 2f 48
        E 0 92 36 48
        E 240 82 2f 00
        E 0 82 36 00
        E 240 92 2f 49
        E 0 92 36 49
        E 240 82 2f 00
        E 0 82 36 00
        E 240 92 2f 4d
        E 0 92 36 4d
        E 240 82 2f 00
        E 0 82 36 00
        E 240 92 2f 4a
        E 0 92 36 4a
        E 240 82 2f 00
        E 0 82 36 00
        E 240 92 2f 62
        E 0 92 36 62
        E 0 92 3b 62
        E 960 82 2f 00
        E 0 82 36 00
        E 0 82 3b 00
        E 0 92 32 6b
        E 0 92 39 6b
        E 0 92 3e 6b
        E 960 82 32 00
        E 0 82 39 00
        E 0 82 3e 00
        E 0 92 32 4a
        E 0 92 39 4a
        E 240 82 32 00
        E 0 82 39 00
        E 240 92 32 4a
        E 0 92 39 4a
        E 240 82 32 00
        E 0 82 39 00
        E 240 92 32 4d
        E 0 92 39 4d
        E 240 82 32 00
        E 0 82 39 00
        E 240 92 32 4b
        E 0 92 39 4b
        E 240 82 32 00
        E 0 82 39 00
        E 240 92 32 4b
        E 0 92 39 4b
        E 240 82 32 00
        E 0 82 39 00
        E 240 92 32 4b
        E 0 92 39 4b
        E 240 82 32 00
        E 0 82 39 00
        E 240 92 32 50
        E 0 92 39 50
        E 240 82 32 00
        E 0 82 39 00
        E 240 92 32 4c
        E 0 92 39 4c
        E 240 82 32 00
        E 0 82 39 00
        E 240 92 32 4c
        E 0 92 39 4c
        E 240 82 32 00
        E 0 82 39 00
        E 240 92 32 4c
        E 0 92 39 4c
        E 240 82 32 00
        E 0 82 39 00
        E 240 92 32 4f
        E 0 92 39 4f
        E 240 82 32 00
        E 0 82 39 00
        E 240 92 32 4c
        E 0 92 39 4c
        E 240 82 32 00
        E 0 82 39 00
        E 240 92 32 4c
        E 0 92 39 4c
        E 240 82 32 00
        E 0 82 39 00
        E 240 92 32 4c
        E 0 92 39 4c
        E 240 82 32 00
        E 0 82 39 00
        E 240 92 30 66
        E 0 92 37 66
        E 0 92 3c 66
        E 960 82 30 00
        E 0 82 37 00
        E 0 82 3c 00
        E 0 92 30 48
        E 0 92 37 48
        E 240 82 30 00
        E 0 82 37 00
        E 240 92 30 49
        E 0 92 37 49
        E 240 82 30 00
        E 0 82 37 00
        E 240 92 30 4c
        E 0 92 37 4c
        E 240 82 30 00
        E 0 82 37 00
        E 240 92 30 4a
        E 0 92 37 4a
        E 240 82 30 00
        E 0 82 37 00
        E 240 92 30 4a
        E 0 92 37 4a
        E 240 82 30 00
        E 0 82 37 00
        E 240 92 30 4b
        E 0 92 37 4b
        E 240 82 30 00
        E 0 82 37 00
        E 240 92 2b 4a
        E 0 92 32 4a
        E 240 82 2b 00
        E 0 82 32 00
        E 240 92 2b 47
        E 0 92 32 47
        E 240 82 2b 00
        E 0 82 32 00
        E 240 92 2b 48
        E 0 92 32 48
        E 240 82 2b 00
        E 0 82 32 00
        E 240 92 2b 49
        E 0 92 32 49
        E 240 82 2b 00
        E 0 82 32 00
        E 240 92 2d 4f
        E 0 92 34 4f
        E 240 82 2d 00
        E 0 82 34 00
        E 240 92 2d 4c
        E 0 92 34 4c
        E 240 82 2d 00
        E 0 82 34 00
        E 240 92 2d 4c
        E 0 92 34 4c
        E 240 82 2d 00
        E 0 82 34 00
        E 240 92 2d 4c
        E 0 92 34 4c
        E 240 82 2d 00
        E 0 82 34 00
        E 240 b0 7b 00
        CCINTERP 32
        CHASE_CC_TAKEOFFS 1
        GUID {5404DA64-C354-4077-8A0C-EE6E2BEA31AE}
        IGNTEMPO 0 120 4 4
        SRCCOLOR 4
      >
    >
    <ITEM
      POSITION 15.5
      SNAPOFFS 0
      LENGTH 12
      LOOP 1
      ALLTAKES 0
      FADEIN 1 0 0 1 0 0
      FADEOUT 1 0 0 1 0 0
      MUTE 0 0
      SEL 0
      IGUID {D652C400-22DA-4617-B0EB-AF2CFDDA5287}
      IID 12
      NAME "Base rítmica 2 (con palm mute) - Marty.mid"
      VOLPAN 1 0 1 -1
      SOFFS 12 32
      PLAYRATE 1 1 0 -1 0 0.0025
      CHANMODE 0
      GUID {6206F599-988B-4AB4-A9FB-CADBA5C05A7D}
      <SOURCE MIDI
        HASDATA 1 960 QN
        CCINTERP 32
        POOLEDEVTS {523CF685-DD6F-4821-9DF3-701850563774}
        <X 0 0 0 0 3 "Base rítmica 2 (con palm mute)"
          /wNCYXNlIHLDrXRtaWNhIDIgKGNvbiBwYWxtIG11dGUp
        >
        E 0 c2 1e 00
        E 0 b2 40 00
        E 0 b2 5b 30
        E 0 b2 0a 40
        E 0 b2 07 7f
        E 0 b2 0a 40
        E 0 b2 5b 3b
        E 0 92 32 61
        E 0 92 39 61
        E 0 92 3e 61
        E 0 b2 79 00
        E 960 82 32 00
        E 0 82 39 00
        E 0 82 3e 00
        E 0 92 32 4a
        E 0 92 39 4a
        E 240 82 32 00
        E 0 82 39 00
        E 240 92 32 4a
        E 0 92 39 4a
        E 240 82 32 00
        E 0 82 39 00
        E 240 92 32 4d
        E 0 92 39 4d
        E 240 82 32 00
        E 0 82 39 00
        E 240 92 32 4b
        E 0 92 39 4b
        E 240 82 32 00
        E 0 82 39 00
        E 240 92 32 4b
        E 0 92 39 4b
        E 240 82 32 00
        E 0 82 39 00
        E 240 92 32 4b
        E 0 92 39 4b
        E 240 82 32 00
        E 0 82 39 00
        E 240 92 32 50
        E 0 92 39 50
        E 240 82 32 00
        E 0 82 39 00
        E 240 92 32 4c
        E 0 92 39 4c
        E 240 82 32 00
        E 0 82 39 00
        E 240 92 32 4c
        E 0 92 39 4c
        E 240 82 32 00
        E 0 82 39 00
        E 240 92 32 4c
        E 0 92 39 4c
        E 240 82 32 00
        E 0 82 39 00
        E 240 92 32 4f
        E 0 92 39 4f
        E 240 82 32 00
        E 0 82 39 00
        E 240 92 32 4c
        E 0 92 39 4c
        E 240 82 32 00
        E 0 82 39 00
        E 240 92 32 4c
        E 0 92 39 4c
        E 240 82 32 00
        E 0 82 39 00
        E 240 92 32 4c
        E 0 92 39 4c
        E 240 82 32 00
        E 0 82 39 00
        E 240 92 30 66
        E 0 92 37 66
        E 0 92 3c 66
        E 960 82 30 00
        E 0 82 37 00
        E 0 82 3c 00
        E 0 92 30 48
        E 0 92 37 48
        E 240 82 30 00
        E 0 82 37 00
        E 240 92 30 49
        E 0 92 37 49
        E 240 82 30 00
        E 0 82 37 00
        E 240 92 30 4c
        E 0 92 37 4c
        E 240 82 30 00
        E 0 82 37 00
        E 240 92 30 4a
        E 0 92 37 4a
        E 240 82 30 00
        E 0 82 37 00
        E 240 92 30 4a
        E 0 92 37 4a
        E 240 82 30 00
        E 0 82 37 00
        E 240 92 30 4b
        E 0 92 37 4b
        E 240 82 30 00
        E 0 82 37 00
        E 240 92 2f 66
        E 0 92 36 66
        E 0 92 3b 66
        E 960 82 2f 00
        E 0 82 36 00
        E 0 82 3b 00
        E 0 92 2f 48
        E 0 92 36 48
        E 240 82 2f 00
        E 0 82 36 00
        E 240 92 2f 49
        E 0 92 36 49
        E 240 82 2f 00
        E 0 82 36 00
        E 240 92 2f 4d
        E 0 92 36 4d
        E 240 82 2f 00
        E 0 82 36 00
        E 240 92 2f 4a
        E 0 92 36 4a
        E 240 82 2f 00
        E 0 82 36 00
        E 240 92 2f 62
        E 0 92 36 62
        E 0 92 3b 62
        E 960 82 2f 00
        E 0 82 36 00
        E 0 82 3b 00
        E 0 92 32 6b
        E 0 92 39 6b
        E 0 92 3e 6b
        E 960 82 32 00
        E 0 82 39 00
        E 0 82 3e 00
        E 0 92 32 4a
        E 0 92 39 4a
        E 240 82 32 00
        E 0 82 39 00
        E 240 92 32 4a
        E 0 92 39 4a
        E 240 82 32 00
        E 0 82 39 00
        E 240 92 32 4d
        E 0 92 39 4d
        E 240 82 32 00
        E 0 82 39 00
        E 240 92 32 4b
        E 0 92 39 4b
        E 240 82 32 00
        E 0 82 39 00
        E 240 92 32 4b
        E 0 92 39 4b
        E 240 82 32 00
        E 0 82 39 00
        E 240 92 32 4b
        E 0 92 39 4b
        E 240 82 32 00
        E 0 82 39 00
        E 240 92 32 50
        E 0 92 39 50
        E 240 82 32 00
        E 0 82 39 00
        E 240 92 32 4c
        E 0 92 39 4c
        E 240 82 32 00
        E 0 82 39 00
        E 240 92 32 4c
        E 0 92 39 4c
        E 240 82 32 00
        E 0 82 39 00
        E 240 92 32 4c
        E 0 92 39 4c
        E 240 82 32 00
        E 0 82 39 00
        E 240 92 32 4f
        E 0 92 39 4f
        E 240 82 32 00
        E 0 82 39 00
        E 240 92 32 4c
        E 0 92 39 4c
        E 240 82 32 00
        E 0 82 39 00
        E 240 92 32 4c
        E 0 92 39 4c
        E 240 82 32 00
        E 0 82 39 00
        E 240 92 32 4c
        E 0 92 39 4c
        E 240 82 32 00
        E 0 82 39 00
        E 240 92 30 66
        E 0 92 37 66
        E 0 92 3c 66
        E 960 82 30 00
        E 0 82 37 00
        E 0 82 3c 00
        E 0 92 30 48
        E 0 92 37 48
        E 240 82 30 00
        E 0 82 37 00
        E 240 92 30 49
        E 0 92 37 49
        E 240 82 30 00
        E 0 82 37 00
        E 240 92 30 4c
        E 0 92 37 4c
        E 240 82 30 00
        E 0 82 37 00
        E 240 92 30 4a
        E 0 92 37 4a
        E 240 82 30 00
        E 0 82 37 00
        E 240 92 30 4a
        E 0 92 37 4a
        E 240 82 30 00
        E 0 82 37 00
        E 240 92 30 4b
        E 0 92 37 4b
        E 240 82 30 00
        E 0 82 37 00
        E 240 92 2b 4a
        E 0 92 32 4a
        E 240 82 2b 00
        E 0 82 32 00
        E 240 92 2b 47
        E 0 92 32 47
        E 240 82 2b 00
        E 0 82 32 00
        E 240 92 2b 48
        E 0 92 32 48
        E 240 82 2b 00
        E 0 82 32 00
        E 240 92 2b 49
        E 0 92 32 49
        E 240 82 2b 00
        E 0 82 32 00
        E 240 92 2d 4f
        E 0 92 34 4f
        E 240 82 2d 00
        E 0 82 34 00
        E 240 92 2d 4c
        E 0 92 34 4c
        E 240 82 2d 00
        E 0 82 34 00
        E 240 92 2d 4c
        E 0 92 34 4c
        E 240 82 2d 00
        E 0 82 34 00
        E 240 92 2d 4c
        E 0 92 34 4c
        E 240 82 2d 00
        E 0 82 34 00
        E 240 92 2f 6c
        E 0 92 36 6c
        E 0 92 3b 6c
        E 960 82 2f 00
        E 0 82 36 00
        E 0 82 3b 00
        E 0 92 2f 4c
        E 0 92 36 4c
        E 240 82 2f 00
        E 0 82 36 00
        E 240 92 2f 4c
        E 0 92 36 4c
        E 240 82 2f 00
        E 0 82 36 00
        E 240 92 2f 4f
        E 0 92 36 4f
        E 240 82 2f 00
        E 0 82 36 00
        E 240 92 2f 4c
        E 0 92 36 4c
        E 240 82 2f 00
        E 0 82 36 00
        E 240 92 2f 63
        E 0 92 36 63
        E 0 92 3b 63
        E 960 82 2f 00
        E 0 82 36 00
        E 0 82 3b 00
        E 0 92 30 68
        E 0 92 37 68
        E 0 92 3c 68
        E 960 82 30 00
        E 0 82 37 00
        E 0 82 3c 00
        E 0 92 30 48
        E 0 92 37 48
        E 240 82 30 00
        E 0 82 37 00
        E 240 92 30 49
        E 0 92 37 49
        E 240 82 30 00
        E 0 82 37 00
        E 240 92 30 4c
        E 0 92 37 4c
        E 240 82 30 00
        E 0 82 37 00
        E 240 92 30 4a
        E 0 92 37 4a
        E 240 82 30 00
        E 0 82 37 00
        E 240 92 30 61
        E 0 92 37 61
        E 0 92 3c 61
        E 960 82 30 00
        E 0 82 37 00
        E 0 82 3c 00
        E 0 92 31 67
        E 0 92 38 67
        E 0 92 3d 67
        E 960 82 31 00
        E 0 82 38 00
        E 0 82 3d 00
        E 0 92 31 48
        E 0 92 38 48
        E 240 82 31 00
        E 0 82 38 00
        E 240 92 31 49
        E 0 92 38 49
        E 240 82 31 00
        E 0 82 38 00
        E 240 92 31 4c
        E 0 92 38 4c
        E 240 82 31 00
        E 0 82 38 00
        E 240 92 31 4a
        E 0 92 38 4a
        E 240 82 31 00
        E 0 82 38 00
        E 240 92 31 61
        E 0 92 38 61
        E 0 92 3d 61
        E 960 82 31 00
        E 0 82 38 00
        E 0 82 3d 00
        E 0 92 32 67
        E 0 92 39 67
        E 0 92 3e 67
        E 480 82 32 00
        E 0 82 39 00
        E 0 82 3e 00
        E 0 92 32 60
        E 0 92 39 60
        E 0 92 3e 60
        E 480 82 32 00
        E 0 82 39 00
        E 0 82 3e 00
        E 0 92 32 5f
        E 0 92 39 5f
        E 0 92 3e 5f
        E 480 82 32 00
        E 0 82 39 00
        E 0 82 3e 00
        E 0 92 32 5e
        E 0 92 39 5e
        E 0 92 3e 5e
        E 480 82 32 00
        E 0 82 39 00
        E 0 82 3e 00
        E 0 92 32 61
        E 0 92 39 61
        E 0 92 3e 61
        E 480 82 32 00
        E 0 82 39 00
        E 0 82 3e 00
        E 0 92 32 5d
        E 0 92 39 5d
        E 0 92 3e 5d
        E 480 82 32 00
        E 0 82 39 00
        E 0 82 3e 00
        E 0 92 32 5d
        E 0 92 39 5d
        E 0 92 3e 5d
        E 480 82 32 00
        E 0 82 39 00
        E 0 82 3e 00
        E 0 92 32 5c
        E 0 92 39 5c
        E 0 92 3e 5c
        E 480 82 32 00
        E 0 82 39 00
        E 0 82 3e 00
        E 0 92 32 56
        E 0 92 3b 56
        E 480 82 32 00
        E 0 82 3b 00
        E 0 92 32 52
        E 0 92 3b 52
        E 480 82 32 00
        E 0 82 3b 00
        E 0 92 32 54
        E 0 92 3b 54
        E 480 82 32 00
        E 0 82 3b 00
        E 0 92 32 55
        E 0 92 3b 55
        E 480 82 32 00
        E 0 82 3b 00
        E 0 92 34 54
        E 0 92 39 54
        E 480 82 34 00
        E 0 82 39 00
        E 0 92 34 52
        E 0 92 39 52
        E 480 82 34 00
        E 0 82 39 00
        E 0 92 34 53
        E 0 92 39 53
        E 480 82 34 00
        E 0 82 39 00
        E 0 92 34 55
        E 0 92 39 55
        E 480 82 34 00
        E 0 82 39 00
        E 0 92 32 6e
        E 0 92 39 6e
        E 0 92 3e 6e
        E 960 82 32 00
        E 0 82 39 00
        E 0 82 3e 00
        E 0 92 32 48
        E 0 92 39 48
        E 240 82 32 00
        E 0 82 39 00
        E 240 92 32 49
        E 0 92 39 49
        E 240 82 32 00
        E 0 82 39 00
        E 240 92 32 4c
        E 0 92 39 4c
        E 240 82 32 00
        E 0 82 39 00
        E 240 92 32 4a
        E 0 92 39 4a
        E 240 82 32 00
        E 0 82 39 00
        E 240 92 32 4b
        E 0 92 39 4b
        E 240 82 32 00
        E 0 82 39 00
        E 240 92 32 4b
        E 0 92 39 4b
        E 240 82 32 00
        E 0 82 39 00
        E 240 92 34 6c
        E 0 92 3b 6c
        E 0 92 40 6c
        E 960 82 34 00
        E 0 82 3b 00
        E 0 82 40 00
        E 0 92 34 4b
        E 0 92 3b 4b
        E 240 82 34 00
        E 0 82 3b 00
        E 240 92 34 4b
        E 0 92 3b 4b
        E 240 82 34 00
        E 0 82 3b 00
        E 240 92 34 4e
        E 0 92 3b 4e
        E 240 82 34 00
        E 0 82 3b 00
        E 240 92 34 4b
        E 0 92 3b 4b
        E 240 82 34 00
        E 0 82 3b 00
        E 240 92 34 4b
        E 0 92 3b 4b
        E 240 82 34 00
        E 0 82 3b 00
        E 240 92 34 4c
        E 0 92 3b 4c
        E 240 82 34 00
        E 0 82 3b 00
        E 240 92 33 67
        E 0 92 3a 67
        E 0 92 3f 67
        E 480 82 33 00
        E 0 82 3a 00
        E 0 82 3f 00
        E 480 92 33 5f
        E 0 92 3a 5f
        E 0 92 3f 5f
        E 480 82 33 00
        E 0 82 3a 00
        E 0 82 3f 00
        E 480 92 33 62
        E 0 92 3a 62
        E 0 92 3f 62
        E 480 82 33 00
        E 0 82 3a 00
        E 0 82 3f 00
        E 480 92 33 5d
        E 0 92 3a 5d
        E 0 92 3f 5d
        E 480 82 33 00
        E 0 82 3a 00
        E 0 82 3f 00
        E 480 b0 7b 00
        CCINTERP 32
        CHASE_CC_TAKEOFFS 1
        GUID {3CADDEBA-15DE-4603-8AA4-83FCE3229636}
        IGNTEMPO 0 120 4 4
        SRCCOLOR 13
      >
    >
    <ITEM
      POSITION 29
      SNAPOFFS 0
      LENGTH 12
      LOOP 1
      ALLTAKES 0
      FADEIN 1 0 0 1 0 0
      FADEOUT 1 0 0 1 0 0
      MUTE 0 0
      SEL 0
      IGUID {8A5FC541-065D-472F-B82E-A25D7227D614}
      IID 19
      NAME "Base rítmica 2 (con palm mute) - Marty.mid"
      VOLPAN 1 0 1 -1
      SOFFS 24 64
      PLAYRATE 1 1 0 -1 0 0.0025
      CHANMODE 0
      GUID {93FF8B2F-A533-4A47-BBA7-FCD9090AE021}
      <SOURCE MIDI
        HASDATA 1 960 QN
        CCINTERP 32
        POOLEDEVTS {CFCC7C42-52E3-4438-BD2B-CA7C9FEE6A74}
        <X 0 0 0 0 3 "Base rítmica 2 (con palm mute)"
          /wNCYXNlIHLDrXRtaWNhIDIgKGNvbiBwYWxtIG11dGUp
        >
        E 0 c2 1e 00
        E 0 b2 40 00
        E 0 b2 5b 30
        E 0 b2 0a 40
        E 0 b2 07 7f
        E 0 b2 0a 40
        E 0 b2 5b 3b
        E 0 92 32 61
        E 0 92 39 61
        E 0 92 3e 61
        E 0 b2 79 00
        E 960 82 32 00
        E 0 82 39 00
        E 0 82 3e 00
        E 0 92 32 4a
        E 0 92 39 4a
        E 240 82 32 00
        E 0 82 39 00
        E 240 92 32 4a
        E 0 92 39 4a
        E 240 82 32 00
        E 0 82 39 00
        E 240 92 32 4d
        E 0 92 39 4d
        E 240 82 32 00
        E 0 82 39 00
        E 240 92 32 4b
        E 0 92 39 4b
        E 240 82 32 00
        E 0 82 39 00
        E 240 92 32 4b
        E 0 92 39 4b
        E 240 82 32 00
        E 0 82 39 00
        E 240 92 32 4b
        E 0 92 39 4b
        E 240 82 32 00
        E 0 82 39 00
        E 240 92 32 50
        E 0 92 39 50
        E 240 82 32 00
        E 0 82 39 00
        E 240 92 32 4c
        E 0 92 39 4c
        E 240 82 32 00
        E 0 82 39 00
        E 240 92 32 4c
        E 0 92 39 4c
        E 240 82 32 00
        E 0 82 39 00
        E 240 92 32 4c
        E 0 92 39 4c
        E 240 82 32 00
        E 0 82 39 00
        E 240 92 32 4f
        E 0 92 39 4f
        E 240 82 32 00
        E 0 82 39 00
        E 240 92 32 4c
        E 0 92 39 4c
        E 240 82 32 00
        E 0 82 39 00
        E 240 92 32 4c
        E 0 92 39 4c
        E 240 82 32 00
        E 0 82 39 00
        E 240 92 32 4c
        E 0 92 39 4c
        E 240 82 32 00
        E 0 82 39 00
        E 240 92 30 66
        E 0 92 37 66
        E 0 92 3c 66
        E 960 82 30 00
        E 0 82 37 00
        E 0 82 3c 00
        E 0 92 30 48
        E 0 92 37 48
        E 240 82 30 00
        E 0 82 37 00
        E 240 92 30 49
        E 0 92 37 49
        E 240 82 30 00
        E 0 82 37 00
        E 240 92 30 4c
        E 0 92 37 4c
        E 240 82 30 00
        E 0 82 37 00
        E 240 92 30 4a
        E 0 92 37 4a
        E 240 82 30 00
        E 0 82 37 00
        E 240 92 30 4a
        E 0 92 37 4a
        E 240 82 30 00
        E 0 82 37 00
        E 240 92 30 4b
        E 0 92 37 4b
        E 240 82 30 00
        E 0 82 37 00
        E 240 92 2f 66
        E 0 92 36 66
        E 0 92 3b 66
        E 960 82 2f 00
        E 0 82 36 00
        E 0 82 3b 00
        E 0 92 2f 48
        E 0 92 36 48
        E 240 82 2f 00
        E 0 82 36 00
        E 240 92 2f 49
        E 0 92 36 49
        E 240 82 2f 00
        E 0 82 36 00
        E 240 92 2f 4d
        E 0 92 36 4d
        E 240 82 2f 00
        E 0 82 36 00
        E 240 92 2f 4a
        E 0 92 36 4a
        E 240 82 2f 00
        E 0 82 36 00
        E 240 92 2f 62
        E 0 92 36 62
        E 0 92 3b 62
        E 960 82 2f 00
        E 0 82 36 00
        E 0 82 3b 00
        E 0 92 32 6b
        E 0 92 39 6b
        E 0 92 3e 6b
        E 960 82 32 00
        E 0 82 39 00
        E 0 82 3e 00
        E 0 92 32 4a
        E 0 92 39 4a
        E 240 82 32 00
        E 0 82 39 00
        E 240 92 32 4a
        E 0 92 39 4a
        E 240 82 32 00
        E 0 82 39 00
        E 240 92 32 4d
        E 0 92 39 4d
        E 240 82 32 00
        E 0 82 39 00
        E 240 92 32 4b
        E 0 92 39 4b
        E 240 82 32 00
        E 0 82 39 00
        E 240 92 32 4b
        E 0 92 39 4b
        E 240 82 32 00
        E 0 82 39 00
        E 240 92 32 4b
        E 0 92 39 4b
        E 240 82 32 00
        E 0 82 39 00
        E 240 92 32 50
        E 0 92 39 50
        E 240 82 32 00
        E 0 82 39 00
        E 240 92 32 4c
        E 0 92 39 4c
        E 240 82 32 00
        E 0 82 39 00
        E 240 92 32 4c
        E 0 92 39 4c
        E 240 82 32 00
        E 0 82 39 00
        E 240 92 32 4c
        E 0 92 39 4c
        E 240 82 32 00
        E 0 82 39 00
        E 240 92 32 4f
        E 0 92 39 4f
        E 240 82 32 00
        E 0 82 39 00
        E 240 92 32 4c
        E 0 92 39 4c
        E 240 82 32 00
        E 0 82 39 00
        E 240 92 32 4c
        E 0 92 39 4c
        E 240 82 32 00
        E 0 82 39 00
        E 240 92 32 4c
        E 0 92 39 4c
        E 240 82 32 00
        E 0 82 39 00
        E 240 92 30 66
        E 0 92 37 66
        E 0 92 3c 66
        E 960 82 30 00
        E 0 82 37 00
        E 0 82 3c 00
        E 0 92 30 48
        E 0 92 37 48
        E 240 82 30 00
        E 0 82 37 00
        E 240 92 30 49
        E 0 92 37 49
        E 240 82 30 00
        E 0 82 37 00
        E 240 92 30 4c
        E 0 92 37 4c
        E 240 82 30 00
        E 0 82 37 00
        E 240 92 30 4a
        E 0 92 37 4a
        E 240 82 30 00
        E 0 82 37 00
        E 240 92 30 4a
        E 0 92 37 4a
        E 240 82 30 00
        E 0 82 37 00
        E 240 92 30 4b
        E 0 92 37 4b
        E 240 82 30 00
        E 0 82 37 00
        E 240 92 2b 4a
        E 0 92 32 4a
        E 240 82 2b 00
        E 0 82 32 00
        E 240 92 2b 47
        E 0 92 32 47
        E 240 82 2b 00
        E 0 82 32 00
        E 240 92 2b 48
        E 0 92 32 48
        E 240 82 2b 00
        E 0 82 32 00
        E 240 92 2b 49
        E 0 92 32 49
        E 240 82 2b 00
        E 0 82 32 00
        E 240 92 2d 4f
        E 0 92 34 4f
        E 240 82 2d 00
        E 0 82 34 00
        E 240 92 2d 4c
        E 0 92 34 4c
        E 240 82 2d 00
        E 0 82 34 00
        E 240 92 2d 4c
        E 0 92 34 4c
        E 240 82 2d 00
        E 0 82 34 00
        E 240 92 2d 4c
        E 0 92 34 4c
        E 240 82 2d 00
        E 0 82 34 00
        E 240 92 2f 6c
        E 0 92 36 6c
        E 0 92 3b 6c
        E 960 82 2f 00
        E 0 82 36 00
        E 0 82 3b 00
        E 0 92 2f 4c
        E 0 92 36 4c
        E 240 82 2f 00
        E 0 82 36 00
        E 240 92 2f 4c
        E 0 92 36 4c
        E 240 82 2f 00
        E 0 82 36 00
        E 240 92 2f 4f
        E 0 92 36 4f
        E 240 82 2f 00
        E 0 82 36 00
        E 240 92 2f 4c
        E 0 92 36 4c
        E 240 82 2f 00
        E 0 82 36 00
        E 240 92 2f 63
        E 0 92 36 63
        E 0 92 3b 63
        E 960 82 2f 00
        E 0 82 36 00
        E 0 82 3b 00
        E 0 92 30 68
        E 0 92 37 68
        E 0 92 3c 68
        E 960 82 30 00
        E 0 82 37 00
        E 0 82 3c 00
        E 0 92 30 48
        E 0 92 37 48
        E 240 82 30 00
        E 0 82 37 00
        E 240 92 30 49
        E 0 92 37 49
        E 240 82 30 00
        E 0 82 37 00
        E 240 92 30 4c
        E 0 92 37 4c
        E 240 82 30 00
        E 0 82 37 00
        E 240 92 30 4a
        E 0 92 37 4a
        E 240 82 30 00
        E 0 82 37 00
        E 240 92 30 61
        E 0 92 37 61
        E 0 92 3c 61
        E 960 82 30 00
        E 0 82 37 00
        E 0 82 3c 00
        E 0 92 31 67
        E 0 92 38 67
        E 0 92 3d 67
        E 960 82 31 00
        E 0 82 38 00
        E 0 82 3d 00
        E 0 92 31 48
        E 0 92 38 48
        E 240 82 31 00
        E 0 82 38 00
        E 240 92 31 49
        E 0 92 38 49
        E 240 82 31 00
        E 0 82 38 00
        E 240 92 31 4c
        E 0 92 38 4c
        E 240 82 31 00
        E 0 82 38 00
        E 240 92 31 4a
        E 0 92 38 4a
        E 240 82 31 00
        E 0 82 38 00
        E 240 92 31 61
        E 0 92 38 61
        E 0 92 3d 61
        E 960 82 31 00
        E 0 82 38 00
        E 0 82 3d 00
        E 0 92 32 67
        E 0 92 39 67
        E 0 92 3e 67
        E 480 82 32 00
        E 0 82 39 00
        E 0 82 3e 00
        E 0 92 32 60
        E 0 92 39 60
        E 0 92 3e 60
        E 480 82 32 00
        E 0 82 39 00
        E 0 82 3e 00
        E 0 92 32 5f
        E 0 92 39 5f
        E 0 92 3e 5f
        E 480 82 32 00
        E 0 82 39 00
        E 0 82 3e 00
        E 0 92 32 5e
        E 0 92 39 5e
        E 0 92 3e 5e
        E 480 82 32 00
        E 0 82 39 00
        E 0 82 3e 00
        E 0 92 32 61
        E 0 92 39 61
        E 0 92 3e 61
        E 480 82 32 00
        E 0 82 39 00
        E 0 82 3e 00
        E 0 92 32 5d
        E 0 92 39 5d
        E 0 92 3e 5d
        E 480 82 32 00
        E 0 82 39 00
        E 0 82 3e 00
        E 0 92 32 5d
        E 0 92 39 5d
        E 0 92 3e 5d
        E 480 82 32 00
        E 0 82 39 00
        E 0 82 3e 00
        E 0 92 32 5c
        E 0 92 39 5c
        E 0 92 3e 5c
        E 480 82 32 00
        E 0 82 39 00
        E 0 82 3e 00
        E 0 92 32 56
        E 0 92 3b 56
        E 480 82 32 00
        E 0 82 3b 00
        E 0 92 32 52
        E 0 92 3b 52
        E 480 82 32 00
        E 0 82 3b 00
        E 0 92 32 54
        E 0 92 3b 54
        E 480 82 32 00
        E 0 82 3b 00
        E 0 92 32 55
        E 0 92 3b 55
        E 480 82 32 00
        E 0 82 3b 00
        E 0 92 34 54
        E 0 92 39 54
        E 480 82 34 00
        E 0 82 39 00
        E 0 92 34 52
        E 0 92 39 52
        E 480 82 34 00
        E 0 82 39 00
        E 0 92 34 53
        E 0 92 39 53
        E 480 82 34 00
        E 0 82 39 00
        E 0 92 34 55
        E 0 92 39 55
        E 480 82 34 00
        E 0 82 39 00
        E 0 92 32 6e
        E 0 92 39 6e
        E 0 92 3e 6e
        E 960 82 32 00
        E 0 82 39 00
        E 0 82 3e 00
        E 0 92 32 48
        E 0 92 39 48
        E 240 82 32 00
        E 0 82 39 00
        E 240 92 32 49
        E 0 92 39 49
        E 240 82 32 00
        E 0 82 39 00
        E 240 92 32 4c
        E 0 92 39 4c
        E 240 82 32 00
        E 0 82 39 00
        E 240 92 32 4a
        E 0 92 39 4a
        E 240 82 32 00
        E 0 82 39 00
        E 240 92 32 4b
        E 0 92 39 4b
        E 240 82 32 00
        E 0 82 39 00
        E 240 92 32 4b
        E 0 92 39 4b
        E 240 82 32 00
        E 0 82 39 00
        E 240 92 34 6c
        E 0 92 3b 6c
        E 0 92 40 6c
        E 960 82 34 00
        E 0 82 3b 00
        E 0 82 40 00
        E 0 92 34 4b
        E 0 92 3b 4b
        E 240 82 34 00
        E 0 82 3b 00
        E 240 92 34 4b
        E 0 92 3b 4b
        E 240 82 34 00
        E 0 82 3b 00
        E 240 92 34 4e
        E 0 92 3b 4e
        E 240 82 34 00
        E 0 82 3b 00
        E 240 92 34 4b
        E 0 92 3b 4b
        E 240 82 34 00
        E 0 82 3b 00
        E 240 92 34 4b
        E 0 92 3b 4b
        E 240 82 34 00
        E 0 82 3b 00
        E 240 92 34 4c
        E 0 92 3b 4c
        E 240 82 34 00
        E 0 82 3b 00
        E 240 92 33 67
        E 0 92 3a 67
        E 0 92 3f 67
        E 480 82 33 00
        E 0 82 3a 00
        E 0 82 3f 00
        E 480 92 33 5f
        E 0 92 3a 5f
        E 0 92 3f 5f
        E 480 82 33 00
        E 0 82 3a 00
        E 0 82 3f 00
        E 480 92 33 62
        E 0 92 3a 62
        E 0 92 3f 62
        E 480 82 33 00
        E 0 82 3a 00
        E 0 82 3f 00
        E 480 92 33 5d
        E 0 92 3a 5d
        E 0 92 3f 5d
        E 480 82 33 00
        E 0 82 3a 00
        E 0 82 3f 00
        E 480 92 32 48
        E 0 92 39 48
        E 240 82 32 00
        E 0 82 39 00
        E 240 92 32 45
        E 0 92 39 45
        E 240 82 32 00
        E 0 82 39 00
        E 240 92 32 47
        E 0 92 39 47
        E 240 82 32 00
        E 0 82 39 00
        E 240 92 32 48
        E 0 92 39 48
        E 240 82 32 00
        E 0 82 39 00
        E 240 92 32 63
        E 0 92 39 63
        E 0 92 3e 63
        E 1920 82 32 00
        E 0 82 39 00
        E 0 82 3e 00
        E 0 92 32 4f
        E 0 92 3a 4f
        E 240 82 32 00
        E 0 82 3a 00
        E 240 92 32 4b
        E 0 92 3a 4b
        E 240 82 32 00
        E 0 82 3a 00
        E 240 92 32 4b
        E 0 92 3a 4b
        E 240 82 32 00
        E 0 82 3a 00
        E 240 92 32 4b
        E 0 92 3a 4b
        E 240 82 32 00
        E 0 82 3a 00
        E 240 92 32 64
        E 0 92 3a 64
        E 0 92 3e 64
        E 1920 82 32 00
        E 0 82 3a 00
        E 0 82 3e 00
        E 0 92 32 50
        E 0 92 3b 50
        E 240 82 32 00
        E 0 82 3b 00
        E 240 92 32 4b
        E 0 92 3b 4b
        E 240 82 32 00
        E 0 82 3b 00
        E 240 92 32 4c
        E 0 92 3b 4c
        E 240 82 32 00
        E 0 82 3b 00
        E 240 92 32 4c
        E 0 92 3b 4c
        E 240 82 32 00
        E 0 82 3b 00
        E 240 92 32 63
        E 0 92 3b 63
        E 0 92 3e 63
        E 1920 82 32 00
        E 0 82 3b 00
        E 0 82 3e 00
        E 0 92 32 50
        E 0 92 39 50
        E 0 92 3c 50
        E 240 82 32 00
        E 0 82 39 00
        E 0 82 3c 00
        E 240 92 32 4c
        E 0 92 39 4c
        E 0 92 3c 4c
        E 240 82 32 00
        E 0 82 39 00
        E 0 82 3c 00
        E 240 92 32 4c
        E 0 92 39 4c
        E 0 92 3c 4c
        E 240 82 32 00
        E 0 82 39 00
        E 0 82 3c 00
        E 240 92 32 4c
        E 0 92 39 4c
        E 0 92 3c 4c
        E 240 82 32 00
        E 0 82 39 00
        E 0 82 3c 00
        E 240 92 32 5f
        E 0 92 39 5f
        E 0 92 3c 5f
        E 1920 82 32 00
        E 0 82 39 00
        E 0 82 3c 00
        E 0 92 37 50
        E 0 92 3b 50
        E 240 82 37 00
        E 0 82 3b 00
        E 240 92 37 4b
        E 0 92 3b 4b
        E 240 82 37 00
        E 0 82 3b 00
        E 240 92 32 48
        E 0 92 37 48
        E 240 82 32 00
        E 0 82 37 00
        E 240 92 32 49
        E 0 92 37 49
        E 240 82 32 00
        E 0 82 37 00
        E 240 92 37 51
        E 0 92 3b 51
        E 240 82 37 00
        E 0 82 3b 00
        E 240 92 37 4e
        E 0 92 3b 4e
        E 240 82 37 00
        E 0 82 3b 00
        E 240 92 32 49
        E 0 92 37 49
        E 240 82 32 00
        E 0 82 37 00
        E 240 92 32 49
        E 0 92 37 49
        E 240 82 32 00
        E 0 82 37 00
        E 240 92 37 52
        E 0 92 3a 52
        E 240 82 37 00
        E 0 82 3a 00
        E 240 92 37 4e
        E 0 92 3a 4e
        E 240 82 37 00
        E 0 82 3a 00
        E 240 92 32 49
        E 0 92 37 49
        E 240 82 32 00
        E 0 82 37 00
        E 240 92 32 4a
        E 0 92 37 4a
        E 240 82 32 00
        E 0 82 37 00
        E 240 92 37 52
        E 0 92 3a 52
        E 240 82 37 00
        E 0 82 3a 00
        E 240 92 37 4e
        E 0 92 3a 4e
        E 240 82 37 00
        E 0 82 3a 00
        E 240 92 32 4a
        E 0 92 37 4a
        E 240 82 32 00
        E 0 82 37 00
        E 240 92 32 4a
        E 0 92 37 4a
        E 240 82 32 00
        E 0 82 37 00
        E 240 92 37 52
        E 0 92 39 52
        E 240 82 37 00
        E 0 82 39 00
        E 240 92 37 4d
        E 0 92 39 4d
        E 240 82 37 00
        E 0 82 39 00
        E 240 92 32 4a
        E 0 92 37 4a
        E 240 82 32 00
        E 0 82 37 00
        E 240 92 32 4b
        E 0 92 37 4b
        E 240 82 32 00
        E 0 82 37 00
        E 240 92 37 51
        E 0 92 39 51
        E 240 82 37 00
        E 0 82 39 00
        E 240 92 37 4d
        E 0 92 39 4d
        E 240 82 37 00
        E 0 82 39 00
        E 240 92 32 4a
        E 0 92 37 4a
        E 240 82 32 00
        E 0 82 37 00
        E 240 92 32 4b
        E 0 92 37 4b
        E 240 82 32 00
        E 0 82 37 00
        E 240 92 2f 5e
        E 0 92 36 5e
        E 480 82 2f 00
        E 0 82 36 00
        E 0 92 2f 4a
        E 0 92 36 4a
        E 480 82 2f 00
        E 0 82 36 00
        E 0 92 2f 4b
        E 0 92 36 4b
        E 480 82 2f 00
        E 0 82 36 00
        E 0 92 2f 4b
        E 0 92 36 4b
        E 480 82 2f 00
        E 0 82 36 00
        E 0 92 31 64
        E 0 92 38 64
        E 480 82 31 00
        E 0 82 38 00
        E 0 92 31 50
        E 0 92 38 50
        E 480 82 31 00
        E 0 82 38 00
        E 0 92 31 4f
        E 0 92 38 4f
        E 480 82 31 00
        E 0 82 38 00
        E 0 92 31 4f
        E 0 92 38 4f
        E 479 82 31 00
        E 0 82 38 00
        E 1 b0 7b 00
        CCINTERP 32
        CHASE_CC_TAKEOFFS 1
        GUID {18FA0D82-8432-451A-A28A-6A41DDD77534}
        IGNTEMPO 0 120 4 4
        SRCCOLOR 20
      >
    >
  >
  <TRACK {DD1A35DA-4213-4A37-9CC2-2F2C7E471981}
    NAME "Variación rítmica 1 (sin palm mute)"
    PEAKCOL 16576
    BEAT -1
    AUTOMODE 0
    VOLPAN 1 0 -1 -1 1
    MUTESOLO 0 0 0
    IPHASE 0
    PLAYOFFS 0 1
    ISBUS 0 0
    BUSCOMP 0 0 0 0 0
    SHOWINMIX 1 0.6667 0.5 1 0.5 -1 -1 -1
    FREEMODE 0
    SEL 0
    REC 0 0 1 0 0 0 0
    VU 2
    TRACKHEIGHT 0 0 0 0 -1 0
    INQ 0 0 0 0.5 100 0 0 100
    NCHAN 2
    FX 1
    TRACKID {DD1A35DA-4213-4A37-9CC2-2F2C7E471981}
    PERF 0
    MIDIOUT -1
    MAINSEND 1 0
    <FXCHAIN
      WNDRECT 24 0 506 258
      SHOW 0
      LASTSEL 0
      DOCKED 0
      BYPASS 0 0 0
      <VST "VSTi: FM8 (Native Instruments GmbH)" FM8.dll 0 "" 1315530296<5653544E696638666D38202878383629> ""
        OGZpTu5e7f4AAAAAAgAAAAEAAAAAAAAAAgAAAAAAAABxIgAAAQAAAAAAEAA=
        cSIAAAAAAAABAAAAaHNpbgEAAAAAAAAAtobcUMQp00ys2xunT/VcXpYAAAAAAAAARFNJTnYAAAABAAAASAAAAAAAAABEU0lOagAAAAEAAAAYAAAAAAAAAERTSU4BAAAA
        AQAAAAEAAAABAAAAAQAAAAEAAAAAAAAAAAAAAAAAAAANYmWFAQAAAANwEAAAAAAAAQAAAAEAAAAAAAAAAAAAAAAAAAADAAAAMAAwADAAAAAAAAAAAAAAAAAAAAAAAAEA
        AAABAAAAAAAAAERTSU5lAAAAnyEAAAAAAAABAAAAaHNpbgEAAAAAAAAAk2LmMfvQG0yafYDm9m9BlW0AAAAAAAAARFNJTmUAAAABAAAANAAAAAAAAABEU0lOagAAAAEA
        AAAYAAAAAAAAAERTSU4BAAAAAQAAAAEAAAABAAAAAgAAAAEAAAAACAAAAAEAAAAKAAAAMQAuADIALgAwAC4AMQAwADEAMAABAAAAAwAAAAAAAABEU0lObAAAADQDAAAA
        AAAAAQAAAGhzaW4BAAAAAAAAAEPySaikdwBNqY3YM9NCgmIEAwAAAAAAAERTSU5sAAAAAQAAABgAAAAAAAAARFNJTgEAAAABAAAAAQAAAAEAAAACAAAAAQAAAAAAAAAO
        AAAAQwByAHUAbgBjAGgAIABDAHIAdQBzAGgAZQByAAwAAABBAG4AZAByAGUAIABFAHQAdABlAG0AYQASAAAATgBhAHQAaQB2AGUAIABJAG4AcwB0AHIAdQBtAGUAbgB0
        AHMAQAAAAFUAcwBlACAATQBvAHIAcABoACAAUwBxAHUAYQByAGUAIAB0AG8AIABnAGUAdAAgAHQAaABlACAAcwBvAHUAbgBkACAAbwBmACAAZABpAGYAZgBlAHIAZQBu
        AHQAIABhAG0AcAAgAHMAaQBtAHUAbABhAHQAaQBvAG4AcwAuACAAAAAAAP////8AAAAAAAAAAAAAAAAAAAAAAAAAAAEAAAABAAAAAgAAAAMAAABGAE0AOAALAAAARgBN
        ADgAIABGAGEAYwB0AG8AcgB5AAcAAAALAAAAQQByAHAAZQBnAGcAaQBhAHQAZQBkABIAAABEAGkAcwB0AG8AcgB0AGUAZAAgAEUALQBHAHUAaQB0AGEAcgAGAAAARwB1
        AGkAdABhAHIACQAAAFAAcgBvAGMAZQBzAHMAZQBkAA0AAABTAGUAcQB1AGUAbgBjAGUALwBMAG8AbwBwAAkAAABTAHkAbgB0AGgAZQB0AGkAYwAMAAAAVABlAG0AcABv
        AC0AcwB5AG4AYwBlAGQAAAAAAAcAAAAHAAAAXABAAGMAbwBsAG8AcgABAAAAMAARAAAAXABAAGQAZQB2AGkAYwBlAHQAeQBwAGUAZgBsAGEAZwBzAAEAAAAxAAsAAABc
        AEAAcwBvAHUAbgBkAHQAeQBwAGUAAQAAADAABwAAAFwAQAB0AGUAbQBwAG8AAQAAADAABgAAAFwAQAB2AGUAcgBsAAUAAAAxAC4ANwAuADMABgAAAFwAQAB2AGUAcgBt
        AAUAAAAxAC4ANwAuADMABwAAAFwAQAB2AGkAcwBpAGIAAQAAADAAAQAAAAAAAAACAAAARFNJTnkAAAAQFwAAAAAAAAEAAABoc2luAQAAAAAAAADhv9+3I90KSKBFccCi
        AbOy4BYAAAAAAABEU0lOeQAAAAEAAAAYAAAAAAAAAERTSU4BAAAAAQAAAAEAAAABAAAAAQAAABkAAAABAAAABgAAAAYAAABUAGkAbQBiAHIAZQABAAAACAAAAEgAYQBy
        AG0AbwBuAGkAYwAAAAAAAACAPwIAAAABAAAAAQAAAAYAAABEAGUAdAB1AG4AZQAAAAAAAACAPwMAAAACAAAAAQAAAAoAAABCAHIAaQBnAGgAdABuAGUAcwBzAAAAAAAA
        AIA/AQAAAAMAAAABAAAABwAAAEUAbgB2ACAAQQBtAHQAAAAAAAAAgD8EAAAABAAAAAEAAAAIAAAAVgBlAGwAbwBjAGkAdAB5AAAAAAAAAIA/BQAAAAUAAAABAAAADgAA
        ADwAewBbAGEAdQB0AG8AbgBhAG0AZQBdAH0APgAAAAAAAACAP/////8GAAAAAQAAAAIAAAACAAAARgBYAAEAAAAGAAAAQQBtAG8AdQBuAHQAAAAAAAAAgD8aAAAAAQAA
        AAEAAAAOAAAAPAB7AFsAYQB1AHQAbwBuAGEAbQBlAF0AfQA+AAAAAAAAAIA//////wIAAAABAAAABAAAAAgAAABUAGkAbQBiACAARQBuAHYAAQAAAAYAAABBAHQAdABh
        AGMAawAAAAAAAACAPwYAAAABAAAAAQAAAAUAAABEAGUAYwBhAHkAAAAAAAAAgD8HAAAAAgAAAAEAAAAHAAAAUwB1AHMAdABhAGkAbgAAAAAAAACAPwgAAAADAAAAAQAA
        AAcAAABSAGUAbABlAGEAcwBlAAAAAAAAAIA/CQAAAAQAAAABAAAABAAAAAcAAABBAG0AcAAgAEUAbgB2AAEAAAAHAAAAQQB0AHQAYQBjAGsAIAAAAAAAAACAPxEAAAAB
        AAAAAQAAAAUAAABEAGUAYwBhAHkAAAAAAAAAgD8SAAAAAgAAAAEAAAAHAAAAUwB1AHMAdABhAGkAbgAAAAAAAACAPxMAAAADAAAAAQAAAAcAAABSAGUAbABlAGEAcwBl
        AAAAAAAAAIA/FAAAAAQAAAABAAAABAAAAAYAAABPAHUAdABwAHUAdAABAAAABgAAAFYAbwBsAHUAbQBlAAAAAAAAAIA/DgAAAAEAAAABAAAACAAAAFYAZQBsAG8AYwBp
        AHQAeQAAAAAAAACAPxAAAAACAAAAAQAAAAkAAABTAHQAcgAgAFcAaQBkAHQAaAAAAAAAAACAPw8AAAADAAAAAQAAAA4AAAA8AHsAWwBhAHUAdABvAG4AYQBtAGUAXQB9
        AD4AAAAAAAAAgD//////BAAAAAEAAAAEAAAAAwAAAEwARgBPAAEAAAAEAAAAUgBhAHQAZQAAAAAAAACAPwoAAAABAAAAAQAAAAcAAABWAGkAYgByAGEAdABvAAAAAAAA
        AIA/CwAAAAIAAAABAAAABgAAAFQAaQBtAGIAcgBlAAAAAAAAAIA/DAAAAAMAAAABAAAABwAAAFQAcgBlAG0AbwBsAG8AAAAAAAAAgD8NAAAABAAAAAEAAAAEAAAAAwAA
        AEEAcgBwAAEAAAAGAAAATwBuAC8ATwBmAGYAAAAAAAAAgD+IAAAAAQAAAAEAAAAEAAAAUwB0AGUAcAAAAAAAAACAP5UAAAACAAAAAQAAAAQAAABHAGEAdABlAAAAAAAA
        AIA/iQAAAAMAAAABAAAABwAAAFMAaAB1AGYAZgBsAGUAAAAAAAAAgD+NAAAABAAAAAEAAAAEAAAABQAAAE0AbwByAHAAaAABAAAAAQAAAFgAAAAAAAAAgD8VAAAAAQAA
        AAEAAAABAAAAWQAAAAAAAACAPxYAAAACAAAAAQAAAAUAAABSAG4AZAAgAFgAAAAAAAAAgD8XAAAAAwAAAAEAAAAFAAAAUgBuAGQAIABZAAAAAAAAAIA/GAAAAAQAAAAB
        AAAAAgAAAAYAAABNAGEAcwB0AGUAcgABAAAABgAAAE8AdQB0AHAAdQB0AAAAAAAAAIA/dAAAAAEAAAABAAAABQAAAEkAbgBwAHUAdAAAAAAAAACAP3UAAAACAAAAAQAA
        AAIAAAAFAAAAUABpAHQAYwBoAAEAAAAEAAAAVAB1AG4AZQAAAAAAAACAP3YAAAABAAAAAQAAAAkAAABUAHIAYQBuAHMAcABvAHMAZQAAAAAAAACAP3cAAAACAAAAAQAA
        AAEAAAAGAAAAVQBuAGkAcwBvAG4AAQAAAAYAAABEAGUAdAB1AG4AZQAAAAAAAACAP3kAAAABAAAAAQAAAAEAAAAFAAAARwBsAGkAZABlAAEAAAAEAAAAVABpAG0AZQAA
        AAAAAACAP38AAAABAAAAAQAAAAIAAAAHAAAAUQB1AGEAbABpAHQAeQABAAAABgAAAEEAbgBhAGwAbwBnAAAAAAAAAIA/gAAAAAEAAAABAAAABwAAAEQAaQBnAGkAdABh
        AGwAAAAAAAAAgD+EAAAAAgAAAAEAAAAIAAAABQAAAEQAcgBpAHYAZQABAAAABgAAAE8AbgAvAE8AZgBmAAAAAAAAAIA/HgAAAAEAAAABAAAABQAAAEQAcgBpAHYAZQAA
        AAAAAACAPx8AAAACAAAAAQAAAAQAAABUAG8AbgBlAAAAAAAAAIA/IAAAAAMAAAABAAAABAAAAEIAYQBzAHMAAAAAAAAAgD8hAAAABAAAAAEAAAAHAAAAVgBvAGwAdQBt
        AGUAIAAAAAAAAACAPyIAAAAFAAAAAQAAAA4AAAA8AHsAWwBhAHUAdABvAG4AYQBtAGUAXQB9AD4AAAAAAAAAgD//////BgAAAAEAAAAOAAAAPAB7AFsAYQB1AHQAbwBu
        AGEAbQBlAF0AfQA+AAAAAAAAAIA//////wcAAAABAAAADgAAADwAewBbAGEAdQB0AG8AbgBhAG0AZQBdAH0APgAAAAAAAACAP/////8IAAAAAQAAAAgAAAAEAAAAVAB1
        AGIAZQABAAAABgAAAE8AbgAvAE8AZgBmAAAAAAAAAIA/IwAAAAEAAAABAAAABgAAAFYAbwBsAHUAbQBlAAAAAAAAAIA/JQAAAAIAAAABAAAABQAAAEQAcgBpAHYAZQAA
        AAAAAACAPyQAAAADAAAAAQAAAA4AAAA8AHsAWwBhAHUAdABvAG4AYQBtAGUAXQB9AD4AAAAAAAAAgD//////BAAAAAEAAAAOAAAAPAB7AFsAYQB1AHQAbwBuAGEAbQBl
        AF0AfQA+AAAAAAAAAIA//////wUAAAABAAAADgAAADwAewBbAGEAdQB0AG8AbgBhAG0AZQBdAH0APgAAAAAAAACAP/////8GAAAAAQAAAA4AAAA8AHsAWwBhAHUAdABv
        AG4AYQBtAGUAXQB9AD4AAAAAAAAAgD//////BwAAAAEAAAAOAAAAPAB7AFsAYQB1AHQAbwBuAGEAbQBlAF0AfQA+AAAAAAAAAIA//////wgAAAABAAAACAAAAAcAAABD
        AGEAYgBpAG4AZQB0AAEAAAAGAAAATwBuAC8ATwBmAGYAAAAAAAAAgD8mAAAAAQAAAAEAAAAEAAAAVAB5AHAAZQAAAAAAAACAPycAAAACAAAAAQAAAAQAAABTAGkAegBl
        AAAAAAAAAIA/KAAAAAMAAAABAAAAAwAAAEEAaQByAAAAAAAAAIA/KQAAAAQAAAABAAAABAAAAEIAYQBzAHMAAAAAAAAAgD8qAAAABQAAAAEAAAAGAAAAVAByAGUAYgBs
        AGUAAAAAAAAAgD8rAAAABgAAAAEAAAAOAAAAPAB7AFsAYQB1AHQAbwBuAGEAbQBlAF0AfQA+AAAAAAAAAIA//////wcAAAABAAAADgAAADwAewBbAGEAdQB0AG8AbgBh
        AG0AZQBdAH0APgAAAAAAAACAP/////8IAAAAAQAAAAgAAAAIAAAAUwBoAGUAbABmACAARQBRAAEAAAAGAAAATwBuAC8ATwBmAGYAAAAAAAAAgD8sAAAAAQAAAAEAAAAE
        AAAATABQACAAWAAAAAAAAACAPy0AAAACAAAAAQAAAAQAAABMAFAAIABZAAAAAAAAAIA/LgAAAAMAAAABAAAABAAAAEgAUAAgAFgAAAAAAAAAgD8vAAAABAAAAAEAAAAE
        AAAASABQACAAWAAAAAAAAACAPzAAAAAFAAAAAQAAAAYAAABWAG8AbAB1AG0AZQAAAAAAAACAPzEAAAAGAAAAAQAAAA4AAAA8AHsAWwBhAHUAdABvAG4AYQBtAGUAXQB9
        AD4AAAAAAAAAgD//////BwAAAAEAAAAOAAAAPAB7AFsAYQB1AHQAbwBuAGEAbQBlAF0AfQA+AAAAAAAAAIA//////wgAAAABAAAACAAAAAcAAABQAGUAYQBrACAARQBR
        AAEAAAAGAAAATwBuAC8ATwBmAGYAAAAAAAAAgD8yAAAAAQAAAAEAAAAIAAAAUABlAGEAawAgADEAIABYAAAAAAAAAIA/MwAAAAIAAAABAAAACAAAAFAAZQBhAGsAIAAx
        ACAAWQAAAAAAAACAPzQAAAADAAAAAQAAAAgAAABQAGUAYQBrACAAMgAgAFgAAAAAAAAAgD82AAAABAAAAAEAAAAJAAAAUABlAGEAawAgADIAIABZACAAAAAAAAAAgD83
        AAAABQAAAAEAAAACAAAAUQAxAAAAAAAAAIA/NQAAAAYAAAABAAAAAgAAAFEAMgAAAAAAAACAPzgAAAAHAAAAAQAAAAYAAABWAG8AbAB1AG0AZQAAAAAAAACAPzkAAAAI
        AAAAAQAAAAgAAAAIAAAAVABhAGwAawAgAFcAYQBoAAEAAAAGAAAATwBuAC8ATwBmAGYAAAAAAAAAgD86AAAAAQAAAAEAAAAFAAAATQBvAHUAdABoAAAAAAAAAIA/OwAA
        AAIAAAABAAAACAAAAE0AbwBkAHcAaABlAGUAbAAAAAAAAACAPzwAAAADAAAAAQAAAAQAAABTAGkAegBlAAAAAAAAAIA/PQAAAAQAAAABAAAABgAAAEIAcgBpAGcAaAB0
        AAAAAAAAAIA/PgAAAAUAAAABAAAADgAAADwAewBbAGEAdQB0AG8AbgBhAG0AZQBdAH0APgAAAAAAAACAP/////8GAAAAAQAAAA4AAAA8AHsAWwBhAHUAdABvAG4AYQBt
        AGUAXQB9AD4AAAAAAAAAgD//////BwAAAAEAAAAOAAAAPAB7AFsAYQB1AHQAbwBuAGEAbQBlAF0AfQA+AAAAAAAAAIA//////wgAAAABAAAACAAAAAYAAABQAGgAYQBz
        AGUAcgABAAAABgAAAE8AbgAvAE8AZgBmAAAAAAAAAIA/PwAAAAEAAAABAAAABAAAAFIAYQB0AGUAAAAAAAAAgD9AAAAAAgAAAAEAAAAHAAAATgBvAHQAYwBoAGUAcwAA
        AAAAAACAP0gAAAADAAAAAQAAAAUAAABDAG8AbABvAHIAAAAAAAAAgD9BAAAABAAAAAEAAAAJAAAAUwB3AGUAZQBwACAATQBpAG4AAAAAAAAAgD9DAAAABQAAAAEAAAAJ
        AAAAUwB3AGUAZQBwACAATQBhAHgAAAAAAAAAgD9EAAAABgAAAAEAAAAGAAAAUgBvAHQAYQB0AGUAAAAAAAAAgD9CAAAABwAAAAEAAAAHAAAARAByAHkALwBXAGUAdAAA
        AAAAAACAP0YAAAAIAAAAAQAAAAgAAAAHAAAARgBsAGEAbgBnAGUAcgABAAAABgAAAE8AbgAvAE8AZgBmAAAAAAAAAIA/SQAAAAEAAAABAAAABAAAAFIAYQB0AGUAAAAA
        AAAAgD9KAAAAAgAAAAEAAAAEAAAAUwB5AG4AYwAAAAAAAACAP08AAAADAAAAAQAAAAYAAABTAHQAYQB0AGkAYwAAAAAAAACAP0sAAAAEAAAAAQAAAAUAAABEAGUAcAB0
        AGgAAAAAAAAAgD9MAAAABQAAAAEAAAAFAAAAQwBvAGwAbwByAAAAAAAAAIA/TQAAAAYAAAABAAAABgAAAFIAbwB0AGEAdABlAAAAAAAAAIA/TgAAAAcAAAABAAAABwAA
        AEQAcgB5AC8AVwBlAHQAAAAAAAAAgD9RAAAACAAAAAEAAAAIAAAABwAAAFQAcgBlAG0AbwBsAG8AAQAAAAYAAABPAG4ALwBPAGYAZgAAAAAAAACAP1IAAAABAAAAAQAA
        AAQAAABSAGEAdABlAAAAAAAAAIA/UwAAAAIAAAABAAAABAAAAFMAeQBuAGMAAAAAAAAAgD9VAAAAAwAAAAEAAAAJAAAASQBuAHQAZQBuAHMAaQB0AHkAAAAAAAAAgD9U
        AAAABAAAAAEAAAAGAAAAUwB0AGUAcgBlAG8AAAAAAAAAgD9WAAAABQAAAAEAAAAFAAAAVwBpAGQAdABoAAAAAAAAAIA/VwAAAAYAAAABAAAABgAAAEEAdAB0AGEAYwBr
        AAAAAAAAAIA/WAAAAAcAAAABAAAABQAAAEQAZQBjAGEAeQAAAAAAAACAP1kAAAAIAAAAAQAAAAgAAAAGAAAAUgBlAHYAZQByAGIAAQAAAAYAAABPAG4ALwBPAGYAZgAA
        AAAAAACAP1oAAAABAAAAAQAAAAQAAABUAGkAbQBlAAAAAAAAAIA/XQAAAAIAAAABAAAABgAAAEIAcgBpAGcAaAB0AAAAAAAAAIA/XAAAAAMAAAABAAAABgAAAFQAcgBl
        AGIAbABlAAAAAAAAAIA/XgAAAAQAAAABAAAABwAAAEQAcgB5AC8AVwBlAHQAAAAAAAAAgD9bAAAABQAAAAEAAAAOAAAAPAB7AFsAYQB1AHQAbwBuAGEAbQBlAF0AfQA+
        AAAAAAAAAIA//////wYAAAABAAAADgAAADwAewBbAGEAdQB0AG8AbgBhAG0AZQBdAH0APgAAAAAAAACAP/////8HAAAAAQAAAA4AAAA8AHsAWwBhAHUAdABvAG4AYQBt
        AGUAXQB9AD4AAAAAAAAAgD//////CAAAAAEAAAAIAAAACQAAAFAAcwB5ACAARABlAGwAYQB5AAEAAAAGAAAATwBuAC8ATwBmAGYAAAAAAAAAgD9fAAAAAQAAAAEAAAAE
        AAAAVABpAG0AZQAAAAAAAACAP2EAAAACAAAAAQAAAAgAAABGAGUAZQBkAGIAYQBjAGsAAAAAAAAAgD9kAAAAAwAAAAEAAAAHAAAAUgBlAHYAZQByAHMAZQAAAAAAAACA
        P2IAAAAEAAAAAQAAAAYAAABTAHQAZQByAGUAbwAAAAAAAACAP2cAAAAFAAAAAQAAAAYAAABEAGUAdAB1AG4AZQAAAAAAAACAP2MAAAAGAAAAAQAAAAUAAABQAGkAdABj
        AGgAAAAAAAAAgD9lAAAABwAAAAEAAAAHAAAARAByAHkALwBXAGUAdAAAAAAAAACAP2AAAAAIAAAAAQAAAAgAAAAJAAAAQwBoAHIAIABEAGUAbABhAHkAAQAAAAYAAABP
        AG4ALwBPAGYAZgAAAAAAAACAP28AAAABAAAAAQAAAAQAAABUAGkAbQBlAAAAAAAAAIA/aAAAAAIAAAABAAAABgAAAEwAbwAgAEMAdQB0AAAAAAAAAIA/bQAAAAMAAAAB
        AAAABgAAAEgAaQAgAEMAdQB0AAAAAAAAAIA/bAAAAAQAAAABAAAACAAAAEYAZQBlAGQAYgBhAGMAawAAAAAAAACAP2sAAAAFAAAAAQAAAAgAAABNAG8AZAAgAFIAYQB0
        AGUAAAAAAAAAgD9xAAAABgAAAAEAAAAJAAAATQBvAGQAIABEAGUAcAB0AGgAAAAAAAAAgD9qAAAABwAAAAEAAAAHAAAARAByAHkALwBXAGUAdAAAAAAAAACAP3AAAAAI
        AAAAAQAAAAAAAAABAAAARFNJTnQAAACaBgAAAAAAAAEAAABoc2luAQAAAAAAAABfAjRqxWnsToleTuDmPxvIagYAAAAAAABEU0lOdAAAAAEAAABRBgAAAAAAAERTSU5z
        AAAAAQAAABgAAAAAAAAARFNJTgEAAAABAAAAAQAAAAEAAAABmBAAABgGAAACmBAAYAAAASAFA2hzaW5AB0AAEMi6ABcODQlDrNzYancP+McYQBQgAANEU0lOQCPgBwNA
        AEAbAG0gCAFEECAEIABAI+ADUxB1oWnz+VgsSrdZ344DzJatFKAnwDdAL+AXZ0AjAcwPIFwgAAAFIAMBPg0gBCAACHRzcnBFOE1GzyALA7wjAABAIg5GdWxsIEJsYXN0
        IExlYWRAbRBBbmdyeSBEaXN0b3J0aW9uCyAuBUNob3J1c2AiQEwMUmh5dGhtIEd1aXRhciAeIAAE+EEAAHAgAwAAIAMCgD8A4BAAAkhCAOAQH2A3A0AAAAwgIwAsIANg
        D+ACAGAPIB8AiCAbQABgD+AEAA5SuF4+ZMz9Pv1llz4AABAghwiAP+CcMT8mwlZgCxIAAMBAzcyGwXJokT4M12/BCGbmICcEAADNzMxABwM/mpkZICMAAKADBIA/WxG0
        YBcG2or9PlkgKWAfBm+BND/UCQhAI0AA4AcHAwDKMiQgE0BrwACACwSuR+E9AIAAIMMEAABUUicgJwwAAHL5Hz/KMqQ+OQpP4QA7Ai5ug0B3BwALJBg/exSuIAuAQwr4
        wgQ/QKS/PutROGA7AylcDz9AIwIsQyxAD0ADAwA9m9XAZwYA9igdQjcaQQdAAACAYHcAAGBLAJwhQwDGIAMA4KATAMggC8AAQGtAK8GrQA/gFwAQgD/NzGw/XI9CPhiV
        1D4wKqkgs+ADAEBfQAPAAEBbACAg70AAQAtAAwCgIINAB0AAALQgCwCWIAPgAwDAP0AHQAPAAEAz4ItLADAg30CXQKsAiiDLAEAgA+Af4yAAAANgAAIBAQKAAAMAAAEE
        YAACAgIDIB2AAA42PCgbBQ4MAAAnJCItIi2AFOAFACA4gAAA/oAG4DwAAGQgAeBKAAQBAf8BAUS/4AAAIA7gEABgHOAAKWAAAEAhcgOYQdUJgrIC4/J/YxLgCwACuB4F
        YBsGCtcjvlyPgmALwACgWeAEW+BEWeAEAOA+WUAAIAUAAOACAOA9WQEEACPdDN/MhkLh2l5Et8sCQhIi2eARFAesPZ1BzwDgRUApAxCA30NgKQAAJXgDEELCRoMMAB6A
        FEApAr9WfGApAAsjKeAKKQGeQiK+BIA/+lDOIzsBgD/gBAwjBUBYQANDYQGAP2A/BnzVij6PwnVgAwPMvIwr4BEUAwfwFj/gCCkDhMBqP0A2wANgPuAcKWCbQIZAOuAE
        DCCo4AUACwSS7Xw+kMI1Pw8tUiAyAABgdeARFAZWDg0/Z2Zm4AUpBq5HAT9xPWrgBRTgHCkgmwIAP2YgT0AD4AQMQKhgUEAhQANAECAABGBCt23bIYAB/kLgABADAMDa
        QkAQQD8gAAB84AMMAIgjhOAAGSAqIAygNyAZ4AU3AnBCDSAdYrRACAUDFDsxwQBgAAnIwAAAXMED2YkdoBAFoL/FTmzAoG8FAAB2YqfB4AAMQADgAAwgJgDBoG9AAEBI
        AAzgBSoIAbw0jMJfUczAQCZg6CAoYAPgCBBAVWAZQCHgEQzgFTdA32BAIERAAAIyEgElsqAAAi0BKKAJ4BAAADLgEBngCgABUGTnBHoAUOAKIuAHAOAEXwFQUOAVMgJQ
        ZDjgBC/gHgAAZCAA4B4qAQBHIAPgIwDgIFjgZwAA/+AXACReAwAAEGQiPgFaXSAJAgEAEkAERM9CayXPJ7WgCQAB4AAJAALgAAkAA6AJAgEBBMAJAwAF/gOAMQEABuAA
        CQIH/gWAEwEBCKAnAgAACeAACeAJYyh0g1AgTyCbIAxACSCsgAkCAQUBoGMDAQYA/mATIGMA/+AAYwH/B6ATAQkASLdAOyA6YBMgMqAJIMcBAPugEwAD4AAJAgQA96AT
        AAWgCSDHoAkEAQEHAPlAHSAAAggA/UAJIEUACeAAO+ADYyC14EkAABGgUgNrbmFiQH3AAAGAACAAABmgEQNjdG5pTWYBEScgFCAAAEEgAyAARqIBoELiEw8BdADiATBN
        m+ATK+D9AOCpAAAgIeNAAANzaXVnQiQA6OICpwAVIBgAGSADQshAAyNuYAAHZ3B0Y1lUTUVADAsNYmWFAQAAAAAAAAABAAAAAAEAAAAAAAAA
        ADxkaXNhYmxlZD4AEAAAAA==
      >
      PRESETNAME <disabled>
      FLOATPOS 0 0 0 0
      FXID {130AD305-1664-4E8D-A794-5309A3E0D9D1}
      WAK 0 0
    >
    <ITEM
      POSITION 2
      SNAPOFFS 0
      LENGTH 12
      LOOP 1
      ALLTAKES 0
      FADEIN 1 0 0 1 0 0
      FADEOUT 1 0 0 1 0 0
      MUTE 0 0
      SEL 0
      IGUID {BFC838A8-2BF8-4E42-8B3D-72D939C4CE21}
      IID 4
      NAME "Variación rítmica 1 (sin palm mute) - Marty.mid"
      VOLPAN 1 0 1 -1
      SOFFS 0 0
      PLAYRATE 1 1 0 -1 0 0.0025
      CHANMODE 0
      GUID {29BABF2E-D518-4C54-979C-E51A58E2A9A4}
      <SOURCE MIDI
        HASDATA 1 960 QN
        CCINTERP 32
        POOLEDEVTS {198852C5-8874-49EC-962B-E0CE1759E03E}
        <X 0 0 0 0 3 "Variación rítmica 1 (sin palm mute)"
          /wNWYXJpYWNpw7NuIHLDrXRtaWNhIDEgKHNpbiBwYWxtIG11dGUp
        >
        E 0 c3 1e 00
        E 0 b3 40 00
        E 0 b3 5b 30
        E 0 b3 0a 40
        E 0 b3 07 7f
        E 0 b3 0a 40
        E 0 b3 5b 3b
        E 0 93 32 61
        E 0 93 39 61
        E 0 93 3e 61
        E 0 b3 79 00
        E 960 83 32 00
        E 0 83 39 00
        E 0 83 3e 00
        E 0 93 32 4e
        E 0 93 39 4e
        E 480 83 32 00
        E 0 83 39 00
        E 0 93 32 62
        E 0 93 39 62
        E 0 93 3e 62
        E 960 83 32 00
        E 0 83 39 00
        E 0 83 3e 00
        E 0 93 32 48
        E 0 93 39 48
        E 480 83 32 00
        E 0 83 39 00
        E 0 93 32 49
        E 0 93 39 49
        E 480 83 32 00
        E 0 83 39 00
        E 0 93 32 64
        E 0 93 39 64
        E 0 93 3e 64
        E 960 83 32 00
        E 0 83 39 00
        E 0 83 3e 00
        E 0 93 32 48
        E 0 93 39 48
        E 480 83 32 00
        E 0 83 39 00
        E 0 93 32 48
        E 0 93 39 48
        E 480 83 32 00
        E 0 83 39 00
        E 0 93 32 49
        E 0 93 39 49
        E 480 83 32 00
        E 0 83 39 00
        E 0 93 32 6b
        E 0 93 39 6b
        E 0 93 3e 6b
        E 960 83 32 00
        E 0 83 39 00
        E 0 83 3e 00
        E 0 93 32 48
        E 0 93 39 48
        E 480 83 32 00
        E 0 83 39 00
        E 0 93 32 49
        E 0 93 39 49
        E 480 83 32 00
        E 0 83 39 00
        E 0 93 30 68
        E 0 93 37 68
        E 0 93 3c 68
        E 960 83 30 00
        E 0 83 37 00
        E 0 83 3c 00
        E 0 93 30 49
        E 0 93 37 49
        E 480 83 30 00
        E 0 83 37 00
        E 0 93 30 65
        E 0 93 37 65
        E 0 93 3c 65
        E 960 83 30 00
        E 0 83 37 00
        E 0 83 3c 00
        E 0 93 30 46
        E 0 93 37 46
        E 480 83 30 00
        E 0 83 37 00
        E 0 93 30 47
        E 0 93 37 47
        E 480 83 30 00
        E 0 83 37 00
        E 0 93 2f 52
        E 0 93 36 52
        E 0 93 3b 52
        E 960 83 2f 00
        E 0 83 36 00
        E 0 83 3b 00
        E 0 93 2f 46
        E 0 93 36 46
        E 480 83 2f 00
        E 0 83 36 00
        E 0 93 2f 47
        E 0 93 36 47
        E 480 83 2f 00
        E 0 83 36 00
        E 0 93 2f 48
        E 0 93 36 48
        E 480 83 2f 00
        E 0 83 36 00
        E 0 93 2f 6a
        E 0 93 36 6a
        E 0 93 3b 6a
        E 960 83 2f 00
        E 0 83 36 00
        E 0 83 3b 00
        E 0 93 2f 48
        E 0 93 36 48
        E 480 83 2f 00
        E 0 83 36 00
        E 0 93 2f 49
        E 0 93 36 49
        E 480 83 2f 00
        E 0 83 36 00
        E 0 93 32 6f
        E 0 93 39 6f
        E 0 93 3e 6f
        E 960 83 32 00
        E 0 83 39 00
        E 0 83 3e 00
        E 0 93 32 52
        E 0 93 39 52
        E 480 83 32 00
        E 0 83 39 00
        E 0 93 32 69
        E 0 93 39 69
        E 0 93 3e 69
        E 960 83 32 00
        E 0 83 39 00
        E 0 83 3e 00
        E 0 93 32 4a
        E 0 93 39 4a
        E 480 83 32 00
        E 0 83 39 00
        E 0 93 32 4a
        E 0 93 39 4a
        E 480 83 32 00
        E 0 83 39 00
        E 0 93 32 66
        E 0 93 39 66
        E 0 93 3e 66
        E 960 83 32 00
        E 0 83 39 00
        E 0 83 3e 00
        E 0 93 32 48
        E 0 93 39 48
        E 480 83 32 00
        E 0 83 39 00
        E 0 93 32 49
        E 0 93 39 49
        E 480 83 32 00
        E 0 83 39 00
        E 0 93 32 49
        E 0 93 39 49
        E 480 83 32 00
        E 0 83 39 00
        E 0 93 32 6b
        E 0 93 39 6b
        E 0 93 3e 6b
        E 960 83 32 00
        E 0 83 39 00
        E 0 83 3e 00
        E 0 93 32 48
        E 0 93 39 48
        E 480 83 32 00
        E 0 83 39 00
        E 0 93 32 49
        E 0 93 39 49
        E 480 83 32 00
        E 0 83 39 00
        E 0 93 30 68
        E 0 93 37 68
        E 0 93 3c 68
        E 960 83 30 00
        E 0 83 37 00
        E 0 83 3c 00
        E 0 93 30 49
        E 0 93 37 49
        E 480 83 30 00
        E 0 83 37 00
        E 0 93 30 65
        E 0 93 37 65
        E 0 93 3c 65
        E 960 83 30 00
        E 0 83 37 00
        E 0 83 3c 00
        E 0 93 30 46
        E 0 93 37 46
        E 480 83 30 00
        E 0 83 37 00
        E 0 93 30 47
        E 0 93 37 47
        E 480 83 30 00
        E 0 83 37 00
        E 0 93 2b 56
        E 0 93 32 56
        E 0 93 37 56
        E 960 83 2b 00
        E 0 83 32 00
        E 0 83 37 00
        E 0 93 2b 43
        E 0 93 32 43
        E 480 83 2b 00
        E 0 83 32 00
        E 0 93 2b 44
        E 0 93 32 44
        E 480 83 2b 00
        E 0 83 32 00
        E 0 93 2b 46
        E 0 93 32 46
        E 480 83 2b 00
        E 0 83 32 00
        E 0 93 2d 6c
        E 0 93 34 6c
        E 0 93 39 6c
        E 960 83 2d 00
        E 0 83 34 00
        E 0 83 39 00
        E 0 93 2d 4a
        E 0 93 34 4a
        E 480 83 2d 00
        E 0 83 34 00
        E 0 93 2d 4a
        E 0 93 34 4a
        E 480 83 2d 00
        E 0 83 34 00
        E 0 b0 7b 00
        CCINTERP 32
        CHASE_CC_TAKEOFFS 1
        GUID {6953746A-6D73-4F77-884E-1B1459AF651C}
        IGNTEMPO 0 120 4 4
        SRCCOLOR 5
      >
    >
    <ITEM
      POSITION 15.5
      SNAPOFFS 0
      LENGTH 12
      LOOP 1
      ALLTAKES 0
      FADEIN 1 0 0 1 0 0
      FADEOUT 1 0 0 1 0 0
      MUTE 0 0
      SEL 0
      IGUID {C7B34840-5AD4-438F-A59D-1BE78F24755B}
      IID 13
      NAME "Variación rítmica 1 (sin palm mute) - Marty.mid"
      VOLPAN 1 0 1 -1
      SOFFS 12 32
      PLAYRATE 1 1 0 -1 0 0.0025
      CHANMODE 0
      GUID {5195A918-A086-4EB3-B569-B5C4667D2038}
      <SOURCE MIDI
        HASDATA 1 960 QN
        CCINTERP 32
        POOLEDEVTS {08655691-5EFC-452B-BDAE-31BC3C2D1F44}
        <X 0 0 0 0 3 "Variación rítmica 1 (sin palm mute)"
          /wNWYXJpYWNpw7NuIHLDrXRtaWNhIDEgKHNpbiBwYWxtIG11dGUp
        >
        E 0 c3 1e 00
        E 0 b3 40 00
        E 0 b3 5b 30
        E 0 b3 0a 40
        E 0 b3 07 7f
        E 0 b3 0a 40
        E 0 b3 5b 3b
        E 0 93 32 61
        E 0 93 39 61
        E 0 93 3e 61
        E 0 b3 79 00
        E 960 83 32 00
        E 0 83 39 00
        E 0 83 3e 00
        E 0 93 32 4e
        E 0 93 39 4e
        E 480 83 32 00
        E 0 83 39 00
        E 0 93 32 62
        E 0 93 39 62
        E 0 93 3e 62
        E 960 83 32 00
        E 0 83 39 00
        E 0 83 3e 00
        E 0 93 32 48
        E 0 93 39 48
        E 480 83 32 00
        E 0 83 39 00
        E 0 93 32 49
        E 0 93 39 49
        E 480 83 32 00
        E 0 83 39 00
        E 0 93 32 64
        E 0 93 39 64
        E 0 93 3e 64
        E 960 83 32 00
        E 0 83 39 00
        E 0 83 3e 00
        E 0 93 32 48
        E 0 93 39 48
        E 480 83 32 00
        E 0 83 39 00
        E 0 93 32 48
        E 0 93 39 48
        E 480 83 32 00
        E 0 83 39 00
        E 0 93 32 49
        E 0 93 39 49
        E 480 83 32 00
        E 0 83 39 00
        E 0 93 32 6b
        E 0 93 39 6b
        E 0 93 3e 6b
        E 960 83 32 00
        E 0 83 39 00
        E 0 83 3e 00
        E 0 93 32 48
        E 0 93 39 48
        E 480 83 32 00
        E 0 83 39 00
        E 0 93 32 49
        E 0 93 39 49
        E 480 83 32 00
        E 0 83 39 00
        E 0 93 30 68
        E 0 93 37 68
        E 0 93 3c 68
        E 960 83 30 00
        E 0 83 37 00
        E 0 83 3c 00
        E 0 93 30 49
        E 0 93 37 49
        E 480 83 30 00
        E 0 83 37 00
        E 0 93 30 65
        E 0 93 37 65
        E 0 93 3c 65
        E 960 83 30 00
        E 0 83 37 00
        E 0 83 3c 00
        E 0 93 30 46
        E 0 93 37 46
        E 480 83 30 00
        E 0 83 37 00
        E 0 93 30 47
        E 0 93 37 47
        E 480 83 30 00
        E 0 83 37 00
        E 0 93 2f 52
        E 0 93 36 52
        E 0 93 3b 52
        E 960 83 2f 00
        E 0 83 36 00
        E 0 83 3b 00
        E 0 93 2f 46
        E 0 93 36 46
        E 480 83 2f 00
        E 0 83 36 00
        E 0 93 2f 47
        E 0 93 36 47
        E 480 83 2f 00
        E 0 83 36 00
        E 0 93 2f 48
        E 0 93 36 48
        E 480 83 2f 00
        E 0 83 36 00
        E 0 93 2f 6a
        E 0 93 36 6a
        E 0 93 3b 6a
        E 960 83 2f 00
        E 0 83 36 00
        E 0 83 3b 00
        E 0 93 2f 48
        E 0 93 36 48
        E 480 83 2f 00
        E 0 83 36 00
        E 0 93 2f 49
        E 0 93 36 49
        E 480 83 2f 00
        E 0 83 36 00
        E 0 93 32 6f
        E 0 93 39 6f
        E 0 93 3e 6f
        E 960 83 32 00
        E 0 83 39 00
        E 0 83 3e 00
        E 0 93 32 52
        E 0 93 39 52
        E 480 83 32 00
        E 0 83 39 00
        E 0 93 32 69
        E 0 93 39 69
        E 0 93 3e 69
        E 960 83 32 00
        E 0 83 39 00
        E 0 83 3e 00
        E 0 93 32 4a
        E 0 93 39 4a
        E 480 83 32 00
        E 0 83 39 00
        E 0 93 32 4a
        E 0 93 39 4a
        E 480 83 32 00
        E 0 83 39 00
        E 0 93 32 66
        E 0 93 39 66
        E 0 93 3e 66
        E 960 83 32 00
        E 0 83 39 00
        E 0 83 3e 00
        E 0 93 32 48
        E 0 93 39 48
        E 480 83 32 00
        E 0 83 39 00
        E 0 93 32 49
        E 0 93 39 49
        E 480 83 32 00
        E 0 83 39 00
        E 0 93 32 49
        E 0 93 39 49
        E 480 83 32 00
        E 0 83 39 00
        E 0 93 32 6b
        E 0 93 39 6b
        E 0 93 3e 6b
        E 960 83 32 00
        E 0 83 39 00
        E 0 83 3e 00
        E 0 93 32 48
        E 0 93 39 48
        E 480 83 32 00
        E 0 83 39 00
        E 0 93 32 49
        E 0 93 39 49
        E 480 83 32 00
        E 0 83 39 00
        E 0 93 30 68
        E 0 93 37 68
        E 0 93 3c 68
        E 960 83 30 00
        E 0 83 37 00
        E 0 83 3c 00
        E 0 93 30 49
        E 0 93 37 49
        E 480 83 30 00
        E 0 83 37 00
        E 0 93 30 65
        E 0 93 37 65
        E 0 93 3c 65
        E 960 83 30 00
        E 0 83 37 00
        E 0 83 3c 00
        E 0 93 30 46
        E 0 93 37 46
        E 480 83 30 00
        E 0 83 37 00
        E 0 93 30 47
        E 0 93 37 47
        E 480 83 30 00
        E 0 83 37 00
        E 0 93 2b 56
        E 0 93 32 56
        E 0 93 37 56
        E 960 83 2b 00
        E 0 83 32 00
        E 0 83 37 00
        E 0 93 2b 43
        E 0 93 32 43
        E 480 83 2b 00
        E 0 83 32 00
        E 0 93 2b 44
        E 0 93 32 44
        E 480 83 2b 00
        E 0 83 32 00
        E 0 93 2b 46
        E 0 93 32 46
        E 480 83 2b 00
        E 0 83 32 00
        E 0 93 2d 6c
        E 0 93 34 6c
        E 0 93 39 6c
        E 960 83 2d 00
        E 0 83 34 00
        E 0 83 39 00
        E 0 93 2d 4a
        E 0 93 34 4a
        E 480 83 2d 00
        E 0 83 34 00
        E 0 93 2d 4a
        E 0 93 34 4a
        E 480 83 2d 00
        E 0 83 34 00
        E 0 93 2f 6f
        E 0 93 36 6f
        E 0 93 3b 6f
        E 960 83 2f 00
        E 0 83 36 00
        E 0 83 3b 00
        E 0 93 2f 51
        E 0 93 36 51
        E 480 83 2f 00
        E 0 83 36 00
        E 0 93 2f 69
        E 0 93 36 69
        E 0 93 3b 69
        E 960 83 2f 00
        E 0 83 36 00
        E 0 83 3b 00
        E 0 93 2f 4e
        E 0 93 36 4e
        E 480 83 2f 00
        E 0 83 36 00
        E 0 93 2f 67
        E 0 93 36 67
        E 0 93 3b 67
        E 960 83 2f 00
        E 0 83 36 00
        E 0 83 3b 00
        E 0 93 30 6b
        E 0 93 37 6b
        E 0 93 3c 6b
        E 960 83 30 00
        E 0 83 37 00
        E 0 83 3c 00
        E 0 93 30 4c
        E 0 93 37 4c
        E 480 83 30 00
        E 0 83 37 00
        E 0 93 30 66
        E 0 93 37 66
        E 0 93 3c 66
        E 960 83 30 00
        E 0 83 37 00
        E 0 83 3c 00
        E 0 93 30 4b
        E 0 93 37 4b
        E 480 83 30 00
        E 0 83 37 00
        E 0 93 30 65
        E 0 93 37 65
        E 0 93 3c 65
        E 960 83 30 00
        E 0 83 37 00
        E 0 83 3c 00
        E 0 93 31 69
        E 0 93 38 69
        E 0 93 3d 69
        E 960 83 31 00
        E 0 83 38 00
        E 0 83 3d 00
        E 0 93 31 4c
        E 0 93 38 4c
        E 480 83 31 00
        E 0 83 38 00
        E 0 93 31 65
        E 0 93 38 65
        E 0 93 3d 65
        E 960 83 31 00
        E 0 83 38 00
        E 0 83 3d 00
        E 0 93 31 4b
        E 0 93 38 4b
        E 480 83 31 00
        E 0 83 38 00
        E 0 93 31 65
        E 0 93 38 65
        E 0 93 3d 65
        E 960 83 31 00
        E 0 83 38 00
        E 0 83 3d 00
        E 0 93 32 69
        E 0 93 39 69
        E 0 93 3e 69
        E 960 83 32 00
        E 0 83 39 00
        E 0 83 3e 00
        E 0 93 32 4c
        E 0 93 39 4c
        E 480 83 32 00
        E 0 83 39 00
        E 0 93 32 65
        E 0 93 39 65
        E 0 93 3e 65
        E 960 83 32 00
        E 0 83 39 00
        E 0 83 3e 00
        E 0 93 32 4b
        E 0 93 39 4b
        E 480 83 32 00
        E 0 83 39 00
        E 0 93 32 65
        E 0 93 39 65
        E 0 93 3e 65
        E 960 83 32 00
        E 0 83 39 00
        E 0 83 3e 00
        E 0 93 2b 5f
        E 0 93 32 5f
        E 0 93 37 5f
        E 0 93 3b 5f
        E 960 83 2b 00
        E 0 83 32 00
        E 0 83 37 00
        E 0 83 3b 00
        E 0 93 2b 50
        E 0 93 32 50
        E 0 93 37 50
        E 0 93 3b 50
        E 480 83 2b 00
        E 0 83 32 00
        E 0 83 37 00
        E 0 83 3b 00
        E 0 93 2d 62
        E 0 93 34 62
        E 0 93 39 62
        E 0 93 3d 62
        E 1440 83 2d 00
        E 0 83 34 00
        E 0 83 39 00
        E 0 83 3d 00
        E 0 93 2d 4e
        E 0 93 34 4e
        E 0 93 39 4e
        E 0 93 3d 4e
        E 480 83 2d 00
        E 0 83 34 00
        E 0 83 39 00
        E 0 83 3d 00
        E 0 93 2d 4e
        E 0 93 34 4e
        E 0 93 39 4e
        E 0 93 3d 4e
        E 480 83 2d 00
        E 0 83 34 00
        E 0 83 39 00
        E 0 83 3d 00
        E 480 93 2d 54
        E 0 93 32 54
        E 0 93 39 54
        E 480 83 2d 00
        E 0 83 32 00
        E 0 83 39 00
        E 480 93 2d 57
        E 0 93 32 57
        E 0 93 39 57
        E 480 83 2d 00
        E 0 83 32 00
        E 0 83 39 00
        E 480 93 32 62
        E 0 93 39 62
        E 0 93 3e 62
        E 480 83 32 00
        E 0 83 39 00
        E 0 83 3e 00
        E 0 93 32 61
        E 0 93 39 61
        E 0 93 3e 61
        E 480 83 32 00
        E 0 83 39 00
        E 0 83 3e 00
        E 0 93 32 60
        E 0 93 39 60
        E 0 93 3e 60
        E 480 83 32 00
        E 0 83 39 00
        E 0 83 3e 00
        E 0 93 34 6b
        E 0 93 3b 6b
        E 0 93 40 6b
        E 960 83 34 00
        E 0 83 3b 00
        E 0 83 40 00
        E 0 93 34 55
        E 0 93 3b 55
        E 0 93 40 55
        E 480 83 34 00
        E 0 83 3b 00
        E 0 83 40 00
        E 0 93 34 63
        E 0 93 3b 63
        E 0 93 40 63
        E 1440 83 34 00
        E 0 83 3b 00
        E 0 83 40 00
        E 0 93 34 4e
        E 0 93 3b 4e
        E 0 93 40 4e
        E 480 83 34 00
        E 0 83 3b 00
        E 0 83 40 00
        E 0 93 34 4d
        E 0 93 3b 4d
        E 0 93 40 4d
        E 480 83 34 00
        E 0 83 3b 00
        E 0 83 40 00
        E 480 93 33 5a
        E 0 93 3a 5a
        E 0 93 3f 5a
        E 480 83 33 00
        E 0 83 3a 00
        E 0 83 3f 00
        E 480 93 33 5a
        E 0 93 3a 5a
        E 0 93 3f 5a
        E 480 83 33 00
        E 0 83 3a 00
        E 0 83 3f 00
        E 480 93 33 5b
        E 0 93 3a 5b
        E 0 93 3f 5b
        E 480 83 33 00
        E 0 83 3a 00
        E 0 83 3f 00
        E 0 93 33 5b
        E 0 93 3a 5b
        E 0 93 3f 5b
        E 480 83 33 00
        E 0 83 3a 00
        E 0 83 3f 00
        E 0 93 33 5b
        E 0 93 3a 5b
        E 0 93 3f 5b
        E 480 83 33 00
        E 0 83 3a 00
        E 0 83 3f 00
        E 0 b0 7b 00
        CCINTERP 32
        CHASE_CC_TAKEOFFS 1
        GUID {9269E9E9-3708-4231-BCB3-B818B32920BA}
        IGNTEMPO 0 120 4 4
        SRCCOLOR 14
      >
    >
    <ITEM
      POSITION 29
      SNAPOFFS 0
      LENGTH 12
      LOOP 1
      ALLTAKES 0
      FADEIN 1 0 0 1 0 0
      FADEOUT 1 0 0 1 0 0
      MUTE 0 0
      SEL 0
      IGUID {163F691C-C4F2-479B-8E4F-DD79056DA28A}
      IID 20
      NAME "Variación rítmica 1 (sin palm mute) - Marty.mid"
      VOLPAN 1 0 1 -1
      SOFFS 24 64
      PLAYRATE 1 1 0 -1 0 0.0025
      CHANMODE 0
      GUID {594D9864-638C-4D0A-970D-0A1E1DE5FB4A}
      <SOURCE MIDI
        HASDATA 1 960 QN
        CCINTERP 32
        POOLEDEVTS {2B7BC21C-3902-418D-A19B-0611AD668F47}
        <X 0 0 0 0 3 "Variación rítmica 1 (sin palm mute)"
          /wNWYXJpYWNpw7NuIHLDrXRtaWNhIDEgKHNpbiBwYWxtIG11dGUp
        >
        E 0 c3 1e 00
        E 0 b3 40 00
        E 0 b3 5b 30
        E 0 b3 0a 40
        E 0 b3 07 7f
        E 0 b3 0a 40
        E 0 b3 5b 3b
        E 0 93 32 61
        E 0 93 39 61
        E 0 93 3e 61
        E 0 b3 79 00
        E 960 83 32 00
        E 0 83 39 00
        E 0 83 3e 00
        E 0 93 32 4e
        E 0 93 39 4e
        E 480 83 32 00
        E 0 83 39 00
        E 0 93 32 62
        E 0 93 39 62
        E 0 93 3e 62
        E 960 83 32 00
        E 0 83 39 00
        E 0 83 3e 00
        E 0 93 32 48
        E 0 93 39 48
        E 480 83 32 00
        E 0 83 39 00
        E 0 93 32 49
        E 0 93 39 49
        E 480 83 32 00
        E 0 83 39 00
        E 0 93 32 64
        E 0 93 39 64
        E 0 93 3e 64
        E 960 83 32 00
        E 0 83 39 00
        E 0 83 3e 00
        E 0 93 32 48
        E 0 93 39 48
        E 480 83 32 00
        E 0 83 39 00
        E 0 93 32 48
        E 0 93 39 48
        E 480 83 32 00
        E 0 83 39 00
        E 0 93 32 49
        E 0 93 39 49
        E 480 83 32 00
        E 0 83 39 00
        E 0 93 32 6b
        E 0 93 39 6b
        E 0 93 3e 6b
        E 960 83 32 00
        E 0 83 39 00
        E 0 83 3e 00
        E 0 93 32 48
        E 0 93 39 48
        E 480 83 32 00
        E 0 83 39 00
        E 0 93 32 49
        E 0 93 39 49
        E 480 83 32 00
        E 0 83 39 00
        E 0 93 30 68
        E 0 93 37 68
        E 0 93 3c 68
        E 960 83 30 00
        E 0 83 37 00
        E 0 83 3c 00
        E 0 93 30 49
        E 0 93 37 49
        E 480 83 30 00
        E 0 83 37 00
        E 0 93 30 65
        E 0 93 37 65
        E 0 93 3c 65
        E 960 83 30 00
        E 0 83 37 00
        E 0 83 3c 00
        E 0 93 30 46
        E 0 93 37 46
        E 480 83 30 00
        E 0 83 37 00
        E 0 93 30 47
        E 0 93 37 47
        E 480 83 30 00
        E 0 83 37 00
        E 0 93 2f 52
        E 0 93 36 52
        E 0 93 3b 52
        E 960 83 2f 00
        E 0 83 36 00
        E 0 83 3b 00
        E 0 93 2f 46
        E 0 93 36 46
        E 480 83 2f 00
        E 0 83 36 00
        E 0 93 2f 47
        E 0 93 36 47
        E 480 83 2f 00
        E 0 83 36 00
        E 0 93 2f 48
        E 0 93 36 48
        E 480 83 2f 00
        E 0 83 36 00
        E 0 93 2f 6a
        E 0 93 36 6a
        E 0 93 3b 6a
        E 960 83 2f 00
        E 0 83 36 00
        E 0 83 3b 00
        E 0 93 2f 48
        E 0 93 36 48
        E 480 83 2f 00
        E 0 83 36 00
        E 0 93 2f 49
        E 0 93 36 49
        E 480 83 2f 00
        E 0 83 36 00
        E 0 93 32 6f
        E 0 93 39 6f
        E 0 93 3e 6f
        E 960 83 32 00
        E 0 83 39 00
        E 0 83 3e 00
        E 0 93 32 52
        E 0 93 39 52
        E 480 83 32 00
        E 0 83 39 00
        E 0 93 32 69
        E 0 93 39 69
        E 0 93 3e 69
        E 960 83 32 00
        E 0 83 39 00
        E 0 83 3e 00
        E 0 93 32 4a
        E 0 93 39 4a
        E 480 83 32 00
        E 0 83 39 00
        E 0 93 32 4a
        E 0 93 39 4a
        E 480 83 32 00
        E 0 83 39 00
        E 0 93 32 66
        E 0 93 39 66
        E 0 93 3e 66
        E 960 83 32 00
        E 0 83 39 00
        E 0 83 3e 00
        E 0 93 32 48
        E 0 93 39 48
        E 480 83 32 00
        E 0 83 39 00
        E 0 93 32 49
        E 0 93 39 49
        E 480 83 32 00
        E 0 83 39 00
        E 0 93 32 49
        E 0 93 39 49
        E 480 83 32 00
        E 0 83 39 00
        E 0 93 32 6b
        E 0 93 39 6b
        E 0 93 3e 6b
        E 960 83 32 00
        E 0 83 39 00
        E 0 83 3e 00
        E 0 93 32 48
        E 0 93 39 48
        E 480 83 32 00
        E 0 83 39 00
        E 0 93 32 49
        E 0 93 39 49
        E 480 83 32 00
        E 0 83 39 00
        E 0 93 30 68
        E 0 93 37 68
        E 0 93 3c 68
        E 960 83 30 00
        E 0 83 37 00
        E 0 83 3c 00
        E 0 93 30 49
        E 0 93 37 49
        E 480 83 30 00
        E 0 83 37 00
        E 0 93 30 65
        E 0 93 37 65
        E 0 93 3c 65
        E 960 83 30 00
        E 0 83 37 00
        E 0 83 3c 00
        E 0 93 30 46
        E 0 93 37 46
        E 480 83 30 00
        E 0 83 37 00
        E 0 93 30 47
        E 0 93 37 47
        E 480 83 30 00
        E 0 83 37 00
        E 0 93 2b 56
        E 0 93 32 56
        E 0 93 37 56
        E 960 83 2b 00
        E 0 83 32 00
        E 0 83 37 00
        E 0 93 2b 43
        E 0 93 32 43
        E 480 83 2b 00
        E 0 83 32 00
        E 0 93 2b 44
        E 0 93 32 44
        E 480 83 2b 00
        E 0 83 32 00
        E 0 93 2b 46
        E 0 93 32 46
        E 480 83 2b 00
        E 0 83 32 00
        E 0 93 2d 6c
        E 0 93 34 6c
        E 0 93 39 6c
        E 960 83 2d 00
        E 0 83 34 00
        E 0 83 39 00
        E 0 93 2d 4a
        E 0 93 34 4a
        E 480 83 2d 00
        E 0 83 34 00
        E 0 93 2d 4a
        E 0 93 34 4a
        E 480 83 2d 00
        E 0 83 34 00
        E 0 93 2f 6f
        E 0 93 36 6f
        E 0 93 3b 6f
        E 960 83 2f 00
        E 0 83 36 00
        E 0 83 3b 00
        E 0 93 2f 51
        E 0 93 36 51
        E 480 83 2f 00
        E 0 83 36 00
        E 0 93 2f 69
        E 0 93 36 69
        E 0 93 3b 69
        E 960 83 2f 00
        E 0 83 36 00
        E 0 83 3b 00
        E 0 93 2f 4e
        E 0 93 36 4e
        E 480 83 2f 00
        E 0 83 36 00
        E 0 93 2f 67
        E 0 93 36 67
        E 0 93 3b 67
        E 960 83 2f 00
        E 0 83 36 00
        E 0 83 3b 00
        E 0 93 30 6b
        E 0 93 37 6b
        E 0 93 3c 6b
        E 960 83 30 00
        E 0 83 37 00
        E 0 83 3c 00
        E 0 93 30 4c
        E 0 93 37 4c
        E 480 83 30 00
        E 0 83 37 00
        E 0 93 30 66
        E 0 93 37 66
        E 0 93 3c 66
        E 960 83 30 00
        E 0 83 37 00
        E 0 83 3c 00
        E 0 93 30 4b
        E 0 93 37 4b
        E 480 83 30 00
        E 0 83 37 00
        E 0 93 30 65
        E 0 93 37 65
        E 0 93 3c 65
        E 960 83 30 00
        E 0 83 37 00
        E 0 83 3c 00
        E 0 93 31 69
        E 0 93 38 69
        E 0 93 3d 69
        E 960 83 31 00
        E 0 83 38 00
        E 0 83 3d 00
        E 0 93 31 4c
        E 0 93 38 4c
        E 480 83 31 00
        E 0 83 38 00
        E 0 93 31 65
        E 0 93 38 65
        E 0 93 3d 65
        E 960 83 31 00
        E 0 83 38 00
        E 0 83 3d 00
        E 0 93 31 4b
        E 0 93 38 4b
        E 480 83 31 00
        E 0 83 38 00
        E 0 93 31 65
        E 0 93 38 65
        E 0 93 3d 65
        E 960 83 31 00
        E 0 83 38 00
        E 0 83 3d 00
        E 0 93 32 69
        E 0 93 39 69
        E 0 93 3e 69
        E 960 83 32 00
        E 0 83 39 00
        E 0 83 3e 00
        E 0 93 32 4c
        E 0 93 39 4c
        E 480 83 32 00
        E 0 83 39 00
        E 0 93 32 65
        E 0 93 39 65
        E 0 93 3e 65
        E 960 83 32 00
        E 0 83 39 00
        E 0 83 3e 00
        E 0 93 32 4b
        E 0 93 39 4b
        E 480 83 32 00
        E 0 83 39 00
        E 0 93 32 65
        E 0 93 39 65
        E 0 93 3e 65
        E 960 83 32 00
        E 0 83 39 00
        E 0 83 3e 00
        E 0 93 2b 5f
        E 0 93 32 5f
        E 0 93 37 5f
        E 0 93 3b 5f
        E 960 83 2b 00
        E 0 83 32 00
        E 0 83 37 00
        E 0 83 3b 00
        E 0 93 2b 50
        E 0 93 32 50
        E 0 93 37 50
        E 0 93 3b 50
        E 480 83 2b 00
        E 0 83 32 00
        E 0 83 37 00
        E 0 83 3b 00
        E 0 93 2d 62
        E 0 93 34 62
        E 0 93 39 62
        E 0 93 3d 62
        E 1440 83 2d 00
        E 0 83 34 00
        E 0 83 39 00
        E 0 83 3d 00
        E 0 93 2d 4e
        E 0 93 34 4e
        E 0 93 39 4e
        E 0 93 3d 4e
        E 480 83 2d 00
        E 0 83 34 00
        E 0 83 39 00
        E 0 83 3d 00
        E 0 93 2d 4e
        E 0 93 34 4e
        E 0 93 39 4e
        E 0 93 3d 4e
        E 480 83 2d 00
        E 0 83 34 00
        E 0 83 39 00
        E 0 83 3d 00
        E 480 93 2d 54
        E 0 93 32 54
        E 0 93 39 54
        E 480 83 2d 00
        E 0 83 32 00
        E 0 83 39 00
        E 480 93 2d 57
        E 0 93 32 57
        E 0 93 39 57
        E 480 83 2d 00
        E 0 83 32 00
        E 0 83 39 00
        E 480 93 32 62
        E 0 93 39 62
        E 0 93 3e 62
        E 480 83 32 00
        E 0 83 39 00
        E 0 83 3e 00
        E 0 93 32 61
        E 0 93 39 61
        E 0 93 3e 61
        E 480 83 32 00
        E 0 83 39 00
        E 0 83 3e 00
        E 0 93 32 60
        E 0 93 39 60
        E 0 93 3e 60
        E 480 83 32 00
        E 0 83 39 00
        E 0 83 3e 00
        E 0 93 34 6b
        E 0 93 3b 6b
        E 0 93 40 6b
        E 960 83 34 00
        E 0 83 3b 00
        E 0 83 40 00
        E 0 93 34 55
        E 0 93 3b 55
        E 0 93 40 55
        E 480 83 34 00
        E 0 83 3b 00
        E 0 83 40 00
        E 0 93 34 63
        E 0 93 3b 63
        E 0 93 40 63
        E 1440 83 34 00
        E 0 83 3b 00
        E 0 83 40 00
        E 0 93 34 4e
        E 0 93 3b 4e
        E 0 93 40 4e
        E 480 83 34 00
        E 0 83 3b 00
        E 0 83 40 00
        E 0 93 34 4d
        E 0 93 3b 4d
        E 0 93 40 4d
        E 480 83 34 00
        E 0 83 3b 00
        E 0 83 40 00
        E 480 93 33 5a
        E 0 93 3a 5a
        E 0 93 3f 5a
        E 480 83 33 00
        E 0 83 3a 00
        E 0 83 3f 00
        E 480 93 33 5a
        E 0 93 3a 5a
        E 0 93 3f 5a
        E 480 83 33 00
        E 0 83 3a 00
        E 0 83 3f 00
        E 480 93 33 5b
        E 0 93 3a 5b
        E 0 93 3f 5b
        E 480 83 33 00
        E 0 83 3a 00
        E 0 83 3f 00
        E 0 93 33 5b
        E 0 93 3a 5b
        E 0 93 3f 5b
        E 480 83 33 00
        E 0 83 3a 00
        E 0 83 3f 00
        E 0 93 33 5b
        E 0 93 3a 5b
        E 0 93 3f 5b
        E 480 c3 1c 00
        E 0 b3 07 7f
        E 0 b3 0a 40
        E 0 b3 5b 3b
        E 0 83 33 00
        E 0 83 3a 00
        E 0 83 3f 00
        E 0 93 32 5e
        E 0 93 39 5e
        E 0 93 3e 5e
        E 480 c3 1e 00
        E 0 b3 07 7f
        E 0 b3 0a 40
        E 0 b3 5b 3b
        E 0 83 32 00
        E 0 83 39 00
        E 0 83 3e 00
        E 0 93 32 4a
        E 0 93 39 4a
        E 0 93 3e 4a
        E 480 83 32 00
        E 0 83 39 00
        E 0 83 3e 00
        E 0 93 32 4a
        E 0 93 39 4a
        E 0 93 3e 4a
        E 480 83 32 00
        E 0 83 39 00
        E 0 83 3e 00
        E 0 93 32 5a
        E 0 93 39 5a
        E 0 93 3e 5a
        E 960 c3 1c 00
        E 0 b3 07 7f
        E 0 b3 0a 40
        E 0 b3 5b 3b
        E 0 83 32 00
        E 0 83 39 00
        E 0 83 3e 00
        E 0 93 32 4b
        E 0 93 39 4b
        E 0 93 3e 4b
        E 480 c3 1e 00
        E 0 b3 07 7f
        E 0 b3 0a 40
        E 0 b3 5b 3b
        E 0 83 32 00
        E 0 83 39 00
        E 0 83 3e 00
        E 0 93 32 4c
        E 0 93 39 4c
        E 0 93 3e 4c
        E 480 83 32 00
        E 0 83 39 00
        E 0 83 3e 00
        E 0 93 32 4c
        E 0 93 39 4c
        E 0 93 3e 4c
        E 480 c3 1c 00
        E 0 b3 07 7f
        E 0 b3 0a 40
        E 0 b3 5b 3b
        E 0 83 32 00
        E 0 83 39 00
        E 0 83 3e 00
        E 0 93 32 61
        E 0 93 39 61
        E 0 93 3e 61
        E 480 c3 1e 00
        E 0 b3 07 7f
        E 0 b3 0a 40
        E 0 b3 5b 3b
        E 0 83 32 00
        E 0 83 39 00
        E 0 83 3e 00
        E 0 93 32 4c
        E 0 93 3a 4c
        E 0 93 3e 4c
        E 480 83 32 00
        E 0 83 3a 00
        E 0 83 3e 00
        E 0 93 32 4c
        E 0 93 3a 4c
        E 0 93 3e 4c
        E 480 83 32 00
        E 0 83 3a 00
        E 0 83 3e 00
        E 0 93 32 5b
        E 0 93 3a 5b
        E 0 93 3e 5b
        E 960 c3 1c 00
        E 0 b3 07 7f
        E 0 b3 0a 40
        E 0 b3 5b 3b
        E 0 83 32 00
        E 0 83 3a 00
        E 0 83 3e 00
        E 0 93 32 4c
        E 0 93 3a 4c
        E 0 93 3e 4c
        E 480 c3 1e 00
        E 0 b3 07 7f
        E 0 b3 0a 40
        E 0 b3 5b 3b
        E 0 83 32 00
        E 0 83 3a 00
        E 0 83 3e 00
        E 0 93 32 4c
        E 0 93 3a 4c
        E 0 93 3e 4c
        E 480 83 32 00
        E 0 83 3a 00
        E 0 83 3e 00
        E 0 93 32 4c
        E 0 93 3a 4c
        E 0 93 3e 4c
        E 480 c3 1c 00
        E 0 b3 07 7f
        E 0 b3 0a 40
        E 0 b3 5b 3b
        E 0 83 32 00
        E 0 83 3a 00
        E 0 83 3e 00
        E 0 93 32 61
        E 0 93 3b 61
        E 0 93 3e 61
        E 480 c3 1e 00
        E 0 b3 07 7f
        E 0 b3 0a 40
        E 0 b3 5b 3b
        E 0 83 32 00
        E 0 83 3b 00
        E 0 83 3e 00
        E 0 93 32 4c
        E 0 93 3b 4c
        E 0 93 3e 4c
        E 480 83 32 00
        E 0 83 3b 00
        E 0 83 3e 00
        E 0 93 32 4c
        E 0 93 3b 4c
        E 0 93 3e 4c
        E 480 83 32 00
        E 0 83 3b 00
        E 0 83 3e 00
        E 0 93 32 5b
        E 0 93 3b 5b
        E 0 93 3e 5b
        E 960 c3 1c 00
        E 0 b3 07 7f
        E 0 b3 0a 40
        E 0 b3 5b 3b
        E 0 83 32 00
        E 0 83 3b 00
        E 0 83 3e 00
        E 0 93 32 4c
        E 0 93 3b 4c
        E 0 93 3e 4c
        E 480 c3 1e 00
        E 0 b3 07 7f
        E 0 b3 0a 40
        E 0 b3 5b 3b
        E 0 83 32 00
        E 0 83 3b 00
        E 0 83 3e 00
        E 0 93 32 4c
        E 0 93 3b 4c
        E 0 93 3e 4c
        E 480 83 32 00
        E 0 83 3b 00
        E 0 83 3e 00
        E 0 93 32 4c
        E 0 93 3b 4c
        E 0 93 3e 4c
        E 480 83 32 00
        E 0 83 3b 00
        E 0 83 3e 00
        E 480 93 32 56
        E 0 93 39 56
        E 0 93 3c 56
        E 480 83 32 00
        E 0 83 39 00
        E 0 83 3c 00
        E 480 93 32 58
        E 0 93 39 58
        E 0 93 3c 58
        E 480 83 32 00
        E 0 83 39 00
        E 0 83 3c 00
        E 480 93 32 59
        E 0 93 39 59
        E 0 93 3c 59
        E 480 83 32 00
        E 0 83 39 00
        E 0 83 3c 00
        E 480 93 32 5a
        E 0 93 39 5a
        E 0 93 3c 5a
        E 480 83 32 00
        E 0 83 39 00
        E 0 83 3c 00
        E 0 93 2b 5e
        E 0 93 32 5e
        E 0 93 37 5e
        E 0 93 3b 5e
        E 960 83 2b 00
        E 0 83 32 00
        E 0 83 37 00
        E 0 83 3b 00
        E 0 93 2b 50
        E 0 93 32 50
        E 0 93 37 50
        E 0 93 3b 50
        E 480 83 2b 00
        E 0 83 32 00
        E 0 83 37 00
        E 0 83 3b 00
        E 0 93 2b 5d
        E 0 93 32 5d
        E 0 93 37 5d
        E 0 93 3b 5d
        E 960 83 2b 00
        E 0 83 32 00
        E 0 83 37 00
        E 0 83 3b 00
        E 0 93 2b 5b
        E 0 93 32 5b
        E 0 93 37 5b
        E 0 93 3b 5b
        E 960 83 2b 00
        E 0 83 32 00
        E 0 83 37 00
        E 0 83 3b 00
        E 0 93 2b 51
        E 0 93 32 51
        E 0 93 37 51
        E 0 93 3b 51
        E 480 83 2b 00
        E 0 83 32 00
        E 0 83 37 00
        E 0 83 3b 00
        E 0 93 2b 61
        E 0 93 32 61
        E 0 93 37 61
        E 0 93 3a 61
        E 960 83 2b 00
        E 0 83 32 00
        E 0 83 37 00
        E 0 83 3a 00
        E 0 93 2b 50
        E 0 93 32 50
        E 0 93 37 50
        E 0 93 3a 50
        E 480 83 2b 00
        E 0 83 32 00
        E 0 83 37 00
        E 0 83 3a 00
        E 0 93 2b 5d
        E 0 93 32 5d
        E 0 93 37 5d
        E 0 93 3a 5d
        E 960 83 2b 00
        E 0 83 32 00
        E 0 83 37 00
        E 0 83 3a 00
        E 0 93 2b 5b
        E 0 93 32 5b
        E 0 93 37 5b
        E 0 93 3a 5b
        E 960 83 2b 00
        E 0 83 32 00
        E 0 83 37 00
        E 0 83 3a 00
        E 0 93 2b 51
        E 0 93 32 51
        E 0 93 37 51
        E 0 93 3a 51
        E 480 83 2b 00
        E 0 83 32 00
        E 0 83 37 00
        E 0 83 3a 00
        E 0 93 2d 61
        E 0 93 32 61
        E 0 93 39 61
        E 960 83 2d 00
        E 0 83 32 00
        E 0 83 39 00
        E 0 93 2d 50
        E 0 93 32 50
        E 0 93 39 50
        E 480 83 2d 00
        E 0 83 32 00
        E 0 83 39 00
        E 0 93 2d 5d
        E 0 93 32 5d
        E 0 93 39 5d
        E 960 83 2d 00
        E 0 83 32 00
        E 0 83 39 00
        E 0 93 2d 50
        E 0 93 32 50
        E 0 93 39 50
        E 480 83 2d 00
        E 0 83 32 00
        E 0 83 39 00
        E 0 93 2d 5e
        E 0 93 32 5e
        E 0 93 39 5e
        E 960 83 2d 00
        E 0 83 32 00
        E 0 83 39 00
        E 0 93 2f 66
        E 0 93 36 66
        E 0 93 3b 66
        E 480 83 2f 00
        E 0 83 36 00
        E 0 83 3b 00
        E 0 93 2f 4f
        E 0 93 36 4f
        E 0 93 3b 4f
        E 480 83 2f 00
        E 0 83 36 00
        E 0 83 3b 00
        E 0 93 2f 4f
        E 0 93 36 4f
        E 0 93 3b 4f
        E 480 83 2f 00
        E 0 83 36 00
        E 0 83 3b 00
        E 0 93 31 64
        E 0 93 38 64
        E 0 93 3d 64
        E 960 83 31 00
        E 0 83 38 00
        E 0 83 3d 00
        E 0 93 31 51
        E 0 93 38 51
        E 0 93 3d 51
        E 480 83 31 00
        E 0 83 38 00
        E 0 83 3d 00
        E 0 93 31 50
        E 0 93 38 50
        E 0 93 3d 50
        E 480 83 31 00
        E 0 83 38 00
        E 0 83 3d 00
        E 0 93 31 4f
        E 0 93 38 4f
        E 0 93 3d 4f
        E 479 83 31 00
        E 0 83 38 00
        E 0 83 3d 00
        E 1 b0 7b 00
        CCINTERP 32
        CHASE_CC_TAKEOFFS 1
        GUID {B7CBCBB5-466E-4C19-A51F-FB4354AAEFD4}
        IGNTEMPO 0 120 4 4
        SRCCOLOR 21
      >
    >
  >
  <TRACK {843D9902-6E8D-48FE-BA1B-C196BB3D925A}
    NAME "Variación rítmica 2 (con palm mute)"
    PEAKCOL 16576
    BEAT -1
    AUTOMODE 0
    VOLPAN 1 0 -1 -1 1
    MUTESOLO 0 2 0
    IPHASE 0
    PLAYOFFS 0 1
    ISBUS 0 0
    BUSCOMP 0 0 0 0 0
    SHOWINMIX 1 0.6667 0.5 1 0.5 -1 -1 -1
    FREEMODE 0
    SEL 0
    REC 0 0 1 0 0 0 0
    VU 2
    TRACKHEIGHT 0 0 0 0 -1 0
    INQ 0 0 0 0.5 100 0 0 100
    NCHAN 2
    FX 1
    TRACKID {843D9902-6E8D-48FE-BA1B-C196BB3D925A}
    PERF 0
    MIDIOUT -1
    MAINSEND 1 0
    <FXCHAIN
      WNDRECT 24 52 506 258
      SHOW 0
      LASTSEL 0
      DOCKED 0
      BYPASS 0 0 0
      <VST "VSTi: FM8 (Native Instruments GmbH)" FM8.dll 0 "" 1315530296<5653544E696638666D38202878383629> ""
        OGZpTu5e7f4AAAAAAgAAAAEAAAAAAAAAAgAAAAAAAABxIgAAAQAAAAAAEAA=
        cSIAAAAAAAABAAAAaHNpbgEAAAAAAAAAtobcUMQp00ys2xunT/VcXpYAAAAAAAAARFNJTnYAAAABAAAASAAAAAAAAABEU0lOagAAAAEAAAAYAAAAAAAAAERTSU4BAAAA
        AQAAAAEAAAABAAAAAQAAAAEAAAAAAAAAAAAAAAAAAAANYmWFAQAAAANwEAAAAAAAAQAAAAEAAAAAAAAAAAAAAAAAAAADAAAAMAAwADAAAAAAAAAAAAAAAAAAAAAAAAEA
        AAABAAAAAAAAAERTSU5lAAAAnyEAAAAAAAABAAAAaHNpbgEAAAAAAAAAk2LmMfvQG0yafYDm9m9BlW0AAAAAAAAARFNJTmUAAAABAAAANAAAAAAAAABEU0lOagAAAAEA
        AAAYAAAAAAAAAERTSU4BAAAAAQAAAAEAAAABAAAAAgAAAAEAAAAACAAAAAEAAAAKAAAAMQAuADIALgAwAC4AMQAwADEAMAABAAAAAwAAAAAAAABEU0lObAAAADQDAAAA
        AAAAAQAAAGhzaW4BAAAAAAAAAEPySaikdwBNqY3YM9NCgmIEAwAAAAAAAERTSU5sAAAAAQAAABgAAAAAAAAARFNJTgEAAAABAAAAAQAAAAEAAAACAAAAAQAAAAAAAAAO
        AAAAQwByAHUAbgBjAGgAIABDAHIAdQBzAGgAZQByAAwAAABBAG4AZAByAGUAIABFAHQAdABlAG0AYQASAAAATgBhAHQAaQB2AGUAIABJAG4AcwB0AHIAdQBtAGUAbgB0
        AHMAQAAAAFUAcwBlACAATQBvAHIAcABoACAAUwBxAHUAYQByAGUAIAB0AG8AIABnAGUAdAAgAHQAaABlACAAcwBvAHUAbgBkACAAbwBmACAAZABpAGYAZgBlAHIAZQBu
        AHQAIABhAG0AcAAgAHMAaQBtAHUAbABhAHQAaQBvAG4AcwAuACAAAAAAAP////8AAAAAAAAAAAAAAAAAAAAAAAAAAAEAAAABAAAAAgAAAAMAAABGAE0AOAALAAAARgBN
        ADgAIABGAGEAYwB0AG8AcgB5AAcAAAALAAAAQQByAHAAZQBnAGcAaQBhAHQAZQBkABIAAABEAGkAcwB0AG8AcgB0AGUAZAAgAEUALQBHAHUAaQB0AGEAcgAGAAAARwB1
        AGkAdABhAHIACQAAAFAAcgBvAGMAZQBzAHMAZQBkAA0AAABTAGUAcQB1AGUAbgBjAGUALwBMAG8AbwBwAAkAAABTAHkAbgB0AGgAZQB0AGkAYwAMAAAAVABlAG0AcABv
        AC0AcwB5AG4AYwBlAGQAAAAAAAcAAAAHAAAAXABAAGMAbwBsAG8AcgABAAAAMAARAAAAXABAAGQAZQB2AGkAYwBlAHQAeQBwAGUAZgBsAGEAZwBzAAEAAAAxAAsAAABc
        AEAAcwBvAHUAbgBkAHQAeQBwAGUAAQAAADAABwAAAFwAQAB0AGUAbQBwAG8AAQAAADAABgAAAFwAQAB2AGUAcgBsAAUAAAAxAC4ANwAuADMABgAAAFwAQAB2AGUAcgBt
        AAUAAAAxAC4ANwAuADMABwAAAFwAQAB2AGkAcwBpAGIAAQAAADAAAQAAAAAAAAACAAAARFNJTnkAAAAQFwAAAAAAAAEAAABoc2luAQAAAAAAAADhv9+3I90KSKBFccCi
        AbOy4BYAAAAAAABEU0lOeQAAAAEAAAAYAAAAAAAAAERTSU4BAAAAAQAAAAEAAAABAAAAAQAAABkAAAABAAAABgAAAAYAAABUAGkAbQBiAHIAZQABAAAACAAAAEgAYQBy
        AG0AbwBuAGkAYwAAAAAAAACAPwIAAAABAAAAAQAAAAYAAABEAGUAdAB1AG4AZQAAAAAAAACAPwMAAAACAAAAAQAAAAoAAABCAHIAaQBnAGgAdABuAGUAcwBzAAAAAAAA
        AIA/AQAAAAMAAAABAAAABwAAAEUAbgB2ACAAQQBtAHQAAAAAAAAAgD8EAAAABAAAAAEAAAAIAAAAVgBlAGwAbwBjAGkAdAB5AAAAAAAAAIA/BQAAAAUAAAABAAAADgAA
        ADwAewBbAGEAdQB0AG8AbgBhAG0AZQBdAH0APgAAAAAAAACAP/////8GAAAAAQAAAAIAAAACAAAARgBYAAEAAAAGAAAAQQBtAG8AdQBuAHQAAAAAAAAAgD8aAAAAAQAA
        AAEAAAAOAAAAPAB7AFsAYQB1AHQAbwBuAGEAbQBlAF0AfQA+AAAAAAAAAIA//////wIAAAABAAAABAAAAAgAAABUAGkAbQBiACAARQBuAHYAAQAAAAYAAABBAHQAdABh
        AGMAawAAAAAAAACAPwYAAAABAAAAAQAAAAUAAABEAGUAYwBhAHkAAAAAAAAAgD8HAAAAAgAAAAEAAAAHAAAAUwB1AHMAdABhAGkAbgAAAAAAAACAPwgAAAADAAAAAQAA
        AAcAAABSAGUAbABlAGEAcwBlAAAAAAAAAIA/CQAAAAQAAAABAAAABAAAAAcAAABBAG0AcAAgAEUAbgB2AAEAAAAHAAAAQQB0AHQAYQBjAGsAIAAAAAAAAACAPxEAAAAB
        AAAAAQAAAAUAAABEAGUAYwBhAHkAAAAAAAAAgD8SAAAAAgAAAAEAAAAHAAAAUwB1AHMAdABhAGkAbgAAAAAAAACAPxMAAAADAAAAAQAAAAcAAABSAGUAbABlAGEAcwBl
        AAAAAAAAAIA/FAAAAAQAAAABAAAABAAAAAYAAABPAHUAdABwAHUAdAABAAAABgAAAFYAbwBsAHUAbQBlAAAAAAAAAIA/DgAAAAEAAAABAAAACAAAAFYAZQBsAG8AYwBp
        AHQAeQAAAAAAAACAPxAAAAACAAAAAQAAAAkAAABTAHQAcgAgAFcAaQBkAHQAaAAAAAAAAACAPw8AAAADAAAAAQAAAA4AAAA8AHsAWwBhAHUAdABvAG4AYQBtAGUAXQB9
        AD4AAAAAAAAAgD//////BAAAAAEAAAAEAAAAAwAAAEwARgBPAAEAAAAEAAAAUgBhAHQAZQAAAAAAAACAPwoAAAABAAAAAQAAAAcAAABWAGkAYgByAGEAdABvAAAAAAAA
        AIA/CwAAAAIAAAABAAAABgAAAFQAaQBtAGIAcgBlAAAAAAAAAIA/DAAAAAMAAAABAAAABwAAAFQAcgBlAG0AbwBsAG8AAAAAAAAAgD8NAAAABAAAAAEAAAAEAAAAAwAA
        AEEAcgBwAAEAAAAGAAAATwBuAC8ATwBmAGYAAAAAAAAAgD+IAAAAAQAAAAEAAAAEAAAAUwB0AGUAcAAAAAAAAACAP5UAAAACAAAAAQAAAAQAAABHAGEAdABlAAAAAAAA
        AIA/iQAAAAMAAAABAAAABwAAAFMAaAB1AGYAZgBsAGUAAAAAAAAAgD+NAAAABAAAAAEAAAAEAAAABQAAAE0AbwByAHAAaAABAAAAAQAAAFgAAAAAAAAAgD8VAAAAAQAA
        AAEAAAABAAAAWQAAAAAAAACAPxYAAAACAAAAAQAAAAUAAABSAG4AZAAgAFgAAAAAAAAAgD8XAAAAAwAAAAEAAAAFAAAAUgBuAGQAIABZAAAAAAAAAIA/GAAAAAQAAAAB
        AAAAAgAAAAYAAABNAGEAcwB0AGUAcgABAAAABgAAAE8AdQB0AHAAdQB0AAAAAAAAAIA/dAAAAAEAAAABAAAABQAAAEkAbgBwAHUAdAAAAAAAAACAP3UAAAACAAAAAQAA
        AAIAAAAFAAAAUABpAHQAYwBoAAEAAAAEAAAAVAB1AG4AZQAAAAAAAACAP3YAAAABAAAAAQAAAAkAAABUAHIAYQBuAHMAcABvAHMAZQAAAAAAAACAP3cAAAACAAAAAQAA
        AAEAAAAGAAAAVQBuAGkAcwBvAG4AAQAAAAYAAABEAGUAdAB1AG4AZQAAAAAAAACAP3kAAAABAAAAAQAAAAEAAAAFAAAARwBsAGkAZABlAAEAAAAEAAAAVABpAG0AZQAA
        AAAAAACAP38AAAABAAAAAQAAAAIAAAAHAAAAUQB1AGEAbABpAHQAeQABAAAABgAAAEEAbgBhAGwAbwBnAAAAAAAAAIA/gAAAAAEAAAABAAAABwAAAEQAaQBnAGkAdABh
        AGwAAAAAAAAAgD+EAAAAAgAAAAEAAAAIAAAABQAAAEQAcgBpAHYAZQABAAAABgAAAE8AbgAvAE8AZgBmAAAAAAAAAIA/HgAAAAEAAAABAAAABQAAAEQAcgBpAHYAZQAA
        AAAAAACAPx8AAAACAAAAAQAAAAQAAABUAG8AbgBlAAAAAAAAAIA/IAAAAAMAAAABAAAABAAAAEIAYQBzAHMAAAAAAAAAgD8hAAAABAAAAAEAAAAHAAAAVgBvAGwAdQBt
        AGUAIAAAAAAAAACAPyIAAAAFAAAAAQAAAA4AAAA8AHsAWwBhAHUAdABvAG4AYQBtAGUAXQB9AD4AAAAAAAAAgD//////BgAAAAEAAAAOAAAAPAB7AFsAYQB1AHQAbwBu
        AGEAbQBlAF0AfQA+AAAAAAAAAIA//////wcAAAABAAAADgAAADwAewBbAGEAdQB0AG8AbgBhAG0AZQBdAH0APgAAAAAAAACAP/////8IAAAAAQAAAAgAAAAEAAAAVAB1
        AGIAZQABAAAABgAAAE8AbgAvAE8AZgBmAAAAAAAAAIA/IwAAAAEAAAABAAAABgAAAFYAbwBsAHUAbQBlAAAAAAAAAIA/JQAAAAIAAAABAAAABQAAAEQAcgBpAHYAZQAA
        AAAAAACAPyQAAAADAAAAAQAAAA4AAAA8AHsAWwBhAHUAdABvAG4AYQBtAGUAXQB9AD4AAAAAAAAAgD//////BAAAAAEAAAAOAAAAPAB7AFsAYQB1AHQAbwBuAGEAbQBl
        AF0AfQA+AAAAAAAAAIA//////wUAAAABAAAADgAAADwAewBbAGEAdQB0AG8AbgBhAG0AZQBdAH0APgAAAAAAAACAP/////8GAAAAAQAAAA4AAAA8AHsAWwBhAHUAdABv
        AG4AYQBtAGUAXQB9AD4AAAAAAAAAgD//////BwAAAAEAAAAOAAAAPAB7AFsAYQB1AHQAbwBuAGEAbQBlAF0AfQA+AAAAAAAAAIA//////wgAAAABAAAACAAAAAcAAABD
        AGEAYgBpAG4AZQB0AAEAAAAGAAAATwBuAC8ATwBmAGYAAAAAAAAAgD8mAAAAAQAAAAEAAAAEAAAAVAB5AHAAZQAAAAAAAACAPycAAAACAAAAAQAAAAQAAABTAGkAegBl
        AAAAAAAAAIA/KAAAAAMAAAABAAAAAwAAAEEAaQByAAAAAAAAAIA/KQAAAAQAAAABAAAABAAAAEIAYQBzAHMAAAAAAAAAgD8qAAAABQAAAAEAAAAGAAAAVAByAGUAYgBs
        AGUAAAAAAAAAgD8rAAAABgAAAAEAAAAOAAAAPAB7AFsAYQB1AHQAbwBuAGEAbQBlAF0AfQA+AAAAAAAAAIA//////wcAAAABAAAADgAAADwAewBbAGEAdQB0AG8AbgBh
        AG0AZQBdAH0APgAAAAAAAACAP/////8IAAAAAQAAAAgAAAAIAAAAUwBoAGUAbABmACAARQBRAAEAAAAGAAAATwBuAC8ATwBmAGYAAAAAAAAAgD8sAAAAAQAAAAEAAAAE
        AAAATABQACAAWAAAAAAAAACAPy0AAAACAAAAAQAAAAQAAABMAFAAIABZAAAAAAAAAIA/LgAAAAMAAAABAAAABAAAAEgAUAAgAFgAAAAAAAAAgD8vAAAABAAAAAEAAAAE
        AAAASABQACAAWAAAAAAAAACAPzAAAAAFAAAAAQAAAAYAAABWAG8AbAB1AG0AZQAAAAAAAACAPzEAAAAGAAAAAQAAAA4AAAA8AHsAWwBhAHUAdABvAG4AYQBtAGUAXQB9
        AD4AAAAAAAAAgD//////BwAAAAEAAAAOAAAAPAB7AFsAYQB1AHQAbwBuAGEAbQBlAF0AfQA+AAAAAAAAAIA//////wgAAAABAAAACAAAAAcAAABQAGUAYQBrACAARQBR
        AAEAAAAGAAAATwBuAC8ATwBmAGYAAAAAAAAAgD8yAAAAAQAAAAEAAAAIAAAAUABlAGEAawAgADEAIABYAAAAAAAAAIA/MwAAAAIAAAABAAAACAAAAFAAZQBhAGsAIAAx
        ACAAWQAAAAAAAACAPzQAAAADAAAAAQAAAAgAAABQAGUAYQBrACAAMgAgAFgAAAAAAAAAgD82AAAABAAAAAEAAAAJAAAAUABlAGEAawAgADIAIABZACAAAAAAAAAAgD83
        AAAABQAAAAEAAAACAAAAUQAxAAAAAAAAAIA/NQAAAAYAAAABAAAAAgAAAFEAMgAAAAAAAACAPzgAAAAHAAAAAQAAAAYAAABWAG8AbAB1AG0AZQAAAAAAAACAPzkAAAAI
        AAAAAQAAAAgAAAAIAAAAVABhAGwAawAgAFcAYQBoAAEAAAAGAAAATwBuAC8ATwBmAGYAAAAAAAAAgD86AAAAAQAAAAEAAAAFAAAATQBvAHUAdABoAAAAAAAAAIA/OwAA
        AAIAAAABAAAACAAAAE0AbwBkAHcAaABlAGUAbAAAAAAAAACAPzwAAAADAAAAAQAAAAQAAABTAGkAegBlAAAAAAAAAIA/PQAAAAQAAAABAAAABgAAAEIAcgBpAGcAaAB0
        AAAAAAAAAIA/PgAAAAUAAAABAAAADgAAADwAewBbAGEAdQB0AG8AbgBhAG0AZQBdAH0APgAAAAAAAACAP/////8GAAAAAQAAAA4AAAA8AHsAWwBhAHUAdABvAG4AYQBt
        AGUAXQB9AD4AAAAAAAAAgD//////BwAAAAEAAAAOAAAAPAB7AFsAYQB1AHQAbwBuAGEAbQBlAF0AfQA+AAAAAAAAAIA//////wgAAAABAAAACAAAAAYAAABQAGgAYQBz
        AGUAcgABAAAABgAAAE8AbgAvAE8AZgBmAAAAAAAAAIA/PwAAAAEAAAABAAAABAAAAFIAYQB0AGUAAAAAAAAAgD9AAAAAAgAAAAEAAAAHAAAATgBvAHQAYwBoAGUAcwAA
        AAAAAACAP0gAAAADAAAAAQAAAAUAAABDAG8AbABvAHIAAAAAAAAAgD9BAAAABAAAAAEAAAAJAAAAUwB3AGUAZQBwACAATQBpAG4AAAAAAAAAgD9DAAAABQAAAAEAAAAJ
        AAAAUwB3AGUAZQBwACAATQBhAHgAAAAAAAAAgD9EAAAABgAAAAEAAAAGAAAAUgBvAHQAYQB0AGUAAAAAAAAAgD9CAAAABwAAAAEAAAAHAAAARAByAHkALwBXAGUAdAAA
        AAAAAACAP0YAAAAIAAAAAQAAAAgAAAAHAAAARgBsAGEAbgBnAGUAcgABAAAABgAAAE8AbgAvAE8AZgBmAAAAAAAAAIA/SQAAAAEAAAABAAAABAAAAFIAYQB0AGUAAAAA
        AAAAgD9KAAAAAgAAAAEAAAAEAAAAUwB5AG4AYwAAAAAAAACAP08AAAADAAAAAQAAAAYAAABTAHQAYQB0AGkAYwAAAAAAAACAP0sAAAAEAAAAAQAAAAUAAABEAGUAcAB0
        AGgAAAAAAAAAgD9MAAAABQAAAAEAAAAFAAAAQwBvAGwAbwByAAAAAAAAAIA/TQAAAAYAAAABAAAABgAAAFIAbwB0AGEAdABlAAAAAAAAAIA/TgAAAAcAAAABAAAABwAA
        AEQAcgB5AC8AVwBlAHQAAAAAAAAAgD9RAAAACAAAAAEAAAAIAAAABwAAAFQAcgBlAG0AbwBsAG8AAQAAAAYAAABPAG4ALwBPAGYAZgAAAAAAAACAP1IAAAABAAAAAQAA
        AAQAAABSAGEAdABlAAAAAAAAAIA/UwAAAAIAAAABAAAABAAAAFMAeQBuAGMAAAAAAAAAgD9VAAAAAwAAAAEAAAAJAAAASQBuAHQAZQBuAHMAaQB0AHkAAAAAAAAAgD9U
        AAAABAAAAAEAAAAGAAAAUwB0AGUAcgBlAG8AAAAAAAAAgD9WAAAABQAAAAEAAAAFAAAAVwBpAGQAdABoAAAAAAAAAIA/VwAAAAYAAAABAAAABgAAAEEAdAB0AGEAYwBr
        AAAAAAAAAIA/WAAAAAcAAAABAAAABQAAAEQAZQBjAGEAeQAAAAAAAACAP1kAAAAIAAAAAQAAAAgAAAAGAAAAUgBlAHYAZQByAGIAAQAAAAYAAABPAG4ALwBPAGYAZgAA
        AAAAAACAP1oAAAABAAAAAQAAAAQAAABUAGkAbQBlAAAAAAAAAIA/XQAAAAIAAAABAAAABgAAAEIAcgBpAGcAaAB0AAAAAAAAAIA/XAAAAAMAAAABAAAABgAAAFQAcgBl
        AGIAbABlAAAAAAAAAIA/XgAAAAQAAAABAAAABwAAAEQAcgB5AC8AVwBlAHQAAAAAAAAAgD9bAAAABQAAAAEAAAAOAAAAPAB7AFsAYQB1AHQAbwBuAGEAbQBlAF0AfQA+
        AAAAAAAAAIA//////wYAAAABAAAADgAAADwAewBbAGEAdQB0AG8AbgBhAG0AZQBdAH0APgAAAAAAAACAP/////8HAAAAAQAAAA4AAAA8AHsAWwBhAHUAdABvAG4AYQBt
        AGUAXQB9AD4AAAAAAAAAgD//////CAAAAAEAAAAIAAAACQAAAFAAcwB5ACAARABlAGwAYQB5AAEAAAAGAAAATwBuAC8ATwBmAGYAAAAAAAAAgD9fAAAAAQAAAAEAAAAE
        AAAAVABpAG0AZQAAAAAAAACAP2EAAAACAAAAAQAAAAgAAABGAGUAZQBkAGIAYQBjAGsAAAAAAAAAgD9kAAAAAwAAAAEAAAAHAAAAUgBlAHYAZQByAHMAZQAAAAAAAACA
        P2IAAAAEAAAAAQAAAAYAAABTAHQAZQByAGUAbwAAAAAAAACAP2cAAAAFAAAAAQAAAAYAAABEAGUAdAB1AG4AZQAAAAAAAACAP2MAAAAGAAAAAQAAAAUAAABQAGkAdABj
        AGgAAAAAAAAAgD9lAAAABwAAAAEAAAAHAAAARAByAHkALwBXAGUAdAAAAAAAAACAP2AAAAAIAAAAAQAAAAgAAAAJAAAAQwBoAHIAIABEAGUAbABhAHkAAQAAAAYAAABP
        AG4ALwBPAGYAZgAAAAAAAACAP28AAAABAAAAAQAAAAQAAABUAGkAbQBlAAAAAAAAAIA/aAAAAAIAAAABAAAABgAAAEwAbwAgAEMAdQB0AAAAAAAAAIA/bQAAAAMAAAAB
        AAAABgAAAEgAaQAgAEMAdQB0AAAAAAAAAIA/bAAAAAQAAAABAAAACAAAAEYAZQBlAGQAYgBhAGMAawAAAAAAAACAP2sAAAAFAAAAAQAAAAgAAABNAG8AZAAgAFIAYQB0
        AGUAAAAAAAAAgD9xAAAABgAAAAEAAAAJAAAATQBvAGQAIABEAGUAcAB0AGgAAAAAAAAAgD9qAAAABwAAAAEAAAAHAAAARAByAHkALwBXAGUAdAAAAAAAAACAP3AAAAAI
        AAAAAQAAAAAAAAABAAAARFNJTnQAAACaBgAAAAAAAAEAAABoc2luAQAAAAAAAABfAjRqxWnsToleTuDmPxvIagYAAAAAAABEU0lOdAAAAAEAAABRBgAAAAAAAERTSU5z
        AAAAAQAAABgAAAAAAAAARFNJTgEAAAABAAAAAQAAAAEAAAABmBAAABgGAAACmBAAYAAAASAFA2hzaW5AB0AAEMi6ABcODQlDrNzYancP+McYQBQgAANEU0lOQCPgBwNA
        AEAbAG0gCAFEECAEIABAI+ADUxB1oWnz+VgsSrdZ344DzJatFKAnwDdAL+AXZ0AjAcwPIFwgAAAFIAMBPg0gBCAACHRzcnBFOE1GzyALA7wjAABAIg5GdWxsIEJsYXN0
        IExlYWRAbRBBbmdyeSBEaXN0b3J0aW9uCyAuBUNob3J1c2AiQEwMUmh5dGhtIEd1aXRhciAeIAAE+EEAAHAgAwAAIAMCgD8A4BAAAkhCAOAQH2A3A0AAAAwgIwAsIANg
        D+ACAGAPIB8AiCAbQABgD+AEAA5SuF4+ZMz9Pv1llz4AABAghwiAP+CcMT8mwlZgCxIAAMBAzcyGwXJokT4M12/BCGbmICcEAADNzMxABwM/mpkZICMAAKADBIA/WxG0
        YBcG2or9PlkgKWAfBm+BND/UCQhAI0AA4AcHAwDKMiQgE0BrwACACwSuR+E9AIAAIMMEAABUUicgJwwAAHL5Hz/KMqQ+OQpP4QA7Ai5ug0B3BwALJBg/exSuIAuAQwr4
        wgQ/QKS/PutROGA7AylcDz9AIwIsQyxAD0ADAwA9m9XAZwYA9igdQjcaQQdAAACAYHcAAGBLAJwhQwDGIAMA4KATAMggC8AAQGtAK8GrQA/gFwAQgD/NzGw/XI9CPhiV
        1D4wKqkgs+ADAEBfQAPAAEBbACAg70AAQAtAAwCgIINAB0AAALQgCwCWIAPgAwDAP0AHQAPAAEAz4ItLADAg30CXQKsAiiDLAEAgA+Af4yAAAANgAAIBAQKAAAMAAAEE
        YAACAgIDIB2AAA42PCgbBQ4MAAAnJCItIi2AFOAFACA4gAAA/oAG4DwAAGQgAeBKAAQBAf8BAUS/4AAAIA7gEABgHOAAKWAAAEAhcgOYQdUJgrIC4/J/YxLgCwACuB4F
        YBsGCtcjvlyPgmALwACgWeAEW+BEWeAEAOA+WUAAIAUAAOACAOA9WQEEACPdDN/MhkLh2l5Et8sCQhIi2eARFAesPZ1BzwDgRUApAxCA30NgKQAAJXgDEELCRoMMAB6A
        FEApAr9WfGApAAsjKeAKKQGeQiK+BIA/+lDOIzsBgD/gBAwjBUBYQANDYQGAP2A/BnzVij6PwnVgAwPMvIwr4BEUAwfwFj/gCCkDhMBqP0A2wANgPuAcKWCbQIZAOuAE
        DCCo4AUACwSS7Xw+kMI1Pw8tUiAyAABgdeARFAZWDg0/Z2Zm4AUpBq5HAT9xPWrgBRTgHCkgmwIAP2YgT0AD4AQMQKhgUEAhQANAECAABGBCt23bIYAB/kLgABADAMDa
        QkAQQD8gAAB84AMMAIgjhOAAGSAqIAygNyAZ4AU3AnBCDSAdYrRACAUDFDsxwQBgAAnIwAAAXMED2YkdoBAFoL/FTmzAoG8FAAB2YqfB4AAMQADgAAwgJgDBoG9AAEBI
        AAzgBSoIAbw0jMJfUczAQCZg6CAoYAPgCBBAVWAZQCHgEQzgFTdA32BAIERAAAIyEgElsqAAAi0BKKAJ4BAAADLgEBngCgABUGTnBHoAUOAKIuAHAOAEXwFQUOAVMgJQ
        ZDjgBC/gHgAAZCAA4B4qAQBHIAPgIwDgIFjgZwAA/+AXACReAwAAEGQiPgFaXSAJAgEAEkAERM9CayXPJ7WgCQAB4AAJAALgAAkAA6AJAgEBBMAJAwAF/gOAMQEABuAA
        CQIH/gWAEwEBCKAnAgAACeAACeAJYyh0g1AgTyCbIAxACSCsgAkCAQUBoGMDAQYA/mATIGMA/+AAYwH/B6ATAQkASLdAOyA6YBMgMqAJIMcBAPugEwAD4AAJAgQA96AT
        AAWgCSDHoAkEAQEHAPlAHSAAAggA/UAJIEUACeAAO+ADYyC14EkAABGgUgNrbmFiQH3AAAGAACAAABmgEQNjdG5pTWYBEScgFCAAAEEgAyAARqIBoELiEw8BdADiATBN
        m+ATK+D9AOCpAAAgIeNAAANzaXVnQiQA6OICpwAVIBgAGSADQshAAyNuYAAHZ3B0Y1lUTUVADAsNYmWFAQAAAAAAAAABAAAAAAEAAAAAAAAA
        ADxkaXNhYmxlZD4AEAAAAA==
      >
      PRESETNAME <disabled>
      FLOATPOS 0 0 0 0
      FXID {398C21D2-C244-4262-8C8E-21A83147A907}
      WAK 0 0
    >
    <ITEM
      POSITION 2
      SNAPOFFS 0
      LENGTH 12
      LOOP 1
      ALLTAKES 0
      FADEIN 1 0 0 1 0 0
      FADEOUT 1 0 0 1 0 0
      MUTE 0 0
      SEL 0
      IGUID {D1405235-C2CB-4F17-BA3F-1B59CEA98847}
      IID 5
      NAME "Variación rítmica 2 (con palm mute) - Marty.mid"
      VOLPAN 1 0 1 -1
      SOFFS 0 0
      PLAYRATE 1 1 0 -1 0 0.0025
      CHANMODE 0
      GUID {90D6513E-21ED-4606-9D4B-B0630B6CF50E}
      <SOURCE MIDI
        HASDATA 1 960 QN
        CCINTERP 32
        POOLEDEVTS {51560B87-3636-43E2-B014-050013DC967D}
        <X 0 0 0 0 3 "Variación rítmica 2 (con palm mute)"
          /wNWYXJpYWNpw7NuIHLDrXRtaWNhIDIgKGNvbiBwYWxtIG11dGUp
        >
        E 0 c4 1e 00
        E 0 b4 40 00
        E 0 b4 5b 30
        E 0 b4 0a 40
        E 0 b4 07 7f
        E 0 b4 0a 40
        E 0 b4 5b 3b
        E 0 94 32 61
        E 0 94 39 61
        E 0 94 3e 61
        E 0 b4 79 00
        E 480 84 32 00
        E 0 84 39 00
        E 0 84 3e 00
        E 0 94 32 49
        E 0 94 39 49
        E 240 84 32 00
        E 0 84 39 00
        E 240 94 32 4a
        E 0 94 39 4a
        E 240 84 32 00
        E 0 84 39 00
        E 240 94 32 5e
        E 0 94 39 5e
        E 0 94 3e 5e
        E 480 84 32 00
        E 0 84 39 00
        E 0 84 3e 00
        E 0 94 32 4a
        E 0 94 39 4a
        E 240 84 32 00
        E 0 84 39 00
        E 240 94 32 5f
        E 0 94 39 5f
        E 0 94 3e 5f
        E 480 84 32 00
        E 0 84 39 00
        E 0 84 3e 00
        E 0 94 32 46
        E 0 94 39 46
        E 240 84 32 00
        E 0 84 39 00
        E 240 94 32 47
        E 0 94 39 47
        E 240 84 32 00
        E 0 84 39 00
        E 240 94 32 4c
        E 0 94 39 4c
        E 240 84 32 00
        E 0 84 39 00
        E 240 94 32 61
        E 0 94 39 61
        E 0 94 3e 61
        E 480 84 32 00
        E 0 84 39 00
        E 0 84 3e 00
        E 0 94 32 46
        E 0 94 39 46
        E 240 84 32 00
        E 0 84 39 00
        E 240 94 32 47
        E 0 94 39 47
        E 240 84 32 00
        E 0 84 39 00
        E 240 94 32 65
        E 0 94 39 65
        E 0 94 3e 65
        E 480 84 32 00
        E 0 84 39 00
        E 0 84 3e 00
        E 0 94 32 46
        E 0 94 39 46
        E 240 84 32 00
        E 0 84 39 00
        E 240 94 32 47
        E 0 94 39 47
        E 240 84 32 00
        E 0 84 39 00
        E 240 94 32 48
        E 0 94 39 48
        E 240 84 32 00
        E 0 84 39 00
        E 240 94 30 63
        E 0 94 37 63
        E 0 94 3c 63
        E 480 84 30 00
        E 0 84 37 00
        E 0 84 3c 00
        E 0 94 30 44
        E 0 94 37 44
        E 240 84 30 00
        E 0 84 37 00
        E 240 94 30 45
        E 0 94 37 45
        E 240 84 30 00
        E 0 84 37 00
        E 240 94 30 5f
        E 0 94 37 5f
        E 0 94 3c 5f
        E 480 84 30 00
        E 0 84 37 00
        E 0 84 3c 00
        E 0 94 30 47
        E 0 94 37 47
        E 240 84 30 00
        E 0 84 37 00
        E 240 94 30 60
        E 0 94 37 60
        E 0 94 3c 60
        E 480 84 30 00
        E 0 84 37 00
        E 0 84 3c 00
        E 0 94 30 44
        E 0 94 37 44
        E 240 84 30 00
        E 0 84 37 00
        E 240 94 30 46
        E 0 94 37 46
        E 240 84 30 00
        E 0 84 37 00
        E 240 94 2f 49
        E 0 94 36 49
        E 240 84 2f 00
        E 0 84 36 00
        E 240 94 2f 5f
        E 0 94 36 5f
        E 0 94 3b 5f
        E 480 84 2f 00
        E 0 84 36 00
        E 0 84 3b 00
        E 0 94 2f 45
        E 0 94 36 45
        E 240 84 2f 00
        E 0 84 36 00
        E 240 94 2f 46
        E 0 94 36 46
        E 240 84 2f 00
        E 0 84 36 00
        E 240 94 2f 64
        E 0 94 36 64
        E 0 94 3b 64
        E 480 84 2f 00
        E 0 84 36 00
        E 0 84 3b 00
        E 0 94 2f 45
        E 0 94 36 45
        E 240 84 2f 00
        E 0 84 36 00
        E 240 94 2f 47
        E 0 94 36 47
        E 240 84 2f 00
        E 0 84 36 00
        E 240 94 2f 48
        E 0 94 36 48
        E 240 84 2f 00
        E 0 84 36 00
        E 240 94 32 6c
        E 0 94 39 6c
        E 0 94 3e 6c
        E 480 84 32 00
        E 0 84 39 00
        E 0 84 3e 00
        E 0 94 32 4b
        E 0 94 39 4b
        E 240 84 32 00
        E 0 84 39 00
        E 240 94 32 4b
        E 0 94 39 4b
        E 240 84 32 00
        E 0 84 39 00
        E 240 94 32 65
        E 0 94 39 65
        E 0 94 3e 65
        E 480 84 32 00
        E 0 84 39 00
        E 0 84 3e 00
        E 0 94 32 4b
        E 0 94 39 4b
        E 240 84 32 00
        E 0 84 39 00
        E 240 94 32 63
        E 0 94 39 63
        E 0 94 3e 63
        E 480 84 32 00
        E 0 84 39 00
        E 0 84 3e 00
        E 0 94 32 46
        E 0 94 39 46
        E 240 84 32 00
        E 0 84 39 00
        E 240 94 32 47
        E 0 94 39 47
        E 240 84 32 00
        E 0 84 39 00
        E 240 94 32 4c
        E 0 94 39 4c
        E 240 84 32 00
        E 0 84 39 00
        E 240 94 32 62
        E 0 94 39 62
        E 0 94 3e 62
        E 480 84 32 00
        E 0 84 39 00
        E 0 84 3e 00
        E 0 94 32 46
        E 0 94 39 46
        E 240 84 32 00
        E 0 84 39 00
        E 240 94 32 47
        E 0 94 39 47
        E 240 84 32 00
        E 0 84 39 00
        E 240 94 32 65
        E 0 94 39 65
        E 0 94 3e 65
        E 480 84 32 00
        E 0 84 39 00
        E 0 84 3e 00
        E 0 94 32 46
        E 0 94 39 46
        E 240 84 32 00
        E 0 84 39 00
        E 240 94 32 47
        E 0 94 39 47
        E 240 84 32 00
        E 0 84 39 00
        E 240 94 32 48
        E 0 94 39 48
        E 240 84 32 00
        E 0 84 39 00
        E 240 94 30 63
        E 0 94 37 63
        E 0 94 3c 63
        E 480 84 30 00
        E 0 84 37 00
        E 0 84 3c 00
        E 0 94 30 44
        E 0 94 37 44
        E 240 84 30 00
        E 0 84 37 00
        E 240 94 30 45
        E 0 94 37 45
        E 240 84 30 00
        E 0 84 37 00
        E 240 94 30 5f
        E 0 94 37 5f
        E 0 94 3c 5f
        E 480 84 30 00
        E 0 84 37 00
        E 0 84 3c 00
        E 0 94 30 47
        E 0 94 37 47
        E 240 84 30 00
        E 0 84 37 00
        E 240 94 30 60
        E 0 94 37 60
        E 0 94 3c 60
        E 480 84 30 00
        E 0 84 37 00
        E 0 84 3c 00
        E 0 94 30 44
        E 0 94 37 44
        E 240 84 30 00
        E 0 84 37 00
        E 240 94 30 46
        E 0 94 37 46
        E 240 84 30 00
        E 0 84 37 00
        E 240 94 2b 46
        E 0 94 32 46
        E 240 84 2b 00
        E 0 84 32 00
        E 240 94 2b 58
        E 0 94 32 58
        E 0 94 37 58
        E 480 84 2b 00
        E 0 84 32 00
        E 0 84 37 00
        E 0 94 2b 43
        E 0 94 32 43
        E 240 84 2b 00
        E 0 84 32 00
        E 240 94 2b 44
        E 0 94 32 44
        E 240 84 2b 00
        E 0 84 32 00
        E 240 94 2d 65
        E 0 94 34 65
        E 0 94 39 65
        E 480 84 2d 00
        E 0 84 34 00
        E 0 84 39 00
        E 0 94 2d 47
        E 0 94 34 47
        E 240 84 2d 00
        E 0 84 34 00
        E 240 94 2d 48
        E 0 94 34 48
        E 240 84 2d 00
        E 0 84 34 00
        E 240 94 2d 49
        E 0 94 34 49
        E 240 84 2d 00
        E 0 84 34 00
        E 240 b0 7b 00
        CCINTERP 32
        CHASE_CC_TAKEOFFS 1
        GUID {3C13588F-9D01-47CF-B07F-2A70A303BB66}
        IGNTEMPO 0 120 4 4
        SRCCOLOR 6
      >
    >
    <ITEM
      POSITION 15.5
      SNAPOFFS 0
      LENGTH 12
      LOOP 1
      ALLTAKES 0
      FADEIN 1 0 0 1 0 0
      FADEOUT 1 0 0 1 0 0
      MUTE 0 0
      SEL 0
      IGUID {24415305-B202-48E8-8949-93D0AE68D9F1}
      IID 14
      NAME "Variación rítmica 2 (con palm mute) - Marty.mid"
      VOLPAN 1 0 1 -1
      SOFFS 12 32
      PLAYRATE 1 1 0 -1 0 0.0025
      CHANMODE 0
      GUID {018A4DB1-3A80-4259-984A-3B760ABB103B}
      <SOURCE MIDI
        HASDATA 1 960 QN
        CCINTERP 32
        POOLEDEVTS {1E30920F-D9A7-4F09-95F4-AC2E9DD2EA3F}
        <X 0 0 0 0 3 "Variación rítmica 2 (con palm mute)"
          /wNWYXJpYWNpw7NuIHLDrXRtaWNhIDIgKGNvbiBwYWxtIG11dGUp
        >
        E 0 c4 1e 00
        E 0 b4 40 00
        E 0 b4 5b 30
        E 0 b4 0a 40
        E 0 b4 07 7f
        E 0 b4 0a 40
        E 0 b4 5b 3b
        E 0 94 32 61
        E 0 94 39 61
        E 0 94 3e 61
        E 0 b4 79 00
        E 480 84 32 00
        E 0 84 39 00
        E 0 84 3e 00
        E 0 94 32 49
        E 0 94 39 49
        E 240 84 32 00
        E 0 84 39 00
        E 240 94 32 4a
        E 0 94 39 4a
        E 240 84 32 00
        E 0 84 39 00
        E 240 94 32 5e
        E 0 94 39 5e
        E 0 94 3e 5e
        E 480 84 32 00
        E 0 84 39 00
        E 0 84 3e 00
        E 0 94 32 4a
        E 0 94 39 4a
        E 240 84 32 00
        E 0 84 39 00
        E 240 94 32 5f
        E 0 94 39 5f
        E 0 94 3e 5f
        E 480 84 32 00
        E 0 84 39 00
        E 0 84 3e 00
        E 0 94 32 46
        E 0 94 39 46
        E 240 84 32 00
        E 0 84 39 00
        E 240 94 32 47
        E 0 94 39 47
        E 240 84 32 00
        E 0 84 39 00
        E 240 94 32 4c
        E 0 94 39 4c
        E 240 84 32 00
        E 0 84 39 00
        E 240 94 32 61
        E 0 94 39 61
        E 0 94 3e 61
        E 480 84 32 00
        E 0 84 39 00
        E 0 84 3e 00
        E 0 94 32 46
        E 0 94 39 46
        E 240 84 32 00
        E 0 84 39 00
        E 240 94 32 47
        E 0 94 39 47
        E 240 84 32 00
        E 0 84 39 00
        E 240 94 32 65
        E 0 94 39 65
        E 0 94 3e 65
        E 480 84 32 00
        E 0 84 39 00
        E 0 84 3e 00
        E 0 94 32 46
        E 0 94 39 46
        E 240 84 32 00
        E 0 84 39 00
        E 240 94 32 47
        E 0 94 39 47
        E 240 84 32 00
        E 0 84 39 00
        E 240 94 32 48
        E 0 94 39 48
        E 240 84 32 00
        E 0 84 39 00
        E 240 94 30 63
        E 0 94 37 63
        E 0 94 3c 63
        E 480 84 30 00
        E 0 84 37 00
        E 0 84 3c 00
        E 0 94 30 44
        E 0 94 37 44
        E 240 84 30 00
        E 0 84 37 00
        E 240 94 30 45
        E 0 94 37 45
        E 240 84 30 00
        E 0 84 37 00
        E 240 94 30 5f
        E 0 94 37 5f
        E 0 94 3c 5f
        E 480 84 30 00
        E 0 84 37 00
        E 0 84 3c 00
        E 0 94 30 47
        E 0 94 37 47
        E 240 84 30 00
        E 0 84 37 00
        E 240 94 30 60
        E 0 94 37 60
        E 0 94 3c 60
        E 480 84 30 00
        E 0 84 37 00
        E 0 84 3c 00
        E 0 94 30 44
        E 0 94 37 44
        E 240 84 30 00
        E 0 84 37 00
        E 240 94 30 46
        E 0 94 37 46
        E 240 84 30 00
        E 0 84 37 00
        E 240 94 2f 49
        E 0 94 36 49
        E 240 84 2f 00
        E 0 84 36 00
        E 240 94 2f 5f
        E 0 94 36 5f
        E 0 94 3b 5f
        E 480 84 2f 00
        E 0 84 36 00
        E 0 84 3b 00
        E 0 94 2f 45
        E 0 94 36 45
        E 240 84 2f 00
        E 0 84 36 00
        E 240 94 2f 46
        E 0 94 36 46
        E 240 84 2f 00
        E 0 84 36 00
        E 240 94 2f 64
        E 0 94 36 64
        E 0 94 3b 64
        E 480 84 2f 00
        E 0 84 36 00
        E 0 84 3b 00
        E 0 94 2f 45
        E 0 94 36 45
        E 240 84 2f 00
        E 0 84 36 00
        E 240 94 2f 47
        E 0 94 36 47
        E 240 84 2f 00
        E 0 84 36 00
        E 240 94 2f 48
        E 0 94 36 48
        E 240 84 2f 00
        E 0 84 36 00
        E 240 94 32 6c
        E 0 94 39 6c
        E 0 94 3e 6c
        E 480 84 32 00
        E 0 84 39 00
        E 0 84 3e 00
        E 0 94 32 4b
        E 0 94 39 4b
        E 240 84 32 00
        E 0 84 39 00
        E 240 94 32 4b
        E 0 94 39 4b
        E 240 84 32 00
        E 0 84 39 00
        E 240 94 32 65
        E 0 94 39 65
        E 0 94 3e 65
        E 480 84 32 00
        E 0 84 39 00
        E 0 84 3e 00
        E 0 94 32 4b
        E 0 94 39 4b
        E 240 84 32 00
        E 0 84 39 00
        E 240 94 32 63
        E 0 94 39 63
        E 0 94 3e 63
        E 480 84 32 00
        E 0 84 39 00
        E 0 84 3e 00
        E 0 94 32 46
        E 0 94 39 46
        E 240 84 32 00
        E 0 84 39 00
        E 240 94 32 47
        E 0 94 39 47
        E 240 84 32 00
        E 0 84 39 00
        E 240 94 32 4c
        E 0 94 39 4c
        E 240 84 32 00
        E 0 84 39 00
        E 240 94 32 62
        E 0 94 39 62
        E 0 94 3e 62
        E 480 84 32 00
        E 0 84 39 00
        E 0 84 3e 00
        E 0 94 32 46
        E 0 94 39 46
        E 240 84 32 00
        E 0 84 39 00
        E 240 94 32 47
        E 0 94 39 47
        E 240 84 32 00
        E 0 84 39 00
        E 240 94 32 65
        E 0 94 39 65
        E 0 94 3e 65
        E 480 84 32 00
        E 0 84 39 00
        E 0 84 3e 00
        E 0 94 32 46
        E 0 94 39 46
        E 240 84 32 00
        E 0 84 39 00
        E 240 94 32 47
        E 0 94 39 47
        E 240 84 32 00
        E 0 84 39 00
        E 240 94 32 48
        E 0 94 39 48
        E 240 84 32 00
        E 0 84 39 00
        E 240 94 30 63
        E 0 94 37 63
        E 0 94 3c 63
        E 480 84 30 00
        E 0 84 37 00
        E 0 84 3c 00
        E 0 94 30 44
        E 0 94 37 44
        E 240 84 30 00
        E 0 84 37 00
        E 240 94 30 45
        E 0 94 37 45
        E 240 84 30 00
        E 0 84 37 00
        E 240 94 30 5f
        E 0 94 37 5f
        E 0 94 3c 5f
        E 480 84 30 00
        E 0 84 37 00
        E 0 84 3c 00
        E 0 94 30 47
        E 0 94 37 47
        E 240 84 30 00
        E 0 84 37 00
        E 240 94 30 60
        E 0 94 37 60
        E 0 94 3c 60
        E 480 84 30 00
        E 0 84 37 00
        E 0 84 3c 00
        E 0 94 30 44
        E 0 94 37 44
        E 240 84 30 00
        E 0 84 37 00
        E 240 94 30 46
        E 0 94 37 46
        E 240 84 30 00
        E 0 84 37 00
        E 240 94 2b 46
        E 0 94 32 46
        E 240 84 2b 00
        E 0 84 32 00
        E 240 94 2b 58
        E 0 94 32 58
        E 0 94 37 58
        E 480 84 2b 00
        E 0 84 32 00
        E 0 84 37 00
        E 0 94 2b 43
        E 0 94 32 43
        E 240 84 2b 00
        E 0 84 32 00
        E 240 94 2b 44
        E 0 94 32 44
        E 240 84 2b 00
        E 0 84 32 00
        E 240 94 2d 65
        E 0 94 34 65
        E 0 94 39 65
        E 480 84 2d 00
        E 0 84 34 00
        E 0 84 39 00
        E 0 94 2d 47
        E 0 94 34 47
        E 240 84 2d 00
        E 0 84 34 00
        E 240 94 2d 48
        E 0 94 34 48
        E 240 84 2d 00
        E 0 84 34 00
        E 240 94 2d 49
        E 0 94 34 49
        E 240 84 2d 00
        E 0 84 34 00
        E 240 94 2f 6c
        E 0 94 36 6c
        E 0 94 3b 6c
        E 480 84 2f 00
        E 0 84 36 00
        E 0 84 3b 00
        E 0 94 2f 4a
        E 0 94 36 4a
        E 240 84 2f 00
        E 0 84 36 00
        E 240 94 2f 4a
        E 0 94 36 4a
        E 240 84 2f 00
        E 0 84 36 00
        E 240 94 2f 4b
        E 0 94 36 4b
        E 240 84 2f 00
        E 0 84 36 00
        E 240 94 2f 4e
        E 0 94 36 4e
        E 240 84 2f 00
        E 0 84 36 00
        E 240 94 2f 64
        E 0 94 36 64
        E 0 94 3b 64
        E 480 84 2f 00
        E 0 84 36 00
        E 0 84 3b 00
        E 0 94 2f 48
        E 0 94 36 48
        E 240 84 2f 00
        E 0 84 36 00
        E 240 94 2f 62
        E 0 94 36 62
        E 0 94 3b 62
        E 480 84 2f 00
        E 0 84 36 00
        E 0 84 3b 00
        E 0 94 30 69
        E 0 94 37 69
        E 0 94 3c 69
        E 480 84 30 00
        E 0 84 37 00
        E 0 84 3c 00
        E 0 94 30 46
        E 0 94 37 46
        E 240 84 30 00
        E 0 84 37 00
        E 240 94 30 47
        E 0 94 37 47
        E 240 84 30 00
        E 0 84 37 00
        E 240 94 30 48
        E 0 94 37 48
        E 240 84 30 00
        E 0 84 37 00
        E 240 94 30 4b
        E 0 94 37 4b
        E 240 84 30 00
        E 0 84 37 00
        E 240 94 30 62
        E 0 94 37 62
        E 0 94 3c 62
        E 480 84 30 00
        E 0 84 37 00
        E 0 84 3c 00
        E 0 94 30 47
        E 0 94 37 47
        E 240 84 30 00
        E 0 84 37 00
        E 240 94 30 61
        E 0 94 37 61
        E 0 94 3c 61
        E 480 84 30 00
        E 0 84 37 00
        E 0 84 3c 00
        E 0 94 31 69
        E 0 94 38 69
        E 0 94 3d 69
        E 480 84 31 00
        E 0 84 38 00
        E 0 84 3d 00
        E 0 94 31 45
        E 0 94 38 45
        E 240 84 31 00
        E 0 84 38 00
        E 240 94 31 46
        E 0 94 38 46
        E 240 84 31 00
        E 0 84 38 00
        E 240 94 31 47
        E 0 94 38 47
        E 240 84 31 00
        E 0 84 38 00
        E 240 94 31 4b
        E 0 94 38 4b
        E 240 84 31 00
        E 0 84 38 00
        E 240 94 31 62
        E 0 94 38 62
        E 0 94 3d 62
        E 480 84 31 00
        E 0 84 38 00
        E 0 84 3d 00
        E 0 94 31 47
        E 0 94 38 47
        E 240 84 31 00
        E 0 84 38 00
        E 240 94 31 61
        E 0 94 38 61
        E 0 94 3d 61
        E 480 84 31 00
        E 0 84 38 00
        E 0 84 3d 00
        E 0 94 32 69
        E 0 94 39 69
        E 0 94 3e 69
        E 480 84 32 00
        E 0 84 39 00
        E 0 84 3e 00
        E 0 94 32 45
        E 0 94 39 45
        E 240 84 32 00
        E 0 84 39 00
        E 240 94 32 46
        E 0 94 39 46
        E 240 84 32 00
        E 0 84 39 00
        E 240 94 32 47
        E 0 94 39 47
        E 240 84 32 00
        E 0 84 39 00
        E 240 94 32 66
        E 0 94 39 66
        E 0 94 3e 66
        E 480 84 32 00
        E 0 84 39 00
        E 0 84 3e 00
        E 0 94 32 61
        E 0 94 39 61
        E 0 94 3e 61
        E 480 84 32 00
        E 0 84 39 00
        E 0 84 3e 00
        E 0 94 32 60
        E 0 94 39 60
        E 0 94 3e 60
        E 480 84 32 00
        E 0 84 39 00
        E 0 84 3e 00
        E 0 94 32 5f
        E 0 94 39 5f
        E 0 94 3e 5f
        E 480 84 32 00
        E 0 84 39 00
        E 0 84 3e 00
        E 0 94 2f 52
        E 0 94 37 52
        E 480 84 2f 00
        E 0 84 37 00
        E 0 94 2f 41
        E 0 94 37 41
        E 240 84 2f 00
        E 0 84 37 00
        E 240 94 2f 43
        E 0 94 37 43
        E 240 84 2f 00
        E 0 84 37 00
        E 240 94 2d 56
        E 0 94 34 56
        E 0 94 39 56
        E 480 84 2d 00
        E 0 84 34 00
        E 0 84 39 00
        E 0 94 2d 44
        E 0 94 34 44
        E 240 84 2d 00
        E 0 84 34 00
        E 240 94 2d 5a
        E 0 94 34 5a
        E 0 94 39 5a
        E 480 84 2d 00
        E 0 84 34 00
        E 0 84 39 00
        E 0 94 2d 42
        E 0 94 34 42
        E 240 84 2d 00
        E 0 84 34 00
        E 240 94 2d 5c
        E 0 94 32 5c
        E 0 94 39 5c
        E 960 84 2d 00
        E 0 84 32 00
        E 0 84 39 00
        E 0 94 2d 43
        E 0 94 32 43
        E 240 84 2d 00
        E 0 84 32 00
        E 240 94 2d 44
        E 0 94 32 44
        E 240 84 2d 00
        E 0 84 32 00
        E 240 94 2d 46
        E 0 94 32 46
        E 240 84 2d 00
        E 0 84 32 00
        E 240 94 2d 4a
        E 0 94 32 4a
        E 240 84 2d 00
        E 0 84 32 00
        E 240 94 2d 49
        E 0 94 32 49
        E 240 84 2d 00
        E 0 84 32 00
        E 240 94 2d 4a
        E 0 94 32 4a
        E 240 84 2d 00
        E 0 84 32 00
        E 240 94 2d 4a
        E 0 94 32 4a
        E 240 84 2d 00
        E 0 84 32 00
        E 240 94 28 62
        E 0 94 2f 62
        E 0 94 34 62
        E 480 84 28 00
        E 0 84 2f 00
        E 0 84 34 00
        E 0 94 2f 4d
        E 0 94 34 4d
        E 240 84 2f 00
        E 0 84 34 00
        E 240 94 2f 4d
        E 0 94 34 4d
        E 240 84 2f 00
        E 0 84 34 00
        E 240 94 28 5d
        E 0 94 2f 5d
        E 0 94 34 5d
        E 2400 84 28 00
        E 0 84 2f 00
        E 0 84 34 00
        E 0 94 33 6c
        E 0 94 3a 6c
        E 0 94 3f 6c
        E 480 84 33 00
        E 0 84 3a 00
        E 0 84 3f 00
        E 480 94 33 62
        E 0 94 3a 62
        E 0 94 3f 62
        E 480 84 33 00
        E 0 84 3a 00
        E 0 84 3f 00
        E 480 94 33 63
        E 0 94 3a 63
        E 0 94 3f 63
        E 480 84 33 00
        E 0 84 3a 00
        E 0 84 3f 00
        E 480 94 33 5d
        E 0 94 3a 5d
        E 0 94 3f 5d
        E 480 84 33 00
        E 0 84 3a 00
        E 0 84 3f 00
        E 480 b0 7b 00
        CCINTERP 32
        CHASE_CC_TAKEOFFS 1
        GUID {517D1B7E-E771-47E2-B8C0-EE164A864446}
        IGNTEMPO 0 120 4 4
        SRCCOLOR 15
      >
    >
    <ITEM
      POSITION 29
      SNAPOFFS 0
      LENGTH 12
      LOOP 1
      ALLTAKES 0
      FADEIN 1 0 0 1 0 0
      FADEOUT 1 0 0 1 0 0
      MUTE 0 0
      SEL 0
      IGUID {4E0F116C-22A9-4A0E-83F1-3DD9979DF620}
      IID 21
      NAME "Variación rítmica 2 (con palm mute) - Marty.mid"
      VOLPAN 1 0 1 -1
      SOFFS 24 64
      PLAYRATE 1 1 0 -1 0 0.0025
      CHANMODE 0
      GUID {794CF50B-376F-4768-AB74-ACC662880673}
      <SOURCE MIDI
        HASDATA 1 960 QN
        CCINTERP 32
        POOLEDEVTS {3F9BB390-36F6-41EC-B68A-D30BDFFBD5E0}
        <X 0 0 0 0 3 "Variación rítmica 2 (con palm mute)"
          /wNWYXJpYWNpw7NuIHLDrXRtaWNhIDIgKGNvbiBwYWxtIG11dGUp
        >
        E 0 c4 1e 00
        E 0 b4 40 00
        E 0 b4 5b 30
        E 0 b4 0a 40
        E 0 b4 07 7f
        E 0 b4 0a 40
        E 0 b4 5b 3b
        E 0 94 32 61
        E 0 94 39 61
        E 0 94 3e 61
        E 0 b4 79 00
        E 480 84 32 00
        E 0 84 39 00
        E 0 84 3e 00
        E 0 94 32 49
        E 0 94 39 49
        E 240 84 32 00
        E 0 84 39 00
        E 240 94 32 4a
        E 0 94 39 4a
        E 240 84 32 00
        E 0 84 39 00
        E 240 94 32 5e
        E 0 94 39 5e
        E 0 94 3e 5e
        E 480 84 32 00
        E 0 84 39 00
        E 0 84 3e 00
        E 0 94 32 4a
        E 0 94 39 4a
        E 240 84 32 00
        E 0 84 39 00
        E 240 94 32 5f
        E 0 94 39 5f
        E 0 94 3e 5f
        E 480 84 32 00
        E 0 84 39 00
        E 0 84 3e 00
        E 0 94 32 46
        E 0 94 39 46
        E 240 84 32 00
        E 0 84 39 00
        E 240 94 32 47
        E 0 94 39 47
        E 240 84 32 00
        E 0 84 39 00
        E 240 94 32 4c
        E 0 94 39 4c
        E 240 84 32 00
        E 0 84 39 00
        E 240 94 32 61
        E 0 94 39 61
        E 0 94 3e 61
        E 480 84 32 00
        E 0 84 39 00
        E 0 84 3e 00
        E 0 94 32 46
        E 0 94 39 46
        E 240 84 32 00
        E 0 84 39 00
        E 240 94 32 47
        E 0 94 39 47
        E 240 84 32 00
        E 0 84 39 00
        E 240 94 32 65
        E 0 94 39 65
        E 0 94 3e 65
        E 480 84 32 00
        E 0 84 39 00
        E 0 84 3e 00
        E 0 94 32 46
        E 0 94 39 46
        E 240 84 32 00
        E 0 84 39 00
        E 240 94 32 47
        E 0 94 39 47
        E 240 84 32 00
        E 0 84 39 00
        E 240 94 32 48
        E 0 94 39 48
        E 240 84 32 00
        E 0 84 39 00
        E 240 94 30 63
        E 0 94 37 63
        E 0 94 3c 63
        E 480 84 30 00
        E 0 84 37 00
        E 0 84 3c 00
        E 0 94 30 44
        E 0 94 37 44
        E 240 84 30 00
        E 0 84 37 00
        E 240 94 30 45
        E 0 94 37 45
        E 240 84 30 00
        E 0 84 37 00
        E 240 94 30 5f
        E 0 94 37 5f
        E 0 94 3c 5f
        E 480 84 30 00
        E 0 84 37 00
        E 0 84 3c 00
        E 0 94 30 47
        E 0 94 37 47
        E 240 84 30 00
        E 0 84 37 00
        E 240 94 30 60
        E 0 94 37 60
        E 0 94 3c 60
        E 480 84 30 00
        E 0 84 37 00
        E 0 84 3c 00
        E 0 94 30 44
        E 0 94 37 44
        E 240 84 30 00
        E 0 84 37 00
        E 240 94 30 46
        E 0 94 37 46
        E 240 84 30 00
        E 0 84 37 00
        E 240 94 2f 49
        E 0 94 36 49
        E 240 84 2f 00
        E 0 84 36 00
        E 240 94 2f 5f
        E 0 94 36 5f
        E 0 94 3b 5f
        E 480 84 2f 00
        E 0 84 36 00
        E 0 84 3b 00
        E 0 94 2f 45
        E 0 94 36 45
        E 240 84 2f 00
        E 0 84 36 00
        E 240 94 2f 46
        E 0 94 36 46
        E 240 84 2f 00
        E 0 84 36 00
        E 240 94 2f 64
        E 0 94 36 64
        E 0 94 3b 64
        E 480 84 2f 00
        E 0 84 36 00
        E 0 84 3b 00
        E 0 94 2f 45
        E 0 94 36 45
        E 240 84 2f 00
        E 0 84 36 00
        E 240 94 2f 47
        E 0 94 36 47
        E 240 84 2f 00
        E 0 84 36 00
        E 240 94 2f 48
        E 0 94 36 48
        E 240 84 2f 00
        E 0 84 36 00
        E 240 94 32 6c
        E 0 94 39 6c
        E 0 94 3e 6c
        E 480 84 32 00
        E 0 84 39 00
        E 0 84 3e 00
        E 0 94 32 4b
        E 0 94 39 4b
        E 240 84 32 00
        E 0 84 39 00
        E 240 94 32 4b
        E 0 94 39 4b
        E 240 84 32 00
        E 0 84 39 00
        E 240 94 32 65
        E 0 94 39 65
        E 0 94 3e 65
        E 480 84 32 00
        E 0 84 39 00
        E 0 84 3e 00
        E 0 94 32 4b
        E 0 94 39 4b
        E 240 84 32 00
        E 0 84 39 00
        E 240 94 32 63
        E 0 94 39 63
        E 0 94 3e 63
        E 480 84 32 00
        E 0 84 39 00
        E 0 84 3e 00
        E 0 94 32 46
        E 0 94 39 46
        E 240 84 32 00
        E 0 84 39 00
        E 240 94 32 47
        E 0 94 39 47
        E 240 84 32 00
        E 0 84 39 00
        E 240 94 32 4c
        E 0 94 39 4c
        E 240 84 32 00
        E 0 84 39 00
        E 240 94 32 62
        E 0 94 39 62
        E 0 94 3e 62
        E 480 84 32 00
        E 0 84 39 00
        E 0 84 3e 00
        E 0 94 32 46
        E 0 94 39 46
        E 240 84 32 00
        E 0 84 39 00
        E 240 94 32 47
        E 0 94 39 47
        E 240 84 32 00
        E 0 84 39 00
        E 240 94 32 65
        E 0 94 39 65
        E 0 94 3e 65
        E 480 84 32 00
        E 0 84 39 00
        E 0 84 3e 00
        E 0 94 32 46
        E 0 94 39 46
        E 240 84 32 00
        E 0 84 39 00
        E 240 94 32 47
        E 0 94 39 47
        E 240 84 32 00
        E 0 84 39 00
        E 240 94 32 48
        E 0 94 39 48
        E 240 84 32 00
        E 0 84 39 00
        E 240 94 30 63
        E 0 94 37 63
        E 0 94 3c 63
        E 480 84 30 00
        E 0 84 37 00
        E 0 84 3c 00
        E 0 94 30 44
        E 0 94 37 44
        E 240 84 30 00
        E 0 84 37 00
        E 240 94 30 45
        E 0 94 37 45
        E 240 84 30 00
        E 0 84 37 00
        E 240 94 30 5f
        E 0 94 37 5f
        E 0 94 3c 5f
        E 480 84 30 00
        E 0 84 37 00
        E 0 84 3c 00
        E 0 94 30 47
        E 0 94 37 47
        E 240 84 30 00
        E 0 84 37 00
        E 240 94 30 60
        E 0 94 37 60
        E 0 94 3c 60
        E 480 84 30 00
        E 0 84 37 00
        E 0 84 3c 00
        E 0 94 30 44
        E 0 94 37 44
        E 240 84 30 00
        E 0 84 37 00
        E 240 94 30 46
        E 0 94 37 46
        E 240 84 30 00
        E 0 84 37 00
        E 240 94 2b 46
        E 0 94 32 46
        E 240 84 2b 00
        E 0 84 32 00
        E 240 94 2b 58
        E 0 94 32 58
        E 0 94 37 58
        E 480 84 2b 00
        E 0 84 32 00
        E 0 84 37 00
        E 0 94 2b 43
        E 0 94 32 43
        E 240 84 2b 00
        E 0 84 32 00
        E 240 94 2b 44
        E 0 94 32 44
        E 240 84 2b 00
        E 0 84 32 00
        E 240 94 2d 65
        E 0 94 34 65
        E 0 94 39 65
        E 480 84 2d 00
        E 0 84 34 00
        E 0 84 39 00
        E 0 94 2d 47
        E 0 94 34 47
        E 240 84 2d 00
        E 0 84 34 00
        E 240 94 2d 48
        E 0 94 34 48
        E 240 84 2d 00
        E 0 84 34 00
        E 240 94 2d 49
        E 0 94 34 49
        E 240 84 2d 00
        E 0 84 34 00
        E 240 94 2f 6c
        E 0 94 36 6c
        E 0 94 3b 6c
        E 480 84 2f 00
        E 0 84 36 00
        E 0 84 3b 00
        E 0 94 2f 4a
        E 0 94 36 4a
        E 240 84 2f 00
        E 0 84 36 00
        E 240 94 2f 4a
        E 0 94 36 4a
        E 240 84 2f 00
        E 0 84 36 00
        E 240 94 2f 4b
        E 0 94 36 4b
        E 240 84 2f 00
        E 0 84 36 00
        E 240 94 2f 4e
        E 0 94 36 4e
        E 240 84 2f 00
        E 0 84 36 00
        E 240 94 2f 64
        E 0 94 36 64
        E 0 94 3b 64
        E 480 84 2f 00
        E 0 84 36 00
        E 0 84 3b 00
        E 0 94 2f 48
        E 0 94 36 48
        E 240 84 2f 00
        E 0 84 36 00
        E 240 94 2f 62
        E 0 94 36 62
        E 0 94 3b 62
        E 480 84 2f 00
        E 0 84 36 00
        E 0 84 3b 00
        E 0 94 30 69
        E 0 94 37 69
        E 0 94 3c 69
        E 480 84 30 00
        E 0 84 37 00
        E 0 84 3c 00
        E 0 94 30 46
        E 0 94 37 46
        E 240 84 30 00
        E 0 84 37 00
        E 240 94 30 47
        E 0 94 37 47
        E 240 84 30 00
        E 0 84 37 00
        E 240 94 30 48
        E 0 94 37 48
        E 240 84 30 00
        E 0 84 37 00
        E 240 94 30 4b
        E 0 94 37 4b
        E 240 84 30 00
        E 0 84 37 00
        E 240 94 30 62
        E 0 94 37 62
        E 0 94 3c 62
        E 480 84 30 00
        E 0 84 37 00
        E 0 84 3c 00
        E 0 94 30 47
        E 0 94 37 47
        E 240 84 30 00
        E 0 84 37 00
        E 240 94 30 61
        E 0 94 37 61
        E 0 94 3c 61
        E 480 84 30 00
        E 0 84 37 00
        E 0 84 3c 00
        E 0 94 31 69
        E 0 94 38 69
        E 0 94 3d 69
        E 480 84 31 00
        E 0 84 38 00
        E 0 84 3d 00
        E 0 94 31 45
        E 0 94 38 45
        E 240 84 31 00
        E 0 84 38 00
        E 240 94 31 46
        E 0 94 38 46
        E 240 84 31 00
        E 0 84 38 00
        E 240 94 31 47
        E 0 94 38 47
        E 240 84 31 00
        E 0 84 38 00
        E 240 94 31 4b
        E 0 94 38 4b
        E 240 84 31 00
        E 0 84 38 00
        E 240 94 31 62
        E 0 94 38 62
        E 0 94 3d 62
        E 480 84 31 00
        E 0 84 38 00
        E 0 84 3d 00
        E 0 94 31 47
        E 0 94 38 47
        E 240 84 31 00
        E 0 84 38 00
        E 240 94 31 61
        E 0 94 38 61
        E 0 94 3d 61
        E 480 84 31 00
        E 0 84 38 00
        E 0 84 3d 00
        E 0 94 32 69
        E 0 94 39 69
        E 0 94 3e 69
        E 480 84 32 00
        E 0 84 39 00
        E 0 84 3e 00
        E 0 94 32 45
        E 0 94 39 45
        E 240 84 32 00
        E 0 84 39 00
        E 240 94 32 46
        E 0 94 39 46
        E 240 84 32 00
        E 0 84 39 00
        E 240 94 32 47
        E 0 94 39 47
        E 240 84 32 00
        E 0 84 39 00
        E 240 94 32 66
        E 0 94 39 66
        E 0 94 3e 66
        E 480 84 32 00
        E 0 84 39 00
        E 0 84 3e 00
        E 0 94 32 61
        E 0 94 39 61
        E 0 94 3e 61
        E 480 84 32 00
        E 0 84 39 00
        E 0 84 3e 00
        E 0 94 32 60
        E 0 94 39 60
        E 0 94 3e 60
        E 480 84 32 00
        E 0 84 39 00
        E 0 84 3e 00
        E 0 94 32 5f
        E 0 94 39 5f
        E 0 94 3e 5f
        E 480 84 32 00
        E 0 84 39 00
        E 0 84 3e 00
        E 0 94 2f 52
        E 0 94 37 52
        E 480 84 2f 00
        E 0 84 37 00
        E 0 94 2f 41
        E 0 94 37 41
        E 240 84 2f 00
        E 0 84 37 00
        E 240 94 2f 43
        E 0 94 37 43
        E 240 84 2f 00
        E 0 84 37 00
        E 240 94 2d 56
        E 0 94 34 56
        E 0 94 39 56
        E 480 84 2d 00
        E 0 84 34 00
        E 0 84 39 00
        E 0 94 2d 44
        E 0 94 34 44
        E 240 84 2d 00
        E 0 84 34 00
        E 240 94 2d 5a
        E 0 94 34 5a
        E 0 94 39 5a
        E 480 84 2d 00
        E 0 84 34 00
        E 0 84 39 00
        E 0 94 2d 42
        E 0 94 34 42
        E 240 84 2d 00
        E 0 84 34 00
        E 240 94 2d 5c
        E 0 94 32 5c
        E 0 94 39 5c
        E 960 84 2d 00
        E 0 84 32 00
        E 0 84 39 00
        E 0 94 2d 43
        E 0 94 32 43
        E 240 84 2d 00
        E 0 84 32 00
        E 240 94 2d 44
        E 0 94 32 44
        E 240 84 2d 00
        E 0 84 32 00
        E 240 94 2d 46
        E 0 94 32 46
        E 240 84 2d 00
        E 0 84 32 00
        E 240 94 2d 4a
        E 0 94 32 4a
        E 240 84 2d 00
        E 0 84 32 00
        E 240 94 2d 49
        E 0 94 32 49
        E 240 84 2d 00
        E 0 84 32 00
        E 240 94 2d 4a
        E 0 94 32 4a
        E 240 84 2d 00
        E 0 84 32 00
        E 240 94 2d 4a
        E 0 94 32 4a
        E 240 84 2d 00
        E 0 84 32 00
        E 240 94 28 62
        E 0 94 2f 62
        E 0 94 34 62
        E 480 84 28 00
        E 0 84 2f 00
        E 0 84 34 00
        E 0 94 2f 4d
        E 0 94 34 4d
        E 240 84 2f 00
        E 0 84 34 00
        E 240 94 2f 4d
        E 0 94 34 4d
        E 240 84 2f 00
        E 0 84 34 00
        E 240 94 28 5d
        E 0 94 2f 5d
        E 0 94 34 5d
        E 2400 84 28 00
        E 0 84 2f 00
        E 0 84 34 00
        E 0 94 33 6c
        E 0 94 3a 6c
        E 0 94 3f 6c
        E 480 84 33 00
        E 0 84 3a 00
        E 0 84 3f 00
        E 480 94 33 62
        E 0 94 3a 62
        E 0 94 3f 62
        E 480 84 33 00
        E 0 84 3a 00
        E 0 84 3f 00
        E 480 94 33 63
        E 0 94 3a 63
        E 0 94 3f 63
        E 480 84 33 00
        E 0 84 3a 00
        E 0 84 3f 00
        E 480 94 33 5d
        E 0 94 3a 5d
        E 0 94 3f 5d
        E 480 84 33 00
        E 0 84 3a 00
        E 0 84 3f 00
        E 480 94 32 60
        E 0 94 39 60
        E 0 94 3e 60
        E 480 84 32 00
        E 0 84 39 00
        E 0 84 3e 00
        E 0 94 32 44
        E 0 94 39 44
        E 240 84 32 00
        E 0 84 39 00
        E 240 94 32 44
        E 0 94 39 44
        E 240 84 32 00
        E 0 84 39 00
        E 240 94 32 5d
        E 0 94 39 5d
        E 0 94 3e 5d
        E 960 84 32 00
        E 0 84 39 00
        E 0 84 3e 00
        E 0 94 32 45
        E 0 94 39 45
        E 240 84 32 00
        E 0 84 39 00
        E 240 94 32 47
        E 0 94 39 47
        E 240 84 32 00
        E 0 84 39 00
        E 240 94 32 48
        E 0 94 39 48
        E 240 84 32 00
        E 0 84 39 00
        E 240 94 32 66
        E 0 94 3a 66
        E 0 94 3e 66
        E 480 84 32 00
        E 0 84 3a 00
        E 0 84 3e 00
        E 0 94 32 48
        E 0 94 3a 48
        E 240 84 32 00
        E 0 84 3a 00
        E 240 94 32 49
        E 0 94 3a 49
        E 240 84 32 00
        E 0 84 3a 00
        E 240 94 32 61
        E 0 94 3a 61
        E 0 94 3e 61
        E 960 84 32 00
        E 0 84 3a 00
        E 0 84 3e 00
        E 0 94 32 49
        E 0 94 3a 49
        E 240 84 32 00
        E 0 84 3a 00
        E 240 94 32 49
        E 0 94 3a 49
        E 240 84 32 00
        E 0 84 3a 00
        E 240 94 32 4a
        E 0 94 3a 4a
        E 240 84 32 00
        E 0 84 3a 00
        E 240 94 32 66
        E 0 94 3b 66
        E 0 94 3e 66
        E 480 84 32 00
        E 0 84 3b 00
        E 0 84 3e 00
        E 0 94 32 4a
        E 0 94 3b 4a
        E 240 84 32 00
        E 0 84 3b 00
        E 240 94 32 4a
        E 0 94 3b 4a
        E 240 84 32 00
        E 0 84 3b 00
        E 240 94 32 60
        E 0 94 3b 60
        E 0 94 3e 60
        E 960 84 32 00
        E 0 84 3b 00
        E 0 84 3e 00
        E 0 94 32 4a
        E 0 94 3b 4a
        E 240 84 32 00
        E 0 84 3b 00
        E 240 94 32 4a
        E 0 94 3b 4a
        E 240 84 32 00
        E 0 84 3b 00
        E 240 94 32 4a
        E 0 94 3b 4a
        E 240 84 32 00
        E 0 84 3b 00
        E 240 94 32 61
        E 0 94 39 61
        E 0 94 3c 61
        E 480 84 32 00
        E 0 84 39 00
        E 0 84 3c 00
        E 0 94 32 4c
        E 0 94 39 4c
        E 0 94 3c 4c
        E 240 84 32 00
        E 0 84 39 00
        E 0 84 3c 00
        E 240 94 32 4c
        E 0 94 39 4c
        E 0 94 3c 4c
        E 240 84 32 00
        E 0 84 39 00
        E 0 84 3c 00
        E 240 94 32 5c
        E 0 94 39 5c
        E 0 94 3c 5c
        E 480 84 32 00
        E 0 84 39 00
        E 0 84 3c 00
        E 480 94 32 5c
        E 0 94 39 5c
        E 0 94 3c 5c
        E 480 84 32 00
        E 0 84 39 00
        E 0 84 3c 00
        E 480 94 32 5c
        E 0 94 39 5c
        E 0 94 3c 5c
        E 480 84 32 00
        E 0 84 39 00
        E 0 84 3c 00
        E 480 94 32 45
        E 0 94 37 45
        E 240 84 32 00
        E 0 84 37 00
        E 240 94 32 46
        E 0 94 37 46
        E 240 84 32 00
        E 0 84 37 00
        E 240 94 32 4a
        E 0 94 39 4a
        E 240 84 32 00
        E 0 84 39 00
        E 240 94 32 61
        E 0 94 3b 61
        E 480 84 32 00
        E 0 84 3b 00
        E 0 94 32 4d
        E 0 94 3b 4d
        E 240 84 32 00
        E 0 84 3b 00
        E 240 94 32 4d
        E 0 94 3b 4d
        E 240 84 32 00
        E 0 84 3b 00
        E 240 94 32 4d
        E 0 94 3b 4d
        E 240 84 32 00
        E 0 84 3b 00
        E 720 94 32 48
        E 0 94 37 48
        E 240 84 32 00
        E 0 84 37 00
        E 240 94 32 49
        E 0 94 37 49
        E 240 84 32 00
        E 0 84 37 00
        E 240 94 32 4c
        E 0 94 39 4c
        E 240 84 32 00
        E 0 84 39 00
        E 240 94 32 61
        E 0 94 3a 61
        E 480 84 32 00
        E 0 84 3a 00
        E 0 94 32 4d
        E 0 94 3a 4d
        E 240 84 32 00
        E 0 84 3a 00
        E 240 94 32 4d
        E 0 94 3a 4d
        E 240 84 32 00
        E 0 84 3a 00
        E 240 94 32 4d
        E 0 94 3a 4d
        E 240 84 32 00
        E 0 84 3a 00
        E 720 94 32 49
        E 0 94 37 49
        E 240 84 32 00
        E 0 84 37 00
        E 240 94 32 4a
        E 0 94 37 4a
        E 240 84 32 00
        E 0 84 37 00
        E 240 94 32 4b
        E 0 94 38 4b
        E 240 84 32 00
        E 0 84 38 00
        E 240 94 32 60
        E 0 94 39 60
        E 480 84 32 00
        E 0 84 39 00
        E 0 94 32 4d
        E 0 94 39 4d
        E 240 84 32 00
        E 0 84 39 00
        E 240 94 32 4d
        E 0 94 39 4d
        E 240 84 32 00
        E 0 84 39 00
        E 240 94 32 4d
        E 0 94 39 4d
        E 240 84 32 00
        E 0 84 39 00
        E 720 94 2f 5f
        E 0 94 36 5f
        E 0 94 3b 5f
        E 480 84 2f 00
        E 0 84 36 00
        E 0 84 3b 00
        E 480 94 2f 5e
        E 0 94 36 5e
        E 0 94 3b 5e
        E 480 84 2f 00
        E 0 84 36 00
        E 0 84 3b 00
        E 0 94 31 65
        E 0 94 38 65
        E 0 94 3d 65
        E 480 84 31 00
        E 0 84 38 00
        E 0 84 3d 00
        E 0 94 31 60
        E 0 94 38 60
        E 0 94 3d 60
        E 480 84 31 00
        E 0 84 38 00
        E 0 84 3d 00
        E 0 94 31 5f
        E 0 94 38 5f
        E 0 94 3d 5f
        E 480 84 31 00
        E 0 84 38 00
        E 0 84 3d 00
        E 0 94 31 5e
        E 0 94 38 5e
        E 0 94 3d 5e
        E 479 84 31 00
        E 0 84 38 00
        E 0 84 3d 00
        E 1 b0 7b 00
        CCINTERP 32
        CHASE_CC_TAKEOFFS 1
        GUID {A83F3F6B-2967-495D-969D-7403F9E819BD}
        IGNTEMPO 0 120 4 4
        SRCCOLOR 22
      >
    >
  >
  <TRACK {A5161C18-584E-4CFA-ADB9-8602A8E73095}
    NAME "Frase melódica"
    PEAKCOL 16576
    BEAT -1
    AUTOMODE 0
    VOLPAN 1 0 -1 -1 1
    MUTESOLO 0 0 0
    IPHASE 0
    PLAYOFFS 0 1
    ISBUS 0 0
    BUSCOMP 0 0 0 0 0
    SHOWINMIX 1 0.6667 0.5 1 0.5 -1 -1 -1
    FREEMODE 0
    SEL 0
    REC 0 0 1 0 0 0 0
    VU 2
    TRACKHEIGHT 0 0 0 0 -1 0
    INQ 0 0 0 0.5 100 0 0 100
    NCHAN 2
    FX 1
    TRACKID {A5161C18-584E-4CFA-ADB9-8602A8E73095}
    PERF 0
    MIDIOUT -1
    MAINSEND 1 0
    <FXCHAIN
      WNDRECT 24 52 506 258
      SHOW 0
      LASTSEL 0
      DOCKED 0
      BYPASS 0 0 0
      <VST "VSTi: FM8 (Native Instruments GmbH)" FM8.dll 0 "" 1315530296<5653544E696638666D38202878383629> ""
        OGZpTu5e7f4AAAAAAgAAAAEAAAAAAAAAAgAAAAAAAABxIgAAAQAAAAAAEAA=
        cSIAAAAAAAABAAAAaHNpbgEAAAAAAAAAtobcUMQp00ys2xunT/VcXpYAAAAAAAAARFNJTnYAAAABAAAASAAAAAAAAABEU0lOagAAAAEAAAAYAAAAAAAAAERTSU4BAAAA
        AQAAAAEAAAABAAAAAQAAAAEAAAAAAAAAAAAAAAAAAAANYmWFAQAAAANwEAAAAAAAAQAAAAEAAAAAAAAAAAAAAAAAAAADAAAAMAAwADAAAAAAAAAAAAAAAAAAAAAAAAEA
        AAABAAAAAAAAAERTSU5lAAAAnyEAAAAAAAABAAAAaHNpbgEAAAAAAAAAk2LmMfvQG0yafYDm9m9BlW0AAAAAAAAARFNJTmUAAAABAAAANAAAAAAAAABEU0lOagAAAAEA
        AAAYAAAAAAAAAERTSU4BAAAAAQAAAAEAAAABAAAAAgAAAAEAAAAACAAAAAEAAAAKAAAAMQAuADIALgAwAC4AMQAwADEAMAABAAAAAwAAAAAAAABEU0lObAAAADQDAAAA
        AAAAAQAAAGhzaW4BAAAAAAAAAEPySaikdwBNqY3YM9NCgmIEAwAAAAAAAERTSU5sAAAAAQAAABgAAAAAAAAARFNJTgEAAAABAAAAAQAAAAEAAAACAAAAAQAAAAAAAAAO
        AAAAQwByAHUAbgBjAGgAIABDAHIAdQBzAGgAZQByAAwAAABBAG4AZAByAGUAIABFAHQAdABlAG0AYQASAAAATgBhAHQAaQB2AGUAIABJAG4AcwB0AHIAdQBtAGUAbgB0
        AHMAQAAAAFUAcwBlACAATQBvAHIAcABoACAAUwBxAHUAYQByAGUAIAB0AG8AIABnAGUAdAAgAHQAaABlACAAcwBvAHUAbgBkACAAbwBmACAAZABpAGYAZgBlAHIAZQBu
        AHQAIABhAG0AcAAgAHMAaQBtAHUAbABhAHQAaQBvAG4AcwAuACAAAAAAAP////8AAAAAAAAAAAAAAAAAAAAAAAAAAAEAAAABAAAAAgAAAAMAAABGAE0AOAALAAAARgBN
        ADgAIABGAGEAYwB0AG8AcgB5AAcAAAALAAAAQQByAHAAZQBnAGcAaQBhAHQAZQBkABIAAABEAGkAcwB0AG8AcgB0AGUAZAAgAEUALQBHAHUAaQB0AGEAcgAGAAAARwB1
        AGkAdABhAHIACQAAAFAAcgBvAGMAZQBzAHMAZQBkAA0AAABTAGUAcQB1AGUAbgBjAGUALwBMAG8AbwBwAAkAAABTAHkAbgB0AGgAZQB0AGkAYwAMAAAAVABlAG0AcABv
        AC0AcwB5AG4AYwBlAGQAAAAAAAcAAAAHAAAAXABAAGMAbwBsAG8AcgABAAAAMAARAAAAXABAAGQAZQB2AGkAYwBlAHQAeQBwAGUAZgBsAGEAZwBzAAEAAAAxAAsAAABc
        AEAAcwBvAHUAbgBkAHQAeQBwAGUAAQAAADAABwAAAFwAQAB0AGUAbQBwAG8AAQAAADAABgAAAFwAQAB2AGUAcgBsAAUAAAAxAC4ANwAuADMABgAAAFwAQAB2AGUAcgBt
        AAUAAAAxAC4ANwAuADMABwAAAFwAQAB2AGkAcwBpAGIAAQAAADAAAQAAAAAAAAACAAAARFNJTnkAAAAQFwAAAAAAAAEAAABoc2luAQAAAAAAAADhv9+3I90KSKBFccCi
        AbOy4BYAAAAAAABEU0lOeQAAAAEAAAAYAAAAAAAAAERTSU4BAAAAAQAAAAEAAAABAAAAAQAAABkAAAABAAAABgAAAAYAAABUAGkAbQBiAHIAZQABAAAACAAAAEgAYQBy
        AG0AbwBuAGkAYwAAAAAAAACAPwIAAAABAAAAAQAAAAYAAABEAGUAdAB1AG4AZQAAAAAAAACAPwMAAAACAAAAAQAAAAoAAABCAHIAaQBnAGgAdABuAGUAcwBzAAAAAAAA
        AIA/AQAAAAMAAAABAAAABwAAAEUAbgB2ACAAQQBtAHQAAAAAAAAAgD8EAAAABAAAAAEAAAAIAAAAVgBlAGwAbwBjAGkAdAB5AAAAAAAAAIA/BQAAAAUAAAABAAAADgAA
        ADwAewBbAGEAdQB0AG8AbgBhAG0AZQBdAH0APgAAAAAAAACAP/////8GAAAAAQAAAAIAAAACAAAARgBYAAEAAAAGAAAAQQBtAG8AdQBuAHQAAAAAAAAAgD8aAAAAAQAA
        AAEAAAAOAAAAPAB7AFsAYQB1AHQAbwBuAGEAbQBlAF0AfQA+AAAAAAAAAIA//////wIAAAABAAAABAAAAAgAAABUAGkAbQBiACAARQBuAHYAAQAAAAYAAABBAHQAdABh
        AGMAawAAAAAAAACAPwYAAAABAAAAAQAAAAUAAABEAGUAYwBhAHkAAAAAAAAAgD8HAAAAAgAAAAEAAAAHAAAAUwB1AHMAdABhAGkAbgAAAAAAAACAPwgAAAADAAAAAQAA
        AAcAAABSAGUAbABlAGEAcwBlAAAAAAAAAIA/CQAAAAQAAAABAAAABAAAAAcAAABBAG0AcAAgAEUAbgB2AAEAAAAHAAAAQQB0AHQAYQBjAGsAIAAAAAAAAACAPxEAAAAB
        AAAAAQAAAAUAAABEAGUAYwBhAHkAAAAAAAAAgD8SAAAAAgAAAAEAAAAHAAAAUwB1AHMAdABhAGkAbgAAAAAAAACAPxMAAAADAAAAAQAAAAcAAABSAGUAbABlAGEAcwBl
        AAAAAAAAAIA/FAAAAAQAAAABAAAABAAAAAYAAABPAHUAdABwAHUAdAABAAAABgAAAFYAbwBsAHUAbQBlAAAAAAAAAIA/DgAAAAEAAAABAAAACAAAAFYAZQBsAG8AYwBp
        AHQAeQAAAAAAAACAPxAAAAACAAAAAQAAAAkAAABTAHQAcgAgAFcAaQBkAHQAaAAAAAAAAACAPw8AAAADAAAAAQAAAA4AAAA8AHsAWwBhAHUAdABvAG4AYQBtAGUAXQB9
        AD4AAAAAAAAAgD//////BAAAAAEAAAAEAAAAAwAAAEwARgBPAAEAAAAEAAAAUgBhAHQAZQAAAAAAAACAPwoAAAABAAAAAQAAAAcAAABWAGkAYgByAGEAdABvAAAAAAAA
        AIA/CwAAAAIAAAABAAAABgAAAFQAaQBtAGIAcgBlAAAAAAAAAIA/DAAAAAMAAAABAAAABwAAAFQAcgBlAG0AbwBsAG8AAAAAAAAAgD8NAAAABAAAAAEAAAAEAAAAAwAA
        AEEAcgBwAAEAAAAGAAAATwBuAC8ATwBmAGYAAAAAAAAAgD+IAAAAAQAAAAEAAAAEAAAAUwB0AGUAcAAAAAAAAACAP5UAAAACAAAAAQAAAAQAAABHAGEAdABlAAAAAAAA
        AIA/iQAAAAMAAAABAAAABwAAAFMAaAB1AGYAZgBsAGUAAAAAAAAAgD+NAAAABAAAAAEAAAAEAAAABQAAAE0AbwByAHAAaAABAAAAAQAAAFgAAAAAAAAAgD8VAAAAAQAA
        AAEAAAABAAAAWQAAAAAAAACAPxYAAAACAAAAAQAAAAUAAABSAG4AZAAgAFgAAAAAAAAAgD8XAAAAAwAAAAEAAAAFAAAAUgBuAGQAIABZAAAAAAAAAIA/GAAAAAQAAAAB
        AAAAAgAAAAYAAABNAGEAcwB0AGUAcgABAAAABgAAAE8AdQB0AHAAdQB0AAAAAAAAAIA/dAAAAAEAAAABAAAABQAAAEkAbgBwAHUAdAAAAAAAAACAP3UAAAACAAAAAQAA
        AAIAAAAFAAAAUABpAHQAYwBoAAEAAAAEAAAAVAB1AG4AZQAAAAAAAACAP3YAAAABAAAAAQAAAAkAAABUAHIAYQBuAHMAcABvAHMAZQAAAAAAAACAP3cAAAACAAAAAQAA
        AAEAAAAGAAAAVQBuAGkAcwBvAG4AAQAAAAYAAABEAGUAdAB1AG4AZQAAAAAAAACAP3kAAAABAAAAAQAAAAEAAAAFAAAARwBsAGkAZABlAAEAAAAEAAAAVABpAG0AZQAA
        AAAAAACAP38AAAABAAAAAQAAAAIAAAAHAAAAUQB1AGEAbABpAHQAeQABAAAABgAAAEEAbgBhAGwAbwBnAAAAAAAAAIA/gAAAAAEAAAABAAAABwAAAEQAaQBnAGkAdABh
        AGwAAAAAAAAAgD+EAAAAAgAAAAEAAAAIAAAABQAAAEQAcgBpAHYAZQABAAAABgAAAE8AbgAvAE8AZgBmAAAAAAAAAIA/HgAAAAEAAAABAAAABQAAAEQAcgBpAHYAZQAA
        AAAAAACAPx8AAAACAAAAAQAAAAQAAABUAG8AbgBlAAAAAAAAAIA/IAAAAAMAAAABAAAABAAAAEIAYQBzAHMAAAAAAAAAgD8hAAAABAAAAAEAAAAHAAAAVgBvAGwAdQBt
        AGUAIAAAAAAAAACAPyIAAAAFAAAAAQAAAA4AAAA8AHsAWwBhAHUAdABvAG4AYQBtAGUAXQB9AD4AAAAAAAAAgD//////BgAAAAEAAAAOAAAAPAB7AFsAYQB1AHQAbwBu
        AGEAbQBlAF0AfQA+AAAAAAAAAIA//////wcAAAABAAAADgAAADwAewBbAGEAdQB0AG8AbgBhAG0AZQBdAH0APgAAAAAAAACAP/////8IAAAAAQAAAAgAAAAEAAAAVAB1
        AGIAZQABAAAABgAAAE8AbgAvAE8AZgBmAAAAAAAAAIA/IwAAAAEAAAABAAAABgAAAFYAbwBsAHUAbQBlAAAAAAAAAIA/JQAAAAIAAAABAAAABQAAAEQAcgBpAHYAZQAA
        AAAAAACAPyQAAAADAAAAAQAAAA4AAAA8AHsAWwBhAHUAdABvAG4AYQBtAGUAXQB9AD4AAAAAAAAAgD//////BAAAAAEAAAAOAAAAPAB7AFsAYQB1AHQAbwBuAGEAbQBl
        AF0AfQA+AAAAAAAAAIA//////wUAAAABAAAADgAAADwAewBbAGEAdQB0AG8AbgBhAG0AZQBdAH0APgAAAAAAAACAP/////8GAAAAAQAAAA4AAAA8AHsAWwBhAHUAdABv
        AG4AYQBtAGUAXQB9AD4AAAAAAAAAgD//////BwAAAAEAAAAOAAAAPAB7AFsAYQB1AHQAbwBuAGEAbQBlAF0AfQA+AAAAAAAAAIA//////wgAAAABAAAACAAAAAcAAABD
        AGEAYgBpAG4AZQB0AAEAAAAGAAAATwBuAC8ATwBmAGYAAAAAAAAAgD8mAAAAAQAAAAEAAAAEAAAAVAB5AHAAZQAAAAAAAACAPycAAAACAAAAAQAAAAQAAABTAGkAegBl
        AAAAAAAAAIA/KAAAAAMAAAABAAAAAwAAAEEAaQByAAAAAAAAAIA/KQAAAAQAAAABAAAABAAAAEIAYQBzAHMAAAAAAAAAgD8qAAAABQAAAAEAAAAGAAAAVAByAGUAYgBs
        AGUAAAAAAAAAgD8rAAAABgAAAAEAAAAOAAAAPAB7AFsAYQB1AHQAbwBuAGEAbQBlAF0AfQA+AAAAAAAAAIA//////wcAAAABAAAADgAAADwAewBbAGEAdQB0AG8AbgBh
        AG0AZQBdAH0APgAAAAAAAACAP/////8IAAAAAQAAAAgAAAAIAAAAUwBoAGUAbABmACAARQBRAAEAAAAGAAAATwBuAC8ATwBmAGYAAAAAAAAAgD8sAAAAAQAAAAEAAAAE
        AAAATABQACAAWAAAAAAAAACAPy0AAAACAAAAAQAAAAQAAABMAFAAIABZAAAAAAAAAIA/LgAAAAMAAAABAAAABAAAAEgAUAAgAFgAAAAAAAAAgD8vAAAABAAAAAEAAAAE
        AAAASABQACAAWAAAAAAAAACAPzAAAAAFAAAAAQAAAAYAAABWAG8AbAB1AG0AZQAAAAAAAACAPzEAAAAGAAAAAQAAAA4AAAA8AHsAWwBhAHUAdABvAG4AYQBtAGUAXQB9
        AD4AAAAAAAAAgD//////BwAAAAEAAAAOAAAAPAB7AFsAYQB1AHQAbwBuAGEAbQBlAF0AfQA+AAAAAAAAAIA//////wgAAAABAAAACAAAAAcAAABQAGUAYQBrACAARQBR
        AAEAAAAGAAAATwBuAC8ATwBmAGYAAAAAAAAAgD8yAAAAAQAAAAEAAAAIAAAAUABlAGEAawAgADEAIABYAAAAAAAAAIA/MwAAAAIAAAABAAAACAAAAFAAZQBhAGsAIAAx
        ACAAWQAAAAAAAACAPzQAAAADAAAAAQAAAAgAAABQAGUAYQBrACAAMgAgAFgAAAAAAAAAgD82AAAABAAAAAEAAAAJAAAAUABlAGEAawAgADIAIABZACAAAAAAAAAAgD83
        AAAABQAAAAEAAAACAAAAUQAxAAAAAAAAAIA/NQAAAAYAAAABAAAAAgAAAFEAMgAAAAAAAACAPzgAAAAHAAAAAQAAAAYAAABWAG8AbAB1AG0AZQAAAAAAAACAPzkAAAAI
        AAAAAQAAAAgAAAAIAAAAVABhAGwAawAgAFcAYQBoAAEAAAAGAAAATwBuAC8ATwBmAGYAAAAAAAAAgD86AAAAAQAAAAEAAAAFAAAATQBvAHUAdABoAAAAAAAAAIA/OwAA
        AAIAAAABAAAACAAAAE0AbwBkAHcAaABlAGUAbAAAAAAAAACAPzwAAAADAAAAAQAAAAQAAABTAGkAegBlAAAAAAAAAIA/PQAAAAQAAAABAAAABgAAAEIAcgBpAGcAaAB0
        AAAAAAAAAIA/PgAAAAUAAAABAAAADgAAADwAewBbAGEAdQB0AG8AbgBhAG0AZQBdAH0APgAAAAAAAACAP/////8GAAAAAQAAAA4AAAA8AHsAWwBhAHUAdABvAG4AYQBt
        AGUAXQB9AD4AAAAAAAAAgD//////BwAAAAEAAAAOAAAAPAB7AFsAYQB1AHQAbwBuAGEAbQBlAF0AfQA+AAAAAAAAAIA//////wgAAAABAAAACAAAAAYAAABQAGgAYQBz
        AGUAcgABAAAABgAAAE8AbgAvAE8AZgBmAAAAAAAAAIA/PwAAAAEAAAABAAAABAAAAFIAYQB0AGUAAAAAAAAAgD9AAAAAAgAAAAEAAAAHAAAATgBvAHQAYwBoAGUAcwAA
        AAAAAACAP0gAAAADAAAAAQAAAAUAAABDAG8AbABvAHIAAAAAAAAAgD9BAAAABAAAAAEAAAAJAAAAUwB3AGUAZQBwACAATQBpAG4AAAAAAAAAgD9DAAAABQAAAAEAAAAJ
        AAAAUwB3AGUAZQBwACAATQBhAHgAAAAAAAAAgD9EAAAABgAAAAEAAAAGAAAAUgBvAHQAYQB0AGUAAAAAAAAAgD9CAAAABwAAAAEAAAAHAAAARAByAHkALwBXAGUAdAAA
        AAAAAACAP0YAAAAIAAAAAQAAAAgAAAAHAAAARgBsAGEAbgBnAGUAcgABAAAABgAAAE8AbgAvAE8AZgBmAAAAAAAAAIA/SQAAAAEAAAABAAAABAAAAFIAYQB0AGUAAAAA
        AAAAgD9KAAAAAgAAAAEAAAAEAAAAUwB5AG4AYwAAAAAAAACAP08AAAADAAAAAQAAAAYAAABTAHQAYQB0AGkAYwAAAAAAAACAP0sAAAAEAAAAAQAAAAUAAABEAGUAcAB0
        AGgAAAAAAAAAgD9MAAAABQAAAAEAAAAFAAAAQwBvAGwAbwByAAAAAAAAAIA/TQAAAAYAAAABAAAABgAAAFIAbwB0AGEAdABlAAAAAAAAAIA/TgAAAAcAAAABAAAABwAA
        AEQAcgB5AC8AVwBlAHQAAAAAAAAAgD9RAAAACAAAAAEAAAAIAAAABwAAAFQAcgBlAG0AbwBsAG8AAQAAAAYAAABPAG4ALwBPAGYAZgAAAAAAAACAP1IAAAABAAAAAQAA
        AAQAAABSAGEAdABlAAAAAAAAAIA/UwAAAAIAAAABAAAABAAAAFMAeQBuAGMAAAAAAAAAgD9VAAAAAwAAAAEAAAAJAAAASQBuAHQAZQBuAHMAaQB0AHkAAAAAAAAAgD9U
        AAAABAAAAAEAAAAGAAAAUwB0AGUAcgBlAG8AAAAAAAAAgD9WAAAABQAAAAEAAAAFAAAAVwBpAGQAdABoAAAAAAAAAIA/VwAAAAYAAAABAAAABgAAAEEAdAB0AGEAYwBr
        AAAAAAAAAIA/WAAAAAcAAAABAAAABQAAAEQAZQBjAGEAeQAAAAAAAACAP1kAAAAIAAAAAQAAAAgAAAAGAAAAUgBlAHYAZQByAGIAAQAAAAYAAABPAG4ALwBPAGYAZgAA
        AAAAAACAP1oAAAABAAAAAQAAAAQAAABUAGkAbQBlAAAAAAAAAIA/XQAAAAIAAAABAAAABgAAAEIAcgBpAGcAaAB0AAAAAAAAAIA/XAAAAAMAAAABAAAABgAAAFQAcgBl
        AGIAbABlAAAAAAAAAIA/XgAAAAQAAAABAAAABwAAAEQAcgB5AC8AVwBlAHQAAAAAAAAAgD9bAAAABQAAAAEAAAAOAAAAPAB7AFsAYQB1AHQAbwBuAGEAbQBlAF0AfQA+
        AAAAAAAAAIA//////wYAAAABAAAADgAAADwAewBbAGEAdQB0AG8AbgBhAG0AZQBdAH0APgAAAAAAAACAP/////8HAAAAAQAAAA4AAAA8AHsAWwBhAHUAdABvAG4AYQBt
        AGUAXQB9AD4AAAAAAAAAgD//////CAAAAAEAAAAIAAAACQAAAFAAcwB5ACAARABlAGwAYQB5AAEAAAAGAAAATwBuAC8ATwBmAGYAAAAAAAAAgD9fAAAAAQAAAAEAAAAE
        AAAAVABpAG0AZQAAAAAAAACAP2EAAAACAAAAAQAAAAgAAABGAGUAZQBkAGIAYQBjAGsAAAAAAAAAgD9kAAAAAwAAAAEAAAAHAAAAUgBlAHYAZQByAHMAZQAAAAAAAACA
        P2IAAAAEAAAAAQAAAAYAAABTAHQAZQByAGUAbwAAAAAAAACAP2cAAAAFAAAAAQAAAAYAAABEAGUAdAB1AG4AZQAAAAAAAACAP2MAAAAGAAAAAQAAAAUAAABQAGkAdABj
        AGgAAAAAAAAAgD9lAAAABwAAAAEAAAAHAAAARAByAHkALwBXAGUAdAAAAAAAAACAP2AAAAAIAAAAAQAAAAgAAAAJAAAAQwBoAHIAIABEAGUAbABhAHkAAQAAAAYAAABP
        AG4ALwBPAGYAZgAAAAAAAACAP28AAAABAAAAAQAAAAQAAABUAGkAbQBlAAAAAAAAAIA/aAAAAAIAAAABAAAABgAAAEwAbwAgAEMAdQB0AAAAAAAAAIA/bQAAAAMAAAAB
        AAAABgAAAEgAaQAgAEMAdQB0AAAAAAAAAIA/bAAAAAQAAAABAAAACAAAAEYAZQBlAGQAYgBhAGMAawAAAAAAAACAP2sAAAAFAAAAAQAAAAgAAABNAG8AZAAgAFIAYQB0
        AGUAAAAAAAAAgD9xAAAABgAAAAEAAAAJAAAATQBvAGQAIABEAGUAcAB0AGgAAAAAAAAAgD9qAAAABwAAAAEAAAAHAAAARAByAHkALwBXAGUAdAAAAAAAAACAP3AAAAAI
        AAAAAQAAAAAAAAABAAAARFNJTnQAAACaBgAAAAAAAAEAAABoc2luAQAAAAAAAABfAjRqxWnsToleTuDmPxvIagYAAAAAAABEU0lOdAAAAAEAAABRBgAAAAAAAERTSU5z
        AAAAAQAAABgAAAAAAAAARFNJTgEAAAABAAAAAQAAAAEAAAABmBAAABgGAAACmBAAYAAAASAFA2hzaW5AB0AAEMi6ABcODQlDrNzYancP+McYQBQgAANEU0lOQCPgBwNA
        AEAbAG0gCAFEECAEIABAI+ADUxB1oWnz+VgsSrdZ344DzJatFKAnwDdAL+AXZ0AjAcwPIFwgAAAFIAMBPg0gBCAACHRzcnBFOE1GzyALA7wjAABAIg5GdWxsIEJsYXN0
        IExlYWRAbRBBbmdyeSBEaXN0b3J0aW9uCyAuBUNob3J1c2AiQEwMUmh5dGhtIEd1aXRhciAeIAAE+EEAAHAgAwAAIAMCgD8A4BAAAkhCAOAQH2A3A0AAAAwgIwAsIANg
        D+ACAGAPIB8AiCAbQABgD+AEAA5SuF4+ZMz9Pv1llz4AABAghwiAP+CcMT8mwlZgCxIAAMBAzcyGwXJokT4M12/BCGbmICcEAADNzMxABwM/mpkZICMAAKADBIA/WxG0
        YBcG2or9PlkgKWAfBm+BND/UCQhAI0AA4AcHAwDKMiQgE0BrwACACwSuR+E9AIAAIMMEAABUUicgJwwAAHL5Hz/KMqQ+OQpP4QA7Ai5ug0B3BwALJBg/exSuIAuAQwr4
        wgQ/QKS/PutROGA7AylcDz9AIwIsQyxAD0ADAwA9m9XAZwYA9igdQjcaQQdAAACAYHcAAGBLAJwhQwDGIAMA4KATAMggC8AAQGtAK8GrQA/gFwAQgD/NzGw/XI9CPhiV
        1D4wKqkgs+ADAEBfQAPAAEBbACAg70AAQAtAAwCgIINAB0AAALQgCwCWIAPgAwDAP0AHQAPAAEAz4ItLADAg30CXQKsAiiDLAEAgA+Af4yAAAANgAAIBAQKAAAMAAAEE
        YAACAgIDIB2AAA42PCgbBQ4MAAAnJCItIi2AFOAFACA4gAAA/oAG4DwAAGQgAeBKAAQBAf8BAUS/4AAAIA7gEABgHOAAKWAAAEAhcgOYQdUJgrIC4/J/YxLgCwACuB4F
        YBsGCtcjvlyPgmALwACgWeAEW+BEWeAEAOA+WUAAIAUAAOACAOA9WQEEACPdDN/MhkLh2l5Et8sCQhIi2eARFAesPZ1BzwDgRUApAxCA30NgKQAAJXgDEELCRoMMAB6A
        FEApAr9WfGApAAsjKeAKKQGeQiK+BIA/+lDOIzsBgD/gBAwjBUBYQANDYQGAP2A/BnzVij6PwnVgAwPMvIwr4BEUAwfwFj/gCCkDhMBqP0A2wANgPuAcKWCbQIZAOuAE
        DCCo4AUACwSS7Xw+kMI1Pw8tUiAyAABgdeARFAZWDg0/Z2Zm4AUpBq5HAT9xPWrgBRTgHCkgmwIAP2YgT0AD4AQMQKhgUEAhQANAECAABGBCt23bIYAB/kLgABADAMDa
        QkAQQD8gAAB84AMMAIgjhOAAGSAqIAygNyAZ4AU3AnBCDSAdYrRACAUDFDsxwQBgAAnIwAAAXMED2YkdoBAFoL/FTmzAoG8FAAB2YqfB4AAMQADgAAwgJgDBoG9AAEBI
        AAzgBSoIAbw0jMJfUczAQCZg6CAoYAPgCBBAVWAZQCHgEQzgFTdA32BAIERAAAIyEgElsqAAAi0BKKAJ4BAAADLgEBngCgABUGTnBHoAUOAKIuAHAOAEXwFQUOAVMgJQ
        ZDjgBC/gHgAAZCAA4B4qAQBHIAPgIwDgIFjgZwAA/+AXACReAwAAEGQiPgFaXSAJAgEAEkAERM9CayXPJ7WgCQAB4AAJAALgAAkAA6AJAgEBBMAJAwAF/gOAMQEABuAA
        CQIH/gWAEwEBCKAnAgAACeAACeAJYyh0g1AgTyCbIAxACSCsgAkCAQUBoGMDAQYA/mATIGMA/+AAYwH/B6ATAQkASLdAOyA6YBMgMqAJIMcBAPugEwAD4AAJAgQA96AT
        AAWgCSDHoAkEAQEHAPlAHSAAAggA/UAJIEUACeAAO+ADYyC14EkAABGgUgNrbmFiQH3AAAGAACAAABmgEQNjdG5pTWYBEScgFCAAAEEgAyAARqIBoELiEw8BdADiATBN
        m+ATK+D9AOCpAAAgIeNAAANzaXVnQiQA6OICpwAVIBgAGSADQshAAyNuYAAHZ3B0Y1lUTUVADAsNYmWFAQAAAAAAAAABAAAAAAEAAAAAAAAA
        ADxkaXNhYmxlZD4AEAAAAA==
      >
      PRESETNAME <disabled>
      FLOATPOS 0 0 0 0
      FXID {EBE1F08E-DADD-4725-B2C9-13E58093C7FC}
      WAK 0 0
    >
    <ITEM
      POSITION 2
      SNAPOFFS 0
      LENGTH 12
      LOOP 1
      ALLTAKES 0
      FADEIN 1 0 0 1 0 0
      FADEOUT 1 0 0 1 0 0
      MUTE 0 0
      SEL 0
      IGUID {DF6EB8A3-F46E-4626-9332-71C7B66C2B7C}
      IID 6
      NAME "Frase melódica - Marty.mid"
      VOLPAN 1 0 1 -1
      SOFFS 0 0
      PLAYRATE 1 1 0 -1 0 0.0025
      CHANMODE 0
      GUID {C32722AA-BB68-4D36-8708-D830C0178714}
      <SOURCE MIDI
        HASDATA 1 960 QN
        CCINTERP 32
        POOLEDEVTS {FF7B33C5-8C88-44BE-A142-7D16DFE810CE}
        <X 0 0 0 0 3 "Frase melódica"
          /wNGcmFzZSBtZWzDs2RpY2E=
        >
        E 0 c5 1e 00
        E 0 b5 40 00
        E 0 b5 0a 40
        E 0 b5 5b 3b
        E 0 95 36 61
        E 0 95 42 61
        E 0 b5 79 00
        E 480 c5 1c 00
        E 0 b5 07 7f
        E 0 b5 0a 40
        E 0 b5 5b 3b
        E 0 85 36 00
        E 0 85 42 00
        E 0 95 36 10
        E 480 c5 1c 00
        E 0 b5 07 7f
        E 0 b5 0a 40
        E 0 b5 5b 3b
        E 0 85 36 00
        E 0 95 36 10
        E 480 c5 1e 00
        E 0 b5 07 7f
        E 0 b5 0a 40
        E 0 b5 5b 3b
        E 0 85 36 00
        E 0 95 36 5b
        E 0 95 42 5b
        E 480 c5 1c 00
        E 0 b5 07 7f
        E 0 b5 0a 40
        E 0 b5 5b 3b
        E 0 85 36 00
        E 0 85 42 00
        E 0 95 36 13
        E 480 c5 1e 00
        E 0 b5 07 7f
        E 0 b5 0a 40
        E 0 b5 5b 3b
        E 0 85 36 00
        E 0 95 39 64
        E 0 95 45 64
        E 480 c5 1c 00
        E 0 b5 07 7f
        E 0 b5 0a 40
        E 0 b5 5b 3b
        E 0 85 39 00
        E 0 85 45 00
        E 0 95 39 16
        E 480 c5 1e 00
        E 0 b5 07 7f
        E 0 b5 0a 40
        E 0 b5 5b 3b
        E 0 85 39 00
        E 0 95 37 5b
        E 0 95 43 5b
        E 1920 c5 1c 00
        E 0 b5 07 7f
        E 0 b5 0a 40
        E 0 b5 5b 3b
        E 0 85 37 00
        E 0 85 43 00
        E 0 95 37 10
        E 480 c5 1e 00
        E 0 b5 07 7f
        E 0 b5 0a 40
        E 0 b5 5b 3b
        E 0 85 37 00
        E 0 95 36 5c
        E 0 95 42 5c
        E 480 c5 1c 00
        E 0 b5 07 7f
        E 0 b5 0a 40
        E 0 b5 5b 3b
        E 0 85 36 00
        E 0 85 42 00
        E 0 95 36 0e
        E 480 c5 1e 00
        E 0 b5 07 7f
        E 0 b5 0a 40
        E 0 b5 5b 3b
        E 0 85 36 00
        E 0 95 34 54
        E 0 95 40 54
        E 480 c5 1c 00
        E 0 b5 07 7f
        E 0 b5 0a 40
        E 0 b5 5b 3b
        E 0 85 34 00
        E 0 85 40 00
        E 0 95 34 0b
        E 480 c5 1e 00
        E 0 b5 07 7f
        E 0 b5 0a 40
        E 0 b5 5b 3b
        E 0 85 34 00
        E 0 95 36 63
        E 0 95 42 63
        E 480 c5 1c 00
        E 0 b5 07 7f
        E 0 b5 0a 40
        E 0 b5 5b 3b
        E 0 85 36 00
        E 0 85 42 00
        E 0 95 36 11
        E 480 c5 1c 00
        E 0 b5 07 7f
        E 0 b5 0a 40
        E 0 b5 5b 3b
        E 0 85 36 00
        E 0 95 36 11
        E 480 c5 1e 00
        E 0 b5 07 7f
        E 0 b5 0a 40
        E 0 b5 5b 3b
        E 0 85 36 00
        E 0 95 36 5d
        E 0 95 42 5d
        E 480 c5 1c 00
        E 0 b5 07 7f
        E 0 b5 0a 40
        E 0 b5 5b 3b
        E 0 85 36 00
        E 0 85 42 00
        E 0 95 36 14
        E 480 c5 1e 00
        E 0 b5 07 7f
        E 0 b5 0a 40
        E 0 b5 5b 3b
        E 0 85 36 00
        E 0 95 34 55
        E 0 95 40 55
        E 480 c5 1c 00
        E 0 b5 07 7f
        E 0 b5 0a 40
        E 0 b5 5b 3b
        E 0 85 34 00
        E 0 85 40 00
        E 0 95 34 0c
        E 480 c5 1e 00
        E 0 b5 07 7f
        E 0 b5 0a 40
        E 0 b5 5b 3b
        E 0 85 34 00
        E 0 95 32 51
        E 0 95 3e 51
        E 3360 85 32 00
        E 0 85 3e 00
        E 0 95 34 5b
        E 0 95 40 5b
        E 960 85 34 00
        E 0 85 40 00
        E 0 95 36 63
        E 0 95 42 63
        E 480 c5 1c 00
        E 0 b5 07 7f
        E 0 b5 0a 40
        E 0 b5 5b 3b
        E 0 85 36 00
        E 0 85 42 00
        E 0 95 36 12
        E 480 c5 1c 00
        E 0 b5 07 7f
        E 0 b5 0a 40
        E 0 b5 5b 3b
        E 0 85 36 00
        E 0 95 36 11
        E 480 c5 1e 00
        E 0 b5 07 7f
        E 0 b5 0a 40
        E 0 b5 5b 3b
        E 0 85 36 00
        E 0 95 36 5d
        E 0 95 42 5d
        E 480 c5 1c 00
        E 0 b5 07 7f
        E 0 b5 0a 40
        E 0 b5 5b 3b
        E 0 85 36 00
        E 0 85 42 00
        E 0 95 36 15
        E 480 c5 1e 00
        E 0 b5 07 7f
        E 0 b5 0a 40
        E 0 b5 5b 3b
        E 0 85 36 00
        E 0 95 39 65
        E 0 95 45 65
        E 480 c5 1c 00
        e 0 b5 07 7f
        e 0 b5 0a 40
        e 0 b5 5b 3b
        E 0 85 39 00
        E 0 85 45 00
        e 0 95 39 14
        E 480 c5 1e 00
        e 0 b5 07 7f
        e 0 b5 0a 40
        e 0 b5 5b 3b
        e 0 85 39 00
        E 0 95 37 5b
        E 0 95 43 5b
        E 1920 c5 1c 00
        E 0 b5 07 7f
        E 0 b5 0a 40
        E 0 b5 5b 3b
        E 0 85 37 00
        E 0 85 43 00
        E 0 95 37 11
        E 480 c5 1e 00
        E 0 b5 07 7f
        E 0 b5 0a 40
        E 0 b5 5b 3b
        E 0 85 37 00
        E 0 95 36 5c
        E 0 95 42 5c
        E 480 c5 1c 00
        E 0 b5 07 7f
        E 0 b5 0a 40
        E 0 b5 5b 3b
        E 0 85 36 00
        E 0 85 42 00
        E 0 95 36 0f
        E 480 c5 1e 00
        E 0 b5 07 7f
        E 0 b5 0a 40
        E 0 b5 5b 3b
        E 0 85 36 00
        E 0 95 34 54
        E 0 95 40 54
        E 480 c5 1c 00
        E 0 b5 07 7f
        E 0 b5 0a 40
        E 0 b5 5b 3b
        E 0 85 34 00
        E 0 85 40 00
        E 0 95 34 10
        E 480 c5 1e 00
        E 0 b5 07 7f
        E 0 b5 0a 40
        E 0 b5 5b 3b
        E 0 85 34 00
        E 0 95 36 63
        E 0 95 42 63
        E 480 c5 1c 00
        E 0 b5 07 7f
        E 0 b5 0a 40
        E 0 b5 5b 3b
        E 0 85 36 00
        E 0 85 42 00
        E 0 95 36 12
        E 480 c5 1c 00
        E 0 b5 07 7f
        E 0 b5 0a 40
        E 0 b5 5b 3b
        E 0 85 36 00
        E 0 95 36 11
        E 480 c5 1e 00
        E 0 b5 07 7f
        E 0 b5 0a 40
        E 0 b5 5b 3b
        E 0 85 36 00
        E 0 95 32 50
        E 0 95 3e 50
        E 2400 85 32 00
        E 0 85 3e 00
        E 0 95 34 60
        E 0 95 40 60
        E 480 c5 1c 00
        E 0 b5 07 7f
        E 0 b5 0a 40
        E 0 b5 5b 3b
        E 0 85 34 00
        E 0 85 40 00
        E 0 95 34 10
        E 480 c5 1c 00
        E 0 b5 07 7f
        E 0 b5 0a 40
        E 0 b5 5b 3b
        E 0 85 34 00
        E 0 95 34 10
        E 480 c5 1e 00
        E 0 b5 07 7f
        E 0 b5 0a 40
        E 0 b5 5b 3b
        E 0 85 34 00
        E 0 95 32 56
        E 0 95 3e 56
        E 1440 85 32 00
        E 0 85 3e 00
        E 0 95 31 57
        E 0 95 3d 57
        E 960 85 31 00
        E 0 85 3d 00
        E 0 b0 7b 00
        CCINTERP 32
        CHASE_CC_TAKEOFFS 1
        GUID {D82E9997-EE1C-4A03-A556-6087A68DD417}
        IGNTEMPO 0 120 4 4
        SRCCOLOR 7
        VELLANE -1 100 0
        CFGEDITVIEW -1782.571315 0.022266 58 12 0 -1 0 0 0 0.5
        KEYSNAP 0
        TRACKSEL 0
        EVTFILTER 0 -1 -1 -1 -1 0 0 0 0 -1 -1 -1 -1 0 -1 0 -1 -1
        CFGEDIT 1 1 0 1 0 0 1 1 1 0 1 0.125 -8 -8 1374 736 0 0 0 0 0 0 0 1 0 0.5 0 0 1 64
      >
    >
    <ITEM
      POSITION 15.5
      SNAPOFFS 0
      LENGTH 12
      LOOP 1
      ALLTAKES 0
      FADEIN 1 0 0 1 0 0
      FADEOUT 1 0 0 1 0 0
      MUTE 0 0
      SEL 0
      IGUID {6882BA2C-0956-4943-93EA-BC1E3847B1E1}
      IID 15
      NAME "Frase melódica - Marty.mid"
      VOLPAN 1 0 1 -1
      SOFFS 12 32
      PLAYRATE 1 1 0 -1 0 0.0025
      CHANMODE 0
      GUID {F02F152B-8AD1-4F6D-9B54-2F63669111BB}
      <SOURCE MIDI
        HASDATA 1 960 QN
        CCINTERP 32
        POOLEDEVTS {B0029F3C-61BA-4D2F-A336-604BB6053EE2}
        <X 0 0 0 0 3 "Frase melódica"
          /wNGcmFzZSBtZWzDs2RpY2E=
        >
        E 0 c5 1e 00
        E 0 b5 40 00
        E 0 b5 0a 40
        E 0 b5 5b 3b
        E 0 95 36 61
        E 0 95 42 61
        E 0 b5 79 00
        E 480 c5 1c 00
        E 0 b5 07 7f
        E 0 b5 0a 40
        E 0 b5 5b 3b
        E 0 85 36 00
        E 0 85 42 00
        E 0 95 36 4c
        E 0 95 42 4c
        E 480 c5 1c 00
        E 0 b5 07 7f
        E 0 b5 0a 40
        E 0 b5 5b 3b
        E 0 85 36 00
        E 0 85 42 00
        E 0 95 36 4c
        E 0 95 42 4c
        E 480 c5 1e 00
        E 0 b5 07 7f
        E 0 b5 0a 40
        E 0 b5 5b 3b
        E 0 85 36 00
        E 0 85 42 00
        E 0 95 36 5b
        E 0 95 42 5b
        E 480 c5 1c 00
        E 0 b5 07 7f
        E 0 b5 0a 40
        E 0 b5 5b 3b
        E 0 85 36 00
        E 0 85 42 00
        E 0 95 36 4f
        E 0 95 42 4f
        E 480 c5 1e 00
        E 0 b5 07 7f
        E 0 b5 0a 40
        E 0 b5 5b 3b
        E 0 85 36 00
        E 0 85 42 00
        E 0 95 39 64
        E 0 95 45 64
        E 480 c5 1c 00
        E 0 b5 07 7f
        E 0 b5 0a 40
        E 0 b5 5b 3b
        E 0 85 39 00
        E 0 85 45 00
        E 0 95 39 52
        E 0 95 45 52
        E 480 c5 1e 00
        E 0 b5 07 7f
        E 0 b5 0a 40
        E 0 b5 5b 3b
        E 0 85 39 00
        E 0 85 45 00
        E 0 95 37 5b
        E 0 95 43 5b
        E 1920 c5 1c 00
        E 0 b5 07 7f
        E 0 b5 0a 40
        E 0 b5 5b 3b
        E 0 85 37 00
        E 0 85 43 00
        E 0 95 37 4c
        E 0 95 43 4c
        E 480 c5 1e 00
        E 0 b5 07 7f
        E 0 b5 0a 40
        E 0 b5 5b 3b
        E 0 85 37 00
        E 0 85 43 00
        E 0 95 36 5c
        E 0 95 42 5c
        E 480 c5 1c 00
        E 0 b5 07 7f
        E 0 b5 0a 40
        E 0 b5 5b 3b
        E 0 85 36 00
        E 0 85 42 00
        E 0 95 36 4a
        E 0 95 42 4a
        E 480 c5 1e 00
        E 0 b5 07 7f
        E 0 b5 0a 40
        E 0 b5 5b 3b
        E 0 85 36 00
        E 0 85 42 00
        E 0 95 34 54
        E 0 95 40 54
        E 480 c5 1c 00
        E 0 b5 07 7f
        E 0 b5 0a 40
        E 0 b5 5b 3b
        E 0 85 34 00
        E 0 85 40 00
        E 0 95 34 47
        E 0 95 40 47
        E 480 c5 1e 00
        E 0 b5 07 7f
        E 0 b5 0a 40
        E 0 b5 5b 3b
        E 0 85 34 00
        E 0 85 40 00
        E 0 95 36 63
        E 0 95 42 63
        E 480 c5 1c 00
        E 0 b5 07 7f
        E 0 b5 0a 40
        E 0 b5 5b 3b
        E 0 85 36 00
        E 0 85 42 00
        E 0 95 36 4d
        E 0 95 42 4d
        E 480 c5 1c 00
        E 0 b5 07 7f
        E 0 b5 0a 40
        E 0 b5 5b 3b
        E 0 85 36 00
        E 0 85 42 00
        E 0 95 36 4d
        E 0 95 42 4d
        E 480 c5 1e 00
        E 0 b5 07 7f
        E 0 b5 0a 40
        E 0 b5 5b 3b
        E 0 85 36 00
        E 0 85 42 00
        E 0 95 36 5d
        E 0 95 42 5d
        E 480 c5 1c 00
        E 0 b5 07 7f
        E 0 b5 0a 40
        E 0 b5 5b 3b
        E 0 85 36 00
        E 0 85 42 00
        E 0 95 36 50
        E 0 95 42 50
        E 480 c5 1e 00
        E 0 b5 07 7f
        E 0 b5 0a 40
        E 0 b5 5b 3b
        E 0 85 36 00
        E 0 85 42 00
        E 0 95 34 55
        E 0 95 40 55
        E 480 c5 1c 00
        E 0 b5 07 7f
        E 0 b5 0a 40
        E 0 b5 5b 3b
        E 0 85 34 00
        E 0 85 40 00
        E 0 95 34 48
        E 0 95 40 48
        E 480 c5 1e 00
        E 0 b5 07 7f
        E 0 b5 0a 40
        E 0 b5 5b 3b
        E 0 85 34 00
        E 0 85 40 00
        E 0 95 32 51
        E 0 95 3e 51
        E 3360 85 32 00
        E 0 85 3e 00
        E 0 95 34 5b
        E 0 95 40 5b
        E 960 85 34 00
        E 0 85 40 00
        E 0 95 36 63
        E 0 95 42 63
        E 480 c5 1c 00
        E 0 b5 07 7f
        E 0 b5 0a 40
        E 0 b5 5b 3b
        E 0 85 36 00
        E 0 85 42 00
        E 0 95 36 4e
        E 0 95 42 4e
        E 480 c5 1c 00
        E 0 b5 07 7f
        E 0 b5 0a 40
        E 0 b5 5b 3b
        E 0 85 36 00
        E 0 85 42 00
        E 0 95 36 4d
        E 0 95 42 4d
        E 480 c5 1e 00
        E 0 b5 07 7f
        E 0 b5 0a 40
        E 0 b5 5b 3b
        E 0 85 36 00
        E 0 85 42 00
        E 0 95 36 5d
        E 0 95 42 5d
        E 480 c5 1c 00
        E 0 b5 07 7f
        E 0 b5 0a 40
        E 0 b5 5b 3b
        E 0 85 36 00
        E 0 85 42 00
        E 0 95 36 50
        E 0 95 42 50
        E 480 c5 1e 00
        E 0 b5 07 7f
        E 0 b5 0a 40
        E 0 b5 5b 3b
        E 0 85 36 00
        E 0 85 42 00
        E 0 95 39 65
        E 0 95 45 65
        E 480 c5 1c 00
        E 0 b5 07 7f
        E 0 b5 0a 40
        E 0 b5 5b 3b
        E 0 85 39 00
        E 0 85 45 00
        E 0 95 39 53
        E 0 95 45 53
        E 480 c5 1e 00
        E 0 b5 07 7f
        E 0 b5 0a 40
        E 0 b5 5b 3b
        E 0 85 39 00
        E 0 85 45 00
        E 0 95 37 5b
        E 0 95 43 5b
        E 1920 c5 1c 00
        E 0 b5 07 7f
        E 0 b5 0a 40
        E 0 b5 5b 3b
        E 0 85 37 00
        E 0 85 43 00
        E 0 95 37 4c
        E 0 95 43 4c
        E 480 c5 1e 00
        E 0 b5 07 7f
        E 0 b5 0a 40
        E 0 b5 5b 3b
        E 0 85 37 00
        E 0 85 43 00
        E 0 95 36 5c
        E 0 95 42 5c
        E 480 c5 1c 00
        E 0 b5 07 7f
        E 0 b5 0a 40
        E 0 b5 5b 3b
        E 0 85 36 00
        E 0 85 42 00
        E 0 95 36 4a
        E 0 95 42 4a
        E 480 c5 1e 00
        E 0 b5 07 7f
        E 0 b5 0a 40
        E 0 b5 5b 3b
        E 0 85 36 00
        E 0 85 42 00
        E 0 95 34 54
        E 0 95 40 54
        E 480 c5 1c 00
        E 0 b5 07 7f
        E 0 b5 0a 40
        E 0 b5 5b 3b
        E 0 85 34 00
        E 0 85 40 00
        E 0 95 34 47
        E 0 95 40 47
        E 480 c5 1e 00
        E 0 b5 07 7f
        E 0 b5 0a 40
        E 0 b5 5b 3b
        E 0 85 34 00
        E 0 85 40 00
        E 0 95 36 63
        E 0 95 42 63
        E 480 c5 1c 00
        E 0 b5 07 7f
        E 0 b5 0a 40
        E 0 b5 5b 3b
        E 0 85 36 00
        E 0 85 42 00
        E 0 95 36 4d
        E 0 95 42 4d
        E 480 c5 1c 00
        E 0 b5 07 7f
        E 0 b5 0a 40
        E 0 b5 5b 3b
        E 0 85 36 00
        E 0 85 42 00
        E 0 95 36 4d
        E 0 95 42 4d
        E 480 c5 1e 00
        E 0 b5 07 7f
        E 0 b5 0a 40
        E 0 b5 5b 3b
        E 0 85 36 00
        E 0 85 42 00
        E 0 95 32 50
        E 0 95 3e 50
        E 2400 85 32 00
        E 0 85 3e 00
        E 0 95 34 60
        E 0 95 40 60
        E 480 c5 1c 00
        E 0 b5 07 7f
        E 0 b5 0a 40
        E 0 b5 5b 3b
        E 0 85 34 00
        E 0 85 40 00
        E 0 95 34 4c
        E 0 95 40 4c
        E 480 c5 1c 00
        E 0 b5 07 7f
        E 0 b5 0a 40
        E 0 b5 5b 3b
        E 0 85 34 00
        E 0 85 40 00
        E 0 95 34 4c
        E 0 95 40 4c
        E 480 c5 1e 00
        E 0 b5 07 7f
        E 0 b5 0a 40
        E 0 b5 5b 3b
        E 0 85 34 00
        E 0 85 40 00
        E 0 95 32 56
        E 0 95 3e 56
        E 1440 85 32 00
        E 0 85 3e 00
        E 0 95 31 57
        E 0 95 3d 57
        E 960 85 31 00
        E 0 85 3d 00
        E 0 95 33 62
        E 0 95 3f 62
        E 480 c5 1c 00
        E 0 b5 07 7f
        E 0 b5 0a 40
        E 0 b5 5b 3b
        E 0 85 33 00
        E 0 85 3f 00
        e 0 95 33 16
        E 480 c5 1c 00
        E 0 b5 07 7f
        E 0 b5 0a 40
        E 0 b5 5b 3b
        e 0 85 33 00
        e 0 95 33 16
        E 480 c5 1e 00
        E 0 b5 07 7f
        E 0 b5 0a 40
        E 0 b5 5b 3b
        e 0 85 33 00
        E 0 95 2f 51
        E 0 95 3b 51
        E 2400 85 2f 00
        E 0 85 3b 00
        E 0 95 30 5f
        E 0 95 3c 5f
        E 480 c5 1c 00
        E 0 b5 07 7f
        E 0 b5 0a 40
        E 0 b5 5b 3b
        E 0 85 30 00
        E 0 85 3c 00
        e 0 95 30 14
        E 480 c5 1c 00
        E 0 b5 07 7f
        E 0 b5 0a 40
        E 0 b5 5b 3b
        e 0 85 30 00
        e 0 95 30 14
        E 480 c5 1e 00
        E 0 b5 07 7f
        E 0 b5 0a 40
        E 0 b5 5b 3b
        e 0 85 30 00
        E 0 95 34 64
        E 0 95 40 64
        E 960 85 34 00
        E 0 85 40 00
        E 0 95 37 67
        E 0 95 43 67
        E 960 85 37 00
        E 0 85 43 00
        E 0 95 35 60
        E 0 95 41 60
        E 960 c5 1c 00
        E 0 b5 07 7f
        E 0 b5 0a 40
        E 0 b5 5b 3b
        E 0 85 35 00
        E 0 85 41 00
        e 0 95 35 17
        E 480 c5 1c 00
        E 0 b5 07 7f
        E 0 b5 0a 40
        E 0 b5 5b 3b
        e 0 85 35 00
        e 0 95 35 17
        E 480 c5 1e 00
        E 0 b5 07 7f
        E 0 b5 0a 40
        E 0 b5 5b 3b
        e 0 85 35 00
        E 0 95 31 52
        E 0 95 3d 52
        E 2400 85 31 00
        E 0 85 3d 00
        e 0 95 32 18
        e 240 85 32 00
        E 240 95 32 5a
        E 0 95 3e 5a
        e 480 95 36 1a
        E 8 85 32 00
        E 0 85 3e 00
        e 217 85 36 00
        E 255 95 36 60
        E 0 95 42 60
        e 480 95 37 1d
        E 8 85 36 00
        E 0 85 42 00
        e 217 85 37 00
        E 255 95 37 60
        E 0 95 43 60
        e 480 95 39 1c
        E 8 85 37 00
        E 0 85 43 00
        e 217 85 39 00
        E 255 95 39 62
        E 0 95 45 62
        E 480 95 37 62
        E 0 95 43 62
        E 8 85 39 00
        E 0 85 45 00
        E 446 85 37 00
        E 0 85 43 00
        E 26 c5 1c 00
        E 0 b5 07 7f
        E 0 b5 0a 40
        E 0 b5 5b 3b
        e 0 95 37 15
        E 480 c5 1c 00
        E 0 b5 07 7f
        E 0 b5 0a 40
        E 0 b5 5b 3b
        e 0 85 37 00
        e 0 95 37 15
        E 480 c5 1e 00
        E 0 b5 07 7f
        E 0 b5 0a 40
        E 0 b5 5b 3b
        e 0 85 37 00
        E 0 95 34 52
        E 480 85 34 00
        E 0 95 36 5d
        E 0 95 42 5d
        E 960 85 36 00
        E 0 85 42 00
        E 0 95 34 54
        E 0 95 40 54
        E 960 85 34 00
        E 0 85 40 00
        E 0 95 32 57
        E 0 95 3e 57
        E 480 85 32 00
        E 0 85 3e 00
        e 0 95 32 0f
        e 480 85 32 00
        e 0 95 32 10
        e 480 85 32 00
        e 0 95 32 11
        e 480 85 32 00
        e 0 95 32 17
        e 480 85 32 00
        e 0 95 32 15
        e 480 85 32 00
        e 0 95 32 16
        e 480 85 32 00
        e 0 95 32 16
        e 480 85 32 00
        E 0 95 34 68
        E 0 95 40 68
        E 960 85 34 00
        E 0 85 40 00
        E 0 95 32 5a
        E 0 95 3e 5a
        E 960 85 32 00
        E 0 85 3e 00
        E 0 95 34 64
        E 0 95 40 64
        E 960 85 34 00
        E 0 85 40 00
        E 0 95 36 63
        E 0 95 42 63
        E 960 85 36 00
        E 0 85 42 00
        E 0 95 37 68
        E 0 95 43 68
        E 480 85 37 00
        E 0 85 43 00
        e 0 95 37 1b
        e 480 85 37 00
        e 0 95 37 1a
        e 480 85 37 00
        e 0 95 37 19
        e 480 85 37 00
        e 0 95 37 1c
        e 480 85 37 00
        e 0 95 37 18
        e 480 85 37 00
        e 0 95 37 18
        e 480 85 37 00
        e 0 95 37 18
        e 480 85 37 00
        E 0 b0 7b 00
        CCINTERP 32
        CHASE_CC_TAKEOFFS 1
        GUID {2A807348-B5C1-48BA-A044-9B1652CA42E4}
        IGNTEMPO 0 120 4 4
        SRCCOLOR 16
        VELLANE -1 100 0
        CFGEDITVIEW 20338.356914 0.026296 58 12 0 -1 0 0 0 0.5
        KEYSNAP 0
        TRACKSEL 0
        EVTFILTER 0 -1 -1 -1 -1 0 0 0 0 -1 -1 -1 -1 0 -1 0 -1 -1
        CFGEDIT 1 1 0 1 0 0 1 1 1 0 1 0.125 8 8 1374 736 0 0 0 0 0 0 0 1 0 0.5 0 0 1 64
      >
    >
    <ITEM
      POSITION 29
      SNAPOFFS 0
      LENGTH 12
      LOOP 1
      ALLTAKES 0
      FADEIN 1 0 0 1 0 0
      FADEOUT 1 0 0 1 0 0
      MUTE 0 0
      SEL 0
      IGUID {63A97D7F-9050-4A21-B673-6F75720E9FBE}
      IID 22
      NAME "Frase melódica - Marty.mid"
      VOLPAN 1 0 1 -1
      SOFFS 24 64
      PLAYRATE 1 1 0 -1 0 0.0025
      CHANMODE 0
      GUID {9503EC8B-2AE8-4861-B63F-0E0E4B849697}
      <SOURCE MIDI
        HASDATA 1 960 QN
        CCINTERP 32
        POOLEDEVTS {598FD792-4794-4203-B6EF-55726D5705A3}
        <X 0 0 0 0 3 "Frase melódica"
          /wNGcmFzZSBtZWzDs2RpY2E=
        >
        E 0 c5 1e 00
        E 0 b5 40 00
        E 0 b5 0a 40
        E 0 b5 5b 3b
        E 0 95 36 61
        E 0 95 42 61
        E 0 b5 79 00
        E 480 c5 1c 00
        E 0 b5 07 7f
        E 0 b5 0a 40
        E 0 b5 5b 3b
        E 0 85 36 00
        E 0 85 42 00
        E 0 95 36 4c
        E 0 95 42 4c
        E 480 c5 1c 00
        E 0 b5 07 7f
        E 0 b5 0a 40
        E 0 b5 5b 3b
        E 0 85 36 00
        E 0 85 42 00
        E 0 95 36 4c
        E 0 95 42 4c
        E 480 c5 1e 00
        E 0 b5 07 7f
        E 0 b5 0a 40
        E 0 b5 5b 3b
        E 0 85 36 00
        E 0 85 42 00
        E 0 95 36 5b
        E 0 95 42 5b
        E 480 c5 1c 00
        E 0 b5 07 7f
        E 0 b5 0a 40
        E 0 b5 5b 3b
        E 0 85 36 00
        E 0 85 42 00
        E 0 95 36 4f
        E 0 95 42 4f
        E 480 c5 1e 00
        E 0 b5 07 7f
        E 0 b5 0a 40
        E 0 b5 5b 3b
        E 0 85 36 00
        E 0 85 42 00
        E 0 95 39 64
        E 0 95 45 64
        E 480 c5 1c 00
        E 0 b5 07 7f
        E 0 b5 0a 40
        E 0 b5 5b 3b
        E 0 85 39 00
        E 0 85 45 00
        E 0 95 39 52
        E 0 95 45 52
        E 480 c5 1e 00
        E 0 b5 07 7f
        E 0 b5 0a 40
        E 0 b5 5b 3b
        E 0 85 39 00
        E 0 85 45 00
        E 0 95 37 5b
        E 0 95 43 5b
        E 1920 c5 1c 00
        E 0 b5 07 7f
        E 0 b5 0a 40
        E 0 b5 5b 3b
        E 0 85 37 00
        E 0 85 43 00
        E 0 95 37 4c
        E 0 95 43 4c
        E 480 c5 1e 00
        E 0 b5 07 7f
        E 0 b5 0a 40
        E 0 b5 5b 3b
        E 0 85 37 00
        E 0 85 43 00
        E 0 95 36 5c
        E 0 95 42 5c
        E 480 c5 1c 00
        E 0 b5 07 7f
        E 0 b5 0a 40
        E 0 b5 5b 3b
        E 0 85 36 00
        E 0 85 42 00
        E 0 95 36 4a
        E 0 95 42 4a
        E 480 c5 1e 00
        E 0 b5 07 7f
        E 0 b5 0a 40
        E 0 b5 5b 3b
        E 0 85 36 00
        E 0 85 42 00
        E 0 95 34 54
        E 0 95 40 54
        E 480 c5 1c 00
        E 0 b5 07 7f
        E 0 b5 0a 40
        E 0 b5 5b 3b
        E 0 85 34 00
        E 0 85 40 00
        E 0 95 34 47
        E 0 95 40 47
        E 480 c5 1e 00
        E 0 b5 07 7f
        E 0 b5 0a 40
        E 0 b5 5b 3b
        E 0 85 34 00
        E 0 85 40 00
        E 0 95 36 63
        E 0 95 42 63
        E 480 c5 1c 00
        E 0 b5 07 7f
        E 0 b5 0a 40
        E 0 b5 5b 3b
        E 0 85 36 00
        E 0 85 42 00
        E 0 95 36 4d
        E 0 95 42 4d
        E 480 c5 1c 00
        E 0 b5 07 7f
        E 0 b5 0a 40
        E 0 b5 5b 3b
        E 0 85 36 00
        E 0 85 42 00
        E 0 95 36 4d
        E 0 95 42 4d
        E 480 c5 1e 00
        E 0 b5 07 7f
        E 0 b5 0a 40
        E 0 b5 5b 3b
        E 0 85 36 00
        E 0 85 42 00
        E 0 95 36 5d
        E 0 95 42 5d
        E 480 c5 1c 00
        E 0 b5 07 7f
        E 0 b5 0a 40
        E 0 b5 5b 3b
        E 0 85 36 00
        E 0 85 42 00
        E 0 95 36 50
        E 0 95 42 50
        E 480 c5 1e 00
        E 0 b5 07 7f
        E 0 b5 0a 40
        E 0 b5 5b 3b
        E 0 85 36 00
        E 0 85 42 00
        E 0 95 34 55
        E 0 95 40 55
        E 480 c5 1c 00
        E 0 b5 07 7f
        E 0 b5 0a 40
        E 0 b5 5b 3b
        E 0 85 34 00
        E 0 85 40 00
        E 0 95 34 48
        E 0 95 40 48
        E 480 c5 1e 00
        E 0 b5 07 7f
        E 0 b5 0a 40
        E 0 b5 5b 3b
        E 0 85 34 00
        E 0 85 40 00
        E 0 95 32 51
        E 0 95 3e 51
        E 3360 85 32 00
        E 0 85 3e 00
        E 0 95 34 5b
        E 0 95 40 5b
        E 960 85 34 00
        E 0 85 40 00
        E 0 95 36 63
        E 0 95 42 63
        E 480 c5 1c 00
        E 0 b5 07 7f
        E 0 b5 0a 40
        E 0 b5 5b 3b
        E 0 85 36 00
        E 0 85 42 00
        E 0 95 36 4e
        E 0 95 42 4e
        E 480 c5 1c 00
        E 0 b5 07 7f
        E 0 b5 0a 40
        E 0 b5 5b 3b
        E 0 85 36 00
        E 0 85 42 00
        E 0 95 36 4d
        E 0 95 42 4d
        E 480 c5 1e 00
        E 0 b5 07 7f
        E 0 b5 0a 40
        E 0 b5 5b 3b
        E 0 85 36 00
        E 0 85 42 00
        E 0 95 36 5d
        E 0 95 42 5d
        E 480 c5 1c 00
        E 0 b5 07 7f
        E 0 b5 0a 40
        E 0 b5 5b 3b
        E 0 85 36 00
        E 0 85 42 00
        E 0 95 36 50
        E 0 95 42 50
        E 480 c5 1e 00
        E 0 b5 07 7f
        E 0 b5 0a 40
        E 0 b5 5b 3b
        E 0 85 36 00
        E 0 85 42 00
        E 0 95 39 65
        E 0 95 45 65
        E 480 c5 1c 00
        E 0 b5 07 7f
        E 0 b5 0a 40
        E 0 b5 5b 3b
        E 0 85 39 00
        E 0 85 45 00
        E 0 95 39 53
        E 0 95 45 53
        E 480 c5 1e 00
        E 0 b5 07 7f
        E 0 b5 0a 40
        E 0 b5 5b 3b
        E 0 85 39 00
        E 0 85 45 00
        E 0 95 37 5b
        E 0 95 43 5b
        E 1920 c5 1c 00
        E 0 b5 07 7f
        E 0 b5 0a 40
        E 0 b5 5b 3b
        E 0 85 37 00
        E 0 85 43 00
        E 0 95 37 4c
        E 0 95 43 4c
        E 480 c5 1e 00
        E 0 b5 07 7f
        E 0 b5 0a 40
        E 0 b5 5b 3b
        E 0 85 37 00
        E 0 85 43 00
        E 0 95 36 5c
        E 0 95 42 5c
        E 480 c5 1c 00
        E 0 b5 07 7f
        E 0 b5 0a 40
        E 0 b5 5b 3b
        E 0 85 36 00
        E 0 85 42 00
        E 0 95 36 4a
        E 0 95 42 4a
        E 480 c5 1e 00
        E 0 b5 07 7f
        E 0 b5 0a 40
        E 0 b5 5b 3b
        E 0 85 36 00
        E 0 85 42 00
        E 0 95 34 54
        E 0 95 40 54
        E 480 c5 1c 00
        E 0 b5 07 7f
        E 0 b5 0a 40
        E 0 b5 5b 3b
        E 0 85 34 00
        E 0 85 40 00
        E 0 95 34 47
        E 0 95 40 47
        E 480 c5 1e 00
        E 0 b5 07 7f
        E 0 b5 0a 40
        E 0 b5 5b 3b
        E 0 85 34 00
        E 0 85 40 00
        E 0 95 36 63
        E 0 95 42 63
        E 480 c5 1c 00
        E 0 b5 07 7f
        E 0 b5 0a 40
        E 0 b5 5b 3b
        E 0 85 36 00
        E 0 85 42 00
        E 0 95 36 4d
        E 0 95 42 4d
        E 480 c5 1c 00
        E 0 b5 07 7f
        E 0 b5 0a 40
        E 0 b5 5b 3b
        E 0 85 36 00
        E 0 85 42 00
        E 0 95 36 4d
        E 0 95 42 4d
        E 480 c5 1e 00
        E 0 b5 07 7f
        E 0 b5 0a 40
        E 0 b5 5b 3b
        E 0 85 36 00
        E 0 85 42 00
        E 0 95 32 50
        E 0 95 3e 50
        E 2400 85 32 00
        E 0 85 3e 00
        E 0 95 34 60
        E 0 95 40 60
        E 480 c5 1c 00
        E 0 b5 07 7f
        E 0 b5 0a 40
        E 0 b5 5b 3b
        E 0 85 34 00
        E 0 85 40 00
        E 0 95 34 4c
        E 0 95 40 4c
        E 480 c5 1c 00
        E 0 b5 07 7f
        E 0 b5 0a 40
        E 0 b5 5b 3b
        E 0 85 34 00
        E 0 85 40 00
        E 0 95 34 4c
        E 0 95 40 4c
        E 480 c5 1e 00
        E 0 b5 07 7f
        E 0 b5 0a 40
        E 0 b5 5b 3b
        E 0 85 34 00
        E 0 85 40 00
        E 0 95 32 56
        E 0 95 3e 56
        E 1440 85 32 00
        E 0 85 3e 00
        E 0 95 31 57
        E 0 95 3d 57
        E 960 85 31 00
        E 0 85 3d 00
        E 0 95 33 62
        E 0 95 3f 62
        E 480 c5 1c 00
        E 0 b5 07 7f
        E 0 b5 0a 40
        E 0 b5 5b 3b
        E 0 85 33 00
        E 0 85 3f 00
        E 0 95 33 4d
        E 0 95 3f 4d
        E 480 c5 1c 00
        E 0 b5 07 7f
        E 0 b5 0a 40
        E 0 b5 5b 3b
        E 0 85 33 00
        E 0 85 3f 00
        E 0 95 33 4d
        E 0 95 3f 4d
        E 480 c5 1e 00
        E 0 b5 07 7f
        E 0 b5 0a 40
        E 0 b5 5b 3b
        E 0 85 33 00
        E 0 85 3f 00
        E 0 95 2f 51
        E 0 95 3b 51
        E 2400 85 2f 00
        E 0 85 3b 00
        E 0 95 30 5f
        E 0 95 3c 5f
        E 480 c5 1c 00
        E 0 b5 07 7f
        E 0 b5 0a 40
        E 0 b5 5b 3b
        E 0 85 30 00
        E 0 85 3c 00
        E 0 95 30 4b
        E 0 95 3c 4b
        E 480 c5 1c 00
        E 0 b5 07 7f
        E 0 b5 0a 40
        E 0 b5 5b 3b
        E 0 85 30 00
        E 0 85 3c 00
        E 0 95 30 4b
        E 0 95 3c 4b
        E 480 c5 1e 00
        E 0 b5 07 7f
        E 0 b5 0a 40
        E 0 b5 5b 3b
        E 0 85 30 00
        E 0 85 3c 00
        E 0 95 34 64
        E 0 95 40 64
        E 960 85 34 00
        E 0 85 40 00
        E 0 95 37 67
        E 0 95 43 67
        E 960 85 37 00
        E 0 85 43 00
        E 0 95 35 60
        E 0 95 41 60
        E 960 c5 1c 00
        E 0 b5 07 7f
        E 0 b5 0a 40
        E 0 b5 5b 3b
        E 0 85 35 00
        E 0 85 41 00
        E 0 95 35 4e
        E 0 95 41 4e
        E 480 c5 1c 00
        E 0 b5 07 7f
        E 0 b5 0a 40
        E 0 b5 5b 3b
        E 0 85 35 00
        E 0 85 41 00
        E 0 95 35 4e
        E 0 95 41 4e
        E 480 c5 1e 00
        E 0 b5 07 7f
        E 0 b5 0a 40
        E 0 b5 5b 3b
        E 0 85 35 00
        E 0 85 41 00
        E 0 95 31 52
        E 0 95 3d 52
        E 2400 85 31 00
        E 0 85 3d 00
        E 0 95 32 4f
        E 0 95 3e 4f
        E 240 85 32 00
        E 0 85 3e 00
        E 240 95 32 5a
        E 0 95 3e 5a
        E 480 95 36 51
        E 0 95 42 51
        E 8 85 32 00
        E 0 85 3e 00
        E 217 85 36 00
        E 0 85 42 00
        E 255 95 36 60
        E 0 95 42 60
        E 480 95 37 54
        E 0 95 43 54
        E 8 85 36 00
        E 0 85 42 00
        E 217 85 37 00
        E 0 85 43 00
        E 255 95 37 60
        E 0 95 43 60
        E 480 95 39 53
        E 0 95 45 53
        E 8 85 37 00
        E 0 85 43 00
        E 217 85 39 00
        E 0 85 45 00
        E 255 95 39 62
        E 0 95 45 62
        E 480 95 37 62
        E 0 95 43 62
        E 8 85 39 00
        E 0 85 45 00
        E 446 85 37 00
        E 0 85 43 00
        E 26 c5 1c 00
        E 0 b5 07 7f
        E 0 b5 0a 40
        E 0 b5 5b 3b
        E 0 95 37 4c
        E 0 95 43 4c
        E 480 c5 1c 00
        E 0 b5 07 7f
        E 0 b5 0a 40
        E 0 b5 5b 3b
        E 0 85 37 00
        E 0 85 43 00
        E 0 95 37 4c
        E 0 95 43 4c
        E 480 c5 1e 00
        E 0 b5 07 7f
        E 0 b5 0a 40
        E 0 b5 5b 3b
        E 0 85 37 00
        E 0 85 43 00
        E 0 95 34 52
        E 0 95 40 52
        E 480 85 34 00
        E 0 85 40 00
        E 0 95 36 5d
        E 0 95 42 5d
        E 960 85 36 00
        E 0 85 42 00
        E 0 95 34 54
        E 0 95 40 54
        E 960 85 34 00
        E 0 85 40 00
        E 0 95 32 57
        E 0 95 3e 57
        E 480 85 32 00
        E 0 85 3e 00
        E 0 95 32 46
        E 0 95 3e 46
        E 480 85 32 00
        E 0 85 3e 00
        E 0 95 32 47
        E 0 95 3e 47
        E 480 85 32 00
        E 0 85 3e 00
        E 0 95 32 48
        E 0 95 3e 48
        E 480 85 32 00
        E 0 85 3e 00
        E 0 95 32 4c
        E 0 95 3e 4c
        E 480 85 32 00
        E 0 85 3e 00
        E 0 95 32 4a
        E 0 95 3e 4a
        E 480 85 32 00
        E 0 85 3e 00
        E 0 95 32 4b
        E 0 95 3e 4b
        E 480 85 32 00
        E 0 85 3e 00
        E 0 95 32 4b
        E 0 95 3e 4b
        E 480 85 32 00
        E 0 85 3e 00
        E 0 95 34 68
        E 0 95 40 68
        E 960 85 34 00
        E 0 85 40 00
        E 0 95 32 5a
        E 0 95 3e 5a
        E 960 85 32 00
        E 0 85 3e 00
        E 0 95 34 64
        E 0 95 40 64
        E 960 85 34 00
        E 0 85 40 00
        E 0 95 36 63
        E 0 95 42 63
        E 960 85 36 00
        E 0 85 42 00
        E 0 95 37 68
        E 0 95 43 68
        E 480 85 37 00
        E 0 85 43 00
        E 0 95 37 50
        E 0 95 43 50
        E 480 85 37 00
        E 0 85 43 00
        E 0 95 37 4f
        E 0 95 43 4f
        E 480 85 37 00
        E 0 85 43 00
        E 0 95 37 4e
        E 0 95 43 4e
        E 480 85 37 00
        E 0 85 43 00
        E 0 95 37 51
        E 0 95 43 51
        E 480 85 37 00
        E 0 85 43 00
        E 0 95 37 4d
        E 0 95 43 4d
        E 480 85 37 00
        E 0 85 43 00
        E 0 95 37 4d
        E 0 95 43 4d
        E 480 85 37 00
        E 0 85 43 00
        E 0 95 37 4d
        E 0 95 43 4d
        E 480 b5 65 00
        E 0 b5 64 00
        E 0 b5 06 07
        E 0 b5 26 00
        E 0 e5 00 40
        E 0 85 37 00
        E 0 85 43 00
        E 0 95 39 69
        E 0 95 45 69
        E 480 e5 00 40
        E 15 e5 78 3d
        E 15 e5 70 3b
        E 15 e5 68 39
        E 15 e5 5f 37
        E 15 e5 57 35
        E 15 e5 4f 33
        E 15 e5 47 31
        E 15 e5 3e 2f
        E 15 e5 36 2d
        E 15 e5 2e 2b
        E 15 e5 26 29
        E 15 e5 1d 27
        E 15 e5 15 25
        E 15 e5 0d 23
        E 15 e5 05 21
        E 15 e5 7c 1e
        E 15 e5 74 1c
        E 15 e5 6c 1a
        E 15 e5 64 18
        E 15 e5 5b 16
        E 15 e5 53 14
        E 15 e5 4b 12
        E 15 e5 43 10
        E 15 e5 3a 0e
        E 15 e5 32 0c
        E 15 e5 2a 0a
        E 15 e5 22 08
        E 15 e5 19 06
        E 15 e5 11 04
        E 15 e5 09 02
        E 15 e5 01 00
        E 491 e5 00 40
        E 4 85 39 00
        E 0 85 45 00
        E 0 95 32 50
        E 0 95 3e 50
        E 2400 b5 65 00
        E 0 b5 64 00
        E 0 b5 06 08
        E 0 b5 26 00
        E 0 e5 00 40
        E 0 85 32 00
        E 0 85 3e 00
        E 0 95 32 5d
        E 0 95 3e 5d
        E 480 e5 00 40
        E 15 e5 08 42
        E 15 e5 10 44
        E 15 e5 18 46
        E 15 e5 21 48
        E 15 e5 29 4a
        E 15 e5 31 4c
        E 15 e5 39 4e
        E 15 e5 42 50
        E 15 e5 4a 52
        E 15 e5 52 54
        E 15 e5 5a 56
        E 15 e5 63 58
        E 15 e5 6b 5a
        E 15 e5 73 5c
        E 15 e5 7b 5e
        E 15 e5 04 61
        E 15 e5 0c 63
        E 15 e5 14 65
        E 15 e5 1c 67
        E 15 e5 25 69
        E 15 e5 2d 6b
        E 15 e5 35 6d
        E 15 e5 3d 6f
        E 15 e5 46 71
        E 15 e5 4e 73
        E 15 e5 56 75
        E 15 e5 5e 77
        E 15 e5 67 79
        E 15 e5 6f 7b
        E 15 e5 77 7d
        E 15 e5 7f 7f
        E 491 e5 00 40
        E 4 85 32 00
        E 0 85 3e 00
        E 0 95 3a 62
        E 0 95 46 62
        E 2400 b5 65 00
        E 0 b5 64 00
        E 0 b5 06 09
        E 0 b5 26 00
        E 0 e5 00 40
        E 0 85 3a 00
        E 0 85 46 00
        E 0 95 3b 64
        E 0 95 47 64
        E 480 e5 00 40
        E 15 e5 78 3d
        E 15 e5 70 3b
        E 15 e5 68 39
        E 15 e5 5f 37
        E 15 e5 57 35
        E 15 e5 4f 33
        E 15 e5 47 31
        E 15 e5 3e 2f
        E 15 e5 36 2d
        E 15 e5 2e 2b
        E 15 e5 26 29
        E 15 e5 1d 27
        E 15 e5 15 25
        E 15 e5 0d 23
        E 15 e5 05 21
        E 15 e5 7c 1e
        E 15 e5 74 1c
        E 15 e5 6c 1a
        E 15 e5 64 18
        E 15 e5 5b 16
        E 15 e5 53 14
        E 15 e5 4b 12
        E 15 e5 43 10
        E 15 e5 3a 0e
        E 15 e5 32 0c
        E 15 e5 2a 0a
        E 15 e5 22 08
        E 15 e5 19 06
        E 15 e5 11 04
        E 15 e5 09 02
        E 15 e5 01 00
        E 491 e5 00 40
        E 4 85 3b 00
        E 0 85 47 00
        E 0 95 32 55
        E 0 95 3e 55
        E 2400 b5 65 00
        E 0 b5 64 00
        E 0 b5 06 0a
        E 0 b5 26 00
        E 0 e5 00 40
        E 0 85 32 00
        E 0 85 3e 00
        E 0 95 32 5f
        E 0 95 3e 5f
        E 480 e5 00 40
        E 15 e5 08 42
        E 15 e5 10 44
        E 15 e5 18 46
        E 15 e5 21 48
        E 15 e5 29 4a
        E 15 e5 31 4c
        E 15 e5 39 4e
        E 15 e5 42 50
        E 15 e5 4a 52
        E 15 e5 52 54
        E 15 e5 5a 56
        E 15 e5 63 58
        E 15 e5 6b 5a
        E 15 e5 73 5c
        E 15 e5 7b 5e
        E 15 e5 04 61
        E 15 e5 0c 63
        E 15 e5 14 65
        E 15 e5 1c 67
        E 15 e5 25 69
        E 15 e5 2d 6b
        E 15 e5 35 6d
        E 15 e5 3d 6f
        E 15 e5 46 71
        E 15 e5 4e 73
        E 15 e5 56 75
        E 15 e5 5e 77
        E 15 e5 67 79
        E 15 e5 6f 7b
        E 15 e5 77 7d
        E 15 e5 7f 7f
        E 491 e5 00 40
        E 4 85 32 00
        E 0 85 3e 00
        E 0 95 3c 63
        E 0 95 48 63
        E 2400 b5 65 00
        E 0 b5 64 00
        E 0 b5 06 09
        E 0 b5 26 00
        E 0 e5 00 40
        E 0 85 3c 00
        E 0 85 48 00
        E 0 95 3b 63
        E 0 95 47 63
        E 480 e5 00 40
        E 15 e5 78 3d
        E 15 e5 70 3b
        E 15 e5 68 39
        E 15 e5 5f 37
        E 15 e5 57 35
        E 15 e5 4f 33
        E 15 e5 47 31
        E 15 e5 3e 2f
        E 15 e5 36 2d
        E 15 e5 2e 2b
        E 15 e5 26 29
        E 15 e5 1d 27
        E 15 e5 15 25
        E 15 e5 0d 23
        E 15 e5 05 21
        E 15 e5 7c 1e
        E 15 e5 74 1c
        E 15 e5 6c 1a
        E 15 e5 64 18
        E 15 e5 5b 16
        E 15 e5 53 14
        E 15 e5 4b 12
        E 15 e5 43 10
        E 15 e5 3a 0e
        E 15 e5 32 0c
        E 15 e5 2a 0a
        E 15 e5 22 08
        E 15 e5 19 06
        E 15 e5 11 04
        E 15 e5 09 02
        E 15 e5 01 00
        E 491 e5 00 40
        E 4 85 3b 00
        E 0 85 47 00
        E 0 95 32 54
        E 0 95 3e 54
        E 2400 b5 65 00
        E 0 b5 64 00
        E 0 b5 06 08
        E 0 b5 26 00
        E 0 e5 00 40
        E 0 85 32 00
        E 0 85 3e 00
        E 0 95 3a 64
        E 0 95 46 64
        E 480 e5 00 40
        E 15 e5 78 3d
        E 15 e5 70 3b
        E 15 e5 68 39
        E 15 e5 5f 37
        E 15 e5 57 35
        E 15 e5 4f 33
        E 15 e5 47 31
        E 15 e5 3e 2f
        E 15 e5 36 2d
        E 15 e5 2e 2b
        E 15 e5 26 29
        E 15 e5 1d 27
        E 15 e5 15 25
        E 15 e5 0d 23
        E 15 e5 05 21
        E 15 e5 7c 1e
        E 15 e5 74 1c
        E 15 e5 6c 1a
        E 15 e5 64 18
        E 15 e5 5b 16
        E 15 e5 53 14
        E 15 e5 4b 12
        E 15 e5 43 10
        E 15 e5 3a 0e
        E 15 e5 32 0c
        E 15 e5 2a 0a
        E 15 e5 22 08
        E 15 e5 19 06
        E 15 e5 11 04
        E 15 e5 09 02
        E 15 e5 01 00
        E 491 e5 00 40
        E 4 85 3a 00
        E 0 85 46 00
        E 0 95 32 56
        E 0 95 3e 56
        E 2400 b5 65 00
        E 0 b5 64 00
        E 0 b5 06 07
        E 0 b5 26 00
        E 0 e5 00 40
        E 0 85 32 00
        E 0 85 3e 00
        E 0 95 39 64
        E 0 95 45 64
        E 480 e5 00 40
        E 15 e5 78 3d
        E 15 e5 70 3b
        E 15 e5 68 39
        E 15 e5 5f 37
        E 15 e5 57 35
        E 15 e5 4f 33
        E 15 e5 47 31
        E 15 e5 3e 2f
        E 15 e5 36 2d
        E 15 e5 2e 2b
        E 15 e5 26 29
        E 15 e5 1d 27
        E 15 e5 15 25
        E 15 e5 0d 23
        E 15 e5 05 21
        E 15 e5 7c 1e
        E 15 e5 74 1c
        E 15 e5 6c 1a
        E 15 e5 64 18
        E 15 e5 5b 16
        E 15 e5 53 14
        E 15 e5 4b 12
        E 15 e5 43 10
        E 15 e5 3a 0e
        E 15 e5 32 0c
        E 15 e5 2a 0a
        E 15 e5 22 08
        E 15 e5 19 06
        E 15 e5 11 04
        E 15 e5 09 02
        E 15 e5 01 00
        E 491 e5 00 40
        E 4 85 39 00
        E 0 85 45 00
        E 0 95 32 57
        E 0 95 3e 57
        E 2400 85 32 00
        E 0 85 3e 00
        E 0 95 33 60
        E 0 95 3f 60
        E 480 85 33 00
        E 0 85 3f 00
        e 0 95 33 14
        e 480 85 33 00
        e 0 95 33 14
        e 480 85 33 00
        e 0 95 33 14
        e 480 85 33 00
        E 0 95 35 64
        E 0 95 41 64
        E 480 85 35 00
        E 0 85 41 00
        e 0 95 35 18
        e 480 85 35 00
        e 0 95 35 17
        e 480 85 35 00
        e 0 95 35 17
        e 479 85 35 00
        E 1 b0 7b 00
        CCINTERP 32
        CHASE_CC_TAKEOFFS 1
        GUID {69367451-D7FD-48C1-8755-0E81B6F1DCD3}
        IGNTEMPO 0 120 4 4
        SRCCOLOR 23
        VELLANE -1 100 0
        CFGEDITVIEW 55342.202429 0.031092 55 12 0 -1 0 0 0 0.5
        KEYSNAP 0
        TRACKSEL 0
        EVTFILTER 0 -1 -1 -1 -1 0 0 0 0 -1 -1 -1 -1 0 -1 0 -1 -1
        CFGEDIT 1 1 0 1 0 0 1 1 1 0 1 0.125 8 8 1374 736 0 0 0 0 0 0 0 1 0 0.5 0 0 1 64
      >
    >
  >
  <TRACK {028CD02F-0350-47C6-999D-A905E42D7371}
    NAME "Acompañamiento arpegiado"
    PEAKCOL 16576
    BEAT -1
    AUTOMODE 0
    VOLPAN 1 0 -1 -1 1
    MUTESOLO 0 0 0
    IPHASE 0
    PLAYOFFS 0 1
    ISBUS 0 0
    BUSCOMP 0 0 0 0 0
    SHOWINMIX 1 0.6667 0.5 1 0.5 -1 -1 -1
    FREEMODE 0
    SEL 1
    REC 0 0 1 0 0 0 0
    VU 2
    TRACKHEIGHT 0 0 0 0 -1 0
    INQ 0 0 0 0.5 100 0 0 100
    NCHAN 2
    FX 1
    TRACKID {028CD02F-0350-47C6-999D-A905E42D7371}
    PERF 0
    MIDIOUT -1
    MAINSEND 1 0
    <FXCHAIN
      WNDRECT 24 52 506 258
      SHOW 0
      LASTSEL 0
      DOCKED 0
      BYPASS 0 0 0
      <VST "VSTi: FM8 (Native Instruments GmbH)" FM8.dll 0 "" 1315530296<5653544E696638666D38202878383629> ""
        OGZpTu5e7f4AAAAAAgAAAAEAAAAAAAAAAgAAAAAAAABxIgAAAQAAAAAAEAA=
        cSIAAAAAAAABAAAAaHNpbgEAAAAAAAAAtobcUMQp00ys2xunT/VcXpYAAAAAAAAARFNJTnYAAAABAAAASAAAAAAAAABEU0lOagAAAAEAAAAYAAAAAAAAAERTSU4BAAAA
        AQAAAAEAAAABAAAAAQAAAAEAAAAAAAAAAAAAAAAAAAANYmWFAQAAAANwEAAAAAAAAQAAAAEAAAAAAAAAAAAAAAAAAAADAAAAMAAwADAAAAAAAAAAAAAAAAAAAAAAAAEA
        AAABAAAAAAAAAERTSU5lAAAAnyEAAAAAAAABAAAAaHNpbgEAAAAAAAAAk2LmMfvQG0yafYDm9m9BlW0AAAAAAAAARFNJTmUAAAABAAAANAAAAAAAAABEU0lOagAAAAEA
        AAAYAAAAAAAAAERTSU4BAAAAAQAAAAEAAAABAAAAAgAAAAEAAAAACAAAAAEAAAAKAAAAMQAuADIALgAwAC4AMQAwADEAMAABAAAAAwAAAAAAAABEU0lObAAAADQDAAAA
        AAAAAQAAAGhzaW4BAAAAAAAAAEPySaikdwBNqY3YM9NCgmIEAwAAAAAAAERTSU5sAAAAAQAAABgAAAAAAAAARFNJTgEAAAABAAAAAQAAAAEAAAACAAAAAQAAAAAAAAAO
        AAAAQwByAHUAbgBjAGgAIABDAHIAdQBzAGgAZQByAAwAAABBAG4AZAByAGUAIABFAHQAdABlAG0AYQASAAAATgBhAHQAaQB2AGUAIABJAG4AcwB0AHIAdQBtAGUAbgB0
        AHMAQAAAAFUAcwBlACAATQBvAHIAcABoACAAUwBxAHUAYQByAGUAIAB0AG8AIABnAGUAdAAgAHQAaABlACAAcwBvAHUAbgBkACAAbwBmACAAZABpAGYAZgBlAHIAZQBu
        AHQAIABhAG0AcAAgAHMAaQBtAHUAbABhAHQAaQBvAG4AcwAuACAAAAAAAP////8AAAAAAAAAAAAAAAAAAAAAAAAAAAEAAAABAAAAAgAAAAMAAABGAE0AOAALAAAARgBN
        ADgAIABGAGEAYwB0AG8AcgB5AAcAAAALAAAAQQByAHAAZQBnAGcAaQBhAHQAZQBkABIAAABEAGkAcwB0AG8AcgB0AGUAZAAgAEUALQBHAHUAaQB0AGEAcgAGAAAARwB1
        AGkAdABhAHIACQAAAFAAcgBvAGMAZQBzAHMAZQBkAA0AAABTAGUAcQB1AGUAbgBjAGUALwBMAG8AbwBwAAkAAABTAHkAbgB0AGgAZQB0AGkAYwAMAAAAVABlAG0AcABv
        AC0AcwB5AG4AYwBlAGQAAAAAAAcAAAAHAAAAXABAAGMAbwBsAG8AcgABAAAAMAARAAAAXABAAGQAZQB2AGkAYwBlAHQAeQBwAGUAZgBsAGEAZwBzAAEAAAAxAAsAAABc
        AEAAcwBvAHUAbgBkAHQAeQBwAGUAAQAAADAABwAAAFwAQAB0AGUAbQBwAG8AAQAAADAABgAAAFwAQAB2AGUAcgBsAAUAAAAxAC4ANwAuADMABgAAAFwAQAB2AGUAcgBt
        AAUAAAAxAC4ANwAuADMABwAAAFwAQAB2AGkAcwBpAGIAAQAAADAAAQAAAAAAAAACAAAARFNJTnkAAAAQFwAAAAAAAAEAAABoc2luAQAAAAAAAADhv9+3I90KSKBFccCi
        AbOy4BYAAAAAAABEU0lOeQAAAAEAAAAYAAAAAAAAAERTSU4BAAAAAQAAAAEAAAABAAAAAQAAABkAAAABAAAABgAAAAYAAABUAGkAbQBiAHIAZQABAAAACAAAAEgAYQBy
        AG0AbwBuAGkAYwAAAAAAAACAPwIAAAABAAAAAQAAAAYAAABEAGUAdAB1AG4AZQAAAAAAAACAPwMAAAACAAAAAQAAAAoAAABCAHIAaQBnAGgAdABuAGUAcwBzAAAAAAAA
        AIA/AQAAAAMAAAABAAAABwAAAEUAbgB2ACAAQQBtAHQAAAAAAAAAgD8EAAAABAAAAAEAAAAIAAAAVgBlAGwAbwBjAGkAdAB5AAAAAAAAAIA/BQAAAAUAAAABAAAADgAA
        ADwAewBbAGEAdQB0AG8AbgBhAG0AZQBdAH0APgAAAAAAAACAP/////8GAAAAAQAAAAIAAAACAAAARgBYAAEAAAAGAAAAQQBtAG8AdQBuAHQAAAAAAAAAgD8aAAAAAQAA
        AAEAAAAOAAAAPAB7AFsAYQB1AHQAbwBuAGEAbQBlAF0AfQA+AAAAAAAAAIA//////wIAAAABAAAABAAAAAgAAABUAGkAbQBiACAARQBuAHYAAQAAAAYAAABBAHQAdABh
        AGMAawAAAAAAAACAPwYAAAABAAAAAQAAAAUAAABEAGUAYwBhAHkAAAAAAAAAgD8HAAAAAgAAAAEAAAAHAAAAUwB1AHMAdABhAGkAbgAAAAAAAACAPwgAAAADAAAAAQAA
        AAcAAABSAGUAbABlAGEAcwBlAAAAAAAAAIA/CQAAAAQAAAABAAAABAAAAAcAAABBAG0AcAAgAEUAbgB2AAEAAAAHAAAAQQB0AHQAYQBjAGsAIAAAAAAAAACAPxEAAAAB
        AAAAAQAAAAUAAABEAGUAYwBhAHkAAAAAAAAAgD8SAAAAAgAAAAEAAAAHAAAAUwB1AHMAdABhAGkAbgAAAAAAAACAPxMAAAADAAAAAQAAAAcAAABSAGUAbABlAGEAcwBl
        AAAAAAAAAIA/FAAAAAQAAAABAAAABAAAAAYAAABPAHUAdABwAHUAdAABAAAABgAAAFYAbwBsAHUAbQBlAAAAAAAAAIA/DgAAAAEAAAABAAAACAAAAFYAZQBsAG8AYwBp
        AHQAeQAAAAAAAACAPxAAAAACAAAAAQAAAAkAAABTAHQAcgAgAFcAaQBkAHQAaAAAAAAAAACAPw8AAAADAAAAAQAAAA4AAAA8AHsAWwBhAHUAdABvAG4AYQBtAGUAXQB9
        AD4AAAAAAAAAgD//////BAAAAAEAAAAEAAAAAwAAAEwARgBPAAEAAAAEAAAAUgBhAHQAZQAAAAAAAACAPwoAAAABAAAAAQAAAAcAAABWAGkAYgByAGEAdABvAAAAAAAA
        AIA/CwAAAAIAAAABAAAABgAAAFQAaQBtAGIAcgBlAAAAAAAAAIA/DAAAAAMAAAABAAAABwAAAFQAcgBlAG0AbwBsAG8AAAAAAAAAgD8NAAAABAAAAAEAAAAEAAAAAwAA
        AEEAcgBwAAEAAAAGAAAATwBuAC8ATwBmAGYAAAAAAAAAgD+IAAAAAQAAAAEAAAAEAAAAUwB0AGUAcAAAAAAAAACAP5UAAAACAAAAAQAAAAQAAABHAGEAdABlAAAAAAAA
        AIA/iQAAAAMAAAABAAAABwAAAFMAaAB1AGYAZgBsAGUAAAAAAAAAgD+NAAAABAAAAAEAAAAEAAAABQAAAE0AbwByAHAAaAABAAAAAQAAAFgAAAAAAAAAgD8VAAAAAQAA
        AAEAAAABAAAAWQAAAAAAAACAPxYAAAACAAAAAQAAAAUAAABSAG4AZAAgAFgAAAAAAAAAgD8XAAAAAwAAAAEAAAAFAAAAUgBuAGQAIABZAAAAAAAAAIA/GAAAAAQAAAAB
        AAAAAgAAAAYAAABNAGEAcwB0AGUAcgABAAAABgAAAE8AdQB0AHAAdQB0AAAAAAAAAIA/dAAAAAEAAAABAAAABQAAAEkAbgBwAHUAdAAAAAAAAACAP3UAAAACAAAAAQAA
        AAIAAAAFAAAAUABpAHQAYwBoAAEAAAAEAAAAVAB1AG4AZQAAAAAAAACAP3YAAAABAAAAAQAAAAkAAABUAHIAYQBuAHMAcABvAHMAZQAAAAAAAACAP3cAAAACAAAAAQAA
        AAEAAAAGAAAAVQBuAGkAcwBvAG4AAQAAAAYAAABEAGUAdAB1AG4AZQAAAAAAAACAP3kAAAABAAAAAQAAAAEAAAAFAAAARwBsAGkAZABlAAEAAAAEAAAAVABpAG0AZQAA
        AAAAAACAP38AAAABAAAAAQAAAAIAAAAHAAAAUQB1AGEAbABpAHQAeQABAAAABgAAAEEAbgBhAGwAbwBnAAAAAAAAAIA/gAAAAAEAAAABAAAABwAAAEQAaQBnAGkAdABh
        AGwAAAAAAAAAgD+EAAAAAgAAAAEAAAAIAAAABQAAAEQAcgBpAHYAZQABAAAABgAAAE8AbgAvAE8AZgBmAAAAAAAAAIA/HgAAAAEAAAABAAAABQAAAEQAcgBpAHYAZQAA
        AAAAAACAPx8AAAACAAAAAQAAAAQAAABUAG8AbgBlAAAAAAAAAIA/IAAAAAMAAAABAAAABAAAAEIAYQBzAHMAAAAAAAAAgD8hAAAABAAAAAEAAAAHAAAAVgBvAGwAdQBt
        AGUAIAAAAAAAAACAPyIAAAAFAAAAAQAAAA4AAAA8AHsAWwBhAHUAdABvAG4AYQBtAGUAXQB9AD4AAAAAAAAAgD//////BgAAAAEAAAAOAAAAPAB7AFsAYQB1AHQAbwBu
        AGEAbQBlAF0AfQA+AAAAAAAAAIA//////wcAAAABAAAADgAAADwAewBbAGEAdQB0AG8AbgBhAG0AZQBdAH0APgAAAAAAAACAP/////8IAAAAAQAAAAgAAAAEAAAAVAB1
        AGIAZQABAAAABgAAAE8AbgAvAE8AZgBmAAAAAAAAAIA/IwAAAAEAAAABAAAABgAAAFYAbwBsAHUAbQBlAAAAAAAAAIA/JQAAAAIAAAABAAAABQAAAEQAcgBpAHYAZQAA
        AAAAAACAPyQAAAADAAAAAQAAAA4AAAA8AHsAWwBhAHUAdABvAG4AYQBtAGUAXQB9AD4AAAAAAAAAgD//////BAAAAAEAAAAOAAAAPAB7AFsAYQB1AHQAbwBuAGEAbQBl
        AF0AfQA+AAAAAAAAAIA//////wUAAAABAAAADgAAADwAewBbAGEAdQB0AG8AbgBhAG0AZQBdAH0APgAAAAAAAACAP/////8GAAAAAQAAAA4AAAA8AHsAWwBhAHUAdABv
        AG4AYQBtAGUAXQB9AD4AAAAAAAAAgD//////BwAAAAEAAAAOAAAAPAB7AFsAYQB1AHQAbwBuAGEAbQBlAF0AfQA+AAAAAAAAAIA//////wgAAAABAAAACAAAAAcAAABD
        AGEAYgBpAG4AZQB0AAEAAAAGAAAATwBuAC8ATwBmAGYAAAAAAAAAgD8mAAAAAQAAAAEAAAAEAAAAVAB5AHAAZQAAAAAAAACAPycAAAACAAAAAQAAAAQAAABTAGkAegBl
        AAAAAAAAAIA/KAAAAAMAAAABAAAAAwAAAEEAaQByAAAAAAAAAIA/KQAAAAQAAAABAAAABAAAAEIAYQBzAHMAAAAAAAAAgD8qAAAABQAAAAEAAAAGAAAAVAByAGUAYgBs
        AGUAAAAAAAAAgD8rAAAABgAAAAEAAAAOAAAAPAB7AFsAYQB1AHQAbwBuAGEAbQBlAF0AfQA+AAAAAAAAAIA//////wcAAAABAAAADgAAADwAewBbAGEAdQB0AG8AbgBh
        AG0AZQBdAH0APgAAAAAAAACAP/////8IAAAAAQAAAAgAAAAIAAAAUwBoAGUAbABmACAARQBRAAEAAAAGAAAATwBuAC8ATwBmAGYAAAAAAAAAgD8sAAAAAQAAAAEAAAAE
        AAAATABQACAAWAAAAAAAAACAPy0AAAACAAAAAQAAAAQAAABMAFAAIABZAAAAAAAAAIA/LgAAAAMAAAABAAAABAAAAEgAUAAgAFgAAAAAAAAAgD8vAAAABAAAAAEAAAAE
        AAAASABQACAAWAAAAAAAAACAPzAAAAAFAAAAAQAAAAYAAABWAG8AbAB1AG0AZQAAAAAAAACAPzEAAAAGAAAAAQAAAA4AAAA8AHsAWwBhAHUAdABvAG4AYQBtAGUAXQB9
        AD4AAAAAAAAAgD//////BwAAAAEAAAAOAAAAPAB7AFsAYQB1AHQAbwBuAGEAbQBlAF0AfQA+AAAAAAAAAIA//////wgAAAABAAAACAAAAAcAAABQAGUAYQBrACAARQBR
        AAEAAAAGAAAATwBuAC8ATwBmAGYAAAAAAAAAgD8yAAAAAQAAAAEAAAAIAAAAUABlAGEAawAgADEAIABYAAAAAAAAAIA/MwAAAAIAAAABAAAACAAAAFAAZQBhAGsAIAAx
        ACAAWQAAAAAAAACAPzQAAAADAAAAAQAAAAgAAABQAGUAYQBrACAAMgAgAFgAAAAAAAAAgD82AAAABAAAAAEAAAAJAAAAUABlAGEAawAgADIAIABZACAAAAAAAAAAgD83
        AAAABQAAAAEAAAACAAAAUQAxAAAAAAAAAIA/NQAAAAYAAAABAAAAAgAAAFEAMgAAAAAAAACAPzgAAAAHAAAAAQAAAAYAAABWAG8AbAB1AG0AZQAAAAAAAACAPzkAAAAI
        AAAAAQAAAAgAAAAIAAAAVABhAGwAawAgAFcAYQBoAAEAAAAGAAAATwBuAC8ATwBmAGYAAAAAAAAAgD86AAAAAQAAAAEAAAAFAAAATQBvAHUAdABoAAAAAAAAAIA/OwAA
        AAIAAAABAAAACAAAAE0AbwBkAHcAaABlAGUAbAAAAAAAAACAPzwAAAADAAAAAQAAAAQAAABTAGkAegBlAAAAAAAAAIA/PQAAAAQAAAABAAAABgAAAEIAcgBpAGcAaAB0
        AAAAAAAAAIA/PgAAAAUAAAABAAAADgAAADwAewBbAGEAdQB0AG8AbgBhAG0AZQBdAH0APgAAAAAAAACAP/////8GAAAAAQAAAA4AAAA8AHsAWwBhAHUAdABvAG4AYQBt
        AGUAXQB9AD4AAAAAAAAAgD//////BwAAAAEAAAAOAAAAPAB7AFsAYQB1AHQAbwBuAGEAbQBlAF0AfQA+AAAAAAAAAIA//////wgAAAABAAAACAAAAAYAAABQAGgAYQBz
        AGUAcgABAAAABgAAAE8AbgAvAE8AZgBmAAAAAAAAAIA/PwAAAAEAAAABAAAABAAAAFIAYQB0AGUAAAAAAAAAgD9AAAAAAgAAAAEAAAAHAAAATgBvAHQAYwBoAGUAcwAA
        AAAAAACAP0gAAAADAAAAAQAAAAUAAABDAG8AbABvAHIAAAAAAAAAgD9BAAAABAAAAAEAAAAJAAAAUwB3AGUAZQBwACAATQBpAG4AAAAAAAAAgD9DAAAABQAAAAEAAAAJ
        AAAAUwB3AGUAZQBwACAATQBhAHgAAAAAAAAAgD9EAAAABgAAAAEAAAAGAAAAUgBvAHQAYQB0AGUAAAAAAAAAgD9CAAAABwAAAAEAAAAHAAAARAByAHkALwBXAGUAdAAA
        AAAAAACAP0YAAAAIAAAAAQAAAAgAAAAHAAAARgBsAGEAbgBnAGUAcgABAAAABgAAAE8AbgAvAE8AZgBmAAAAAAAAAIA/SQAAAAEAAAABAAAABAAAAFIAYQB0AGUAAAAA
        AAAAgD9KAAAAAgAAAAEAAAAEAAAAUwB5AG4AYwAAAAAAAACAP08AAAADAAAAAQAAAAYAAABTAHQAYQB0AGkAYwAAAAAAAACAP0sAAAAEAAAAAQAAAAUAAABEAGUAcAB0
        AGgAAAAAAAAAgD9MAAAABQAAAAEAAAAFAAAAQwBvAGwAbwByAAAAAAAAAIA/TQAAAAYAAAABAAAABgAAAFIAbwB0AGEAdABlAAAAAAAAAIA/TgAAAAcAAAABAAAABwAA
        AEQAcgB5AC8AVwBlAHQAAAAAAAAAgD9RAAAACAAAAAEAAAAIAAAABwAAAFQAcgBlAG0AbwBsAG8AAQAAAAYAAABPAG4ALwBPAGYAZgAAAAAAAACAP1IAAAABAAAAAQAA
        AAQAAABSAGEAdABlAAAAAAAAAIA/UwAAAAIAAAABAAAABAAAAFMAeQBuAGMAAAAAAAAAgD9VAAAAAwAAAAEAAAAJAAAASQBuAHQAZQBuAHMAaQB0AHkAAAAAAAAAgD9U
        AAAABAAAAAEAAAAGAAAAUwB0AGUAcgBlAG8AAAAAAAAAgD9WAAAABQAAAAEAAAAFAAAAVwBpAGQAdABoAAAAAAAAAIA/VwAAAAYAAAABAAAABgAAAEEAdAB0AGEAYwBr
        AAAAAAAAAIA/WAAAAAcAAAABAAAABQAAAEQAZQBjAGEAeQAAAAAAAACAP1kAAAAIAAAAAQAAAAgAAAAGAAAAUgBlAHYAZQByAGIAAQAAAAYAAABPAG4ALwBPAGYAZgAA
        AAAAAACAP1oAAAABAAAAAQAAAAQAAABUAGkAbQBlAAAAAAAAAIA/XQAAAAIAAAABAAAABgAAAEIAcgBpAGcAaAB0AAAAAAAAAIA/XAAAAAMAAAABAAAABgAAAFQAcgBl
        AGIAbABlAAAAAAAAAIA/XgAAAAQAAAABAAAABwAAAEQAcgB5AC8AVwBlAHQAAAAAAAAAgD9bAAAABQAAAAEAAAAOAAAAPAB7AFsAYQB1AHQAbwBuAGEAbQBlAF0AfQA+
        AAAAAAAAAIA//////wYAAAABAAAADgAAADwAewBbAGEAdQB0AG8AbgBhAG0AZQBdAH0APgAAAAAAAACAP/////8HAAAAAQAAAA4AAAA8AHsAWwBhAHUAdABvAG4AYQBt
        AGUAXQB9AD4AAAAAAAAAgD//////CAAAAAEAAAAIAAAACQAAAFAAcwB5ACAARABlAGwAYQB5AAEAAAAGAAAATwBuAC8ATwBmAGYAAAAAAAAAgD9fAAAAAQAAAAEAAAAE
        AAAAVABpAG0AZQAAAAAAAACAP2EAAAACAAAAAQAAAAgAAABGAGUAZQBkAGIAYQBjAGsAAAAAAAAAgD9kAAAAAwAAAAEAAAAHAAAAUgBlAHYAZQByAHMAZQAAAAAAAACA
        P2IAAAAEAAAAAQAAAAYAAABTAHQAZQByAGUAbwAAAAAAAACAP2cAAAAFAAAAAQAAAAYAAABEAGUAdAB1AG4AZQAAAAAAAACAP2MAAAAGAAAAAQAAAAUAAABQAGkAdABj
        AGgAAAAAAAAAgD9lAAAABwAAAAEAAAAHAAAARAByAHkALwBXAGUAdAAAAAAAAACAP2AAAAAIAAAAAQAAAAgAAAAJAAAAQwBoAHIAIABEAGUAbABhAHkAAQAAAAYAAABP
        AG4ALwBPAGYAZgAAAAAAAACAP28AAAABAAAAAQAAAAQAAABUAGkAbQBlAAAAAAAAAIA/aAAAAAIAAAABAAAABgAAAEwAbwAgAEMAdQB0AAAAAAAAAIA/bQAAAAMAAAAB
        AAAABgAAAEgAaQAgAEMAdQB0AAAAAAAAAIA/bAAAAAQAAAABAAAACAAAAEYAZQBlAGQAYgBhAGMAawAAAAAAAACAP2sAAAAFAAAAAQAAAAgAAABNAG8AZAAgAFIAYQB0
        AGUAAAAAAAAAgD9xAAAABgAAAAEAAAAJAAAATQBvAGQAIABEAGUAcAB0AGgAAAAAAAAAgD9qAAAABwAAAAEAAAAHAAAARAByAHkALwBXAGUAdAAAAAAAAACAP3AAAAAI
        AAAAAQAAAAAAAAABAAAARFNJTnQAAACaBgAAAAAAAAEAAABoc2luAQAAAAAAAABfAjRqxWnsToleTuDmPxvIagYAAAAAAABEU0lOdAAAAAEAAABRBgAAAAAAAERTSU5z
        AAAAAQAAABgAAAAAAAAARFNJTgEAAAABAAAAAQAAAAEAAAABmBAAABgGAAACmBAAYAAAASAFA2hzaW5AB0AAEMi6ABcODQlDrNzYancP+McYQBQgAANEU0lOQCPgBwNA
        AEAbAG0gCAFEECAEIABAI+ADUxB1oWnz+VgsSrdZ344DzJatFKAnwDdAL+AXZ0AjAcwPIFwgAAAFIAMBPg0gBCAACHRzcnBFOE1GzyALA7wjAABAIg5GdWxsIEJsYXN0
        IExlYWRAbRBBbmdyeSBEaXN0b3J0aW9uCyAuBUNob3J1c2AiQEwMUmh5dGhtIEd1aXRhciAeIAAE+EEAAHAgAwAAIAMCgD8A4BAAAkhCAOAQH2A3A0AAAAwgIwAsIANg
        D+ACAGAPIB8AiCAbQABgD+AEAA5SuF4+ZMz9Pv1llz4AABAghwiAP+CcMT8mwlZgCxIAAMBAzcyGwXJokT4M12/BCGbmICcEAADNzMxABwM/mpkZICMAAKADBIA/WxG0
        YBcG2or9PlkgKWAfBm+BND/UCQhAI0AA4AcHAwDKMiQgE0BrwACACwSuR+E9AIAAIMMEAABUUicgJwwAAHL5Hz/KMqQ+OQpP4QA7Ai5ug0B3BwALJBg/exSuIAuAQwr4
        wgQ/QKS/PutROGA7AylcDz9AIwIsQyxAD0ADAwA9m9XAZwYA9igdQjcaQQdAAACAYHcAAGBLAJwhQwDGIAMA4KATAMggC8AAQGtAK8GrQA/gFwAQgD/NzGw/XI9CPhiV
        1D4wKqkgs+ADAEBfQAPAAEBbACAg70AAQAtAAwCgIINAB0AAALQgCwCWIAPgAwDAP0AHQAPAAEAz4ItLADAg30CXQKsAiiDLAEAgA+Af4yAAAANgAAIBAQKAAAMAAAEE
        YAACAgIDIB2AAA42PCgbBQ4MAAAnJCItIi2AFOAFACA4gAAA/oAG4DwAAGQgAeBKAAQBAf8BAUS/4AAAIA7gEABgHOAAKWAAAEAhcgOYQdUJgrIC4/J/YxLgCwACuB4F
        YBsGCtcjvlyPgmALwACgWeAEW+BEWeAEAOA+WUAAIAUAAOACAOA9WQEEACPdDN/MhkLh2l5Et8sCQhIi2eARFAesPZ1BzwDgRUApAxCA30NgKQAAJXgDEELCRoMMAB6A
        FEApAr9WfGApAAsjKeAKKQGeQiK+BIA/+lDOIzsBgD/gBAwjBUBYQANDYQGAP2A/BnzVij6PwnVgAwPMvIwr4BEUAwfwFj/gCCkDhMBqP0A2wANgPuAcKWCbQIZAOuAE
        DCCo4AUACwSS7Xw+kMI1Pw8tUiAyAABgdeARFAZWDg0/Z2Zm4AUpBq5HAT9xPWrgBRTgHCkgmwIAP2YgT0AD4AQMQKhgUEAhQANAECAABGBCt23bIYAB/kLgABADAMDa
        QkAQQD8gAAB84AMMAIgjhOAAGSAqIAygNyAZ4AU3AnBCDSAdYrRACAUDFDsxwQBgAAnIwAAAXMED2YkdoBAFoL/FTmzAoG8FAAB2YqfB4AAMQADgAAwgJgDBoG9AAEBI
        AAzgBSoIAbw0jMJfUczAQCZg6CAoYAPgCBBAVWAZQCHgEQzgFTdA32BAIERAAAIyEgElsqAAAi0BKKAJ4BAAADLgEBngCgABUGTnBHoAUOAKIuAHAOAEXwFQUOAVMgJQ
        ZDjgBC/gHgAAZCAA4B4qAQBHIAPgIwDgIFjgZwAA/+AXACReAwAAEGQiPgFaXSAJAgEAEkAERM9CayXPJ7WgCQAB4AAJAALgAAkAA6AJAgEBBMAJAwAF/gOAMQEABuAA
        CQIH/gWAEwEBCKAnAgAACeAACeAJYyh0g1AgTyCbIAxACSCsgAkCAQUBoGMDAQYA/mATIGMA/+AAYwH/B6ATAQkASLdAOyA6YBMgMqAJIMcBAPugEwAD4AAJAgQA96AT
        AAWgCSDHoAkEAQEHAPlAHSAAAggA/UAJIEUACeAAO+ADYyC14EkAABGgUgNrbmFiQH3AAAGAACAAABmgEQNjdG5pTWYBEScgFCAAAEEgAyAARqIBoELiEw8BdADiATBN
        m+ATK+D9AOCpAAAgIeNAAANzaXVnQiQA6OICpwAVIBgAGSADQshAAyNuYAAHZ3B0Y1lUTUVADAsNYmWFAQAAAAAAAAABAAAAAAEAAAAAAAAA
        ADxkaXNhYmxlZD4AEAAAAA==
      >
      PRESETNAME <disabled>
      FLOATPOS 0 0 0 0
      FXID {441D491C-7C7D-49C4-A69E-91B09219E921}
      WAK 0 0
    >
    <ITEM
      POSITION 2
      SNAPOFFS 0
      LENGTH 12
      LOOP 1
      ALLTAKES 0
      FADEIN 1 0 0 1 0 0
      FADEOUT 1 0 0 1 0 0
      MUTE 0 0
      SEL 0
      IGUID {F69FF37F-FFBB-4AD6-8A2F-BD1F5F949D0C}
      IID 7
      NAME "Acompañamiento arpegiado - Marty.mid"
      VOLPAN 1 0 1 -1
      SOFFS 0 0
      PLAYRATE 1 1 0 -1 0 0.0025
      CHANMODE 0
      GUID {4D8D7A1B-447D-479A-9FEF-8C4968BC6D67}
      <SOURCE MIDI
        HASDATA 1 960 QN
        CCINTERP 32
        POOLEDEVTS {8A09E4DC-0432-47F2-A13A-24FF2D43DF84}
        <X 0 0 0 0 3 "Acompañamiento arpegiado"
          /wNBY29tcGHDsWFtaWVudG8gYXJwZWdpYWRv
        >
        E 0 c6 1e 00
        E 0 b6 40 00
        E 0 b6 5b 30
        E 0 b6 0a 40
        E 0 b6 07 7f
        E 0 b6 0a 40
        E 0 b6 5b 3b
        E 0 b6 40 7f
        E 0 96 32 51
        E 0 b6 79 00
        E 960 86 32 00
        E 0 96 42 56
        E 480 86 42 00
        E 0 96 3e 52
        E 960 86 3e 00
        E 0 96 39 48
        E 960 86 39 00
        E 0 96 32 44
        E 960 86 32 00
        E 0 96 42 56
        E 960 86 42 00
        E 0 96 3e 50
        E 960 86 3e 00
        E 0 96 39 47
        E 1436 b6 40 00
        E 4 b6 40 7f
        E 0 86 39 00
        E 0 96 30 48
        E 960 86 30 00
        E 0 96 40 58
        E 480 86 40 00
        E 0 96 3c 52
        E 960 86 3c 00
        E 0 96 37 46
        E 960 86 37 00
        E 0 96 2f 44
        E 476 b6 40 00
        E 4 b6 40 7f
        E 480 86 2f 00
        E 0 96 36 4c
        E 480 86 36 00
        E 0 96 3b 55
        E 480 86 3b 00
        E 0 96 3e 57
        E 480 86 3e 00
        E 0 96 42 5b
        E 1916 b6 40 00
        E 4 b6 40 7f
        E 0 86 42 00
        E 0 96 32 48
        E 960 86 32 00
        E 0 96 42 58
        E 480 86 42 00
        E 0 96 3e 53
        E 960 86 3e 00
        E 0 96 39 46
        E 960 86 39 00
        E 0 96 32 43
        E 960 86 32 00
        E 0 96 42 56
        E 960 86 42 00
        E 0 96 3e 50
        E 960 86 3e 00
        E 0 96 39 47
        E 1436 b6 40 00
        E 4 b6 40 7f
        E 0 86 39 00
        E 0 96 30 48
        E 960 86 30 00
        E 0 96 40 58
        E 480 86 40 00
        E 0 96 3c 52
        E 960 86 3c 00
        E 0 96 37 46
        E 960 86 37 00
        E 0 96 2b 44
        E 476 b6 40 00
        E 4 b6 40 7f
        E 480 86 2b 00
        E 0 96 32 49
        E 480 86 32 00
        E 0 96 37 53
        E 480 b6 40 00
        E 0 86 37 00
        E 0 96 3b 56
        E 480 b6 40 7f
        E 480 86 3b 00
        E 0 96 2d 44
        E 480 86 2d 00
        E 0 96 34 4d
        E 480 86 34 00
        E 0 96 39 57
        E 476 b6 40 00
        E 4 86 39 00
        E 0 b0 7b 00
        CCINTERP 32
        CHASE_CC_TAKEOFFS 1
        GUID {48BEAE93-21BD-4C89-AF2C-BA925B707DEA}
        IGNTEMPO 0 120 4 4
        SRCCOLOR 8
      >
    >
    <ITEM
      POSITION 15.5
      SNAPOFFS 0
      LENGTH 12
      LOOP 1
      ALLTAKES 0
      FADEIN 1 0 0 1 0 0
      FADEOUT 1 0 0 1 0 0
      MUTE 0 0
      SEL 1
      IGUID {2775FC4E-96A0-4953-A839-40EC4749E005}
      IID 16
      NAME "Acompañamiento arpegiado - Marty.mid"
      VOLPAN 1 0 1 -1
      SOFFS 12 32
      PLAYRATE 1 1 0 -1 0 0.0025
      CHANMODE 0
      GUID {E91AE118-7258-47FC-A60C-8E0B8F903075}
      <SOURCE MIDI
        HASDATA 1 960 QN
        CCINTERP 32
        POOLEDEVTS {C9AF2789-4DD8-42BB-9A32-F1C969AAFF91}
        <X 0 0 0 0 3 "Acompañamiento arpegiado"
          /wNBY29tcGHDsWFtaWVudG8gYXJwZWdpYWRv
        >
        E 0 c6 1e 00
        E 0 b6 40 00
        E 0 b6 5b 30
        E 0 b6 0a 40
        E 0 b6 07 7f
        E 0 b6 0a 40
        E 0 b6 5b 3b
        E 0 b6 40 7f
        E 0 96 32 51
        E 0 b6 79 00
        E 960 86 32 00
        E 0 96 42 56
        E 480 86 42 00
        E 0 96 3e 52
        E 960 86 3e 00
        E 0 96 39 48
        E 960 86 39 00
        E 0 96 32 44
        E 960 86 32 00
        E 0 96 42 56
        E 960 86 42 00
        E 0 96 3e 50
        E 960 86 3e 00
        E 0 96 39 47
        E 1436 b6 40 00
        E 4 b6 40 7f
        E 0 86 39 00
        E 0 96 30 48
        E 960 86 30 00
        E 0 96 40 58
        E 480 86 40 00
        E 0 96 3c 52
        E 960 86 3c 00
        E 0 96 37 46
        E 960 86 37 00
        E 0 96 2f 44
        E 476 b6 40 00
        E 4 b6 40 7f
        E 480 86 2f 00
        E 0 96 36 4c
        E 480 86 36 00
        E 0 96 3b 55
        E 480 86 3b 00
        E 0 96 3e 57
        E 480 86 3e 00
        E 0 96 42 5b
        E 1916 b6 40 00
        E 4 b6 40 7f
        E 0 86 42 00
        E 0 96 32 48
        E 960 86 32 00
        E 0 96 42 58
        E 480 86 42 00
        E 0 96 3e 53
        E 960 86 3e 00
        E 0 96 39 46
        E 960 86 39 00
        E 0 96 32 43
        E 960 86 32 00
        E 0 96 42 56
        E 960 86 42 00
        E 0 96 3e 50
        E 960 86 3e 00
        E 0 96 39 47
        E 1436 b6 40 00
        E 4 b6 40 7f
        E 0 86 39 00
        E 0 96 30 48
        E 960 86 30 00
        E 0 96 40 58
        E 480 86 40 00
        E 0 96 3c 52
        E 960 86 3c 00
        E 0 96 37 46
        E 960 86 37 00
        E 0 96 2b 44
        E 476 b6 40 00
        E 4 b6 40 7f
        E 480 86 2b 00
        E 0 96 32 49
        E 480 86 32 00
        E 0 96 37 53
        E 480 b6 40 00
        E 0 86 37 00
        E 0 96 3b 56
        E 480 b6 40 7f
        E 480 86 3b 00
        E 0 96 2d 44
        E 480 86 2d 00
        E 0 96 34 4d
        E 480 86 34 00
        E 0 96 39 57
        E 476 b6 40 00
        E 4 b6 40 7f
        E 0 86 39 00
        E 0 96 2f 47
        E 960 86 2f 00
        E 0 96 36 56
        E 480 86 36 00
        E 0 96 3b 58
        E 1440 86 3b 00
        E 0 96 36 4c
        E 480 b6 40 00
        E 480 b6 40 7f
        E 0 86 36 00
        E 0 96 30 49
        E 960 86 30 00
        E 0 96 37 55
        E 480 86 37 00
        E 0 96 3c 58
        E 1920 b6 40 00
        E 480 b6 40 7f
        E 0 86 3c 00
        E 0 96 31 4c
        E 960 86 31 00
        E 0 96 38 55
        E 480 86 38 00
        E 0 96 3d 57
        E 1440 86 3d 00
        E 0 96 38 4c
        E 480 b6 40 00
        E 480 b6 40 7f
        E 0 86 38 00
        E 0 96 32 4a
        E 960 86 32 00
        E 0 96 39 55
        E 480 86 39 00
        E 0 96 3e 58
        E 1920 b6 40 00
        E 480 b6 40 7f
        E 0 86 3e 00
        E 0 96 2f 4b
        E 960 86 2f 00
        E 0 96 37 4f
        E 480 b6 40 00
        E 480 b6 40 7f
        E 0 86 37 00
        E 0 96 2d 4a
        E 960 86 2d 00
        E 0 96 34 4f
        E 480 b6 40 00
        E 480 b6 40 7f
        E 0 86 34 00
        E 0 96 32 51
        E 960 86 32 00
        E 0 96 39 58
        E 480 86 39 00
        E 0 96 42 58
        E 1440 86 42 00
        E 0 96 3e 53
        E 480 b6 40 00
        E 480 b6 40 7f
        E 0 86 3e 00
        E 0 96 2f 48
        E 960 86 2f 00
        E 0 96 37 4c
        E 480 b6 40 00
        E 480 b6 40 7f
        E 0 86 37 00
        E 0 96 2b 48
        E 960 86 2b 00
        E 0 96 34 4e
        E 480 b6 40 00
        E 480 b6 40 7f
        E 0 86 34 00
        E 0 96 33 51
        E 960 86 33 00
        E 0 96 3a 58
        E 480 86 3a 00
        E 0 96 43 58
        E 1440 86 43 00
        E 0 96 3f 53
        E 480 b6 40 00
        E 480 86 3f 00
        E 0 b0 7b 00
        CCINTERP 32
        CHASE_CC_TAKEOFFS 1
        GUID {0ECD02A1-D037-4CC5-8ABC-A59EABF42653}
        IGNTEMPO 0 120 4 4
        SRCCOLOR 17
      >
    >
    <ITEM
      POSITION 29
      SNAPOFFS 0
      LENGTH 12
      LOOP 1
      ALLTAKES 0
      FADEIN 1 0 0 1 0 0
      FADEOUT 1 0 0 1 0 0
      MUTE 0 0
      SEL 0
      IGUID {880F902C-676F-4E88-BF14-5CC935E2BF15}
      IID 23
      NAME "Acompañamiento arpegiado - Marty.mid"
      VOLPAN 1 0 1 -1
      SOFFS 24 64
      PLAYRATE 1 1 0 -1 0 0.0025
      CHANMODE 0
      GUID {3AA677D7-1ED5-4C04-AA87-50955C3CC64F}
      <SOURCE MIDI
        HASDATA 1 960 QN
        CCINTERP 32
        POOLEDEVTS {7DF9BE1A-64E8-4178-A70E-A5D290911C55}
        <X 0 0 0 0 3 "Acompañamiento arpegiado"
          /wNBY29tcGHDsWFtaWVudG8gYXJwZWdpYWRv
        >
        E 0 c6 1e 00
        E 0 b6 40 00
        E 0 b6 5b 30
        E 0 b6 0a 40
        E 0 b6 07 7f
        E 0 b6 0a 40
        E 0 b6 5b 3b
        E 0 b6 40 7f
        E 0 96 32 51
        E 0 b6 79 00
        E 960 86 32 00
        E 0 96 42 56
        E 480 86 42 00
        E 0 96 3e 52
        E 960 86 3e 00
        E 0 96 39 48
        E 960 86 39 00
        E 0 96 32 44
        E 960 86 32 00
        E 0 96 42 56
        E 960 86 42 00
        E 0 96 3e 50
        E 960 86 3e 00
        E 0 96 39 47
        E 1436 b6 40 00
        E 4 b6 40 7f
        E 0 86 39 00
        E 0 96 30 48
        E 960 86 30 00
        E 0 96 40 58
        E 480 86 40 00
        E 0 96 3c 52
        E 960 86 3c 00
        E 0 96 37 46
        E 960 86 37 00
        E 0 96 2f 44
        E 476 b6 40 00
        E 4 b6 40 7f
        E 480 86 2f 00
        E 0 96 36 4c
        E 480 86 36 00
        E 0 96 3b 55
        E 480 86 3b 00
        E 0 96 3e 57
        E 480 86 3e 00
        E 0 96 42 5b
        E 1916 b6 40 00
        E 4 b6 40 7f
        E 0 86 42 00
        E 0 96 32 48
        E 960 86 32 00
        E 0 96 42 58
        E 480 86 42 00
        E 0 96 3e 53
        E 960 86 3e 00
        E 0 96 39 46
        E 960 86 39 00
        E 0 96 32 43
        E 960 86 32 00
        E 0 96 42 56
        E 960 86 42 00
        E 0 96 3e 50
        E 960 86 3e 00
        E 0 96 39 47
        E 1436 b6 40 00
        E 4 b6 40 7f
        E 0 86 39 00
        E 0 96 30 48
        E 960 86 30 00
        E 0 96 40 58
        E 480 86 40 00
        E 0 96 3c 52
        E 960 86 3c 00
        E 0 96 37 46
        E 960 86 37 00
        E 0 96 2b 44
        E 476 b6 40 00
        E 4 b6 40 7f
        E 480 86 2b 00
        E 0 96 32 49
        E 480 86 32 00
        E 0 96 37 53
        E 480 b6 40 00
        E 0 86 37 00
        E 0 96 3b 56
        E 480 b6 40 7f
        E 480 86 3b 00
        E 0 96 2d 44
        E 480 86 2d 00
        E 0 96 34 4d
        E 480 86 34 00
        E 0 96 39 57
        E 476 b6 40 00
        E 4 b6 40 7f
        E 0 86 39 00
        E 0 96 2f 47
        E 960 86 2f 00
        E 0 96 36 56
        E 480 86 36 00
        E 0 96 3b 58
        E 1440 86 3b 00
        E 0 96 36 4c
        E 480 b6 40 00
        E 480 b6 40 7f
        E 0 86 36 00
        E 0 96 30 49
        E 960 86 30 00
        E 0 96 37 55
        E 480 86 37 00
        E 0 96 3c 58
        E 1920 b6 40 00
        E 480 b6 40 7f
        E 0 86 3c 00
        E 0 96 31 4c
        E 960 86 31 00
        E 0 96 38 55
        E 480 86 38 00
        E 0 96 3d 57
        E 1440 86 3d 00
        E 0 96 38 4c
        E 480 b6 40 00
        E 480 b6 40 7f
        E 0 86 38 00
        E 0 96 32 4a
        E 960 86 32 00
        E 0 96 39 55
        E 480 86 39 00
        E 0 96 3e 58
        E 1920 b6 40 00
        E 480 b6 40 7f
        E 0 86 3e 00
        E 0 96 2f 4b
        E 960 86 2f 00
        E 0 96 37 4f
        E 480 b6 40 00
        E 480 b6 40 7f
        E 0 86 37 00
        E 0 96 2d 4a
        E 960 86 2d 00
        E 0 96 34 4f
        E 480 b6 40 00
        E 480 b6 40 7f
        E 0 86 34 00
        E 0 96 32 51
        E 960 86 32 00
        E 0 96 39 58
        E 480 86 39 00
        E 0 96 42 58
        E 1440 86 42 00
        E 0 96 3e 53
        E 480 b6 40 00
        E 480 b6 40 7f
        E 0 86 3e 00
        E 0 96 2f 48
        E 960 86 2f 00
        E 0 96 37 4c
        E 480 b6 40 00
        E 480 b6 40 7f
        E 0 86 37 00
        E 0 96 2b 48
        E 960 86 2b 00
        E 0 96 34 4e
        E 480 b6 40 00
        E 480 b6 40 7f
        E 0 86 34 00
        E 0 96 33 51
        E 960 86 33 00
        E 0 96 3a 58
        E 480 86 3a 00
        E 0 96 43 58
        E 1440 86 43 00
        E 0 96 3f 53
        E 480 b6 40 00
        E 480 b6 40 7f
        E 0 86 3f 00
        E 0 96 32 48
        E 480 86 32 00
        E 0 96 2a 44
        E 480 86 2a 00
        E 0 96 32 49
        E 480 86 32 00
        E 0 96 39 55
        E 1920 b6 40 00
        E 480 b6 40 7f
        E 0 86 39 00
        E 0 96 32 4f
        E 480 86 32 00
        E 0 96 2a 46
        E 480 86 2a 00
        E 0 96 32 4f
        E 480 86 32 00
        E 0 96 3a 58
        E 1920 b6 40 00
        E 480 b6 40 7f
        E 0 86 3a 00
        E 0 96 32 50
        E 480 86 32 00
        E 0 96 2a 47
        E 480 86 2a 00
        E 0 96 32 4f
        E 480 86 32 00
        E 0 96 3b 58
        E 1920 b6 40 00
        E 480 b6 40 7f
        E 0 86 3b 00
        E 0 96 32 50
        E 480 86 32 00
        E 0 96 2a 47
        E 480 86 2a 00
        E 0 96 32 4f
        E 480 86 32 00
        E 0 96 3c 58
        E 1920 b6 40 00
        E 480 b6 40 7f
        E 0 86 3c 00
        E 0 96 32 4f
        E 480 86 32 00
        E 0 96 2b 47
        E 480 86 2b 00
        E 0 96 32 4f
        E 480 86 32 00
        E 0 96 3b 58
        E 1920 b6 40 00
        E 480 b6 40 7f
        E 0 86 3b 00
        E 0 96 32 4f
        E 480 86 32 00
        E 0 96 2b 47
        E 480 86 2b 00
        E 0 96 32 4f
        E 480 86 32 00
        E 0 96 3a 58
        E 1920 b6 40 00
        E 480 b6 40 7f
        E 0 86 3a 00
        E 0 96 32 50
        E 480 86 32 00
        E 0 96 2d 48
        E 480 86 2d 00
        E 0 96 32 4e
        E 480 86 32 00
        E 0 96 39 58
        E 1920 b6 40 00
        E 480 b6 40 7f
        E 0 86 39 00
        E 0 96 2f 4e
        E 480 86 2f 00
        E 0 96 36 52
        E 480 86 36 00
        E 0 96 3b 57
        E 480 86 3b 00
        E 0 96 36 4d
        E 135 b6 40 00
        E 345 b6 40 7f
        E 0 86 36 00
        E 0 96 31 47
        E 480 86 31 00
        E 0 96 38 54
        E 480 86 38 00
        E 0 96 3d 58
        E 480 86 3d 00
        E 0 96 38 4f
        E 135 b6 40 00
        E 344 86 38 00
        E 1 b0 7b 00
        CCINTERP 32
        CHASE_CC_TAKEOFFS 1
        GUID {96B67ABB-AD62-4AC8-8739-98DDFE092B68}
        IGNTEMPO 0 120 4 4
        SRCCOLOR 24
      >
    >
  >
  <TRACK {CEF54A2B-C71A-41AC-B268-445BCC874F2B}
    NAME "Melodía libre (solo)"
    PEAKCOL 16576
    BEAT -1
    AUTOMODE 0
    VOLPAN 1 0 -1 -1 1
    MUTESOLO 0 0 0
    IPHASE 0
    PLAYOFFS 0 1
    ISBUS 0 0
    BUSCOMP 0 0 0 0 0
    SHOWINMIX 1 0.6667 0.5 1 0.5 -1 -1 -1
    FREEMODE 0
    SEL 0
    REC 0 0 1 0 0 0 0
    VU 2
    TRACKHEIGHT 0 0 0 0 -1 0
    INQ 0 0 0 0.5 100 0 0 100
    NCHAN 2
    FX 1
    TRACKID {CEF54A2B-C71A-41AC-B268-445BCC874F2B}
    PERF 0
    MIDIOUT -1
    MAINSEND 1 0
    <FXCHAIN
      WNDRECT 24 52 506 258
      SHOW 0
      LASTSEL 0
      DOCKED 0
      BYPASS 0 0 0
      <VST "VSTi: FM8 (Native Instruments GmbH)" FM8.dll 0 "" 1315530296<5653544E696638666D38202878383629> ""
        OGZpTu5e7f4AAAAAAgAAAAEAAAAAAAAAAgAAAAAAAABxIgAAAQAAAAAAEAA=
        cSIAAAAAAAABAAAAaHNpbgEAAAAAAAAAtobcUMQp00ys2xunT/VcXpYAAAAAAAAARFNJTnYAAAABAAAASAAAAAAAAABEU0lOagAAAAEAAAAYAAAAAAAAAERTSU4BAAAA
        AQAAAAEAAAABAAAAAQAAAAEAAAAAAAAAAAAAAAAAAAANYmWFAQAAAANwEAAAAAAAAQAAAAEAAAAAAAAAAAAAAAAAAAADAAAAMAAwADAAAAAAAAAAAAAAAAAAAAAAAAEA
        AAABAAAAAAAAAERTSU5lAAAAnyEAAAAAAAABAAAAaHNpbgEAAAAAAAAAk2LmMfvQG0yafYDm9m9BlW0AAAAAAAAARFNJTmUAAAABAAAANAAAAAAAAABEU0lOagAAAAEA
        AAAYAAAAAAAAAERTSU4BAAAAAQAAAAEAAAABAAAAAgAAAAEAAAAACAAAAAEAAAAKAAAAMQAuADIALgAwAC4AMQAwADEAMAABAAAAAwAAAAAAAABEU0lObAAAADQDAAAA
        AAAAAQAAAGhzaW4BAAAAAAAAAEPySaikdwBNqY3YM9NCgmIEAwAAAAAAAERTSU5sAAAAAQAAABgAAAAAAAAARFNJTgEAAAABAAAAAQAAAAEAAAACAAAAAQAAAAAAAAAO
        AAAAQwByAHUAbgBjAGgAIABDAHIAdQBzAGgAZQByAAwAAABBAG4AZAByAGUAIABFAHQAdABlAG0AYQASAAAATgBhAHQAaQB2AGUAIABJAG4AcwB0AHIAdQBtAGUAbgB0
        AHMAQAAAAFUAcwBlACAATQBvAHIAcABoACAAUwBxAHUAYQByAGUAIAB0AG8AIABnAGUAdAAgAHQAaABlACAAcwBvAHUAbgBkACAAbwBmACAAZABpAGYAZgBlAHIAZQBu
        AHQAIABhAG0AcAAgAHMAaQBtAHUAbABhAHQAaQBvAG4AcwAuACAAAAAAAP////8AAAAAAAAAAAAAAAAAAAAAAAAAAAEAAAABAAAAAgAAAAMAAABGAE0AOAALAAAARgBN
        ADgAIABGAGEAYwB0AG8AcgB5AAcAAAALAAAAQQByAHAAZQBnAGcAaQBhAHQAZQBkABIAAABEAGkAcwB0AG8AcgB0AGUAZAAgAEUALQBHAHUAaQB0AGEAcgAGAAAARwB1
        AGkAdABhAHIACQAAAFAAcgBvAGMAZQBzAHMAZQBkAA0AAABTAGUAcQB1AGUAbgBjAGUALwBMAG8AbwBwAAkAAABTAHkAbgB0AGgAZQB0AGkAYwAMAAAAVABlAG0AcABv
        AC0AcwB5AG4AYwBlAGQAAAAAAAcAAAAHAAAAXABAAGMAbwBsAG8AcgABAAAAMAARAAAAXABAAGQAZQB2AGkAYwBlAHQAeQBwAGUAZgBsAGEAZwBzAAEAAAAxAAsAAABc
        AEAAcwBvAHUAbgBkAHQAeQBwAGUAAQAAADAABwAAAFwAQAB0AGUAbQBwAG8AAQAAADAABgAAAFwAQAB2AGUAcgBsAAUAAAAxAC4ANwAuADMABgAAAFwAQAB2AGUAcgBt
        AAUAAAAxAC4ANwAuADMABwAAAFwAQAB2AGkAcwBpAGIAAQAAADAAAQAAAAAAAAACAAAARFNJTnkAAAAQFwAAAAAAAAEAAABoc2luAQAAAAAAAADhv9+3I90KSKBFccCi
        AbOy4BYAAAAAAABEU0lOeQAAAAEAAAAYAAAAAAAAAERTSU4BAAAAAQAAAAEAAAABAAAAAQAAABkAAAABAAAABgAAAAYAAABUAGkAbQBiAHIAZQABAAAACAAAAEgAYQBy
        AG0AbwBuAGkAYwAAAAAAAACAPwIAAAABAAAAAQAAAAYAAABEAGUAdAB1AG4AZQAAAAAAAACAPwMAAAACAAAAAQAAAAoAAABCAHIAaQBnAGgAdABuAGUAcwBzAAAAAAAA
        AIA/AQAAAAMAAAABAAAABwAAAEUAbgB2ACAAQQBtAHQAAAAAAAAAgD8EAAAABAAAAAEAAAAIAAAAVgBlAGwAbwBjAGkAdAB5AAAAAAAAAIA/BQAAAAUAAAABAAAADgAA
        ADwAewBbAGEAdQB0AG8AbgBhAG0AZQBdAH0APgAAAAAAAACAP/////8GAAAAAQAAAAIAAAACAAAARgBYAAEAAAAGAAAAQQBtAG8AdQBuAHQAAAAAAAAAgD8aAAAAAQAA
        AAEAAAAOAAAAPAB7AFsAYQB1AHQAbwBuAGEAbQBlAF0AfQA+AAAAAAAAAIA//////wIAAAABAAAABAAAAAgAAABUAGkAbQBiACAARQBuAHYAAQAAAAYAAABBAHQAdABh
        AGMAawAAAAAAAACAPwYAAAABAAAAAQAAAAUAAABEAGUAYwBhAHkAAAAAAAAAgD8HAAAAAgAAAAEAAAAHAAAAUwB1AHMAdABhAGkAbgAAAAAAAACAPwgAAAADAAAAAQAA
        AAcAAABSAGUAbABlAGEAcwBlAAAAAAAAAIA/CQAAAAQAAAABAAAABAAAAAcAAABBAG0AcAAgAEUAbgB2AAEAAAAHAAAAQQB0AHQAYQBjAGsAIAAAAAAAAACAPxEAAAAB
        AAAAAQAAAAUAAABEAGUAYwBhAHkAAAAAAAAAgD8SAAAAAgAAAAEAAAAHAAAAUwB1AHMAdABhAGkAbgAAAAAAAACAPxMAAAADAAAAAQAAAAcAAABSAGUAbABlAGEAcwBl
        AAAAAAAAAIA/FAAAAAQAAAABAAAABAAAAAYAAABPAHUAdABwAHUAdAABAAAABgAAAFYAbwBsAHUAbQBlAAAAAAAAAIA/DgAAAAEAAAABAAAACAAAAFYAZQBsAG8AYwBp
        AHQAeQAAAAAAAACAPxAAAAACAAAAAQAAAAkAAABTAHQAcgAgAFcAaQBkAHQAaAAAAAAAAACAPw8AAAADAAAAAQAAAA4AAAA8AHsAWwBhAHUAdABvAG4AYQBtAGUAXQB9
        AD4AAAAAAAAAgD//////BAAAAAEAAAAEAAAAAwAAAEwARgBPAAEAAAAEAAAAUgBhAHQAZQAAAAAAAACAPwoAAAABAAAAAQAAAAcAAABWAGkAYgByAGEAdABvAAAAAAAA
        AIA/CwAAAAIAAAABAAAABgAAAFQAaQBtAGIAcgBlAAAAAAAAAIA/DAAAAAMAAAABAAAABwAAAFQAcgBlAG0AbwBsAG8AAAAAAAAAgD8NAAAABAAAAAEAAAAEAAAAAwAA
        AEEAcgBwAAEAAAAGAAAATwBuAC8ATwBmAGYAAAAAAAAAgD+IAAAAAQAAAAEAAAAEAAAAUwB0AGUAcAAAAAAAAACAP5UAAAACAAAAAQAAAAQAAABHAGEAdABlAAAAAAAA
        AIA/iQAAAAMAAAABAAAABwAAAFMAaAB1AGYAZgBsAGUAAAAAAAAAgD+NAAAABAAAAAEAAAAEAAAABQAAAE0AbwByAHAAaAABAAAAAQAAAFgAAAAAAAAAgD8VAAAAAQAA
        AAEAAAABAAAAWQAAAAAAAACAPxYAAAACAAAAAQAAAAUAAABSAG4AZAAgAFgAAAAAAAAAgD8XAAAAAwAAAAEAAAAFAAAAUgBuAGQAIABZAAAAAAAAAIA/GAAAAAQAAAAB
        AAAAAgAAAAYAAABNAGEAcwB0AGUAcgABAAAABgAAAE8AdQB0AHAAdQB0AAAAAAAAAIA/dAAAAAEAAAABAAAABQAAAEkAbgBwAHUAdAAAAAAAAACAP3UAAAACAAAAAQAA
        AAIAAAAFAAAAUABpAHQAYwBoAAEAAAAEAAAAVAB1AG4AZQAAAAAAAACAP3YAAAABAAAAAQAAAAkAAABUAHIAYQBuAHMAcABvAHMAZQAAAAAAAACAP3cAAAACAAAAAQAA
        AAEAAAAGAAAAVQBuAGkAcwBvAG4AAQAAAAYAAABEAGUAdAB1AG4AZQAAAAAAAACAP3kAAAABAAAAAQAAAAEAAAAFAAAARwBsAGkAZABlAAEAAAAEAAAAVABpAG0AZQAA
        AAAAAACAP38AAAABAAAAAQAAAAIAAAAHAAAAUQB1AGEAbABpAHQAeQABAAAABgAAAEEAbgBhAGwAbwBnAAAAAAAAAIA/gAAAAAEAAAABAAAABwAAAEQAaQBnAGkAdABh
        AGwAAAAAAAAAgD+EAAAAAgAAAAEAAAAIAAAABQAAAEQAcgBpAHYAZQABAAAABgAAAE8AbgAvAE8AZgBmAAAAAAAAAIA/HgAAAAEAAAABAAAABQAAAEQAcgBpAHYAZQAA
        AAAAAACAPx8AAAACAAAAAQAAAAQAAABUAG8AbgBlAAAAAAAAAIA/IAAAAAMAAAABAAAABAAAAEIAYQBzAHMAAAAAAAAAgD8hAAAABAAAAAEAAAAHAAAAVgBvAGwAdQBt
        AGUAIAAAAAAAAACAPyIAAAAFAAAAAQAAAA4AAAA8AHsAWwBhAHUAdABvAG4AYQBtAGUAXQB9AD4AAAAAAAAAgD//////BgAAAAEAAAAOAAAAPAB7AFsAYQB1AHQAbwBu
        AGEAbQBlAF0AfQA+AAAAAAAAAIA//////wcAAAABAAAADgAAADwAewBbAGEAdQB0AG8AbgBhAG0AZQBdAH0APgAAAAAAAACAP/////8IAAAAAQAAAAgAAAAEAAAAVAB1
        AGIAZQABAAAABgAAAE8AbgAvAE8AZgBmAAAAAAAAAIA/IwAAAAEAAAABAAAABgAAAFYAbwBsAHUAbQBlAAAAAAAAAIA/JQAAAAIAAAABAAAABQAAAEQAcgBpAHYAZQAA
        AAAAAACAPyQAAAADAAAAAQAAAA4AAAA8AHsAWwBhAHUAdABvAG4AYQBtAGUAXQB9AD4AAAAAAAAAgD//////BAAAAAEAAAAOAAAAPAB7AFsAYQB1AHQAbwBuAGEAbQBl
        AF0AfQA+AAAAAAAAAIA//////wUAAAABAAAADgAAADwAewBbAGEAdQB0AG8AbgBhAG0AZQBdAH0APgAAAAAAAACAP/////8GAAAAAQAAAA4AAAA8AHsAWwBhAHUAdABv
        AG4AYQBtAGUAXQB9AD4AAAAAAAAAgD//////BwAAAAEAAAAOAAAAPAB7AFsAYQB1AHQAbwBuAGEAbQBlAF0AfQA+AAAAAAAAAIA//////wgAAAABAAAACAAAAAcAAABD
        AGEAYgBpAG4AZQB0AAEAAAAGAAAATwBuAC8ATwBmAGYAAAAAAAAAgD8mAAAAAQAAAAEAAAAEAAAAVAB5AHAAZQAAAAAAAACAPycAAAACAAAAAQAAAAQAAABTAGkAegBl
        AAAAAAAAAIA/KAAAAAMAAAABAAAAAwAAAEEAaQByAAAAAAAAAIA/KQAAAAQAAAABAAAABAAAAEIAYQBzAHMAAAAAAAAAgD8qAAAABQAAAAEAAAAGAAAAVAByAGUAYgBs
        AGUAAAAAAAAAgD8rAAAABgAAAAEAAAAOAAAAPAB7AFsAYQB1AHQAbwBuAGEAbQBlAF0AfQA+AAAAAAAAAIA//////wcAAAABAAAADgAAADwAewBbAGEAdQB0AG8AbgBh
        AG0AZQBdAH0APgAAAAAAAACAP/////8IAAAAAQAAAAgAAAAIAAAAUwBoAGUAbABmACAARQBRAAEAAAAGAAAATwBuAC8ATwBmAGYAAAAAAAAAgD8sAAAAAQAAAAEAAAAE
        AAAATABQACAAWAAAAAAAAACAPy0AAAACAAAAAQAAAAQAAABMAFAAIABZAAAAAAAAAIA/LgAAAAMAAAABAAAABAAAAEgAUAAgAFgAAAAAAAAAgD8vAAAABAAAAAEAAAAE
        AAAASABQACAAWAAAAAAAAACAPzAAAAAFAAAAAQAAAAYAAABWAG8AbAB1AG0AZQAAAAAAAACAPzEAAAAGAAAAAQAAAA4AAAA8AHsAWwBhAHUAdABvAG4AYQBtAGUAXQB9
        AD4AAAAAAAAAgD//////BwAAAAEAAAAOAAAAPAB7AFsAYQB1AHQAbwBuAGEAbQBlAF0AfQA+AAAAAAAAAIA//////wgAAAABAAAACAAAAAcAAABQAGUAYQBrACAARQBR
        AAEAAAAGAAAATwBuAC8ATwBmAGYAAAAAAAAAgD8yAAAAAQAAAAEAAAAIAAAAUABlAGEAawAgADEAIABYAAAAAAAAAIA/MwAAAAIAAAABAAAACAAAAFAAZQBhAGsAIAAx
        ACAAWQAAAAAAAACAPzQAAAADAAAAAQAAAAgAAABQAGUAYQBrACAAMgAgAFgAAAAAAAAAgD82AAAABAAAAAEAAAAJAAAAUABlAGEAawAgADIAIABZACAAAAAAAAAAgD83
        AAAABQAAAAEAAAACAAAAUQAxAAAAAAAAAIA/NQAAAAYAAAABAAAAAgAAAFEAMgAAAAAAAACAPzgAAAAHAAAAAQAAAAYAAABWAG8AbAB1AG0AZQAAAAAAAACAPzkAAAAI
        AAAAAQAAAAgAAAAIAAAAVABhAGwAawAgAFcAYQBoAAEAAAAGAAAATwBuAC8ATwBmAGYAAAAAAAAAgD86AAAAAQAAAAEAAAAFAAAATQBvAHUAdABoAAAAAAAAAIA/OwAA
        AAIAAAABAAAACAAAAE0AbwBkAHcAaABlAGUAbAAAAAAAAACAPzwAAAADAAAAAQAAAAQAAABTAGkAegBlAAAAAAAAAIA/PQAAAAQAAAABAAAABgAAAEIAcgBpAGcAaAB0
        AAAAAAAAAIA/PgAAAAUAAAABAAAADgAAADwAewBbAGEAdQB0AG8AbgBhAG0AZQBdAH0APgAAAAAAAACAP/////8GAAAAAQAAAA4AAAA8AHsAWwBhAHUAdABvAG4AYQBt
        AGUAXQB9AD4AAAAAAAAAgD//////BwAAAAEAAAAOAAAAPAB7AFsAYQB1AHQAbwBuAGEAbQBlAF0AfQA+AAAAAAAAAIA//////wgAAAABAAAACAAAAAYAAABQAGgAYQBz
        AGUAcgABAAAABgAAAE8AbgAvAE8AZgBmAAAAAAAAAIA/PwAAAAEAAAABAAAABAAAAFIAYQB0AGUAAAAAAAAAgD9AAAAAAgAAAAEAAAAHAAAATgBvAHQAYwBoAGUAcwAA
        AAAAAACAP0gAAAADAAAAAQAAAAUAAABDAG8AbABvAHIAAAAAAAAAgD9BAAAABAAAAAEAAAAJAAAAUwB3AGUAZQBwACAATQBpAG4AAAAAAAAAgD9DAAAABQAAAAEAAAAJ
        AAAAUwB3AGUAZQBwACAATQBhAHgAAAAAAAAAgD9EAAAABgAAAAEAAAAGAAAAUgBvAHQAYQB0AGUAAAAAAAAAgD9CAAAABwAAAAEAAAAHAAAARAByAHkALwBXAGUAdAAA
        AAAAAACAP0YAAAAIAAAAAQAAAAgAAAAHAAAARgBsAGEAbgBnAGUAcgABAAAABgAAAE8AbgAvAE8AZgBmAAAAAAAAAIA/SQAAAAEAAAABAAAABAAAAFIAYQB0AGUAAAAA
        AAAAgD9KAAAAAgAAAAEAAAAEAAAAUwB5AG4AYwAAAAAAAACAP08AAAADAAAAAQAAAAYAAABTAHQAYQB0AGkAYwAAAAAAAACAP0sAAAAEAAAAAQAAAAUAAABEAGUAcAB0
        AGgAAAAAAAAAgD9MAAAABQAAAAEAAAAFAAAAQwBvAGwAbwByAAAAAAAAAIA/TQAAAAYAAAABAAAABgAAAFIAbwB0AGEAdABlAAAAAAAAAIA/TgAAAAcAAAABAAAABwAA
        AEQAcgB5AC8AVwBlAHQAAAAAAAAAgD9RAAAACAAAAAEAAAAIAAAABwAAAFQAcgBlAG0AbwBsAG8AAQAAAAYAAABPAG4ALwBPAGYAZgAAAAAAAACAP1IAAAABAAAAAQAA
        AAQAAABSAGEAdABlAAAAAAAAAIA/UwAAAAIAAAABAAAABAAAAFMAeQBuAGMAAAAAAAAAgD9VAAAAAwAAAAEAAAAJAAAASQBuAHQAZQBuAHMAaQB0AHkAAAAAAAAAgD9U
        AAAABAAAAAEAAAAGAAAAUwB0AGUAcgBlAG8AAAAAAAAAgD9WAAAABQAAAAEAAAAFAAAAVwBpAGQAdABoAAAAAAAAAIA/VwAAAAYAAAABAAAABgAAAEEAdAB0AGEAYwBr
        AAAAAAAAAIA/WAAAAAcAAAABAAAABQAAAEQAZQBjAGEAeQAAAAAAAACAP1kAAAAIAAAAAQAAAAgAAAAGAAAAUgBlAHYAZQByAGIAAQAAAAYAAABPAG4ALwBPAGYAZgAA
        AAAAAACAP1oAAAABAAAAAQAAAAQAAABUAGkAbQBlAAAAAAAAAIA/XQAAAAIAAAABAAAABgAAAEIAcgBpAGcAaAB0AAAAAAAAAIA/XAAAAAMAAAABAAAABgAAAFQAcgBl
        AGIAbABlAAAAAAAAAIA/XgAAAAQAAAABAAAABwAAAEQAcgB5AC8AVwBlAHQAAAAAAAAAgD9bAAAABQAAAAEAAAAOAAAAPAB7AFsAYQB1AHQAbwBuAGEAbQBlAF0AfQA+
        AAAAAAAAAIA//////wYAAAABAAAADgAAADwAewBbAGEAdQB0AG8AbgBhAG0AZQBdAH0APgAAAAAAAACAP/////8HAAAAAQAAAA4AAAA8AHsAWwBhAHUAdABvAG4AYQBt
        AGUAXQB9AD4AAAAAAAAAgD//////CAAAAAEAAAAIAAAACQAAAFAAcwB5ACAARABlAGwAYQB5AAEAAAAGAAAATwBuAC8ATwBmAGYAAAAAAAAAgD9fAAAAAQAAAAEAAAAE
        AAAAVABpAG0AZQAAAAAAAACAP2EAAAACAAAAAQAAAAgAAABGAGUAZQBkAGIAYQBjAGsAAAAAAAAAgD9kAAAAAwAAAAEAAAAHAAAAUgBlAHYAZQByAHMAZQAAAAAAAACA
        P2IAAAAEAAAAAQAAAAYAAABTAHQAZQByAGUAbwAAAAAAAACAP2cAAAAFAAAAAQAAAAYAAABEAGUAdAB1AG4AZQAAAAAAAACAP2MAAAAGAAAAAQAAAAUAAABQAGkAdABj
        AGgAAAAAAAAAgD9lAAAABwAAAAEAAAAHAAAARAByAHkALwBXAGUAdAAAAAAAAACAP2AAAAAIAAAAAQAAAAgAAAAJAAAAQwBoAHIAIABEAGUAbABhAHkAAQAAAAYAAABP
        AG4ALwBPAGYAZgAAAAAAAACAP28AAAABAAAAAQAAAAQAAABUAGkAbQBlAAAAAAAAAIA/aAAAAAIAAAABAAAABgAAAEwAbwAgAEMAdQB0AAAAAAAAAIA/bQAAAAMAAAAB
        AAAABgAAAEgAaQAgAEMAdQB0AAAAAAAAAIA/bAAAAAQAAAABAAAACAAAAEYAZQBlAGQAYgBhAGMAawAAAAAAAACAP2sAAAAFAAAAAQAAAAgAAABNAG8AZAAgAFIAYQB0
        AGUAAAAAAAAAgD9xAAAABgAAAAEAAAAJAAAATQBvAGQAIABEAGUAcAB0AGgAAAAAAAAAgD9qAAAABwAAAAEAAAAHAAAARAByAHkALwBXAGUAdAAAAAAAAACAP3AAAAAI
        AAAAAQAAAAAAAAABAAAARFNJTnQAAACaBgAAAAAAAAEAAABoc2luAQAAAAAAAABfAjRqxWnsToleTuDmPxvIagYAAAAAAABEU0lOdAAAAAEAAABRBgAAAAAAAERTSU5z
        AAAAAQAAABgAAAAAAAAARFNJTgEAAAABAAAAAQAAAAEAAAABmBAAABgGAAACmBAAYAAAASAFA2hzaW5AB0AAEMi6ABcODQlDrNzYancP+McYQBQgAANEU0lOQCPgBwNA
        AEAbAG0gCAFEECAEIABAI+ADUxB1oWnz+VgsSrdZ344DzJatFKAnwDdAL+AXZ0AjAcwPIFwgAAAFIAMBPg0gBCAACHRzcnBFOE1GzyALA7wjAABAIg5GdWxsIEJsYXN0
        IExlYWRAbRBBbmdyeSBEaXN0b3J0aW9uCyAuBUNob3J1c2AiQEwMUmh5dGhtIEd1aXRhciAeIAAE+EEAAHAgAwAAIAMCgD8A4BAAAkhCAOAQH2A3A0AAAAwgIwAsIANg
        D+ACAGAPIB8AiCAbQABgD+AEAA5SuF4+ZMz9Pv1llz4AABAghwiAP+CcMT8mwlZgCxIAAMBAzcyGwXJokT4M12/BCGbmICcEAADNzMxABwM/mpkZICMAAKADBIA/WxG0
        YBcG2or9PlkgKWAfBm+BND/UCQhAI0AA4AcHAwDKMiQgE0BrwACACwSuR+E9AIAAIMMEAABUUicgJwwAAHL5Hz/KMqQ+OQpP4QA7Ai5ug0B3BwALJBg/exSuIAuAQwr4
        wgQ/QKS/PutROGA7AylcDz9AIwIsQyxAD0ADAwA9m9XAZwYA9igdQjcaQQdAAACAYHcAAGBLAJwhQwDGIAMA4KATAMggC8AAQGtAK8GrQA/gFwAQgD/NzGw/XI9CPhiV
        1D4wKqkgs+ADAEBfQAPAAEBbACAg70AAQAtAAwCgIINAB0AAALQgCwCWIAPgAwDAP0AHQAPAAEAz4ItLADAg30CXQKsAiiDLAEAgA+Af4yAAAANgAAIBAQKAAAMAAAEE
        YAACAgIDIB2AAA42PCgbBQ4MAAAnJCItIi2AFOAFACA4gAAA/oAG4DwAAGQgAeBKAAQBAf8BAUS/4AAAIA7gEABgHOAAKWAAAEAhcgOYQdUJgrIC4/J/YxLgCwACuB4F
        YBsGCtcjvlyPgmALwACgWeAEW+BEWeAEAOA+WUAAIAUAAOACAOA9WQEEACPdDN/MhkLh2l5Et8sCQhIi2eARFAesPZ1BzwDgRUApAxCA30NgKQAAJXgDEELCRoMMAB6A
        FEApAr9WfGApAAsjKeAKKQGeQiK+BIA/+lDOIzsBgD/gBAwjBUBYQANDYQGAP2A/BnzVij6PwnVgAwPMvIwr4BEUAwfwFj/gCCkDhMBqP0A2wANgPuAcKWCbQIZAOuAE
        DCCo4AUACwSS7Xw+kMI1Pw8tUiAyAABgdeARFAZWDg0/Z2Zm4AUpBq5HAT9xPWrgBRTgHCkgmwIAP2YgT0AD4AQMQKhgUEAhQANAECAABGBCt23bIYAB/kLgABADAMDa
        QkAQQD8gAAB84AMMAIgjhOAAGSAqIAygNyAZ4AU3AnBCDSAdYrRACAUDFDsxwQBgAAnIwAAAXMED2YkdoBAFoL/FTmzAoG8FAAB2YqfB4AAMQADgAAwgJgDBoG9AAEBI
        AAzgBSoIAbw0jMJfUczAQCZg6CAoYAPgCBBAVWAZQCHgEQzgFTdA32BAIERAAAIyEgElsqAAAi0BKKAJ4BAAADLgEBngCgABUGTnBHoAUOAKIuAHAOAEXwFQUOAVMgJQ
        ZDjgBC/gHgAAZCAA4B4qAQBHIAPgIwDgIFjgZwAA/+AXACReAwAAEGQiPgFaXSAJAgEAEkAERM9CayXPJ7WgCQAB4AAJAALgAAkAA6AJAgEBBMAJAwAF/gOAMQEABuAA
        CQIH/gWAEwEBCKAnAgAACeAACeAJYyh0g1AgTyCbIAxACSCsgAkCAQUBoGMDAQYA/mATIGMA/+AAYwH/B6ATAQkASLdAOyA6YBMgMqAJIMcBAPugEwAD4AAJAgQA96AT
        AAWgCSDHoAkEAQEHAPlAHSAAAggA/UAJIEUACeAAO+ADYyC14EkAABGgUgNrbmFiQH3AAAGAACAAABmgEQNjdG5pTWYBEScgFCAAAEEgAyAARqIBoELiEw8BdADiATBN
        m+ATK+D9AOCpAAAgIeNAAANzaXVnQiQA6OICpwAVIBgAGSADQshAAyNuYAAHZ3B0Y1lUTUVADAsNYmWFAQAAAAAAAAABAAAAAAEAAAAAAAAA
        ADxkaXNhYmxlZD4AEAAAAA==
      >
      PRESETNAME <disabled>
      FLOATPOS 0 0 0 0
      FXID {F3E22D32-F9AC-470F-BC65-8B809ED8A3DC}
      WAK 0 0
    >
    <ITEM
      POSITION 2
      SNAPOFFS 0
      LENGTH 12
      LOOP 1
      ALLTAKES 0
      FADEIN 1 0 0 1 0 0
      FADEOUT 1 0 0 1 0 0
      MUTE 0 0
      SEL 0
      IGUID {95B81D47-AAFB-48C5-83FF-8D6FD8CB3F21}
      IID 8
      NAME "Melodía libre (solo) - Marty.mid"
      VOLPAN 1 0 1 -1
      SOFFS 0 0
      PLAYRATE 1 1 0 -1 0 0.0025
      CHANMODE 0
      GUID {3777F423-C4A6-43C6-9B6E-30AB60361E2B}
      <SOURCE MIDI
        HASDATA 1 960 QN
        CCINTERP 32
        POOLEDEVTS {4B27C7C5-EDAE-475F-9AEF-4C5A9FDB40CC}
        <X 0 0 0 0 3 "Melodía libre (solo)"
          /wNNZWxvZMOtYSBsaWJyZSAoc29sbyk=
        >
        E 0 c7 1e 00
        E 0 b7 40 00
        E 0 b7 0a 40
        E 0 b7 5b 3b
        E 0 97 3e 51
        E 0 97 4a 51
        E 0 b7 79 00
        E 480 87 3e 00
        E 0 87 4a 00
        E 0 97 3e 12
        E 480 87 3e 00
        E 0 97 3e 12
        E 480 87 3e 00
        E 0 97 40 4f
        E 0 97 4c 4f
        E 480 87 40 00
        E 0 87 4c 00
        E 0 97 40 18
        E 480 87 40 00
        E 0 97 40 15
        E 480 87 40 00
        E 0 97 41 51
        E 0 97 4d 51
        E 480 87 41 00
        E 0 87 4d 00
        E 0 97 41 16
        E 480 87 41 00
        E 0 97 42 57
        E 0 97 4e 57
        E 480 87 42 00
        E 0 87 4e 00
        E 0 97 42 17
        E 480 87 42 00
        E 0 97 42 16
        E 480 87 42 00
        E 0 97 43 53
        E 0 97 4f 53
        E 480 87 43 00
        E 0 87 4f 00
        E 0 97 43 1b
        E 480 87 43 00
        E 0 97 42 4d
        E 0 97 4e 4d
        E 480 87 42 00
        E 0 87 4e 00
        E 0 97 40 46
        E 0 97 4c 46
        E 480 87 40 00
        E 0 87 4c 00
        E 0 97 3e 42
        E 0 97 4a 42
        E 480 87 3e 00
        E 0 87 4a 00
        E 0 97 40 4d
        E 0 97 4c 4d
        E 480 87 40 00
        E 0 87 4c 00
        E 0 97 40 10
        E 480 87 40 00
        E 0 97 40 10
        E 480 87 40 00
        E 0 97 3e 44
        E 0 97 4a 44
        E 480 87 3e 00
        E 0 87 4a 00
        E 0 97 3e 0e
        E 480 87 3e 00
        E 0 97 3e 0e
        E 480 87 3e 00
        E 0 97 3c 43
        E 0 97 48 43
        E 480 87 3c 00
        E 0 87 48 00
        E 0 97 3c 0b
        E 480 87 3c 00
        E 0 97 3b 48
        E 0 97 47 48
        E 480 87 3b 00
        E 0 87 47 00
        E 0 97 3b 0c
        E 480 87 3b 00
        E 0 97 3b 0d
        E 480 87 3b 00
        E 0 97 3c 4b
        e 0 97 48 4a
        E 480 87 3c 00
        e 0 87 48 00
        E 0 97 3e 56
        E 0 97 4a 56
        E 480 87 3e 00
        E 0 87 4a 00
        E 0 97 3e 18
        E 480 87 3e 00
        E 0 97 3e 18
        E 480 87 3e 00
        E 0 97 40 55
        E 0 97 4c 55
        E 480 b7 65 00
        E 0 b7 64 00
        E 0 b7 06 04
        E 0 b7 26 00
        E 0 e7 00 40
        E 0 87 40 00
        E 0 87 4c 00
        E 0 97 42 5d
        E 0 97 4e 5d
        E 480 e7 00 40
        E 15 e7 78 3d
        E 15 e7 70 3b
        E 15 e7 68 39
        E 15 e7 5f 37
        E 15 e7 57 35
        E 15 e7 4f 33
        E 15 e7 47 31
        E 15 e7 3e 2f
        E 15 e7 36 2d
        E 15 e7 2e 2b
        E 15 e7 26 29
        E 15 e7 1d 27
        E 15 e7 15 25
        E 15 e7 0d 23
        E 15 e7 05 21
        E 15 e7 7c 1e
        E 15 e7 74 1c
        E 15 e7 6c 1a
        E 15 e7 64 18
        E 15 e7 5b 16
        E 15 e7 53 14
        E 15 e7 4b 12
        E 15 e7 43 10
        E 15 e7 3a 0e
        E 15 e7 32 0c
        E 15 e7 2a 0a
        E 15 e7 22 08
        E 15 e7 19 06
        E 15 e7 11 04
        E 15 e7 09 02
        E 15 e7 01 00
        E 491 e7 00 40
        E 4 87 42 00
        E 0 87 4e 00
        E 0 97 3e 4b
        E 0 97 4a 4b
        E 2400 87 3e 00
        E 0 87 4a 00
        E 480 97 47 4a
        E 480 b7 65 00
        E 0 b7 64 00
        E 0 b7 06 02
        E 0 b7 26 00
        E 0 e7 00 40
        E 0 87 47 00
        E 0 97 4a 4d
        E 161 e7 00 40
        E 15 e7 0e 47
        E 15 e7 1c 4e
        E 15 e7 2a 55
        E 15 e7 38 5c
        E 15 e7 47 63
        E 15 e7 55 6a
        E 15 e7 63 71
        E 15 e7 71 78
        E 15 e7 7f 7f
        E 180 e7 00 40
        E 4 87 4a 00
        E 0 97 4c 50
        E 960 87 4c 00
        E 0 97 4a 4c
        E 480 87 4a 00
        E 0 97 47 47
        E 480 87 47 00
        E 0 97 45 44
        E 480 87 45 00
        E 0 97 48 51
        E 480 87 48 00
        E 0 97 47 49
        E 480 87 47 00
        E 480 97 45 46
        E 480 87 45 00
        E 480 97 43 44
        E 480 87 43 00
        E 480 97 42 45
        E 1440 b7 65 00
        E 0 b7 64 00
        E 0 b7 06 03
        E 0 b7 26 00
        E 0 e7 00 40
        E 0 87 42 00
        E 0 97 42 49
        E 161 e7 00 40
        E 15 e7 0e 47
        E 15 e7 1c 4e
        E 15 e7 2a 55
        E 15 e7 38 5c
        E 15 e7 47 63
        E 15 e7 55 6a
        E 15 e7 63 71
        E 15 e7 71 78
        E 15 e7 7f 7f
        E 180 e7 00 40
        E 4 87 42 00
        E 0 97 45 4f
        E 480 87 45 00
        E 0 97 43 4e
        E 480 87 43 00
        E 0 97 42 49
        E 480 87 42 00
        E 0 97 40 45
        E 480 87 40 00
        E 0 97 42 4c
        E 480 87 42 00
        E 0 b0 7b 00
        CCINTERP 32
        CHASE_CC_TAKEOFFS 1
        GUID {B4422515-25D7-47ED-AFE2-9B91F3D28812}
        IGNTEMPO 0 120 4 4
        SRCCOLOR 9
        VELLANE -1 100 0
        CFGEDITVIEW 0 0.022266 48 12 0 -1 0 0 0 0.5
        KEYSNAP 0
        TRACKSEL 0
        EVTFILTER 0 -1 -1 -1 -1 0 0 0 0 -1 -1 -1 -1 0 -1 0 -1 -1
        CFGEDIT 1 1 0 1 0 0 1 1 1 0 1 0.125 -8 -8 1374 736 0 0 0 0 0 0 0 1 0 0.5 0 0 1 64
      >
    >
    <ITEM
      POSITION 15.5
      SNAPOFFS 0
      LENGTH 12
      LOOP 1
      ALLTAKES 0
      FADEIN 1 0 0 1 0 0
      FADEOUT 1 0 0 1 0 0
      MUTE 0 0
      SEL 0
      IGUID {DD07347D-F2F1-468F-8646-533984FE1AC1}
      IID 17
      NAME "Melodía libre (solo) - Marty.mid"
      VOLPAN 1 0 1 -1
      SOFFS 12 32
      PLAYRATE 1 1 0 -1 0 0.0025
      CHANMODE 0
      GUID {B1E4B412-0B9E-429D-A99B-54FD289614AE}
      <SOURCE MIDI
        HASDATA 1 960 QN
        CCINTERP 32
        POOLEDEVTS {3FF02549-8959-47C2-B1D8-D1FA3C0193DA}
        <X 0 0 0 0 3 "Melodía libre (solo)"
          /wNNZWxvZMOtYSBsaWJyZSAoc29sbyk=
        >
        E 0 c7 1e 00
        E 0 b7 40 00
        E 0 b7 5b 30
        E 0 b7 0a 40
        E 0 b7 07 7f
        E 0 b7 0a 40
        E 0 b7 5b 3b
        E 0 97 3e 51
        E 0 97 4a 51
        E 0 b7 79 00
        E 480 87 3e 00
        E 0 87 4a 00
        E 0 97 3e 4c
        E 0 97 4a 4c
        E 480 87 3e 00
        E 0 87 4a 00
        E 0 97 3e 4c
        E 0 97 4a 4c
        E 480 87 3e 00
        E 0 87 4a 00
        E 0 97 40 4f
        E 0 97 4c 4f
        E 480 87 40 00
        E 0 87 4c 00
        E 0 97 40 52
        E 0 97 4c 52
        E 480 87 40 00
        E 0 87 4c 00
        E 0 97 40 4f
        E 0 97 4c 4f
        E 480 87 40 00
        E 0 87 4c 00
        E 0 97 41 51
        E 0 97 4d 51
        E 480 87 41 00
        E 0 87 4d 00
        E 0 97 41 50
        E 0 97 4d 50
        E 480 87 41 00
        E 0 87 4d 00
        E 0 97 42 57
        E 0 97 4e 57
        E 480 87 42 00
        E 0 87 4e 00
        E 0 97 42 51
        E 0 97 4e 51
        E 480 87 42 00
        E 0 87 4e 00
        E 0 97 42 50
        E 0 97 4e 50
        E 480 87 42 00
        E 0 87 4e 00
        E 0 97 43 53
        E 0 97 4f 53
        E 480 87 43 00
        E 0 87 4f 00
        E 0 97 43 55
        E 0 97 4f 55
        E 480 87 43 00
        E 0 87 4f 00
        E 0 97 42 4d
        E 0 97 4e 4d
        E 480 87 42 00
        E 0 87 4e 00
        E 0 97 40 46
        E 0 97 4c 46
        E 480 87 40 00
        E 0 87 4c 00
        E 0 97 3e 42
        E 0 97 4a 42
        E 480 87 3e 00
        E 0 87 4a 00
        E 0 97 40 4d
        E 0 97 4c 4d
        E 480 87 40 00
        E 0 87 4c 00
        E 0 97 40 4a
        E 0 97 4c 4a
        E 480 87 40 00
        E 0 87 4c 00
        E 0 97 40 4a
        E 0 97 4c 4a
        E 480 87 40 00
        E 0 87 4c 00
        E 0 97 3e 44
        E 0 97 4a 44
        E 480 87 3e 00
        E 0 87 4a 00
        E 0 97 3e 48
        E 0 97 4a 48
        E 480 87 3e 00
        E 0 87 4a 00
        E 0 97 3e 47
        E 0 97 4a 47
        E 480 87 3e 00
        E 0 87 4a 00
        E 0 97 3c 43
        E 0 97 48 43
        E 480 87 3c 00
        E 0 87 48 00
        E 0 97 3c 44
        E 0 97 48 44
        E 480 87 3c 00
        E 0 87 48 00
        E 0 97 3b 48
        E 0 97 47 48
        E 480 87 3b 00
        E 0 87 47 00
        E 0 97 3b 45
        E 0 97 47 45
        E 480 87 3b 00
        E 0 87 47 00
        E 0 97 3b 46
        E 0 97 47 46
        E 480 87 3b 00
        E 0 87 47 00
        E 0 97 3c 4b
        E 0 97 48 4b
        E 480 87 3c 00
        E 0 87 48 00
        E 0 97 3e 56
        E 0 97 4a 56
        E 480 87 3e 00
        E 0 87 4a 00
        E 0 97 3e 51
        E 0 97 4a 51
        E 480 87 3e 00
        E 0 87 4a 00
        E 0 97 3e 51
        E 0 97 4a 51
        E 480 87 3e 00
        E 0 87 4a 00
        E 0 97 40 55
        E 0 97 4c 55
        E 480 b7 65 00
        E 0 b7 64 00
        E 0 b7 06 04
        E 0 b7 26 00
        E 0 e7 00 40
        E 0 87 40 00
        E 0 87 4c 00
        E 0 97 42 5d
        E 0 97 4e 5d
        E 480 e7 00 40
        E 15 e7 78 3d
        E 15 e7 70 3b
        E 15 e7 68 39
        E 15 e7 5f 37
        E 15 e7 57 35
        E 15 e7 4f 33
        E 15 e7 47 31
        E 15 e7 3e 2f
        E 15 e7 36 2d
        E 15 e7 2e 2b
        E 15 e7 26 29
        E 15 e7 1d 27
        E 15 e7 15 25
        E 15 e7 0d 23
        E 15 e7 05 21
        E 15 e7 7c 1e
        E 15 e7 74 1c
        E 15 e7 6c 1a
        E 15 e7 64 18
        E 15 e7 5b 16
        E 15 e7 53 14
        E 15 e7 4b 12
        E 15 e7 43 10
        E 15 e7 3a 0e
        E 15 e7 32 0c
        E 15 e7 2a 0a
        E 15 e7 22 08
        E 15 e7 19 06
        E 15 e7 11 04
        E 15 e7 09 02
        E 15 e7 01 00
        E 491 e7 00 40
        E 4 87 42 00
        E 0 87 4e 00
        E 0 97 3e 4b
        E 0 97 4a 4b
        E 2400 87 3e 00
        E 0 87 4a 00
        E 480 97 47 4a
        E 480 b7 65 00
        E 0 b7 64 00
        E 0 b7 06 02
        E 0 b7 26 00
        E 0 e7 00 40
        E 0 87 47 00
        E 0 97 4a 4d
        E 161 e7 00 40
        E 15 e7 0e 47
        E 15 e7 1c 4e
        E 15 e7 2a 55
        E 15 e7 38 5c
        E 15 e7 47 63
        E 15 e7 55 6a
        E 15 e7 63 71
        E 15 e7 71 78
        E 15 e7 7f 7f
        E 180 e7 00 40
        E 4 87 4a 00
        E 0 97 4c 50
        E 960 87 4c 00
        E 0 97 4a 4c
        E 480 87 4a 00
        E 0 97 47 47
        E 480 87 47 00
        E 0 97 45 44
        E 480 87 45 00
        E 0 97 48 51
        E 480 87 48 00
        E 0 97 47 49
        E 480 87 47 00
        E 480 97 45 46
        E 480 87 45 00
        E 480 97 43 44
        E 480 87 43 00
        E 480 97 42 45
        E 1440 b7 65 00
        E 0 b7 64 00
        E 0 b7 06 03
        E 0 b7 26 00
        E 0 e7 00 40
        E 0 87 42 00
        E 0 97 42 49
        E 161 e7 00 40
        E 15 e7 0e 47
        E 15 e7 1c 4e
        E 15 e7 2a 55
        E 15 e7 38 5c
        E 15 e7 47 63
        E 15 e7 55 6a
        E 15 e7 63 71
        E 15 e7 71 78
        E 15 e7 7f 7f
        E 180 e7 00 40
        E 4 87 42 00
        E 0 97 45 4f
        E 480 87 45 00
        E 0 97 43 4e
        E 480 87 43 00
        E 0 97 42 49
        E 480 87 42 00
        E 0 97 40 45
        E 480 87 40 00
        E 0 97 42 4c
        E 480 87 42 00
        E 480 b7 65 00
        E 0 b7 64 00
        E 0 b7 06 02
        E 0 b7 26 00
        E 0 e7 00 40
        E 0 97 47 67
        E 0 97 45 5b
        E 161 e7 00 40
        E 15 e7 0e 47
        E 15 e7 1c 4e
        E 15 e7 2a 55
        E 15 e7 38 5c
        E 15 e7 47 63
        E 15 e7 55 6a
        E 15 e7 63 71
        E 15 e7 71 78
        E 15 e7 7f 7f
        E 180 e7 00 40
        E 4 87 45 00
        E 0 97 47 4d
        E 480 b7 65 00
        E 0 b7 64 00
        E 0 b7 06 02
        E 0 b7 26 00
        E 0 e7 00 40
        E 0 87 47 00
        E 0 97 47 65
        E 0 97 45 5a
        E 161 e7 00 40
        E 15 e7 0e 47
        E 15 e7 1c 4e
        E 15 e7 2a 55
        E 15 e7 38 5c
        E 15 e7 47 63
        E 15 e7 55 6a
        E 15 e7 63 71
        E 15 e7 71 78
        E 15 e7 7f 7f
        E 180 e7 00 40
        E 4 87 45 00
        E 0 97 47 51
        E 1920 87 47 00
        E 480 b7 65 00
        E 0 b7 64 00
        E 0 b7 06 02
        E 0 b7 26 00
        E 0 e7 00 40
        E 0 97 48 5e
        E 0 97 46 5b
        E 161 e7 00 40
        E 15 e7 0e 47
        E 15 e7 1c 4e
        E 15 e7 2a 55
        E 15 e7 38 5c
        E 15 e7 47 63
        E 15 e7 55 6a
        E 15 e7 63 71
        E 15 e7 71 78
        E 15 e7 7f 7f
        E 180 e7 00 40
        E 4 87 46 00
        E 0 97 48 4f
        E 480 b7 65 00
        E 0 b7 64 00
        E 0 b7 06 02
        E 0 b7 26 00
        E 0 e7 00 40
        E 0 87 48 00
        E 0 97 48 5c
        E 0 97 46 5a
        E 161 e7 00 40
        E 15 e7 0e 47
        E 15 e7 1c 4e
        E 15 e7 2a 55
        E 15 e7 38 5c
        E 15 e7 47 63
        E 15 e7 55 6a
        E 15 e7 63 71
        E 15 e7 71 78
        E 15 e7 7f 7f
        E 180 e7 00 40
        E 4 87 46 00
        E 0 97 48 52
        E 1920 87 48 00
        E 480 b7 65 00
        E 0 b7 64 00
        E 0 b7 06 02
        E 0 b7 26 00
        E 0 e7 00 40
        E 0 97 47 4c
        E 15 e7 22 44
        E 15 e7 44 48
        E 15 e7 66 4c
        E 15 e7 08 51
        E 15 e7 2a 55
        E 15 e7 4c 59
        E 15 e7 6e 5d
        E 15 e7 11 62
        E 15 e7 33 66
        E 15 e7 55 6a
        E 15 e7 77 6e
        E 15 e7 19 73
        E 15 e7 3b 77
        E 15 e7 5d 7b
        E 15 e7 7f 7f
        E 11 e7 00 40
        E 4 b7 65 00
        E 0 b7 64 00
        E 0 b7 06 02
        E 0 b7 26 00
        E 0 e7 00 40
        E 0 87 47 00
        E 0 97 49 4d
        E 15 e7 5e 3b
        E 15 e7 3c 37
        E 15 e7 1a 33
        E 15 e7 78 2e
        E 15 e7 56 2a
        E 15 e7 34 26
        E 15 e7 12 22
        E 15 e7 6f 1d
        E 15 e7 4d 19
        E 15 e7 2b 15
        E 15 e7 09 11
        E 15 e7 67 0c
        E 15 e7 45 08
        E 15 e7 23 04
        E 15 e7 00 00
        E 11 e7 00 40
        E 4 87 49 00
        E 0 97 47 4b
        E 480 87 47 00
        E 0 97 45 49
        E 480 87 45 00
        E 0 97 47 50
        E 480 87 47 00
        E 0 97 45 49
        E 480 87 45 00
        E 0 97 42 43
        E 480 87 42 00
        E 0 97 40 42
        E 480 87 40 00
        E 0 97 42 4b
        E 240 87 42 00
        E 0 97 43 4a
        E 240 87 43 00
        E 0 97 42 47
        E 480 87 42 00
        E 0 97 40 43
        E 480 87 40 00
        E 0 97 3e 41
        E 480 87 3e 00
        E 0 97 3d 44
        E 240 87 3d 00
        E 0 97 3d 42
        E 240 87 3d 00
        E 0 97 3c 41
        E 240 87 3c 00
        E 0 97 3c 42
        E 240 87 3c 00
        E 0 97 3b 41
        E 240 87 3b 00
        E 0 97 3b 42
        E 240 87 3b 00
        E 0 97 3a 41
        E 240 87 3a 00
        E 0 97 3a 42
        E 240 87 3a 00
        E 0 97 39 45
        E 240 87 39 00
        E 0 97 39 42
        E 240 87 39 00
        E 0 97 39 43
        E 240 87 39 00
        E 0 97 39 44
        E 240 87 39 00
        E 0 97 37 41
        E 240 87 37 00
        E 0 97 37 42
        E 240 87 37 00
        E 0 97 37 43
        E 240 87 37 00
        E 0 97 37 44
        E 240 87 37 00
        E 0 97 39 4d
        E 240 87 39 00
        E 0 97 39 4a
        E 240 87 39 00
        E 0 97 39 4b
        E 240 87 39 00
        E 0 97 39 4b
        E 240 87 39 00
        E 0 97 3b 51
        E 240 87 3b 00
        E 0 97 3b 51
        E 240 87 3b 00
        E 0 97 3b 51
        E 240 87 3b 00
        E 0 97 3b 50
        E 240 87 3b 00
        E 0 97 39 4f
        E 240 87 39 00
        E 0 97 39 4b
        E 240 87 39 00
        E 0 97 39 4b
        E 240 87 39 00
        E 0 97 39 4b
        E 240 87 39 00
        E 0 97 3e 57
        E 240 87 3e 00
        E 0 97 3e 56
        E 240 87 3e 00
        E 0 97 40 58
        E 960 87 40 00
        E 0 97 42 58
        E 1440 87 42 00
        E 480 97 43 53
        E 240 87 43 00
        E 240 97 42 50
        E 240 87 42 00
        E 240 97 40 4c
        E 240 87 40 00
        E 240 97 3e 4c
        E 240 87 3e 00
        E 240 97 42 4f
        E 240 87 42 00
        E 240 97 40 4b
        E 240 87 40 00
        E 240 97 3e 49
        E 240 87 3e 00
        E 240 97 3c 4b
        E 240 87 3c 00
        E 240 97 42 50
        E 240 87 42 00
        E 240 97 3f 4b
        E 240 87 3f 00
        E 240 97 3e 4a
        E 240 87 3e 00
        E 240 97 3c 4b
        E 240 87 3c 00
        E 240 97 3f 4d
        E 240 87 3f 00
        E 240 97 3e 4b
        E 240 87 3e 00
        E 240 97 3d 4a
        E 240 87 3d 00
        E 240 b0 7b 00
        CCINTERP 32
        CHASE_CC_TAKEOFFS 1
        GUID {71F62E0C-C5FB-462A-9304-BDE7ACACF618}
        IGNTEMPO 0 120 4 4
        SRCCOLOR 18
        VELLANE -1 100 0
        CFGEDITVIEW 28012.564545 0.014826 48 12 0 -1 0 0 0 0.5
        KEYSNAP 0
        TRACKSEL 0
        EVTFILTER 0 -1 -1 -1 -1 0 0 0 0 -1 -1 -1 -1 0 -1 0 -1 -1
        CFGEDIT 1 1 0 1 0 0 1 1 1 0 1 0.125 8 8 1374 736 0 0 0 0 0 0 0 1 0 0.5 0 0 1 64
      >
    >
    <ITEM
      POSITION 29
      SNAPOFFS 0
      LENGTH 12
      LOOP 1
      ALLTAKES 0
      FADEIN 1 0 0 1 0 0
      FADEOUT 1 0 0 1 0 0
      MUTE 0 0
      SEL 0
      IGUID {202AF021-EE9E-40A9-A2B2-3097D62FF532}
      IID 24
      NAME "Melodía libre (solo) - Marty.mid"
      VOLPAN 1 0 1 -1
      SOFFS 24 64
      PLAYRATE 1 1 0 -1 0 0.0025
      CHANMODE 0
      GUID {B2A4BD5B-0D31-4496-8B7F-948BCAE4C1F1}
      <SOURCE MIDI
        HASDATA 1 960 QN
        CCINTERP 32
        POOLEDEVTS {8D7BC711-7E4B-4FAE-82F7-B192B3E52723}
        <X 0 0 0 0 3 "Melodía libre (solo)"
          /wNNZWxvZMOtYSBsaWJyZSAoc29sbyk=
        >
        E 0 c7 1e 00
        E 0 b7 40 00
        E 0 b7 5b 30
        E 0 b7 0a 40
        E 0 b7 07 7f
        E 0 b7 0a 40
        E 0 b7 5b 3b
        E 0 97 3e 51
        E 0 97 4a 51
        E 0 b7 79 00
        E 480 87 3e 00
        E 0 87 4a 00
        E 0 97 3e 4c
        E 0 97 4a 4c
        E 480 87 3e 00
        E 0 87 4a 00
        E 0 97 3e 4c
        E 0 97 4a 4c
        E 480 87 3e 00
        E 0 87 4a 00
        E 0 97 40 4f
        E 0 97 4c 4f
        E 480 87 40 00
        E 0 87 4c 00
        E 0 97 40 52
        E 0 97 4c 52
        E 480 87 40 00
        E 0 87 4c 00
        E 0 97 40 4f
        E 0 97 4c 4f
        E 480 87 40 00
        E 0 87 4c 00
        E 0 97 41 51
        E 0 97 4d 51
        E 480 87 41 00
        E 0 87 4d 00
        E 0 97 41 50
        E 0 97 4d 50
        E 480 87 41 00
        E 0 87 4d 00
        E 0 97 42 57
        E 0 97 4e 57
        E 480 87 42 00
        E 0 87 4e 00
        E 0 97 42 51
        E 0 97 4e 51
        E 480 87 42 00
        E 0 87 4e 00
        E 0 97 42 50
        E 0 97 4e 50
        E 480 87 42 00
        E 0 87 4e 00
        E 0 97 43 53
        E 0 97 4f 53
        E 480 87 43 00
        E 0 87 4f 00
        E 0 97 43 55
        E 0 97 4f 55
        E 480 87 43 00
        E 0 87 4f 00
        E 0 97 42 4d
        E 0 97 4e 4d
        E 480 87 42 00
        E 0 87 4e 00
        E 0 97 40 46
        E 0 97 4c 46
        E 480 87 40 00
        E 0 87 4c 00
        E 0 97 3e 42
        E 0 97 4a 42
        E 480 87 3e 00
        E 0 87 4a 00
        E 0 97 40 4d
        E 0 97 4c 4d
        E 480 87 40 00
        E 0 87 4c 00
        E 0 97 40 4a
        E 0 97 4c 4a
        E 480 87 40 00
        E 0 87 4c 00
        E 0 97 40 4a
        E 0 97 4c 4a
        E 480 87 40 00
        E 0 87 4c 00
        E 0 97 3e 44
        E 0 97 4a 44
        E 480 87 3e 00
        E 0 87 4a 00
        E 0 97 3e 48
        E 0 97 4a 48
        E 480 87 3e 00
        E 0 87 4a 00
        E 0 97 3e 47
        E 0 97 4a 47
        E 480 87 3e 00
        E 0 87 4a 00
        E 0 97 3c 43
        E 0 97 48 43
        E 480 87 3c 00
        E 0 87 48 00
        E 0 97 3c 44
        E 0 97 48 44
        E 480 87 3c 00
        E 0 87 48 00
        E 0 97 3b 48
        E 0 97 47 48
        E 480 87 3b 00
        E 0 87 47 00
        E 0 97 3b 45
        E 0 97 47 45
        E 480 87 3b 00
        E 0 87 47 00
        E 0 97 3b 46
        E 0 97 47 46
        E 480 87 3b 00
        E 0 87 47 00
        E 0 97 3c 4b
        E 0 97 48 4b
        E 480 87 3c 00
        E 0 87 48 00
        E 0 97 3e 56
        E 0 97 4a 56
        E 480 87 3e 00
        E 0 87 4a 00
        E 0 97 3e 51
        E 0 97 4a 51
        E 480 87 3e 00
        E 0 87 4a 00
        E 0 97 3e 51
        E 0 97 4a 51
        E 480 87 3e 00
        E 0 87 4a 00
        E 0 97 40 55
        E 0 97 4c 55
        E 480 b7 65 00
        E 0 b7 64 00
        E 0 b7 06 04
        E 0 b7 26 00
        E 0 e7 00 40
        E 0 87 40 00
        E 0 87 4c 00
        E 0 97 42 5d
        E 0 97 4e 5d
        E 480 e7 00 40
        E 15 e7 78 3d
        E 15 e7 70 3b
        E 15 e7 68 39
        E 15 e7 5f 37
        E 15 e7 57 35
        E 15 e7 4f 33
        E 15 e7 47 31
        E 15 e7 3e 2f
        E 15 e7 36 2d
        E 15 e7 2e 2b
        E 15 e7 26 29
        E 15 e7 1d 27
        E 15 e7 15 25
        E 15 e7 0d 23
        E 15 e7 05 21
        E 15 e7 7c 1e
        E 15 e7 74 1c
        E 15 e7 6c 1a
        E 15 e7 64 18
        E 15 e7 5b 16
        E 15 e7 53 14
        E 15 e7 4b 12
        E 15 e7 43 10
        E 15 e7 3a 0e
        E 15 e7 32 0c
        E 15 e7 2a 0a
        E 15 e7 22 08
        E 15 e7 19 06
        E 15 e7 11 04
        E 15 e7 09 02
        E 15 e7 01 00
        E 491 e7 00 40
        E 4 87 42 00
        E 0 87 4e 00
        E 0 97 3e 4b
        E 0 97 4a 4b
        E 2400 87 3e 00
        E 0 87 4a 00
        E 480 97 47 4a
        E 480 b7 65 00
        E 0 b7 64 00
        E 0 b7 06 02
        E 0 b7 26 00
        E 0 e7 00 40
        E 0 87 47 00
        E 0 97 4a 4d
        E 161 e7 00 40
        E 15 e7 0e 47
        E 15 e7 1c 4e
        E 15 e7 2a 55
        E 15 e7 38 5c
        E 15 e7 47 63
        E 15 e7 55 6a
        E 15 e7 63 71
        E 15 e7 71 78
        E 15 e7 7f 7f
        E 180 e7 00 40
        E 4 87 4a 00
        E 0 97 4c 50
        E 960 87 4c 00
        E 0 97 4a 4c
        E 480 87 4a 00
        E 0 97 47 47
        E 480 87 47 00
        E 0 97 45 44
        E 480 87 45 00
        E 0 97 48 51
        E 480 87 48 00
        E 0 97 47 49
        E 480 87 47 00
        E 480 97 45 46
        E 480 87 45 00
        E 480 97 43 44
        E 480 87 43 00
        E 480 97 42 45
        E 1440 b7 65 00
        E 0 b7 64 00
        E 0 b7 06 03
        E 0 b7 26 00
        E 0 e7 00 40
        E 0 87 42 00
        E 0 97 42 49
        E 161 e7 00 40
        E 15 e7 0e 47
        E 15 e7 1c 4e
        E 15 e7 2a 55
        E 15 e7 38 5c
        E 15 e7 47 63
        E 15 e7 55 6a
        E 15 e7 63 71
        E 15 e7 71 78
        E 15 e7 7f 7f
        E 180 e7 00 40
        E 4 87 42 00
        E 0 97 45 4f
        E 480 87 45 00
        E 0 97 43 4e
        E 480 87 43 00
        E 0 97 42 49
        E 480 87 42 00
        E 0 97 40 45
        E 480 87 40 00
        E 0 97 42 4c
        E 480 87 42 00
        E 480 b7 65 00
        E 0 b7 64 00
        E 0 b7 06 02
        E 0 b7 26 00
        E 0 e7 00 40
        E 0 97 47 67
        E 0 97 45 5b
        E 161 e7 00 40
        E 15 e7 0e 47
        E 15 e7 1c 4e
        E 15 e7 2a 55
        E 15 e7 38 5c
        E 15 e7 47 63
        E 15 e7 55 6a
        E 15 e7 63 71
        E 15 e7 71 78
        E 15 e7 7f 7f
        E 180 e7 00 40
        E 4 87 45 00
        E 0 97 47 4d
        E 480 b7 65 00
        E 0 b7 64 00
        E 0 b7 06 02
        E 0 b7 26 00
        E 0 e7 00 40
        E 0 87 47 00
        E 0 97 47 65
        E 0 97 45 5a
        E 161 e7 00 40
        E 15 e7 0e 47
        E 15 e7 1c 4e
        E 15 e7 2a 55
        E 15 e7 38 5c
        E 15 e7 47 63
        E 15 e7 55 6a
        E 15 e7 63 71
        E 15 e7 71 78
        E 15 e7 7f 7f
        E 180 e7 00 40
        E 4 87 45 00
        E 0 97 47 51
        E 1920 87 47 00
        E 480 b7 65 00
        E 0 b7 64 00
        E 0 b7 06 02
        E 0 b7 26 00
        E 0 e7 00 40
        E 0 97 48 5e
        E 0 97 46 5b
        E 161 e7 00 40
        E 15 e7 0e 47
        E 15 e7 1c 4e
        E 15 e7 2a 55
        E 15 e7 38 5c
        E 15 e7 47 63
        E 15 e7 55 6a
        E 15 e7 63 71
        E 15 e7 71 78
        E 15 e7 7f 7f
        E 180 e7 00 40
        E 4 87 46 00
        E 0 97 48 4f
        E 480 b7 65 00
        E 0 b7 64 00
        E 0 b7 06 02
        E 0 b7 26 00
        E 0 e7 00 40
        E 0 87 48 00
        E 0 97 48 5c
        E 0 97 46 5a
        E 161 e7 00 40
        E 15 e7 0e 47
        E 15 e7 1c 4e
        E 15 e7 2a 55
        E 15 e7 38 5c
        E 15 e7 47 63
        E 15 e7 55 6a
        E 15 e7 63 71
        E 15 e7 71 78
        E 15 e7 7f 7f
        E 180 e7 00 40
        E 4 87 46 00
        E 0 97 48 52
        E 1920 87 48 00
        E 480 b7 65 00
        E 0 b7 64 00
        E 0 b7 06 02
        E 0 b7 26 00
        E 0 e7 00 40
        E 0 97 47 4c
        E 15 e7 22 44
        E 15 e7 44 48
        E 15 e7 66 4c
        E 15 e7 08 51
        E 15 e7 2a 55
        E 15 e7 4c 59
        E 15 e7 6e 5d
        E 15 e7 11 62
        E 15 e7 33 66
        E 15 e7 55 6a
        E 15 e7 77 6e
        E 15 e7 19 73
        E 15 e7 3b 77
        E 15 e7 5d 7b
        E 15 e7 7f 7f
        E 11 e7 00 40
        E 4 b7 65 00
        E 0 b7 64 00
        E 0 b7 06 02
        E 0 b7 26 00
        E 0 e7 00 40
        E 0 87 47 00
        E 0 97 49 4d
        E 15 e7 5e 3b
        E 15 e7 3c 37
        E 15 e7 1a 33
        E 15 e7 78 2e
        E 15 e7 56 2a
        E 15 e7 34 26
        E 15 e7 12 22
        E 15 e7 6f 1d
        E 15 e7 4d 19
        E 15 e7 2b 15
        E 15 e7 09 11
        E 15 e7 67 0c
        E 15 e7 45 08
        E 15 e7 23 04
        E 15 e7 00 00
        E 11 e7 00 40
        E 4 87 49 00
        E 0 97 47 4b
        E 480 87 47 00
        E 0 97 45 49
        E 480 87 45 00
        E 0 97 47 50
        E 480 87 47 00
        E 0 97 45 49
        E 480 87 45 00
        E 0 97 42 43
        E 480 87 42 00
        E 0 97 40 42
        E 480 87 40 00
        E 0 97 42 4b
        E 240 87 42 00
        E 0 97 43 4a
        E 240 87 43 00
        E 0 97 42 47
        E 480 87 42 00
        E 0 97 40 43
        E 480 87 40 00
        E 0 97 3e 41
        E 480 87 3e 00
        E 0 97 3d 44
        E 240 87 3d 00
        E 0 97 3d 42
        E 240 87 3d 00
        E 0 97 3c 41
        E 240 87 3c 00
        E 0 97 3c 42
        E 240 87 3c 00
        E 0 97 3b 41
        E 240 87 3b 00
        E 0 97 3b 42
        E 240 87 3b 00
        E 0 97 3a 41
        E 240 87 3a 00
        E 0 97 3a 42
        E 240 87 3a 00
        E 0 97 39 45
        E 240 87 39 00
        E 0 97 39 42
        E 240 87 39 00
        E 0 97 39 43
        E 240 87 39 00
        E 0 97 39 44
        E 240 87 39 00
        E 0 97 37 41
        E 240 87 37 00
        E 0 97 37 42
        E 240 87 37 00
        E 0 97 37 43
        E 240 87 37 00
        E 0 97 37 44
        E 240 87 37 00
        E 0 97 39 4d
        E 240 87 39 00
        E 0 97 39 4a
        E 240 87 39 00
        E 0 97 39 4b
        E 240 87 39 00
        E 0 97 39 4b
        E 240 87 39 00
        E 0 97 3b 51
        E 240 87 3b 00
        E 0 97 3b 51
        E 240 87 3b 00
        E 0 97 3b 51
        E 240 87 3b 00
        E 0 97 3b 50
        E 240 87 3b 00
        E 0 97 39 4f
        E 240 87 39 00
        E 0 97 39 4b
        E 240 87 39 00
        E 0 97 39 4b
        E 240 87 39 00
        E 0 97 39 4b
        E 240 87 39 00
        E 0 97 3e 57
        E 240 87 3e 00
        E 0 97 3e 56
        E 240 87 3e 00
        E 0 97 40 58
        E 960 87 40 00
        E 0 97 42 58
        E 1440 87 42 00
        E 480 97 43 53
        E 240 87 43 00
        E 240 97 42 50
        E 240 87 42 00
        E 240 97 40 4c
        E 240 87 40 00
        E 240 97 3e 4c
        E 240 87 3e 00
        E 240 97 42 4f
        E 240 87 42 00
        E 240 97 40 4b
        E 240 87 40 00
        E 240 97 3e 49
        E 240 87 3e 00
        E 240 97 3c 4b
        E 240 87 3c 00
        E 240 97 42 50
        E 240 87 42 00
        E 240 97 3f 4b
        E 240 87 3f 00
        E 240 97 3e 4a
        E 240 87 3e 00
        E 240 97 3c 4b
        E 240 87 3c 00
        E 240 97 3f 4d
        E 240 87 3f 00
        E 240 97 3e 4b
        E 240 87 3e 00
        E 240 97 3d 4a
        E 240 87 3d 00
        E 240 97 3e 51
        E 480 87 3e 00
        E 0 97 39 44
        E 480 87 39 00
        E 0 97 39 45
        E 240 87 39 00
        E 240 97 3b 4a
        E 480 87 3b 00
        E 0 97 3b 4e
        E 240 87 3b 00
        E 240 97 3e 51
        E 480 87 3e 00
        E 0 97 3e 51
        E 240 87 3e 00
        E 240 97 42 56
        E 480 87 42 00
        E 0 97 42 5a
        E 240 87 42 00
        E 240 97 40 50
        E 480 87 40 00
        E 0 97 40 4f
        E 240 87 40 00
        E 240 97 42 53
        E 480 87 42 00
        E 0 97 42 55
        E 240 87 42 00
        E 240 97 46 56
        E 480 87 46 00
        E 0 97 46 55
        E 240 87 46 00
        E 240 97 47 55
        E 480 87 47 00
        E 0 97 47 59
        E 240 87 47 00
        E 240 97 45 4e
        E 480 87 45 00
        E 0 97 45 4d
        E 240 87 45 00
        E 240 97 42 46
        E 480 87 42 00
        E 0 97 43 4c
        E 240 87 43 00
        E 240 97 42 47
        E 480 87 42 00
        E 0 97 40 44
        E 240 87 40 00
        E 240 97 3e 43
        E 480 b7 65 00
        E 0 b7 64 00
        E 0 b7 06 02
        E 0 b7 26 00
        E 0 e7 00 40
        E 0 87 3e 00
        E 0 97 3e 48
        E 15 e7 22 44
        E 15 e7 44 48
        E 15 e7 66 4c
        E 15 e7 08 51
        E 15 e7 2a 55
        E 15 e7 4c 59
        E 15 e7 6e 5d
        E 15 e7 11 62
        E 15 e7 33 66
        E 15 e7 55 6a
        E 15 e7 77 6e
        E 15 e7 19 73
        E 15 e7 3b 77
        E 15 e7 5d 7b
        E 15 e7 7f 7f
        E 11 e7 00 40
        E 4 b7 65 00
        E 0 b7 64 00
        E 0 b7 06 02
        E 0 b7 26 00
        E 0 e7 00 40
        E 0 87 3e 00
        E 0 97 40 49
        E 15 e7 5e 3b
        E 15 e7 3c 37
        E 15 e7 1a 33
        E 15 e7 78 2e
        E 15 e7 56 2a
        E 15 e7 34 26
        E 15 e7 12 22
        E 15 e7 6f 1d
        E 15 e7 4d 19
        E 15 e7 2b 15
        E 15 e7 09 11
        E 15 e7 67 0c
        E 15 e7 45 08
        E 15 e7 23 04
        E 15 e7 00 00
        E 11 e7 00 40
        E 4 87 40 00
        E 0 97 3e 44
        E 480 87 3e 00
        E 0 97 3b 41
        E 319 87 3b 00
        E 0 97 39 41
        E 319 87 39 00
        E 0 97 36 41
        E 322 87 36 00
        E 0 97 34 43
        E 319 87 34 00
        E 0 97 32 41
        E 319 87 32 00
        E 0 97 2f 41
        E 322 87 2f 00
        E 0 97 2d 41
        E 319 87 2d 00
        E 0 97 2a 41
        E 319 87 2a 00
        E 0 97 28 41
        E 322 87 28 00
        E 0 97 2b 47
        E 1920 87 2b 00
        E 319 97 2b 49
        E 319 87 2b 00
        E 0 97 2d 4c
        E 322 87 2d 00
        E 0 97 2f 4f
        E 319 87 2f 00
        E 0 97 30 51
        E 319 87 30 00
        E 0 97 32 54
        E 322 87 32 00
        E 0 97 30 54
        E 319 87 30 00
        E 0 97 32 54
        E 319 87 32 00
        E 0 97 34 56
        E 322 87 34 00
        E 0 97 36 58
        E 319 87 36 00
        E 0 97 37 58
        E 319 87 37 00
        E 0 97 39 58
        E 322 87 39 00
        E 0 97 3a 5b
        E 1440 87 3a 00
        E 0 97 39 58
        E 480 87 39 00
        E 0 97 36 53
        E 1920 87 36 00
        E 319 97 39 4e
        E 319 87 39 00
        E 0 97 3b 51
        E 322 87 3b 00
        E 0 97 3e 55
        E 319 87 3e 00
        E 0 97 40 56
        E 319 87 40 00
        E 0 97 42 57
        E 322 87 42 00
        E 0 97 3f 56
        E 480 87 3f 00
        E 0 97 40 53
        E 480 87 40 00
        E 0 97 42 55
        E 480 87 42 00
        E 0 97 47 58
        E 480 87 47 00
        E 0 97 49 5b
        E 960 87 49 00
        E 0 97 44 50
        E 960 87 44 00
        E 0 97 43 50
        E 3839 87 43 00
        E 1 b0 7b 00
        CCINTERP 32
        CHASE_CC_TAKEOFFS 1
        GUID {1FDDA635-2AF8-427D-A883-5DECF7182006}
        IGNTEMPO 0 120 4 4
        SRCCOLOR 25
      >
    >
  >
>
